M48
; DRILL file {KiCad 5.1.9+dfsg1-1~bpo10+1} date Fri Mar 11 22:21:21 2022
; FORMAT={2:4/ absolute / inch / suppress leading zeros}
; #@! TF.CreationDate,2022-03-11T22:21:21+08:00
; #@! TF.GenerationSoftware,Kicad,Pcbnew,5.1.9+dfsg1-1~bpo10+1
FMAT,2
INCH,TZ
T1C0.0157
T2C0.0315
T3C0.0374
T4C0.0394
%
G90
G05
T1
X41339Y-23622
X41929Y-45669
X42126Y-22441
X42126Y-24803
X42126Y-25591
X42323Y-46260
X42520Y-22047
X42520Y-23228
X42520Y-36811
X42520Y-45276
X42717Y-43898
X42913Y-35827
X42913Y-39567
X42913Y-40551
X42913Y-42126
X42913Y-44488
X42913Y-45866
X43701Y-45276
X43898Y-36024
X43898Y-36614
X43898Y-45669
X44094Y-35433
X44488Y-24409
X45276Y-24803
X46063Y-24803
X46063Y-28740
X46063Y-37008
X46063Y-37795
X46063Y-38976
X46063Y-39764
X46063Y-40945
X46063Y-41732
X46063Y-42913
X46220Y-50984
X46260Y-47441
X46260Y-48425
X46260Y-49409
X46457Y-24409
X46457Y-29921
X46575Y-52087
X46732Y-51378
X46850Y-29134
X46850Y-30315
X46850Y-33858
X47244Y-24803
X47244Y-31890
X47283Y-52244
X47441Y-37205
X48425Y-23622
X48819Y-23622
X48819Y-24803
X49606Y-26772
X49606Y-35827
X49606Y-43110
X49606Y-43701
X49617Y-49741
X50000Y-24803
X50000Y-29921
X50394Y-26378
X50394Y-29134
X50394Y-33858
X50394Y-35039
X50591Y-43898
X50591Y-44488
X50591Y-46457
X50787Y-31496
X50787Y-31890
X50787Y-32677
X50787Y-37402
X50787Y-38583
X51181Y-26772
X51181Y-29528
X51181Y-33858
X51575Y-25984
X51575Y-31890
X51575Y-32677
X51575Y-43898
X51969Y-28740
X51969Y-29528
X51969Y-31496
X51969Y-33858
X51969Y-43504
X52362Y-26378
X52362Y-31890
T2
X41634Y-28831
X41634Y-31831
X41732Y-48976
X41732Y-51976
X41803Y-36063
X41803Y-44567
X41811Y-37283
X41929Y-38465
X41929Y-39685
X41929Y-40906
X41929Y-42126
X41929Y-43346
X42087Y-32874
X42205Y-47402
X42835Y-28839
X42835Y-31839
X42913Y-48976
X42913Y-51976
X43898Y-38465
X43898Y-39685
X43898Y-40906
X43898Y-42126
X43898Y-43346
X44035Y-28839
X44035Y-31839
X44055Y-32874
X44094Y-48976
X44094Y-51976
X44173Y-47402
X44803Y-36063
X44803Y-44567
X44811Y-37283
X44874Y-38386
X44874Y-39370
X44874Y-40354
X44874Y-42402
X44874Y-43425
X44882Y-41378
X45268Y-28740
X45268Y-29740
X45268Y-30740
X45268Y-31740
X45268Y-32740
X45268Y-33740
X45268Y-34740
X45346Y-45827
X45346Y-46827
X45346Y-47827
X45346Y-48827
X45346Y-49827
X45346Y-50827
X45346Y-51827
X45472Y-26378
X45661Y-36063
X46457Y-26378
X47835Y-26378
X47874Y-38386
X47874Y-39370
X47874Y-40354
X47874Y-42402
X47874Y-43425
X47882Y-41378
X48268Y-28740
X48268Y-29740
X48268Y-30740
X48268Y-31740
X48268Y-32740
X48268Y-33740
X48268Y-34740
X48346Y-45827
X48346Y-46827
X48346Y-47827
X48346Y-48827
X48346Y-49827
X48346Y-50827
X48346Y-51827
X48661Y-36063
X48819Y-26378
X49606Y-42276
X49606Y-45276
X49646Y-27709
X49646Y-30709
X49685Y-32283
X49685Y-34252
X49685Y-46457
X49735Y-48087
X49735Y-51087
X49803Y-37441
X49803Y-38425
X49803Y-39724
X49803Y-40709
X50719Y-48079
X50719Y-51079
X50787Y-42283
X50787Y-45283
X50866Y-27717
X50866Y-30717
X51654Y-46457
X51822Y-48079
X51822Y-51079
X51969Y-42283
X51969Y-45283
X52087Y-27709
X52087Y-30709
T3
X51417Y-22520
X51417Y-23504
X51417Y-24488
T4
X41858Y-34449
X41929Y-27165
X42858Y-34449
X42929Y-27165
X43307Y-22795
X43307Y-23795
X43858Y-34449
X43929Y-27165
X44307Y-22795
X44307Y-23795
X45307Y-22795
X45307Y-23795
X45950Y-44480
X46307Y-22795
X46307Y-23795
X47307Y-22795
X47307Y-23795
X51772Y-35039
X51772Y-36039
X51772Y-37039
X51772Y-38039
X51772Y-39039
X51772Y-40039
X51772Y-41039
T0
M30
