%TF.GenerationSoftware,KiCad,Pcbnew,5.1.9+dfsg1-1~bpo10+1*%
%TF.CreationDate,2022-03-11T22:20:48+08:00*%
%TF.ProjectId,MiniVCF v1.1 - Front,4d696e69-5643-4462-9076-312e31202d20,rev?*%
%TF.SameCoordinates,Original*%
%TF.FileFunction,Legend,Top*%
%TF.FilePolarity,Positive*%
%FSLAX46Y46*%
G04 Gerber Fmt 4.6, Leading zero omitted, Abs format (unit mm)*
G04 Created by KiCad (PCBNEW 5.1.9+dfsg1-1~bpo10+1) date 2022-03-11 22:20:48*
%MOMM*%
%LPD*%
G01*
G04 APERTURE LIST*
%ADD10C,0.450000*%
%ADD11C,0.150000*%
%ADD12C,0.240000*%
%ADD13C,0.300000*%
G04 APERTURE END LIST*
D10*
X68500000Y-147500000D02*
G75*
G03*
X68500000Y-147500000I-4000000J0D01*
G01*
X53340000Y-64008000D02*
X56134000Y-66802000D01*
X55118000Y-74930000D02*
X52578000Y-76454000D01*
D11*
X57333333Y-98452380D02*
X56857142Y-98452380D01*
X56857142Y-97452380D01*
X57857142Y-97452380D02*
X58047619Y-97452380D01*
X58142857Y-97500000D01*
X58238095Y-97595238D01*
X58285714Y-97785714D01*
X58285714Y-98119047D01*
X58238095Y-98309523D01*
X58142857Y-98404761D01*
X58047619Y-98452380D01*
X57857142Y-98452380D01*
X57761904Y-98404761D01*
X57666666Y-98309523D01*
X57619047Y-98119047D01*
X57619047Y-97785714D01*
X57666666Y-97595238D01*
X57761904Y-97500000D01*
X57857142Y-97452380D01*
X58619047Y-97452380D02*
X58857142Y-98452380D01*
X59047619Y-97738095D01*
X59238095Y-98452380D01*
X59476190Y-97452380D01*
X59857142Y-98452380D02*
X59857142Y-97452380D01*
X60238095Y-97452380D01*
X60333333Y-97500000D01*
X60380952Y-97547619D01*
X60428571Y-97642857D01*
X60428571Y-97785714D01*
X60380952Y-97880952D01*
X60333333Y-97928571D01*
X60238095Y-97976190D01*
X59857142Y-97976190D01*
X60809523Y-98166666D02*
X61285714Y-98166666D01*
X60714285Y-98452380D02*
X61047619Y-97452380D01*
X61380952Y-98452380D01*
X61666666Y-98404761D02*
X61809523Y-98452380D01*
X62047619Y-98452380D01*
X62142857Y-98404761D01*
X62190476Y-98357142D01*
X62238095Y-98261904D01*
X62238095Y-98166666D01*
X62190476Y-98071428D01*
X62142857Y-98023809D01*
X62047619Y-97976190D01*
X61857142Y-97928571D01*
X61761904Y-97880952D01*
X61714285Y-97833333D01*
X61666666Y-97738095D01*
X61666666Y-97642857D01*
X61714285Y-97547619D01*
X61761904Y-97500000D01*
X61857142Y-97452380D01*
X62095238Y-97452380D01*
X62238095Y-97500000D01*
X62619047Y-98404761D02*
X62761904Y-98452380D01*
X63000000Y-98452380D01*
X63095238Y-98404761D01*
X63142857Y-98357142D01*
X63190476Y-98261904D01*
X63190476Y-98166666D01*
X63142857Y-98071428D01*
X63095238Y-98023809D01*
X63000000Y-97976190D01*
X62809523Y-97928571D01*
X62714285Y-97880952D01*
X62666666Y-97833333D01*
X62619047Y-97738095D01*
X62619047Y-97642857D01*
X62666666Y-97547619D01*
X62714285Y-97500000D01*
X62809523Y-97452380D01*
X63047619Y-97452380D01*
X63190476Y-97500000D01*
D12*
X56604761Y-96569047D02*
X56604761Y-94869047D01*
X57252380Y-94869047D01*
X57414285Y-94950000D01*
X57495238Y-95030952D01*
X57576190Y-95192857D01*
X57576190Y-95435714D01*
X57495238Y-95597619D01*
X57414285Y-95678571D01*
X57252380Y-95759523D01*
X56604761Y-95759523D01*
X58223809Y-96083333D02*
X59033333Y-96083333D01*
X58061904Y-96569047D02*
X58628571Y-94869047D01*
X59195238Y-96569047D01*
X59680952Y-96488095D02*
X59923809Y-96569047D01*
X60328571Y-96569047D01*
X60490476Y-96488095D01*
X60571428Y-96407142D01*
X60652380Y-96245238D01*
X60652380Y-96083333D01*
X60571428Y-95921428D01*
X60490476Y-95840476D01*
X60328571Y-95759523D01*
X60004761Y-95678571D01*
X59842857Y-95597619D01*
X59761904Y-95516666D01*
X59680952Y-95354761D01*
X59680952Y-95192857D01*
X59761904Y-95030952D01*
X59842857Y-94950000D01*
X60004761Y-94869047D01*
X60409523Y-94869047D01*
X60652380Y-94950000D01*
X61300000Y-96488095D02*
X61542857Y-96569047D01*
X61947619Y-96569047D01*
X62109523Y-96488095D01*
X62190476Y-96407142D01*
X62271428Y-96245238D01*
X62271428Y-96083333D01*
X62190476Y-95921428D01*
X62109523Y-95840476D01*
X61947619Y-95759523D01*
X61623809Y-95678571D01*
X61461904Y-95597619D01*
X61380952Y-95516666D01*
X61300000Y-95354761D01*
X61300000Y-95192857D01*
X61380952Y-95030952D01*
X61461904Y-94950000D01*
X61623809Y-94869047D01*
X62028571Y-94869047D01*
X62271428Y-94950000D01*
X63000000Y-96569047D02*
X63000000Y-94869047D01*
X63566666Y-94869047D02*
X64133333Y-96569047D01*
X64700000Y-94869047D01*
X65266666Y-95678571D02*
X65833333Y-95678571D01*
X66076190Y-96569047D02*
X65266666Y-96569047D01*
X65266666Y-94869047D01*
X66076190Y-94869047D01*
D11*
X48065476Y-157470238D02*
X48005952Y-157410714D01*
X47886904Y-157351190D01*
X47767857Y-157351190D01*
X47648809Y-157410714D01*
X47589285Y-157470238D01*
X47529761Y-157589285D01*
X47529761Y-157708333D01*
X47589285Y-157827380D01*
X47648809Y-157886904D01*
X47767857Y-157946428D01*
X47886904Y-157946428D01*
X48005952Y-157886904D01*
X48065476Y-157827380D01*
X48065476Y-157351190D02*
X48065476Y-157827380D01*
X48125000Y-157886904D01*
X48184523Y-157886904D01*
X48303571Y-157827380D01*
X48363095Y-157708333D01*
X48363095Y-157410714D01*
X48244047Y-157232142D01*
X48065476Y-157113095D01*
X47827380Y-157053571D01*
X47589285Y-157113095D01*
X47410714Y-157232142D01*
X47291666Y-157410714D01*
X47232142Y-157648809D01*
X47291666Y-157886904D01*
X47410714Y-158065476D01*
X47589285Y-158184523D01*
X47827380Y-158244047D01*
X48065476Y-158184523D01*
X48244047Y-158065476D01*
X48898809Y-158065476D02*
X48898809Y-156815476D01*
X48898809Y-157291666D02*
X49017857Y-157232142D01*
X49255952Y-157232142D01*
X49375000Y-157291666D01*
X49434523Y-157351190D01*
X49494047Y-157470238D01*
X49494047Y-157827380D01*
X49434523Y-157946428D01*
X49375000Y-158005952D01*
X49255952Y-158065476D01*
X49017857Y-158065476D01*
X48898809Y-158005952D01*
X50505952Y-158005952D02*
X50386904Y-158065476D01*
X50148809Y-158065476D01*
X50029761Y-158005952D01*
X49970238Y-157886904D01*
X49970238Y-157410714D01*
X50029761Y-157291666D01*
X50148809Y-157232142D01*
X50386904Y-157232142D01*
X50505952Y-157291666D01*
X50565476Y-157410714D01*
X50565476Y-157529761D01*
X49970238Y-157648809D01*
X51101190Y-157232142D02*
X51101190Y-158065476D01*
X51101190Y-157351190D02*
X51160714Y-157291666D01*
X51279761Y-157232142D01*
X51458333Y-157232142D01*
X51577380Y-157291666D01*
X51636904Y-157410714D01*
X51636904Y-158065476D01*
X52232142Y-157232142D02*
X52232142Y-158303571D01*
X52172619Y-158422619D01*
X52053571Y-158482142D01*
X51994047Y-158482142D01*
X52232142Y-156815476D02*
X52172619Y-156875000D01*
X52232142Y-156934523D01*
X52291666Y-156875000D01*
X52232142Y-156815476D01*
X52232142Y-156934523D01*
X52827380Y-158065476D02*
X52827380Y-157232142D01*
X52827380Y-156815476D02*
X52767857Y-156875000D01*
X52827380Y-156934523D01*
X52886904Y-156875000D01*
X52827380Y-156815476D01*
X52827380Y-156934523D01*
X53958333Y-158065476D02*
X53958333Y-157410714D01*
X53898809Y-157291666D01*
X53779761Y-157232142D01*
X53541666Y-157232142D01*
X53422619Y-157291666D01*
X53958333Y-158005952D02*
X53839285Y-158065476D01*
X53541666Y-158065476D01*
X53422619Y-158005952D01*
X53363095Y-157886904D01*
X53363095Y-157767857D01*
X53422619Y-157648809D01*
X53541666Y-157589285D01*
X53839285Y-157589285D01*
X53958333Y-157529761D01*
X54732142Y-158065476D02*
X54613095Y-158005952D01*
X54553571Y-157946428D01*
X54494047Y-157827380D01*
X54494047Y-157470238D01*
X54553571Y-157351190D01*
X54613095Y-157291666D01*
X54732142Y-157232142D01*
X54910714Y-157232142D01*
X55029761Y-157291666D01*
X55089285Y-157351190D01*
X55148809Y-157470238D01*
X55148809Y-157827380D01*
X55089285Y-157946428D01*
X55029761Y-158005952D01*
X54910714Y-158065476D01*
X54732142Y-158065476D01*
X55684523Y-158065476D02*
X55684523Y-157232142D01*
X55684523Y-157351190D02*
X55744047Y-157291666D01*
X55863095Y-157232142D01*
X56041666Y-157232142D01*
X56160714Y-157291666D01*
X56220238Y-157410714D01*
X56220238Y-158065476D01*
X56220238Y-157410714D02*
X56279761Y-157291666D01*
X56398809Y-157232142D01*
X56577380Y-157232142D01*
X56696428Y-157291666D01*
X56755952Y-157410714D01*
X56755952Y-158065476D01*
X57529761Y-158065476D02*
X57410714Y-158005952D01*
X57351190Y-157946428D01*
X57291666Y-157827380D01*
X57291666Y-157470238D01*
X57351190Y-157351190D01*
X57410714Y-157291666D01*
X57529761Y-157232142D01*
X57708333Y-157232142D01*
X57827380Y-157291666D01*
X57886904Y-157351190D01*
X57946428Y-157470238D01*
X57946428Y-157827380D01*
X57886904Y-157946428D01*
X57827380Y-158005952D01*
X57708333Y-158065476D01*
X57529761Y-158065476D01*
X59017857Y-158065476D02*
X59017857Y-156815476D01*
X59017857Y-158005952D02*
X58898809Y-158065476D01*
X58660714Y-158065476D01*
X58541666Y-158005952D01*
X58482142Y-157946428D01*
X58422619Y-157827380D01*
X58422619Y-157470238D01*
X58482142Y-157351190D01*
X58541666Y-157291666D01*
X58660714Y-157232142D01*
X58898809Y-157232142D01*
X59017857Y-157291666D01*
X60148809Y-157232142D02*
X60148809Y-158065476D01*
X59613095Y-157232142D02*
X59613095Y-157886904D01*
X59672619Y-158005952D01*
X59791666Y-158065476D01*
X59970238Y-158065476D01*
X60089285Y-158005952D01*
X60148809Y-157946428D01*
X60922619Y-158065476D02*
X60803571Y-158005952D01*
X60744047Y-157886904D01*
X60744047Y-156815476D01*
X61934523Y-158065476D02*
X61934523Y-157410714D01*
X61875000Y-157291666D01*
X61755952Y-157232142D01*
X61517857Y-157232142D01*
X61398809Y-157291666D01*
X61934523Y-158005952D02*
X61815476Y-158065476D01*
X61517857Y-158065476D01*
X61398809Y-158005952D01*
X61339285Y-157886904D01*
X61339285Y-157767857D01*
X61398809Y-157648809D01*
X61517857Y-157589285D01*
X61815476Y-157589285D01*
X61934523Y-157529761D01*
X62529761Y-158065476D02*
X62529761Y-157232142D01*
X62529761Y-157470238D02*
X62589285Y-157351190D01*
X62648809Y-157291666D01*
X62767857Y-157232142D01*
X62886904Y-157232142D01*
D13*
X50261904Y-48404761D02*
X50261904Y-46404761D01*
X50928571Y-47833333D01*
X51595238Y-46404761D01*
X51595238Y-48404761D01*
X52547619Y-48404761D02*
X52547619Y-47071428D01*
X52547619Y-46404761D02*
X52452380Y-46500000D01*
X52547619Y-46595238D01*
X52642857Y-46500000D01*
X52547619Y-46404761D01*
X52547619Y-46595238D01*
X53500000Y-47071428D02*
X53500000Y-48404761D01*
X53500000Y-47261904D02*
X53595238Y-47166666D01*
X53785714Y-47071428D01*
X54071428Y-47071428D01*
X54261904Y-47166666D01*
X54357142Y-47357142D01*
X54357142Y-48404761D01*
X55309523Y-48404761D02*
X55309523Y-47071428D01*
X55309523Y-46404761D02*
X55214285Y-46500000D01*
X55309523Y-46595238D01*
X55404761Y-46500000D01*
X55309523Y-46404761D01*
X55309523Y-46595238D01*
X55976190Y-46404761D02*
X56642857Y-48404761D01*
X57309523Y-46404761D01*
X59119047Y-48214285D02*
X59023809Y-48309523D01*
X58738095Y-48404761D01*
X58547619Y-48404761D01*
X58261904Y-48309523D01*
X58071428Y-48119047D01*
X57976190Y-47928571D01*
X57880952Y-47547619D01*
X57880952Y-47261904D01*
X57976190Y-46880952D01*
X58071428Y-46690476D01*
X58261904Y-46500000D01*
X58547619Y-46404761D01*
X58738095Y-46404761D01*
X59023809Y-46500000D01*
X59119047Y-46595238D01*
X60642857Y-47357142D02*
X59976190Y-47357142D01*
X59976190Y-48404761D02*
X59976190Y-46404761D01*
X60928571Y-46404761D01*
D12*
X46676190Y-72069047D02*
X45866666Y-72069047D01*
X45866666Y-70369047D01*
X47242857Y-72069047D02*
X47242857Y-70369047D01*
X47890476Y-70369047D01*
X48052380Y-70450000D01*
X48133333Y-70530952D01*
X48214285Y-70692857D01*
X48214285Y-70935714D01*
X48133333Y-71097619D01*
X48052380Y-71178571D01*
X47890476Y-71259523D01*
X47242857Y-71259523D01*
X46314285Y-86685714D02*
X46542857Y-86761904D01*
X46619047Y-86838095D01*
X46695238Y-86990476D01*
X46695238Y-87219047D01*
X46619047Y-87371428D01*
X46542857Y-87447619D01*
X46390476Y-87523809D01*
X45780952Y-87523809D01*
X45780952Y-85923809D01*
X46314285Y-85923809D01*
X46466666Y-86000000D01*
X46542857Y-86076190D01*
X46619047Y-86228571D01*
X46619047Y-86380952D01*
X46542857Y-86533333D01*
X46466666Y-86609523D01*
X46314285Y-86685714D01*
X45780952Y-86685714D01*
X47380952Y-87523809D02*
X47380952Y-85923809D01*
X47990476Y-85923809D01*
X48142857Y-86000000D01*
X48219047Y-86076190D01*
X48295238Y-86228571D01*
X48295238Y-86457142D01*
X48219047Y-86609523D01*
X48142857Y-86685714D01*
X47990476Y-86761904D01*
X47380952Y-86761904D01*
D10*
X53000000Y-79000000D02*
G75*
G03*
X53000000Y-79000000I-6000000J0D01*
G01*
D12*
X56785714Y-63223809D02*
X56252380Y-62461904D01*
X55871428Y-63223809D02*
X55871428Y-61623809D01*
X56480952Y-61623809D01*
X56633333Y-61700000D01*
X56709523Y-61776190D01*
X56785714Y-61928571D01*
X56785714Y-62157142D01*
X56709523Y-62309523D01*
X56633333Y-62385714D01*
X56480952Y-62461904D01*
X55871428Y-62461904D01*
X57471428Y-62385714D02*
X58004761Y-62385714D01*
X58233333Y-63223809D02*
X57471428Y-63223809D01*
X57471428Y-61623809D01*
X58233333Y-61623809D01*
X58842857Y-63147619D02*
X59071428Y-63223809D01*
X59452380Y-63223809D01*
X59604761Y-63147619D01*
X59680952Y-63071428D01*
X59757142Y-62919047D01*
X59757142Y-62766666D01*
X59680952Y-62614285D01*
X59604761Y-62538095D01*
X59452380Y-62461904D01*
X59147619Y-62385714D01*
X58995238Y-62309523D01*
X58919047Y-62233333D01*
X58842857Y-62080952D01*
X58842857Y-61928571D01*
X58919047Y-61776190D01*
X58995238Y-61700000D01*
X59147619Y-61623809D01*
X59528571Y-61623809D01*
X59757142Y-61700000D01*
X60747619Y-61623809D02*
X61052380Y-61623809D01*
X61204761Y-61700000D01*
X61357142Y-61852380D01*
X61433333Y-62157142D01*
X61433333Y-62690476D01*
X61357142Y-62995238D01*
X61204761Y-63147619D01*
X61052380Y-63223809D01*
X60747619Y-63223809D01*
X60595238Y-63147619D01*
X60442857Y-62995238D01*
X60366666Y-62690476D01*
X60366666Y-62157142D01*
X60442857Y-61852380D01*
X60595238Y-61700000D01*
X60747619Y-61623809D01*
X62119047Y-63223809D02*
X62119047Y-61623809D01*
X63033333Y-63223809D01*
X63033333Y-61623809D01*
X63719047Y-62766666D02*
X64480952Y-62766666D01*
X63566666Y-63223809D02*
X64100000Y-61623809D01*
X64633333Y-63223809D01*
X65166666Y-63223809D02*
X65166666Y-61623809D01*
X66080952Y-63223809D01*
X66080952Y-61623809D01*
X67757142Y-63071428D02*
X67680952Y-63147619D01*
X67452380Y-63223809D01*
X67300000Y-63223809D01*
X67071428Y-63147619D01*
X66919047Y-62995238D01*
X66842857Y-62842857D01*
X66766666Y-62538095D01*
X66766666Y-62309523D01*
X66842857Y-62004761D01*
X66919047Y-61852380D01*
X67071428Y-61700000D01*
X67300000Y-61623809D01*
X67452380Y-61623809D01*
X67680952Y-61700000D01*
X67757142Y-61776190D01*
X68442857Y-62385714D02*
X68976190Y-62385714D01*
X69204761Y-63223809D02*
X68442857Y-63223809D01*
X68442857Y-61623809D01*
X69204761Y-61623809D01*
X44838095Y-68321428D02*
X44761904Y-68397619D01*
X44533333Y-68473809D01*
X44380952Y-68473809D01*
X44152380Y-68397619D01*
X44000000Y-68245238D01*
X43923809Y-68092857D01*
X43847619Y-67788095D01*
X43847619Y-67559523D01*
X43923809Y-67254761D01*
X44000000Y-67102380D01*
X44152380Y-66950000D01*
X44380952Y-66873809D01*
X44533333Y-66873809D01*
X44761904Y-66950000D01*
X44838095Y-67026190D01*
X45523809Y-66873809D02*
X45523809Y-68169047D01*
X45600000Y-68321428D01*
X45676190Y-68397619D01*
X45828571Y-68473809D01*
X46133333Y-68473809D01*
X46285714Y-68397619D01*
X46361904Y-68321428D01*
X46438095Y-68169047D01*
X46438095Y-66873809D01*
X46971428Y-66873809D02*
X47885714Y-66873809D01*
X47428571Y-68473809D02*
X47428571Y-66873809D01*
X48723809Y-66873809D02*
X49028571Y-66873809D01*
X49180952Y-66950000D01*
X49333333Y-67102380D01*
X49409523Y-67407142D01*
X49409523Y-67940476D01*
X49333333Y-68245238D01*
X49180952Y-68397619D01*
X49028571Y-68473809D01*
X48723809Y-68473809D01*
X48571428Y-68397619D01*
X48419047Y-68245238D01*
X48342857Y-67940476D01*
X48342857Y-67407142D01*
X48419047Y-67102380D01*
X48571428Y-66950000D01*
X48723809Y-66873809D01*
X50628571Y-67635714D02*
X50095238Y-67635714D01*
X50095238Y-68473809D02*
X50095238Y-66873809D01*
X50857142Y-66873809D01*
X52000000Y-67635714D02*
X51466666Y-67635714D01*
X51466666Y-68473809D02*
X51466666Y-66873809D01*
X52228571Y-66873809D01*
D10*
X55516648Y-97500000D02*
G75*
G03*
X55516648Y-97500000I-7516648J0D01*
G01*
X55516648Y-58500000D02*
G75*
G03*
X55516648Y-58500000I-7516648J0D01*
G01*
X69516648Y-71500000D02*
G75*
G03*
X69516648Y-71500000I-7516648J0D01*
G01*
X50500000Y-128500000D02*
X49000000Y-130000000D01*
X55000000Y-117500000D02*
X56100000Y-116400000D01*
X50000000Y-117500000D02*
X55000000Y-117500000D01*
X50500000Y-128500000D02*
X54483352Y-128500000D01*
X69516648Y-111500000D02*
G75*
G03*
X69516648Y-111500000I-7516648J0D01*
G01*
X69516648Y-128500000D02*
G75*
G03*
X69516648Y-128500000I-7516648J0D01*
G01*
D12*
X44928571Y-111642857D02*
X44842857Y-111728571D01*
X44585714Y-111814285D01*
X44414285Y-111814285D01*
X44157142Y-111728571D01*
X43985714Y-111557142D01*
X43900000Y-111385714D01*
X43814285Y-111042857D01*
X43814285Y-110785714D01*
X43900000Y-110442857D01*
X43985714Y-110271428D01*
X44157142Y-110100000D01*
X44414285Y-110014285D01*
X44585714Y-110014285D01*
X44842857Y-110100000D01*
X44928571Y-110185714D01*
X45442857Y-110014285D02*
X46042857Y-111814285D01*
X46642857Y-110014285D01*
X48185714Y-111814285D02*
X47157142Y-111814285D01*
X47671428Y-111814285D02*
X47671428Y-110014285D01*
X47500000Y-110271428D01*
X47328571Y-110442857D01*
X47157142Y-110528571D01*
X44928571Y-126642857D02*
X44842857Y-126728571D01*
X44585714Y-126814285D01*
X44414285Y-126814285D01*
X44157142Y-126728571D01*
X43985714Y-126557142D01*
X43900000Y-126385714D01*
X43814285Y-126042857D01*
X43814285Y-125785714D01*
X43900000Y-125442857D01*
X43985714Y-125271428D01*
X44157142Y-125100000D01*
X44414285Y-125014285D01*
X44585714Y-125014285D01*
X44842857Y-125100000D01*
X44928571Y-125185714D01*
X45442857Y-125014285D02*
X46042857Y-126814285D01*
X46642857Y-125014285D01*
X47157142Y-125185714D02*
X47242857Y-125100000D01*
X47414285Y-125014285D01*
X47842857Y-125014285D01*
X48014285Y-125100000D01*
X48100000Y-125185714D01*
X48185714Y-125357142D01*
X48185714Y-125528571D01*
X48100000Y-125785714D01*
X47071428Y-126814285D01*
X48185714Y-126814285D01*
X44557142Y-141814285D02*
X44557142Y-140014285D01*
X45414285Y-141814285D02*
X45414285Y-140014285D01*
X46442857Y-141814285D01*
X46442857Y-140014285D01*
X62700000Y-140014285D02*
X63042857Y-140014285D01*
X63214285Y-140100000D01*
X63385714Y-140271428D01*
X63471428Y-140614285D01*
X63471428Y-141214285D01*
X63385714Y-141557142D01*
X63214285Y-141728571D01*
X63042857Y-141814285D01*
X62700000Y-141814285D01*
X62528571Y-141728571D01*
X62357142Y-141557142D01*
X62271428Y-141214285D01*
X62271428Y-140614285D01*
X62357142Y-140271428D01*
X62528571Y-140100000D01*
X62700000Y-140014285D01*
X64242857Y-140014285D02*
X64242857Y-141471428D01*
X64328571Y-141642857D01*
X64414285Y-141728571D01*
X64585714Y-141814285D01*
X64928571Y-141814285D01*
X65100000Y-141728571D01*
X65185714Y-141642857D01*
X65271428Y-141471428D01*
X65271428Y-140014285D01*
X65871428Y-140014285D02*
X66900000Y-140014285D01*
X66385714Y-141814285D02*
X66385714Y-140014285D01*
M02*
