%TF.GenerationSoftware,KiCad,Pcbnew,5.1.9+dfsg1-1~bpo10+1*%
%TF.CreationDate,2022-03-11T22:20:48+08:00*%
%TF.ProjectId,MiniVCF v1.1 - Front,4d696e69-5643-4462-9076-312e31202d20,rev?*%
%TF.SameCoordinates,Original*%
%TF.FileFunction,Soldermask,Bot*%
%TF.FilePolarity,Negative*%
%FSLAX46Y46*%
G04 Gerber Fmt 4.6, Leading zero omitted, Abs format (unit mm)*
G04 Created by KiCad (PCBNEW 5.1.9+dfsg1-1~bpo10+1) date 2022-03-11 22:20:48*
%MOMM*%
%LPD*%
G01*
G04 APERTURE LIST*
%ADD10C,0.150000*%
%ADD11O,7.000000X4.200000*%
%ADD12C,7.000000*%
%ADD13C,8.000000*%
G04 APERTURE END LIST*
D10*
X66500000Y-87000000D02*
X58000000Y-87000000D01*
X66500000Y-86500000D02*
X66500000Y-87000000D01*
X58000000Y-86500000D02*
X66500000Y-86500000D01*
X58000000Y-86000000D02*
X58000000Y-86500000D01*
X66500000Y-86000000D02*
X58000000Y-86000000D01*
X66500000Y-85500000D02*
X66500000Y-86000000D01*
X58000000Y-85500000D02*
X66500000Y-85500000D01*
X58000000Y-85000000D02*
X58000000Y-85500000D01*
X66500000Y-85000000D02*
X58000000Y-85000000D01*
X66500000Y-84500000D02*
X66500000Y-85000000D01*
X58000000Y-84500000D02*
X66500000Y-84500000D01*
X58000000Y-84000000D02*
X58000000Y-84500000D01*
X66500000Y-84000000D02*
X58000000Y-84000000D01*
X66500000Y-83500000D02*
X66500000Y-84000000D01*
X58000000Y-83500000D02*
X66500000Y-83500000D01*
X58000000Y-83000000D02*
X58000000Y-83500000D01*
X66500000Y-83000000D02*
X58000000Y-83000000D01*
X66500000Y-82500000D02*
X66500000Y-83000000D01*
X58000000Y-82500000D02*
X66500000Y-82500000D01*
X58000000Y-82000000D02*
X58000000Y-82500000D01*
X66500000Y-82000000D02*
X58000000Y-82000000D01*
X66500000Y-81500000D02*
X66500000Y-82000000D01*
X58000000Y-81500000D02*
X66500000Y-81500000D01*
X58000000Y-81000000D02*
X58000000Y-81500000D01*
X66500000Y-81000000D02*
X58000000Y-81000000D01*
X66500000Y-59500000D02*
X58000000Y-59500000D01*
X66500000Y-59000000D02*
X66500000Y-59500000D01*
X58000000Y-59000000D02*
X66500000Y-59000000D01*
X58000000Y-58500000D02*
X58000000Y-59000000D01*
X66500000Y-58500000D02*
X58000000Y-58500000D01*
X66500000Y-58000000D02*
X66500000Y-58500000D01*
X58000000Y-58000000D02*
X66500000Y-58000000D01*
X58000000Y-57500000D02*
X58000000Y-58000000D01*
X66500000Y-57500000D02*
X58000000Y-57500000D01*
X66500000Y-57000000D02*
X66500000Y-57500000D01*
X58000000Y-57000000D02*
X66500000Y-57000000D01*
X58000000Y-56500000D02*
X58000000Y-57000000D01*
X66500000Y-56500000D02*
X58000000Y-56500000D01*
X66500000Y-56000000D02*
X66500000Y-56500000D01*
X58000000Y-56000000D02*
X66500000Y-56000000D01*
X58000000Y-55500000D02*
X58000000Y-56000000D01*
X66500000Y-55500000D02*
X58000000Y-55500000D01*
X66500000Y-55000000D02*
X66500000Y-55500000D01*
X58000000Y-55000000D02*
X66500000Y-55000000D01*
X58000000Y-54500000D02*
X58000000Y-55000000D01*
X66500000Y-54500000D02*
X58000000Y-54500000D01*
X66500000Y-54000000D02*
X66500000Y-54500000D01*
X58000000Y-54000000D02*
X66500000Y-54000000D01*
X58000000Y-53500000D02*
X58000000Y-54000000D01*
X66500000Y-53500000D02*
X58000000Y-53500000D01*
D11*
%TO.C,REF\u002A\u002A*%
X65000000Y-165500000D03*
X45000000Y-43000000D03*
%TD*%
D12*
%TO.C,REF\u002A\u002A*%
X47000000Y-79000000D03*
%TD*%
D13*
%TO.C,REF\u002A\u002A*%
X48000000Y-97500000D03*
%TD*%
%TO.C,REF\u002A\u002A*%
X62000000Y-71500000D03*
%TD*%
%TO.C,REF\u002A\u002A*%
X48000000Y-58500000D03*
%TD*%
%TO.C,REF\u002A\u002A*%
X62000000Y-111500000D03*
%TD*%
%TO.C,REF\u002A\u002A*%
X62000000Y-128500000D03*
%TD*%
D12*
%TO.C,REF\u002A\u002A*%
X45500000Y-117500000D03*
%TD*%
%TO.C,REF\u002A\u002A*%
X45500000Y-132400000D03*
%TD*%
%TO.C,REF\u002A\u002A*%
X45500000Y-147500000D03*
%TD*%
%TO.C,REF\u002A\u002A*%
X64500000Y-147500000D03*
%TD*%
M02*
