%TF.GenerationSoftware,KiCad,Pcbnew,5.1.9+dfsg1-1~bpo10+1*%
%TF.CreationDate,2022-03-11T22:20:48+08:00*%
%TF.ProjectId,MiniVCF v1.1 - Front,4d696e69-5643-4462-9076-312e31202d20,rev?*%
%TF.SameCoordinates,Original*%
%TF.FileFunction,Copper,L1,Top*%
%TF.FilePolarity,Positive*%
%FSLAX46Y46*%
G04 Gerber Fmt 4.6, Leading zero omitted, Abs format (unit mm)*
G04 Created by KiCad (PCBNEW 5.1.9+dfsg1-1~bpo10+1) date 2022-03-11 22:20:48*
%MOMM*%
%LPD*%
G01*
G04 APERTURE LIST*
%TA.AperFunction,ComponentPad*%
%ADD10O,7.000000X4.200000*%
%TD*%
%TA.AperFunction,ComponentPad*%
%ADD11C,7.000000*%
%TD*%
%TA.AperFunction,ComponentPad*%
%ADD12C,8.000000*%
%TD*%
%TA.AperFunction,ViaPad*%
%ADD13C,4.000000*%
%TD*%
%TA.AperFunction,NonConductor*%
%ADD14C,0.254000*%
%TD*%
%TA.AperFunction,NonConductor*%
%ADD15C,0.100000*%
%TD*%
G04 APERTURE END LIST*
D10*
%TO.P,REF\u002A\u002A,*%
%TO.N,*%
X65000000Y-165500000D03*
X45000000Y-43000000D03*
%TD*%
D11*
%TO.P,REF\u002A\u002A,*%
%TO.N,*%
X47000000Y-79000000D03*
%TD*%
D12*
%TO.P,REF\u002A\u002A,*%
%TO.N,*%
X48000000Y-97500000D03*
%TD*%
%TO.P,REF\u002A\u002A,*%
%TO.N,*%
X62000000Y-71500000D03*
%TD*%
%TO.P,REF\u002A\u002A,*%
%TO.N,*%
X48000000Y-58500000D03*
%TD*%
%TO.P,REF\u002A\u002A,*%
%TO.N,*%
X62000000Y-111500000D03*
%TD*%
%TO.P,REF\u002A\u002A,*%
%TO.N,*%
X62000000Y-128500000D03*
%TD*%
D11*
%TO.P,REF\u002A\u002A,*%
%TO.N,*%
X45500000Y-117500000D03*
%TD*%
%TO.P,REF\u002A\u002A,*%
%TO.N,*%
X45500000Y-132400000D03*
%TD*%
%TO.P,REF\u002A\u002A,*%
%TO.N,*%
X45500000Y-147500000D03*
%TD*%
%TO.P,REF\u002A\u002A,*%
%TO.N,*%
X64500000Y-147500000D03*
%TD*%
D13*
%TO.N,*%
X55000000Y-141000000D03*
%TD*%
D14*
X42073164Y-40714928D02*
X41656706Y-41056706D01*
X41314928Y-41473164D01*
X41060964Y-41948297D01*
X40904574Y-42463846D01*
X40851767Y-43000000D01*
X40904574Y-43536154D01*
X41060964Y-44051703D01*
X41314928Y-44526836D01*
X41656706Y-44943294D01*
X42073164Y-45285072D01*
X42548297Y-45539036D01*
X43063846Y-45695426D01*
X43465644Y-45735000D01*
X46534356Y-45735000D01*
X46936154Y-45695426D01*
X47451703Y-45539036D01*
X47926836Y-45285072D01*
X48343294Y-44943294D01*
X48685072Y-44526836D01*
X48939036Y-44051703D01*
X49095426Y-43536154D01*
X49148233Y-43000000D01*
X49095426Y-42463846D01*
X48939036Y-41948297D01*
X48685072Y-41473164D01*
X48343294Y-41056706D01*
X47926836Y-40714928D01*
X47824073Y-40660000D01*
X69340000Y-40660000D01*
X69340001Y-167840000D01*
X67824073Y-167840000D01*
X67926836Y-167785072D01*
X68343294Y-167443294D01*
X68685072Y-167026836D01*
X68939036Y-166551703D01*
X69095426Y-166036154D01*
X69148233Y-165500000D01*
X69095426Y-164963846D01*
X68939036Y-164448297D01*
X68685072Y-163973164D01*
X68343294Y-163556706D01*
X67926836Y-163214928D01*
X67451703Y-162960964D01*
X66936154Y-162804574D01*
X66534356Y-162765000D01*
X63465644Y-162765000D01*
X63063846Y-162804574D01*
X62548297Y-162960964D01*
X62073164Y-163214928D01*
X61656706Y-163556706D01*
X61314928Y-163973164D01*
X61060964Y-164448297D01*
X60904574Y-164963846D01*
X60851767Y-165500000D01*
X60904574Y-166036154D01*
X61060964Y-166551703D01*
X61314928Y-167026836D01*
X61656706Y-167443294D01*
X62073164Y-167785072D01*
X62175927Y-167840000D01*
X40660000Y-167840000D01*
X40660000Y-147092738D01*
X41365000Y-147092738D01*
X41365000Y-147907262D01*
X41523906Y-148706135D01*
X41835611Y-149458657D01*
X42288136Y-150135909D01*
X42864091Y-150711864D01*
X43541343Y-151164389D01*
X44293865Y-151476094D01*
X45092738Y-151635000D01*
X45907262Y-151635000D01*
X46706135Y-151476094D01*
X47458657Y-151164389D01*
X48135909Y-150711864D01*
X48711864Y-150135909D01*
X49164389Y-149458657D01*
X49476094Y-148706135D01*
X49635000Y-147907262D01*
X49635000Y-147092738D01*
X60365000Y-147092738D01*
X60365000Y-147907262D01*
X60523906Y-148706135D01*
X60835611Y-149458657D01*
X61288136Y-150135909D01*
X61864091Y-150711864D01*
X62541343Y-151164389D01*
X63293865Y-151476094D01*
X64092738Y-151635000D01*
X64907262Y-151635000D01*
X65706135Y-151476094D01*
X66458657Y-151164389D01*
X67135909Y-150711864D01*
X67711864Y-150135909D01*
X68164389Y-149458657D01*
X68476094Y-148706135D01*
X68635000Y-147907262D01*
X68635000Y-147092738D01*
X68476094Y-146293865D01*
X68164389Y-145541343D01*
X67711864Y-144864091D01*
X67135909Y-144288136D01*
X66458657Y-143835611D01*
X65706135Y-143523906D01*
X64907262Y-143365000D01*
X64092738Y-143365000D01*
X63293865Y-143523906D01*
X62541343Y-143835611D01*
X61864091Y-144288136D01*
X61288136Y-144864091D01*
X60835611Y-145541343D01*
X60523906Y-146293865D01*
X60365000Y-147092738D01*
X49635000Y-147092738D01*
X49476094Y-146293865D01*
X49164389Y-145541343D01*
X48711864Y-144864091D01*
X48135909Y-144288136D01*
X47458657Y-143835611D01*
X46706135Y-143523906D01*
X45907262Y-143365000D01*
X45092738Y-143365000D01*
X44293865Y-143523906D01*
X43541343Y-143835611D01*
X42864091Y-144288136D01*
X42288136Y-144864091D01*
X41835611Y-145541343D01*
X41523906Y-146293865D01*
X41365000Y-147092738D01*
X40660000Y-147092738D01*
X40660000Y-140740475D01*
X52365000Y-140740475D01*
X52365000Y-141259525D01*
X52466261Y-141768601D01*
X52664893Y-142248141D01*
X52953262Y-142679715D01*
X53320285Y-143046738D01*
X53751859Y-143335107D01*
X54231399Y-143533739D01*
X54740475Y-143635000D01*
X55259525Y-143635000D01*
X55768601Y-143533739D01*
X56248141Y-143335107D01*
X56679715Y-143046738D01*
X57046738Y-142679715D01*
X57335107Y-142248141D01*
X57533739Y-141768601D01*
X57635000Y-141259525D01*
X57635000Y-140740475D01*
X57533739Y-140231399D01*
X57335107Y-139751859D01*
X57046738Y-139320285D01*
X56679715Y-138953262D01*
X56248141Y-138664893D01*
X55768601Y-138466261D01*
X55259525Y-138365000D01*
X54740475Y-138365000D01*
X54231399Y-138466261D01*
X53751859Y-138664893D01*
X53320285Y-138953262D01*
X52953262Y-139320285D01*
X52664893Y-139751859D01*
X52466261Y-140231399D01*
X52365000Y-140740475D01*
X40660000Y-140740475D01*
X40660000Y-131992738D01*
X41365000Y-131992738D01*
X41365000Y-132807262D01*
X41523906Y-133606135D01*
X41835611Y-134358657D01*
X42288136Y-135035909D01*
X42864091Y-135611864D01*
X43541343Y-136064389D01*
X44293865Y-136376094D01*
X45092738Y-136535000D01*
X45907262Y-136535000D01*
X46706135Y-136376094D01*
X47458657Y-136064389D01*
X48135909Y-135611864D01*
X48711864Y-135035909D01*
X49164389Y-134358657D01*
X49476094Y-133606135D01*
X49635000Y-132807262D01*
X49635000Y-131992738D01*
X49476094Y-131193865D01*
X49164389Y-130441343D01*
X48711864Y-129764091D01*
X48135909Y-129188136D01*
X47458657Y-128735611D01*
X46706135Y-128423906D01*
X45907262Y-128265000D01*
X45092738Y-128265000D01*
X44293865Y-128423906D01*
X43541343Y-128735611D01*
X42864091Y-129188136D01*
X42288136Y-129764091D01*
X41835611Y-130441343D01*
X41523906Y-131193865D01*
X41365000Y-131992738D01*
X40660000Y-131992738D01*
X40660000Y-128043492D01*
X57365000Y-128043492D01*
X57365000Y-128956508D01*
X57543120Y-129851980D01*
X57892516Y-130695496D01*
X58399760Y-131454640D01*
X59045360Y-132100240D01*
X59804504Y-132607484D01*
X60648020Y-132956880D01*
X61543492Y-133135000D01*
X62456508Y-133135000D01*
X63351980Y-132956880D01*
X64195496Y-132607484D01*
X64954640Y-132100240D01*
X65600240Y-131454640D01*
X66107484Y-130695496D01*
X66456880Y-129851980D01*
X66635000Y-128956508D01*
X66635000Y-128043492D01*
X66456880Y-127148020D01*
X66107484Y-126304504D01*
X65600240Y-125545360D01*
X64954640Y-124899760D01*
X64195496Y-124392516D01*
X63351980Y-124043120D01*
X62456508Y-123865000D01*
X61543492Y-123865000D01*
X60648020Y-124043120D01*
X59804504Y-124392516D01*
X59045360Y-124899760D01*
X58399760Y-125545360D01*
X57892516Y-126304504D01*
X57543120Y-127148020D01*
X57365000Y-128043492D01*
X40660000Y-128043492D01*
X40660000Y-117092738D01*
X41365000Y-117092738D01*
X41365000Y-117907262D01*
X41523906Y-118706135D01*
X41835611Y-119458657D01*
X42288136Y-120135909D01*
X42864091Y-120711864D01*
X43541343Y-121164389D01*
X44293865Y-121476094D01*
X45092738Y-121635000D01*
X45907262Y-121635000D01*
X46706135Y-121476094D01*
X47458657Y-121164389D01*
X48135909Y-120711864D01*
X48711864Y-120135909D01*
X49164389Y-119458657D01*
X49476094Y-118706135D01*
X49635000Y-117907262D01*
X49635000Y-117092738D01*
X49476094Y-116293865D01*
X49164389Y-115541343D01*
X48711864Y-114864091D01*
X48135909Y-114288136D01*
X47458657Y-113835611D01*
X46706135Y-113523906D01*
X45907262Y-113365000D01*
X45092738Y-113365000D01*
X44293865Y-113523906D01*
X43541343Y-113835611D01*
X42864091Y-114288136D01*
X42288136Y-114864091D01*
X41835611Y-115541343D01*
X41523906Y-116293865D01*
X41365000Y-117092738D01*
X40660000Y-117092738D01*
X40660000Y-111043492D01*
X57365000Y-111043492D01*
X57365000Y-111956508D01*
X57543120Y-112851980D01*
X57892516Y-113695496D01*
X58399760Y-114454640D01*
X59045360Y-115100240D01*
X59804504Y-115607484D01*
X60648020Y-115956880D01*
X61543492Y-116135000D01*
X62456508Y-116135000D01*
X63351980Y-115956880D01*
X64195496Y-115607484D01*
X64954640Y-115100240D01*
X65600240Y-114454640D01*
X66107484Y-113695496D01*
X66456880Y-112851980D01*
X66635000Y-111956508D01*
X66635000Y-111043492D01*
X66456880Y-110148020D01*
X66107484Y-109304504D01*
X65600240Y-108545360D01*
X64954640Y-107899760D01*
X64195496Y-107392516D01*
X63351980Y-107043120D01*
X62456508Y-106865000D01*
X61543492Y-106865000D01*
X60648020Y-107043120D01*
X59804504Y-107392516D01*
X59045360Y-107899760D01*
X58399760Y-108545360D01*
X57892516Y-109304504D01*
X57543120Y-110148020D01*
X57365000Y-111043492D01*
X40660000Y-111043492D01*
X40660000Y-97043492D01*
X43365000Y-97043492D01*
X43365000Y-97956508D01*
X43543120Y-98851980D01*
X43892516Y-99695496D01*
X44399760Y-100454640D01*
X45045360Y-101100240D01*
X45804504Y-101607484D01*
X46648020Y-101956880D01*
X47543492Y-102135000D01*
X48456508Y-102135000D01*
X49351980Y-101956880D01*
X50195496Y-101607484D01*
X50954640Y-101100240D01*
X51600240Y-100454640D01*
X52107484Y-99695496D01*
X52456880Y-98851980D01*
X52635000Y-97956508D01*
X52635000Y-97043492D01*
X52456880Y-96148020D01*
X52107484Y-95304504D01*
X51600240Y-94545360D01*
X50954640Y-93899760D01*
X50195496Y-93392516D01*
X49351980Y-93043120D01*
X48456508Y-92865000D01*
X47543492Y-92865000D01*
X46648020Y-93043120D01*
X45804504Y-93392516D01*
X45045360Y-93899760D01*
X44399760Y-94545360D01*
X43892516Y-95304504D01*
X43543120Y-96148020D01*
X43365000Y-97043492D01*
X40660000Y-97043492D01*
X40660000Y-78592738D01*
X42865000Y-78592738D01*
X42865000Y-79407262D01*
X43023906Y-80206135D01*
X43335611Y-80958657D01*
X43788136Y-81635909D01*
X44364091Y-82211864D01*
X45041343Y-82664389D01*
X45793865Y-82976094D01*
X46592738Y-83135000D01*
X47407262Y-83135000D01*
X48206135Y-82976094D01*
X48958657Y-82664389D01*
X49635909Y-82211864D01*
X50211864Y-81635909D01*
X50664389Y-80958657D01*
X50730106Y-80800000D01*
X57673000Y-80800000D01*
X57673000Y-87200000D01*
X57675440Y-87224776D01*
X57682667Y-87248601D01*
X57694403Y-87270557D01*
X57710197Y-87289803D01*
X57729443Y-87305597D01*
X57751399Y-87317333D01*
X57775224Y-87324560D01*
X57800000Y-87327000D01*
X66800000Y-87327000D01*
X66824776Y-87324560D01*
X66848601Y-87317333D01*
X66870557Y-87305597D01*
X66889803Y-87289803D01*
X66905597Y-87270557D01*
X66917333Y-87248601D01*
X66924560Y-87224776D01*
X66927000Y-87200000D01*
X66927000Y-80800000D01*
X66924560Y-80775224D01*
X66917333Y-80751399D01*
X66905597Y-80729443D01*
X66889803Y-80710197D01*
X66870557Y-80694403D01*
X66848601Y-80682667D01*
X66824776Y-80675440D01*
X66800000Y-80673000D01*
X57800000Y-80673000D01*
X57775224Y-80675440D01*
X57751399Y-80682667D01*
X57729443Y-80694403D01*
X57710197Y-80710197D01*
X57694403Y-80729443D01*
X57682667Y-80751399D01*
X57675440Y-80775224D01*
X57673000Y-80800000D01*
X50730106Y-80800000D01*
X50976094Y-80206135D01*
X51135000Y-79407262D01*
X51135000Y-78592738D01*
X50976094Y-77793865D01*
X50664389Y-77041343D01*
X50211864Y-76364091D01*
X49635909Y-75788136D01*
X48958657Y-75335611D01*
X48206135Y-75023906D01*
X47407262Y-74865000D01*
X46592738Y-74865000D01*
X45793865Y-75023906D01*
X45041343Y-75335611D01*
X44364091Y-75788136D01*
X43788136Y-76364091D01*
X43335611Y-77041343D01*
X43023906Y-77793865D01*
X42865000Y-78592738D01*
X40660000Y-78592738D01*
X40660000Y-71043492D01*
X57365000Y-71043492D01*
X57365000Y-71956508D01*
X57543120Y-72851980D01*
X57892516Y-73695496D01*
X58399760Y-74454640D01*
X59045360Y-75100240D01*
X59804504Y-75607484D01*
X60648020Y-75956880D01*
X61543492Y-76135000D01*
X62456508Y-76135000D01*
X63351980Y-75956880D01*
X64195496Y-75607484D01*
X64954640Y-75100240D01*
X65600240Y-74454640D01*
X66107484Y-73695496D01*
X66456880Y-72851980D01*
X66635000Y-71956508D01*
X66635000Y-71043492D01*
X66456880Y-70148020D01*
X66107484Y-69304504D01*
X65600240Y-68545360D01*
X64954640Y-67899760D01*
X64195496Y-67392516D01*
X63351980Y-67043120D01*
X62456508Y-66865000D01*
X61543492Y-66865000D01*
X60648020Y-67043120D01*
X59804504Y-67392516D01*
X59045360Y-67899760D01*
X58399760Y-68545360D01*
X57892516Y-69304504D01*
X57543120Y-70148020D01*
X57365000Y-71043492D01*
X40660000Y-71043492D01*
X40660000Y-58043492D01*
X43365000Y-58043492D01*
X43365000Y-58956508D01*
X43543120Y-59851980D01*
X43892516Y-60695496D01*
X44399760Y-61454640D01*
X45045360Y-62100240D01*
X45804504Y-62607484D01*
X46648020Y-62956880D01*
X47543492Y-63135000D01*
X48456508Y-63135000D01*
X49351980Y-62956880D01*
X50195496Y-62607484D01*
X50954640Y-62100240D01*
X51600240Y-61454640D01*
X52107484Y-60695496D01*
X52456880Y-59851980D01*
X52635000Y-58956508D01*
X52635000Y-58043492D01*
X52456880Y-57148020D01*
X52107484Y-56304504D01*
X51600240Y-55545360D01*
X50954640Y-54899760D01*
X50195496Y-54392516D01*
X49351980Y-54043120D01*
X48456508Y-53865000D01*
X47543492Y-53865000D01*
X46648020Y-54043120D01*
X45804504Y-54392516D01*
X45045360Y-54899760D01*
X44399760Y-55545360D01*
X43892516Y-56304504D01*
X43543120Y-57148020D01*
X43365000Y-58043492D01*
X40660000Y-58043492D01*
X40660000Y-53200000D01*
X57673000Y-53200000D01*
X57673000Y-59800000D01*
X57675440Y-59824776D01*
X57682667Y-59848601D01*
X57694403Y-59870557D01*
X57710197Y-59889803D01*
X57729443Y-59905597D01*
X57751399Y-59917333D01*
X57775224Y-59924560D01*
X57800000Y-59927000D01*
X66800000Y-59927000D01*
X66824776Y-59924560D01*
X66848601Y-59917333D01*
X66870557Y-59905597D01*
X66889803Y-59889803D01*
X66905597Y-59870557D01*
X66917333Y-59848601D01*
X66924560Y-59824776D01*
X66927000Y-59800000D01*
X66927000Y-53200000D01*
X66924560Y-53175224D01*
X66917333Y-53151399D01*
X66905597Y-53129443D01*
X66889803Y-53110197D01*
X66870557Y-53094403D01*
X66848601Y-53082667D01*
X66824776Y-53075440D01*
X66800000Y-53073000D01*
X57800000Y-53073000D01*
X57775224Y-53075440D01*
X57751399Y-53082667D01*
X57729443Y-53094403D01*
X57710197Y-53110197D01*
X57694403Y-53129443D01*
X57682667Y-53151399D01*
X57675440Y-53175224D01*
X57673000Y-53200000D01*
X40660000Y-53200000D01*
X40660000Y-40660000D01*
X42175927Y-40660000D01*
X42073164Y-40714928D01*
%TA.AperFunction,NonConductor*%
D15*
G36*
X42073164Y-40714928D02*
G01*
X41656706Y-41056706D01*
X41314928Y-41473164D01*
X41060964Y-41948297D01*
X40904574Y-42463846D01*
X40851767Y-43000000D01*
X40904574Y-43536154D01*
X41060964Y-44051703D01*
X41314928Y-44526836D01*
X41656706Y-44943294D01*
X42073164Y-45285072D01*
X42548297Y-45539036D01*
X43063846Y-45695426D01*
X43465644Y-45735000D01*
X46534356Y-45735000D01*
X46936154Y-45695426D01*
X47451703Y-45539036D01*
X47926836Y-45285072D01*
X48343294Y-44943294D01*
X48685072Y-44526836D01*
X48939036Y-44051703D01*
X49095426Y-43536154D01*
X49148233Y-43000000D01*
X49095426Y-42463846D01*
X48939036Y-41948297D01*
X48685072Y-41473164D01*
X48343294Y-41056706D01*
X47926836Y-40714928D01*
X47824073Y-40660000D01*
X69340000Y-40660000D01*
X69340001Y-167840000D01*
X67824073Y-167840000D01*
X67926836Y-167785072D01*
X68343294Y-167443294D01*
X68685072Y-167026836D01*
X68939036Y-166551703D01*
X69095426Y-166036154D01*
X69148233Y-165500000D01*
X69095426Y-164963846D01*
X68939036Y-164448297D01*
X68685072Y-163973164D01*
X68343294Y-163556706D01*
X67926836Y-163214928D01*
X67451703Y-162960964D01*
X66936154Y-162804574D01*
X66534356Y-162765000D01*
X63465644Y-162765000D01*
X63063846Y-162804574D01*
X62548297Y-162960964D01*
X62073164Y-163214928D01*
X61656706Y-163556706D01*
X61314928Y-163973164D01*
X61060964Y-164448297D01*
X60904574Y-164963846D01*
X60851767Y-165500000D01*
X60904574Y-166036154D01*
X61060964Y-166551703D01*
X61314928Y-167026836D01*
X61656706Y-167443294D01*
X62073164Y-167785072D01*
X62175927Y-167840000D01*
X40660000Y-167840000D01*
X40660000Y-147092738D01*
X41365000Y-147092738D01*
X41365000Y-147907262D01*
X41523906Y-148706135D01*
X41835611Y-149458657D01*
X42288136Y-150135909D01*
X42864091Y-150711864D01*
X43541343Y-151164389D01*
X44293865Y-151476094D01*
X45092738Y-151635000D01*
X45907262Y-151635000D01*
X46706135Y-151476094D01*
X47458657Y-151164389D01*
X48135909Y-150711864D01*
X48711864Y-150135909D01*
X49164389Y-149458657D01*
X49476094Y-148706135D01*
X49635000Y-147907262D01*
X49635000Y-147092738D01*
X60365000Y-147092738D01*
X60365000Y-147907262D01*
X60523906Y-148706135D01*
X60835611Y-149458657D01*
X61288136Y-150135909D01*
X61864091Y-150711864D01*
X62541343Y-151164389D01*
X63293865Y-151476094D01*
X64092738Y-151635000D01*
X64907262Y-151635000D01*
X65706135Y-151476094D01*
X66458657Y-151164389D01*
X67135909Y-150711864D01*
X67711864Y-150135909D01*
X68164389Y-149458657D01*
X68476094Y-148706135D01*
X68635000Y-147907262D01*
X68635000Y-147092738D01*
X68476094Y-146293865D01*
X68164389Y-145541343D01*
X67711864Y-144864091D01*
X67135909Y-144288136D01*
X66458657Y-143835611D01*
X65706135Y-143523906D01*
X64907262Y-143365000D01*
X64092738Y-143365000D01*
X63293865Y-143523906D01*
X62541343Y-143835611D01*
X61864091Y-144288136D01*
X61288136Y-144864091D01*
X60835611Y-145541343D01*
X60523906Y-146293865D01*
X60365000Y-147092738D01*
X49635000Y-147092738D01*
X49476094Y-146293865D01*
X49164389Y-145541343D01*
X48711864Y-144864091D01*
X48135909Y-144288136D01*
X47458657Y-143835611D01*
X46706135Y-143523906D01*
X45907262Y-143365000D01*
X45092738Y-143365000D01*
X44293865Y-143523906D01*
X43541343Y-143835611D01*
X42864091Y-144288136D01*
X42288136Y-144864091D01*
X41835611Y-145541343D01*
X41523906Y-146293865D01*
X41365000Y-147092738D01*
X40660000Y-147092738D01*
X40660000Y-140740475D01*
X52365000Y-140740475D01*
X52365000Y-141259525D01*
X52466261Y-141768601D01*
X52664893Y-142248141D01*
X52953262Y-142679715D01*
X53320285Y-143046738D01*
X53751859Y-143335107D01*
X54231399Y-143533739D01*
X54740475Y-143635000D01*
X55259525Y-143635000D01*
X55768601Y-143533739D01*
X56248141Y-143335107D01*
X56679715Y-143046738D01*
X57046738Y-142679715D01*
X57335107Y-142248141D01*
X57533739Y-141768601D01*
X57635000Y-141259525D01*
X57635000Y-140740475D01*
X57533739Y-140231399D01*
X57335107Y-139751859D01*
X57046738Y-139320285D01*
X56679715Y-138953262D01*
X56248141Y-138664893D01*
X55768601Y-138466261D01*
X55259525Y-138365000D01*
X54740475Y-138365000D01*
X54231399Y-138466261D01*
X53751859Y-138664893D01*
X53320285Y-138953262D01*
X52953262Y-139320285D01*
X52664893Y-139751859D01*
X52466261Y-140231399D01*
X52365000Y-140740475D01*
X40660000Y-140740475D01*
X40660000Y-131992738D01*
X41365000Y-131992738D01*
X41365000Y-132807262D01*
X41523906Y-133606135D01*
X41835611Y-134358657D01*
X42288136Y-135035909D01*
X42864091Y-135611864D01*
X43541343Y-136064389D01*
X44293865Y-136376094D01*
X45092738Y-136535000D01*
X45907262Y-136535000D01*
X46706135Y-136376094D01*
X47458657Y-136064389D01*
X48135909Y-135611864D01*
X48711864Y-135035909D01*
X49164389Y-134358657D01*
X49476094Y-133606135D01*
X49635000Y-132807262D01*
X49635000Y-131992738D01*
X49476094Y-131193865D01*
X49164389Y-130441343D01*
X48711864Y-129764091D01*
X48135909Y-129188136D01*
X47458657Y-128735611D01*
X46706135Y-128423906D01*
X45907262Y-128265000D01*
X45092738Y-128265000D01*
X44293865Y-128423906D01*
X43541343Y-128735611D01*
X42864091Y-129188136D01*
X42288136Y-129764091D01*
X41835611Y-130441343D01*
X41523906Y-131193865D01*
X41365000Y-131992738D01*
X40660000Y-131992738D01*
X40660000Y-128043492D01*
X57365000Y-128043492D01*
X57365000Y-128956508D01*
X57543120Y-129851980D01*
X57892516Y-130695496D01*
X58399760Y-131454640D01*
X59045360Y-132100240D01*
X59804504Y-132607484D01*
X60648020Y-132956880D01*
X61543492Y-133135000D01*
X62456508Y-133135000D01*
X63351980Y-132956880D01*
X64195496Y-132607484D01*
X64954640Y-132100240D01*
X65600240Y-131454640D01*
X66107484Y-130695496D01*
X66456880Y-129851980D01*
X66635000Y-128956508D01*
X66635000Y-128043492D01*
X66456880Y-127148020D01*
X66107484Y-126304504D01*
X65600240Y-125545360D01*
X64954640Y-124899760D01*
X64195496Y-124392516D01*
X63351980Y-124043120D01*
X62456508Y-123865000D01*
X61543492Y-123865000D01*
X60648020Y-124043120D01*
X59804504Y-124392516D01*
X59045360Y-124899760D01*
X58399760Y-125545360D01*
X57892516Y-126304504D01*
X57543120Y-127148020D01*
X57365000Y-128043492D01*
X40660000Y-128043492D01*
X40660000Y-117092738D01*
X41365000Y-117092738D01*
X41365000Y-117907262D01*
X41523906Y-118706135D01*
X41835611Y-119458657D01*
X42288136Y-120135909D01*
X42864091Y-120711864D01*
X43541343Y-121164389D01*
X44293865Y-121476094D01*
X45092738Y-121635000D01*
X45907262Y-121635000D01*
X46706135Y-121476094D01*
X47458657Y-121164389D01*
X48135909Y-120711864D01*
X48711864Y-120135909D01*
X49164389Y-119458657D01*
X49476094Y-118706135D01*
X49635000Y-117907262D01*
X49635000Y-117092738D01*
X49476094Y-116293865D01*
X49164389Y-115541343D01*
X48711864Y-114864091D01*
X48135909Y-114288136D01*
X47458657Y-113835611D01*
X46706135Y-113523906D01*
X45907262Y-113365000D01*
X45092738Y-113365000D01*
X44293865Y-113523906D01*
X43541343Y-113835611D01*
X42864091Y-114288136D01*
X42288136Y-114864091D01*
X41835611Y-115541343D01*
X41523906Y-116293865D01*
X41365000Y-117092738D01*
X40660000Y-117092738D01*
X40660000Y-111043492D01*
X57365000Y-111043492D01*
X57365000Y-111956508D01*
X57543120Y-112851980D01*
X57892516Y-113695496D01*
X58399760Y-114454640D01*
X59045360Y-115100240D01*
X59804504Y-115607484D01*
X60648020Y-115956880D01*
X61543492Y-116135000D01*
X62456508Y-116135000D01*
X63351980Y-115956880D01*
X64195496Y-115607484D01*
X64954640Y-115100240D01*
X65600240Y-114454640D01*
X66107484Y-113695496D01*
X66456880Y-112851980D01*
X66635000Y-111956508D01*
X66635000Y-111043492D01*
X66456880Y-110148020D01*
X66107484Y-109304504D01*
X65600240Y-108545360D01*
X64954640Y-107899760D01*
X64195496Y-107392516D01*
X63351980Y-107043120D01*
X62456508Y-106865000D01*
X61543492Y-106865000D01*
X60648020Y-107043120D01*
X59804504Y-107392516D01*
X59045360Y-107899760D01*
X58399760Y-108545360D01*
X57892516Y-109304504D01*
X57543120Y-110148020D01*
X57365000Y-111043492D01*
X40660000Y-111043492D01*
X40660000Y-97043492D01*
X43365000Y-97043492D01*
X43365000Y-97956508D01*
X43543120Y-98851980D01*
X43892516Y-99695496D01*
X44399760Y-100454640D01*
X45045360Y-101100240D01*
X45804504Y-101607484D01*
X46648020Y-101956880D01*
X47543492Y-102135000D01*
X48456508Y-102135000D01*
X49351980Y-101956880D01*
X50195496Y-101607484D01*
X50954640Y-101100240D01*
X51600240Y-100454640D01*
X52107484Y-99695496D01*
X52456880Y-98851980D01*
X52635000Y-97956508D01*
X52635000Y-97043492D01*
X52456880Y-96148020D01*
X52107484Y-95304504D01*
X51600240Y-94545360D01*
X50954640Y-93899760D01*
X50195496Y-93392516D01*
X49351980Y-93043120D01*
X48456508Y-92865000D01*
X47543492Y-92865000D01*
X46648020Y-93043120D01*
X45804504Y-93392516D01*
X45045360Y-93899760D01*
X44399760Y-94545360D01*
X43892516Y-95304504D01*
X43543120Y-96148020D01*
X43365000Y-97043492D01*
X40660000Y-97043492D01*
X40660000Y-78592738D01*
X42865000Y-78592738D01*
X42865000Y-79407262D01*
X43023906Y-80206135D01*
X43335611Y-80958657D01*
X43788136Y-81635909D01*
X44364091Y-82211864D01*
X45041343Y-82664389D01*
X45793865Y-82976094D01*
X46592738Y-83135000D01*
X47407262Y-83135000D01*
X48206135Y-82976094D01*
X48958657Y-82664389D01*
X49635909Y-82211864D01*
X50211864Y-81635909D01*
X50664389Y-80958657D01*
X50730106Y-80800000D01*
X57673000Y-80800000D01*
X57673000Y-87200000D01*
X57675440Y-87224776D01*
X57682667Y-87248601D01*
X57694403Y-87270557D01*
X57710197Y-87289803D01*
X57729443Y-87305597D01*
X57751399Y-87317333D01*
X57775224Y-87324560D01*
X57800000Y-87327000D01*
X66800000Y-87327000D01*
X66824776Y-87324560D01*
X66848601Y-87317333D01*
X66870557Y-87305597D01*
X66889803Y-87289803D01*
X66905597Y-87270557D01*
X66917333Y-87248601D01*
X66924560Y-87224776D01*
X66927000Y-87200000D01*
X66927000Y-80800000D01*
X66924560Y-80775224D01*
X66917333Y-80751399D01*
X66905597Y-80729443D01*
X66889803Y-80710197D01*
X66870557Y-80694403D01*
X66848601Y-80682667D01*
X66824776Y-80675440D01*
X66800000Y-80673000D01*
X57800000Y-80673000D01*
X57775224Y-80675440D01*
X57751399Y-80682667D01*
X57729443Y-80694403D01*
X57710197Y-80710197D01*
X57694403Y-80729443D01*
X57682667Y-80751399D01*
X57675440Y-80775224D01*
X57673000Y-80800000D01*
X50730106Y-80800000D01*
X50976094Y-80206135D01*
X51135000Y-79407262D01*
X51135000Y-78592738D01*
X50976094Y-77793865D01*
X50664389Y-77041343D01*
X50211864Y-76364091D01*
X49635909Y-75788136D01*
X48958657Y-75335611D01*
X48206135Y-75023906D01*
X47407262Y-74865000D01*
X46592738Y-74865000D01*
X45793865Y-75023906D01*
X45041343Y-75335611D01*
X44364091Y-75788136D01*
X43788136Y-76364091D01*
X43335611Y-77041343D01*
X43023906Y-77793865D01*
X42865000Y-78592738D01*
X40660000Y-78592738D01*
X40660000Y-71043492D01*
X57365000Y-71043492D01*
X57365000Y-71956508D01*
X57543120Y-72851980D01*
X57892516Y-73695496D01*
X58399760Y-74454640D01*
X59045360Y-75100240D01*
X59804504Y-75607484D01*
X60648020Y-75956880D01*
X61543492Y-76135000D01*
X62456508Y-76135000D01*
X63351980Y-75956880D01*
X64195496Y-75607484D01*
X64954640Y-75100240D01*
X65600240Y-74454640D01*
X66107484Y-73695496D01*
X66456880Y-72851980D01*
X66635000Y-71956508D01*
X66635000Y-71043492D01*
X66456880Y-70148020D01*
X66107484Y-69304504D01*
X65600240Y-68545360D01*
X64954640Y-67899760D01*
X64195496Y-67392516D01*
X63351980Y-67043120D01*
X62456508Y-66865000D01*
X61543492Y-66865000D01*
X60648020Y-67043120D01*
X59804504Y-67392516D01*
X59045360Y-67899760D01*
X58399760Y-68545360D01*
X57892516Y-69304504D01*
X57543120Y-70148020D01*
X57365000Y-71043492D01*
X40660000Y-71043492D01*
X40660000Y-58043492D01*
X43365000Y-58043492D01*
X43365000Y-58956508D01*
X43543120Y-59851980D01*
X43892516Y-60695496D01*
X44399760Y-61454640D01*
X45045360Y-62100240D01*
X45804504Y-62607484D01*
X46648020Y-62956880D01*
X47543492Y-63135000D01*
X48456508Y-63135000D01*
X49351980Y-62956880D01*
X50195496Y-62607484D01*
X50954640Y-62100240D01*
X51600240Y-61454640D01*
X52107484Y-60695496D01*
X52456880Y-59851980D01*
X52635000Y-58956508D01*
X52635000Y-58043492D01*
X52456880Y-57148020D01*
X52107484Y-56304504D01*
X51600240Y-55545360D01*
X50954640Y-54899760D01*
X50195496Y-54392516D01*
X49351980Y-54043120D01*
X48456508Y-53865000D01*
X47543492Y-53865000D01*
X46648020Y-54043120D01*
X45804504Y-54392516D01*
X45045360Y-54899760D01*
X44399760Y-55545360D01*
X43892516Y-56304504D01*
X43543120Y-57148020D01*
X43365000Y-58043492D01*
X40660000Y-58043492D01*
X40660000Y-53200000D01*
X57673000Y-53200000D01*
X57673000Y-59800000D01*
X57675440Y-59824776D01*
X57682667Y-59848601D01*
X57694403Y-59870557D01*
X57710197Y-59889803D01*
X57729443Y-59905597D01*
X57751399Y-59917333D01*
X57775224Y-59924560D01*
X57800000Y-59927000D01*
X66800000Y-59927000D01*
X66824776Y-59924560D01*
X66848601Y-59917333D01*
X66870557Y-59905597D01*
X66889803Y-59889803D01*
X66905597Y-59870557D01*
X66917333Y-59848601D01*
X66924560Y-59824776D01*
X66927000Y-59800000D01*
X66927000Y-53200000D01*
X66924560Y-53175224D01*
X66917333Y-53151399D01*
X66905597Y-53129443D01*
X66889803Y-53110197D01*
X66870557Y-53094403D01*
X66848601Y-53082667D01*
X66824776Y-53075440D01*
X66800000Y-53073000D01*
X57800000Y-53073000D01*
X57775224Y-53075440D01*
X57751399Y-53082667D01*
X57729443Y-53094403D01*
X57710197Y-53110197D01*
X57694403Y-53129443D01*
X57682667Y-53151399D01*
X57675440Y-53175224D01*
X57673000Y-53200000D01*
X40660000Y-53200000D01*
X40660000Y-40660000D01*
X42175927Y-40660000D01*
X42073164Y-40714928D01*
G37*
%TD.AperFunction*%
M02*
