%FSLAX45Y45*%
G04 Gerber Fmt 4.5, Leading zero omitted, Abs format (unit mm)*
G04 Created by KiCad (PCBNEW 5.1.9+dfsg1-1~bpo10+1) date 2022-02-07 13:39:46*
%MOMM*%
%LPD*%
G01*
G04 APERTURE LIST*
%TA.AperFunction,Profile*%
%ADD10C,0.050000*%
%TD*%
%ADD11C,0.200000*%
%ADD12C,0.300000*%
G04 APERTURE END LIST*
D10*
X13400000Y-13525000D02*
X13400000Y-5300000D01*
X10400000Y-13525000D02*
X13400000Y-13525000D01*
X10400000Y-5300000D02*
X10400000Y-13525000D01*
X10400000Y-5300000D02*
X13400000Y-5300000D01*
D11*
X10480000Y-5980000D02*
X10520000Y-6020000D01*
X10520000Y-5980000D02*
X10480000Y-6020000D01*
X10630000Y-11580000D02*
X10670000Y-11620000D01*
X10670000Y-11580000D02*
X10630000Y-11620000D01*
X10680000Y-5680000D02*
X10720000Y-5720000D01*
X10720000Y-5680000D02*
X10680000Y-5720000D01*
X10680000Y-6280000D02*
X10720000Y-6320000D01*
X10720000Y-6280000D02*
X10680000Y-6320000D01*
X10680000Y-6480000D02*
X10720000Y-6520000D01*
X10720000Y-6480000D02*
X10680000Y-6520000D01*
X10730000Y-11730000D02*
X10770000Y-11770000D01*
X10770000Y-11730000D02*
X10730000Y-11770000D01*
X10780000Y-5580000D02*
X10820000Y-5620000D01*
X10820000Y-5580000D02*
X10780000Y-5620000D01*
X10780000Y-5880000D02*
X10820000Y-5920000D01*
X10820000Y-5880000D02*
X10780000Y-5920000D01*
X10780000Y-9330000D02*
X10820000Y-9370000D01*
X10820000Y-9330000D02*
X10780000Y-9370000D01*
X10780000Y-9580000D02*
X10820000Y-9620000D01*
X10820000Y-9580000D02*
X10780000Y-9620000D01*
X10780000Y-11480000D02*
X10820000Y-11520000D01*
X10820000Y-11480000D02*
X10780000Y-11520000D01*
X10830000Y-11130000D02*
X10870000Y-11170000D01*
X10870000Y-11130000D02*
X10830000Y-11170000D01*
X10880000Y-9080000D02*
X10920000Y-9120000D01*
X10920000Y-9080000D02*
X10880000Y-9120000D01*
X10880000Y-9730000D02*
X10920000Y-9770000D01*
X10920000Y-9730000D02*
X10880000Y-9770000D01*
X10880000Y-10030000D02*
X10920000Y-10070000D01*
X10920000Y-10030000D02*
X10880000Y-10070000D01*
X10880000Y-10280000D02*
X10920000Y-10320000D01*
X10920000Y-10280000D02*
X10880000Y-10320000D01*
X10880000Y-10680000D02*
X10920000Y-10720000D01*
X10920000Y-10680000D02*
X10880000Y-10720000D01*
X10880000Y-11280000D02*
X10920000Y-11320000D01*
X10920000Y-11280000D02*
X10880000Y-11320000D01*
X10880000Y-11630000D02*
X10920000Y-11670000D01*
X10920000Y-11630000D02*
X10880000Y-11670000D01*
X11080000Y-11480000D02*
X11120000Y-11520000D01*
X11120000Y-11480000D02*
X11080000Y-11520000D01*
X11130000Y-9130000D02*
X11170000Y-9170000D01*
X11170000Y-9130000D02*
X11130000Y-9170000D01*
X11130000Y-9280000D02*
X11170000Y-9320000D01*
X11170000Y-9280000D02*
X11130000Y-9320000D01*
X11130000Y-11580000D02*
X11170000Y-11620000D01*
X11170000Y-11580000D02*
X11130000Y-11620000D01*
X11180000Y-8980000D02*
X11220000Y-9020000D01*
X11220000Y-8980000D02*
X11180000Y-9020000D01*
X11280000Y-6180000D02*
X11320000Y-6220000D01*
X11320000Y-6180000D02*
X11280000Y-6220000D01*
X11480000Y-6280000D02*
X11520000Y-6320000D01*
X11520000Y-6280000D02*
X11480000Y-6320000D01*
X11680000Y-6280000D02*
X11720000Y-6320000D01*
X11720000Y-6280000D02*
X11680000Y-6320000D01*
X11680000Y-7280000D02*
X11720000Y-7320000D01*
X11720000Y-7280000D02*
X11680000Y-7320000D01*
X11680000Y-9380000D02*
X11720000Y-9420000D01*
X11720000Y-9380000D02*
X11680000Y-9420000D01*
X11680000Y-9580000D02*
X11720000Y-9620000D01*
X11720000Y-9580000D02*
X11680000Y-9620000D01*
X11680000Y-9880000D02*
X11720000Y-9920000D01*
X11720000Y-9880000D02*
X11680000Y-9920000D01*
X11680000Y-10080000D02*
X11720000Y-10120000D01*
X11720000Y-10080000D02*
X11680000Y-10120000D01*
X11680000Y-10380000D02*
X11720000Y-10420000D01*
X11720000Y-10380000D02*
X11680000Y-10420000D01*
X11680000Y-10580000D02*
X11720000Y-10620000D01*
X11720000Y-10580000D02*
X11680000Y-10620000D01*
X11680000Y-10880000D02*
X11720000Y-10920000D01*
X11720000Y-10880000D02*
X11680000Y-10920000D01*
X11680000Y-11180000D02*
X11720000Y-11220000D01*
X11720000Y-11180000D02*
X11680000Y-11220000D01*
X11720000Y-12930000D02*
X11760000Y-12970000D01*
X11760000Y-12930000D02*
X11720000Y-12970000D01*
X11730000Y-11330000D02*
X11770000Y-11370000D01*
X11770000Y-11330000D02*
X11730000Y-11370000D01*
X11730000Y-12030000D02*
X11770000Y-12070000D01*
X11770000Y-12030000D02*
X11730000Y-12070000D01*
X11730000Y-12280000D02*
X11770000Y-12320000D01*
X11770000Y-12280000D02*
X11730000Y-12320000D01*
X11730000Y-12530000D02*
X11770000Y-12570000D01*
X11770000Y-12530000D02*
X11730000Y-12570000D01*
X11780000Y-6180000D02*
X11820000Y-6220000D01*
X11820000Y-6180000D02*
X11780000Y-6220000D01*
X11780000Y-7580000D02*
X11820000Y-7620000D01*
X11820000Y-7580000D02*
X11780000Y-7620000D01*
X11810000Y-13210000D02*
X11850000Y-13250000D01*
X11850000Y-13210000D02*
X11810000Y-13250000D01*
X11850000Y-13030000D02*
X11890000Y-13070000D01*
X11890000Y-13030000D02*
X11850000Y-13070000D01*
X11880000Y-7380000D02*
X11920000Y-7420000D01*
X11920000Y-7380000D02*
X11880000Y-7420000D01*
X11880000Y-7680000D02*
X11920000Y-7720000D01*
X11920000Y-7680000D02*
X11880000Y-7720000D01*
X11880000Y-8580000D02*
X11920000Y-8620000D01*
X11920000Y-8580000D02*
X11880000Y-8620000D01*
X11880000Y-11230000D02*
X11920000Y-11270000D01*
X11920000Y-11230000D02*
X11880000Y-11270000D01*
X11980000Y-6280000D02*
X12020000Y-6320000D01*
X12020000Y-6280000D02*
X11980000Y-6320000D01*
X11980000Y-8080000D02*
X12020000Y-8120000D01*
X12020000Y-8080000D02*
X11980000Y-8120000D01*
X11990000Y-13250000D02*
X12030000Y-13290000D01*
X12030000Y-13250000D02*
X11990000Y-13290000D01*
X12030000Y-9430000D02*
X12070000Y-9470000D01*
X12070000Y-9430000D02*
X12030000Y-9470000D01*
X12080000Y-11230000D02*
X12120000Y-11270000D01*
X12120000Y-11230000D02*
X12080000Y-11270000D01*
X12280000Y-5980000D02*
X12320000Y-6020000D01*
X12320000Y-5980000D02*
X12280000Y-6020000D01*
X12380000Y-5980000D02*
X12420000Y-6020000D01*
X12420000Y-5980000D02*
X12380000Y-6020000D01*
X12380000Y-6280000D02*
X12420000Y-6320000D01*
X12420000Y-6280000D02*
X12380000Y-6320000D01*
X12580000Y-6780000D02*
X12620000Y-6820000D01*
X12620000Y-6780000D02*
X12580000Y-6820000D01*
X12580000Y-9080000D02*
X12620000Y-9120000D01*
X12620000Y-9080000D02*
X12580000Y-9120000D01*
X12580000Y-10930000D02*
X12620000Y-10970000D01*
X12620000Y-10930000D02*
X12580000Y-10970000D01*
X12580000Y-11080000D02*
X12620000Y-11120000D01*
X12620000Y-11080000D02*
X12580000Y-11120000D01*
X12630000Y-12080000D02*
X12670000Y-12120000D01*
X12670000Y-12080000D02*
X12630000Y-12120000D01*
X12630000Y-12730000D02*
X12670000Y-12770000D01*
X12670000Y-12730000D02*
X12630000Y-12770000D01*
X12680000Y-6280000D02*
X12720000Y-6320000D01*
X12720000Y-6280000D02*
X12680000Y-6320000D01*
X12680000Y-7580000D02*
X12720000Y-7620000D01*
X12720000Y-7580000D02*
X12680000Y-7620000D01*
X12730000Y-12630000D02*
X12770000Y-12670000D01*
X12770000Y-12630000D02*
X12730000Y-12670000D01*
X12780000Y-6680000D02*
X12820000Y-6720000D01*
X12820000Y-6680000D02*
X12780000Y-6720000D01*
X12780000Y-7380000D02*
X12820000Y-7420000D01*
X12820000Y-7380000D02*
X12780000Y-7420000D01*
X12780000Y-8580000D02*
X12820000Y-8620000D01*
X12820000Y-8580000D02*
X12780000Y-8620000D01*
X12780000Y-8880000D02*
X12820000Y-8920000D01*
X12820000Y-8880000D02*
X12780000Y-8920000D01*
X12780000Y-12080000D02*
X12820000Y-12120000D01*
X12820000Y-12080000D02*
X12780000Y-12120000D01*
X12830000Y-11130000D02*
X12870000Y-11170000D01*
X12870000Y-11130000D02*
X12830000Y-11170000D01*
X12830000Y-11280000D02*
X12870000Y-11320000D01*
X12870000Y-11280000D02*
X12830000Y-11320000D01*
X12830000Y-11780000D02*
X12870000Y-11820000D01*
X12870000Y-11780000D02*
X12830000Y-11820000D01*
X12880000Y-7980000D02*
X12920000Y-8020000D01*
X12920000Y-7980000D02*
X12880000Y-8020000D01*
X12880000Y-8080000D02*
X12920000Y-8120000D01*
X12920000Y-8080000D02*
X12880000Y-8120000D01*
X12880000Y-8280000D02*
X12920000Y-8320000D01*
X12920000Y-8280000D02*
X12880000Y-8320000D01*
X12880000Y-9480000D02*
X12920000Y-9520000D01*
X12920000Y-9480000D02*
X12880000Y-9520000D01*
X12880000Y-9780000D02*
X12920000Y-9820000D01*
X12920000Y-9780000D02*
X12880000Y-9820000D01*
X12980000Y-6780000D02*
X13020000Y-6820000D01*
X13020000Y-6780000D02*
X12980000Y-6820000D01*
X12980000Y-7480000D02*
X13020000Y-7520000D01*
X13020000Y-7480000D02*
X12980000Y-7520000D01*
X12980000Y-8580000D02*
X13020000Y-8620000D01*
X13020000Y-8580000D02*
X12980000Y-8620000D01*
X12980000Y-12030000D02*
X13020000Y-12070000D01*
X13020000Y-12030000D02*
X12980000Y-12070000D01*
X13080000Y-6580000D02*
X13120000Y-6620000D01*
X13120000Y-6580000D02*
X13080000Y-6620000D01*
X13080000Y-8080000D02*
X13120000Y-8120000D01*
X13120000Y-8080000D02*
X13080000Y-8120000D01*
X13080000Y-8280000D02*
X13120000Y-8320000D01*
X13120000Y-8280000D02*
X13080000Y-8320000D01*
X13080000Y-11130000D02*
X13120000Y-11170000D01*
X13120000Y-11130000D02*
X13080000Y-11170000D01*
X13180000Y-7280000D02*
X13220000Y-7320000D01*
X13220000Y-7280000D02*
X13180000Y-7320000D01*
X13180000Y-7480000D02*
X13220000Y-7520000D01*
X13220000Y-7480000D02*
X13180000Y-7520000D01*
X13180000Y-7980000D02*
X13220000Y-8020000D01*
X13220000Y-7980000D02*
X13180000Y-8020000D01*
X13180000Y-8580000D02*
X13220000Y-8620000D01*
X13220000Y-8580000D02*
X13180000Y-8620000D01*
X13180000Y-11030000D02*
X13220000Y-11070000D01*
X13220000Y-11030000D02*
X13180000Y-11070000D01*
X13180000Y-12080000D02*
X13220000Y-12120000D01*
X13220000Y-12080000D02*
X13180000Y-12120000D01*
X13280000Y-6680000D02*
X13320000Y-6720000D01*
X13320000Y-6680000D02*
X13280000Y-6720000D01*
X13280000Y-8080000D02*
X13320000Y-8120000D01*
X13320000Y-8080000D02*
X13280000Y-8120000D01*
X10615000Y-7323000D02*
G75*
G03*
X10615000Y-7323000I-40000J0D01*
G01*
X10615000Y-8085000D02*
G75*
G03*
X10615000Y-8085000I-40000J0D01*
G01*
X10640000Y-12440000D02*
G75*
G03*
X10640000Y-12440000I-40000J0D01*
G01*
X10640000Y-13202000D02*
G75*
G03*
X10640000Y-13202000I-40000J0D01*
G01*
X10658000Y-9160000D02*
G75*
G03*
X10658000Y-9160000I-40000J0D01*
G01*
X10658000Y-11320000D02*
G75*
G03*
X10658000Y-11320000I-40000J0D01*
G01*
X10660000Y-9470000D02*
G75*
G03*
X10660000Y-9470000I-40000J0D01*
G01*
X10690000Y-9770000D02*
G75*
G03*
X10690000Y-9770000I-40000J0D01*
G01*
X10690000Y-10080000D02*
G75*
G03*
X10690000Y-10080000I-40000J0D01*
G01*
X10690000Y-10390000D02*
G75*
G03*
X10690000Y-10390000I-40000J0D01*
G01*
X10690000Y-10700000D02*
G75*
G03*
X10690000Y-10700000I-40000J0D01*
G01*
X10690000Y-11010000D02*
G75*
G03*
X10690000Y-11010000I-40000J0D01*
G01*
X10730000Y-8350000D02*
G75*
G03*
X10730000Y-8350000I-40000J0D01*
G01*
X10760000Y-12040000D02*
G75*
G03*
X10760000Y-12040000I-40000J0D01*
G01*
X10920000Y-7325000D02*
G75*
G03*
X10920000Y-7325000I-40000J0D01*
G01*
X10920000Y-8087000D02*
G75*
G03*
X10920000Y-8087000I-40000J0D01*
G01*
X10940000Y-12440000D02*
G75*
G03*
X10940000Y-12440000I-40000J0D01*
G01*
X10940000Y-13202000D02*
G75*
G03*
X10940000Y-13202000I-40000J0D01*
G01*
X11190000Y-9770000D02*
G75*
G03*
X11190000Y-9770000I-40000J0D01*
G01*
X11190000Y-10080000D02*
G75*
G03*
X11190000Y-10080000I-40000J0D01*
G01*
X11190000Y-10390000D02*
G75*
G03*
X11190000Y-10390000I-40000J0D01*
G01*
X11190000Y-10700000D02*
G75*
G03*
X11190000Y-10700000I-40000J0D01*
G01*
X11190000Y-11010000D02*
G75*
G03*
X11190000Y-11010000I-40000J0D01*
G01*
X11225000Y-7325000D02*
G75*
G03*
X11225000Y-7325000I-40000J0D01*
G01*
X11225000Y-8087000D02*
G75*
G03*
X11225000Y-8087000I-40000J0D01*
G01*
X11230000Y-8350000D02*
G75*
G03*
X11230000Y-8350000I-40000J0D01*
G01*
X11240000Y-12440000D02*
G75*
G03*
X11240000Y-12440000I-40000J0D01*
G01*
X11240000Y-13202000D02*
G75*
G03*
X11240000Y-13202000I-40000J0D01*
G01*
X11260000Y-12040000D02*
G75*
G03*
X11260000Y-12040000I-40000J0D01*
G01*
X11420000Y-9160000D02*
G75*
G03*
X11420000Y-9160000I-40000J0D01*
G01*
X11420000Y-11320000D02*
G75*
G03*
X11420000Y-11320000I-40000J0D01*
G01*
X11422000Y-9470000D02*
G75*
G03*
X11422000Y-9470000I-40000J0D01*
G01*
X11438000Y-9750000D02*
G75*
G03*
X11438000Y-9750000I-40000J0D01*
G01*
X11438000Y-10000000D02*
G75*
G03*
X11438000Y-10000000I-40000J0D01*
G01*
X11438000Y-10250000D02*
G75*
G03*
X11438000Y-10250000I-40000J0D01*
G01*
X11438000Y-10770000D02*
G75*
G03*
X11438000Y-10770000I-40000J0D01*
G01*
X11438000Y-11030000D02*
G75*
G03*
X11438000Y-11030000I-40000J0D01*
G01*
X11440000Y-10510000D02*
G75*
G03*
X11440000Y-10510000I-40000J0D01*
G01*
X11538000Y-7300000D02*
G75*
G03*
X11538000Y-7300000I-40000J0D01*
G01*
X11538000Y-7554000D02*
G75*
G03*
X11538000Y-7554000I-40000J0D01*
G01*
X11538000Y-7808000D02*
G75*
G03*
X11538000Y-7808000I-40000J0D01*
G01*
X11538000Y-8062000D02*
G75*
G03*
X11538000Y-8062000I-40000J0D01*
G01*
X11538000Y-8316000D02*
G75*
G03*
X11538000Y-8316000I-40000J0D01*
G01*
X11538000Y-8570000D02*
G75*
G03*
X11538000Y-8570000I-40000J0D01*
G01*
X11538000Y-8824000D02*
G75*
G03*
X11538000Y-8824000I-40000J0D01*
G01*
X11558000Y-11640000D02*
G75*
G03*
X11558000Y-11640000I-40000J0D01*
G01*
X11558000Y-11894000D02*
G75*
G03*
X11558000Y-11894000I-40000J0D01*
G01*
X11558000Y-12148000D02*
G75*
G03*
X11558000Y-12148000I-40000J0D01*
G01*
X11558000Y-12402000D02*
G75*
G03*
X11558000Y-12402000I-40000J0D01*
G01*
X11558000Y-12656000D02*
G75*
G03*
X11558000Y-12656000I-40000J0D01*
G01*
X11558000Y-12910000D02*
G75*
G03*
X11558000Y-12910000I-40000J0D01*
G01*
X11558000Y-13164000D02*
G75*
G03*
X11558000Y-13164000I-40000J0D01*
G01*
X11590000Y-6700000D02*
G75*
G03*
X11590000Y-6700000I-40000J0D01*
G01*
X11638000Y-9160000D02*
G75*
G03*
X11638000Y-9160000I-40000J0D01*
G01*
X11840000Y-6700000D02*
G75*
G03*
X11840000Y-6700000I-40000J0D01*
G01*
X12190000Y-6700000D02*
G75*
G03*
X12190000Y-6700000I-40000J0D01*
G01*
X12200000Y-9750000D02*
G75*
G03*
X12200000Y-9750000I-40000J0D01*
G01*
X12200000Y-10000000D02*
G75*
G03*
X12200000Y-10000000I-40000J0D01*
G01*
X12200000Y-10250000D02*
G75*
G03*
X12200000Y-10250000I-40000J0D01*
G01*
X12200000Y-10770000D02*
G75*
G03*
X12200000Y-10770000I-40000J0D01*
G01*
X12200000Y-11030000D02*
G75*
G03*
X12200000Y-11030000I-40000J0D01*
G01*
X12202000Y-10510000D02*
G75*
G03*
X12202000Y-10510000I-40000J0D01*
G01*
X12300000Y-7300000D02*
G75*
G03*
X12300000Y-7300000I-40000J0D01*
G01*
X12300000Y-7554000D02*
G75*
G03*
X12300000Y-7554000I-40000J0D01*
G01*
X12300000Y-7808000D02*
G75*
G03*
X12300000Y-7808000I-40000J0D01*
G01*
X12300000Y-8062000D02*
G75*
G03*
X12300000Y-8062000I-40000J0D01*
G01*
X12300000Y-8316000D02*
G75*
G03*
X12300000Y-8316000I-40000J0D01*
G01*
X12300000Y-8570000D02*
G75*
G03*
X12300000Y-8570000I-40000J0D01*
G01*
X12300000Y-8824000D02*
G75*
G03*
X12300000Y-8824000I-40000J0D01*
G01*
X12320000Y-11640000D02*
G75*
G03*
X12320000Y-11640000I-40000J0D01*
G01*
X12320000Y-11894000D02*
G75*
G03*
X12320000Y-11894000I-40000J0D01*
G01*
X12320000Y-12148000D02*
G75*
G03*
X12320000Y-12148000I-40000J0D01*
G01*
X12320000Y-12402000D02*
G75*
G03*
X12320000Y-12402000I-40000J0D01*
G01*
X12320000Y-12656000D02*
G75*
G03*
X12320000Y-12656000I-40000J0D01*
G01*
X12320000Y-12910000D02*
G75*
G03*
X12320000Y-12910000I-40000J0D01*
G01*
X12320000Y-13164000D02*
G75*
G03*
X12320000Y-13164000I-40000J0D01*
G01*
X12400000Y-9160000D02*
G75*
G03*
X12400000Y-9160000I-40000J0D01*
G01*
X12440000Y-6700000D02*
G75*
G03*
X12440000Y-6700000I-40000J0D01*
G01*
X12640000Y-10738000D02*
G75*
G03*
X12640000Y-10738000I-40000J0D01*
G01*
X12640000Y-11500000D02*
G75*
G03*
X12640000Y-11500000I-40000J0D01*
G01*
X12650000Y-7038000D02*
G75*
G03*
X12650000Y-7038000I-40000J0D01*
G01*
X12650000Y-7800000D02*
G75*
G03*
X12650000Y-7800000I-40000J0D01*
G01*
X12660000Y-8200000D02*
G75*
G03*
X12660000Y-8200000I-40000J0D01*
G01*
X12660000Y-8700000D02*
G75*
G03*
X12660000Y-8700000I-40000J0D01*
G01*
X12660000Y-11800000D02*
G75*
G03*
X12660000Y-11800000I-40000J0D01*
G01*
X12690000Y-9510000D02*
G75*
G03*
X12690000Y-9510000I-40000J0D01*
G01*
X12690000Y-9760000D02*
G75*
G03*
X12690000Y-9760000I-40000J0D01*
G01*
X12690000Y-10090000D02*
G75*
G03*
X12690000Y-10090000I-40000J0D01*
G01*
X12690000Y-10340000D02*
G75*
G03*
X12690000Y-10340000I-40000J0D01*
G01*
X12720000Y-12330000D02*
G75*
G03*
X12720000Y-12330000I-40000J0D01*
G01*
X12720000Y-13092000D02*
G75*
G03*
X12720000Y-13092000I-40000J0D01*
G01*
X12940000Y-10740000D02*
G75*
G03*
X12940000Y-10740000I-40000J0D01*
G01*
X12940000Y-11502000D02*
G75*
G03*
X12940000Y-11502000I-40000J0D01*
G01*
X12960000Y-7040000D02*
G75*
G03*
X12960000Y-7040000I-40000J0D01*
G01*
X12960000Y-7802000D02*
G75*
G03*
X12960000Y-7802000I-40000J0D01*
G01*
X12970000Y-12328000D02*
G75*
G03*
X12970000Y-12328000I-40000J0D01*
G01*
X12970000Y-13090000D02*
G75*
G03*
X12970000Y-13090000I-40000J0D01*
G01*
X13160000Y-11800000D02*
G75*
G03*
X13160000Y-11800000I-40000J0D01*
G01*
X13240000Y-10740000D02*
G75*
G03*
X13240000Y-10740000I-40000J0D01*
G01*
X13240000Y-11502000D02*
G75*
G03*
X13240000Y-11502000I-40000J0D01*
G01*
X13250000Y-12328000D02*
G75*
G03*
X13250000Y-12328000I-40000J0D01*
G01*
X13250000Y-13090000D02*
G75*
G03*
X13250000Y-13090000I-40000J0D01*
G01*
X13270000Y-7038000D02*
G75*
G03*
X13270000Y-7038000I-40000J0D01*
G01*
X13270000Y-7800000D02*
G75*
G03*
X13270000Y-7800000I-40000J0D01*
G01*
X13060000Y-5672500D02*
X13060000Y-5767500D01*
X13012500Y-5720000D02*
X13107500Y-5720000D01*
X13060000Y-5922500D02*
X13060000Y-6017500D01*
X13012500Y-5970000D02*
X13107500Y-5970000D01*
X13060000Y-6172500D02*
X13060000Y-6267500D01*
X13012500Y-6220000D02*
X13107500Y-6220000D01*
X10667356Y-8785356D02*
X10667356Y-8714644D01*
X10596644Y-8714644D01*
X10596644Y-8785356D01*
X10667356Y-8785356D01*
X10685356Y-6935356D02*
X10685356Y-6864644D01*
X10614644Y-6864644D01*
X10614644Y-6935356D01*
X10685356Y-6935356D01*
X10921356Y-8785356D02*
X10921356Y-8714644D01*
X10850644Y-8714644D01*
X10850644Y-8785356D01*
X10921356Y-8785356D01*
X10939356Y-6935356D02*
X10939356Y-6864644D01*
X10868644Y-6864644D01*
X10868644Y-6935356D01*
X10939356Y-6935356D01*
X11035356Y-5825356D02*
X11035356Y-5754644D01*
X10964644Y-5754644D01*
X10964644Y-5825356D01*
X11035356Y-5825356D01*
X11035356Y-6079356D02*
X11035356Y-6008644D01*
X10964644Y-6008644D01*
X10964644Y-6079356D01*
X11035356Y-6079356D01*
X11175356Y-8785356D02*
X11175356Y-8714644D01*
X11104644Y-8714644D01*
X11104644Y-8785356D01*
X11175356Y-8785356D01*
X11193356Y-6935356D02*
X11193356Y-6864644D01*
X11122644Y-6864644D01*
X11122644Y-6935356D01*
X11193356Y-6935356D01*
X11289356Y-5825356D02*
X11289356Y-5754644D01*
X11218644Y-5754644D01*
X11218644Y-5825356D01*
X11289356Y-5825356D01*
X11289356Y-6079356D02*
X11289356Y-6008644D01*
X11218644Y-6008644D01*
X11218644Y-6079356D01*
X11289356Y-6079356D01*
X11543356Y-5825356D02*
X11543356Y-5754644D01*
X11472644Y-5754644D01*
X11472644Y-5825356D01*
X11543356Y-5825356D01*
X11543356Y-6079356D02*
X11543356Y-6008644D01*
X11472644Y-6008644D01*
X11472644Y-6079356D01*
X11543356Y-6079356D01*
X11797356Y-5825356D02*
X11797356Y-5754644D01*
X11726644Y-5754644D01*
X11726644Y-5825356D01*
X11797356Y-5825356D01*
X11797356Y-6079356D02*
X11797356Y-6008644D01*
X11726644Y-6008644D01*
X11726644Y-6079356D01*
X11797356Y-6079356D01*
X12051356Y-5825356D02*
X12051356Y-5754644D01*
X11980644Y-5754644D01*
X11980644Y-5825356D01*
X12051356Y-5825356D01*
X12051356Y-6079356D02*
X12051356Y-6008644D01*
X11980644Y-6008644D01*
X11980644Y-6079356D01*
X12051356Y-6079356D01*
X13185356Y-8935356D02*
X13185356Y-8864644D01*
X13114644Y-8864644D01*
X13114644Y-8935356D01*
X13185356Y-8935356D01*
X13185356Y-9189356D02*
X13185356Y-9118644D01*
X13114644Y-9118644D01*
X13114644Y-9189356D01*
X13185356Y-9189356D01*
X13185356Y-9443356D02*
X13185356Y-9372644D01*
X13114644Y-9372644D01*
X13114644Y-9443356D01*
X13185356Y-9443356D01*
X13185356Y-9697356D02*
X13185356Y-9626644D01*
X13114644Y-9626644D01*
X13114644Y-9697356D01*
X13185356Y-9697356D01*
X13185356Y-9951356D02*
X13185356Y-9880644D01*
X13114644Y-9880644D01*
X13114644Y-9951356D01*
X13185356Y-9951356D01*
X13185356Y-10205356D02*
X13185356Y-10134644D01*
X13114644Y-10134644D01*
X13114644Y-10205356D01*
X13185356Y-10205356D01*
X13185356Y-10459356D02*
X13185356Y-10388644D01*
X13114644Y-10388644D01*
X13114644Y-10459356D01*
X13185356Y-10459356D01*
D12*
X10683928Y-13993214D02*
X10683928Y-13693214D01*
X10755357Y-13693214D01*
X10798214Y-13707500D01*
X10826786Y-13736071D01*
X10841071Y-13764643D01*
X10855357Y-13821786D01*
X10855357Y-13864643D01*
X10841071Y-13921786D01*
X10826786Y-13950357D01*
X10798214Y-13978929D01*
X10755357Y-13993214D01*
X10683928Y-13993214D01*
X10983928Y-13993214D02*
X10983928Y-13793214D01*
X10983928Y-13850357D02*
X10998214Y-13821786D01*
X11012500Y-13807500D01*
X11041071Y-13793214D01*
X11069643Y-13793214D01*
X11169643Y-13993214D02*
X11169643Y-13793214D01*
X11169643Y-13693214D02*
X11155357Y-13707500D01*
X11169643Y-13721786D01*
X11183928Y-13707500D01*
X11169643Y-13693214D01*
X11169643Y-13721786D01*
X11355357Y-13993214D02*
X11326786Y-13978929D01*
X11312500Y-13950357D01*
X11312500Y-13693214D01*
X11512500Y-13993214D02*
X11483928Y-13978929D01*
X11469643Y-13950357D01*
X11469643Y-13693214D01*
X11855357Y-13993214D02*
X11855357Y-13693214D01*
X11955357Y-13907500D01*
X12055357Y-13693214D01*
X12055357Y-13993214D01*
X12326786Y-13993214D02*
X12326786Y-13836071D01*
X12312500Y-13807500D01*
X12283928Y-13793214D01*
X12226786Y-13793214D01*
X12198214Y-13807500D01*
X12326786Y-13978929D02*
X12298214Y-13993214D01*
X12226786Y-13993214D01*
X12198214Y-13978929D01*
X12183928Y-13950357D01*
X12183928Y-13921786D01*
X12198214Y-13893214D01*
X12226786Y-13878929D01*
X12298214Y-13878929D01*
X12326786Y-13864643D01*
X12469643Y-13793214D02*
X12469643Y-14093214D01*
X12469643Y-13807500D02*
X12498214Y-13793214D01*
X12555357Y-13793214D01*
X12583928Y-13807500D01*
X12598214Y-13821786D01*
X12612500Y-13850357D01*
X12612500Y-13936071D01*
X12598214Y-13964643D01*
X12583928Y-13978929D01*
X12555357Y-13993214D01*
X12498214Y-13993214D01*
X12469643Y-13978929D01*
X12741071Y-13964643D02*
X12755357Y-13978929D01*
X12741071Y-13993214D01*
X12726786Y-13978929D01*
X12741071Y-13964643D01*
X12741071Y-13993214D01*
X12741071Y-13807500D02*
X12755357Y-13821786D01*
X12741071Y-13836071D01*
X12726786Y-13821786D01*
X12741071Y-13807500D01*
X12741071Y-13836071D01*
X10357500Y-14467500D02*
X10397500Y-14507500D01*
X10397500Y-14467500D02*
X10357500Y-14507500D01*
X10741071Y-14323214D02*
X10769643Y-14323214D01*
X10798214Y-14337500D01*
X10812500Y-14351786D01*
X10826786Y-14380357D01*
X10841071Y-14437500D01*
X10841071Y-14508929D01*
X10826786Y-14566071D01*
X10812500Y-14594643D01*
X10798214Y-14608929D01*
X10769643Y-14623214D01*
X10741071Y-14623214D01*
X10712500Y-14608929D01*
X10698214Y-14594643D01*
X10683928Y-14566071D01*
X10669643Y-14508929D01*
X10669643Y-14437500D01*
X10683928Y-14380357D01*
X10698214Y-14351786D01*
X10712500Y-14337500D01*
X10741071Y-14323214D01*
X10969643Y-14594643D02*
X10983928Y-14608929D01*
X10969643Y-14623214D01*
X10955357Y-14608929D01*
X10969643Y-14594643D01*
X10969643Y-14623214D01*
X11241071Y-14423214D02*
X11241071Y-14623214D01*
X11169643Y-14308929D02*
X11098214Y-14523214D01*
X11283928Y-14523214D01*
X11455357Y-14323214D02*
X11483928Y-14323214D01*
X11512500Y-14337500D01*
X11526786Y-14351786D01*
X11541071Y-14380357D01*
X11555357Y-14437500D01*
X11555357Y-14508929D01*
X11541071Y-14566071D01*
X11526786Y-14594643D01*
X11512500Y-14608929D01*
X11483928Y-14623214D01*
X11455357Y-14623214D01*
X11426786Y-14608929D01*
X11412500Y-14594643D01*
X11398214Y-14566071D01*
X11383928Y-14508929D01*
X11383928Y-14437500D01*
X11398214Y-14380357D01*
X11412500Y-14351786D01*
X11426786Y-14337500D01*
X11455357Y-14323214D01*
X11683928Y-14623214D02*
X11683928Y-14423214D01*
X11683928Y-14451786D02*
X11698214Y-14437500D01*
X11726786Y-14423214D01*
X11769643Y-14423214D01*
X11798214Y-14437500D01*
X11812500Y-14466071D01*
X11812500Y-14623214D01*
X11812500Y-14466071D02*
X11826786Y-14437500D01*
X11855357Y-14423214D01*
X11898214Y-14423214D01*
X11926786Y-14437500D01*
X11941071Y-14466071D01*
X11941071Y-14623214D01*
X12083928Y-14623214D02*
X12083928Y-14423214D01*
X12083928Y-14451786D02*
X12098214Y-14437500D01*
X12126786Y-14423214D01*
X12169643Y-14423214D01*
X12198214Y-14437500D01*
X12212500Y-14466071D01*
X12212500Y-14623214D01*
X12212500Y-14466071D02*
X12226786Y-14437500D01*
X12255357Y-14423214D01*
X12298214Y-14423214D01*
X12326786Y-14437500D01*
X12341071Y-14466071D01*
X12341071Y-14623214D01*
X12926786Y-14308929D02*
X12669643Y-14694643D01*
X13312500Y-14323214D02*
X13341071Y-14323214D01*
X13369643Y-14337500D01*
X13383928Y-14351786D01*
X13398214Y-14380357D01*
X13412500Y-14437500D01*
X13412500Y-14508929D01*
X13398214Y-14566071D01*
X13383928Y-14594643D01*
X13369643Y-14608929D01*
X13341071Y-14623214D01*
X13312500Y-14623214D01*
X13283928Y-14608929D01*
X13269643Y-14594643D01*
X13255357Y-14566071D01*
X13241071Y-14508929D01*
X13241071Y-14437500D01*
X13255357Y-14380357D01*
X13269643Y-14351786D01*
X13283928Y-14337500D01*
X13312500Y-14323214D01*
X13541071Y-14594643D02*
X13555357Y-14608929D01*
X13541071Y-14623214D01*
X13526786Y-14608929D01*
X13541071Y-14594643D01*
X13541071Y-14623214D01*
X13741071Y-14323214D02*
X13769643Y-14323214D01*
X13798214Y-14337500D01*
X13812500Y-14351786D01*
X13826786Y-14380357D01*
X13841071Y-14437500D01*
X13841071Y-14508929D01*
X13826786Y-14566071D01*
X13812500Y-14594643D01*
X13798214Y-14608929D01*
X13769643Y-14623214D01*
X13741071Y-14623214D01*
X13712500Y-14608929D01*
X13698214Y-14594643D01*
X13683928Y-14566071D01*
X13669643Y-14508929D01*
X13669643Y-14437500D01*
X13683928Y-14380357D01*
X13698214Y-14351786D01*
X13712500Y-14337500D01*
X13741071Y-14323214D01*
X14126786Y-14623214D02*
X13955357Y-14623214D01*
X14041071Y-14623214D02*
X14041071Y-14323214D01*
X14012500Y-14366071D01*
X13983928Y-14394643D01*
X13955357Y-14408929D01*
X14383928Y-14323214D02*
X14326786Y-14323214D01*
X14298214Y-14337500D01*
X14283928Y-14351786D01*
X14255357Y-14394643D01*
X14241071Y-14451786D01*
X14241071Y-14566071D01*
X14255357Y-14594643D01*
X14269643Y-14608929D01*
X14298214Y-14623214D01*
X14355357Y-14623214D01*
X14383928Y-14608929D01*
X14398214Y-14594643D01*
X14412500Y-14566071D01*
X14412500Y-14494643D01*
X14398214Y-14466071D01*
X14383928Y-14451786D01*
X14355357Y-14437500D01*
X14298214Y-14437500D01*
X14269643Y-14451786D01*
X14255357Y-14466071D01*
X14241071Y-14494643D01*
X14526786Y-14323214D02*
X14526786Y-14380357D01*
X14641071Y-14323214D02*
X14641071Y-14380357D01*
X15083928Y-14737500D02*
X15069643Y-14723214D01*
X15041071Y-14680357D01*
X15026786Y-14651786D01*
X15012500Y-14608929D01*
X14998214Y-14537500D01*
X14998214Y-14480357D01*
X15012500Y-14408929D01*
X15026786Y-14366071D01*
X15041071Y-14337500D01*
X15069643Y-14294643D01*
X15083928Y-14280357D01*
X15212500Y-14623214D02*
X15269643Y-14623214D01*
X15298214Y-14608929D01*
X15312500Y-14594643D01*
X15341071Y-14551786D01*
X15355357Y-14494643D01*
X15355357Y-14380357D01*
X15341071Y-14351786D01*
X15326786Y-14337500D01*
X15298214Y-14323214D01*
X15241071Y-14323214D01*
X15212500Y-14337500D01*
X15198214Y-14351786D01*
X15183928Y-14380357D01*
X15183928Y-14451786D01*
X15198214Y-14480357D01*
X15212500Y-14494643D01*
X15241071Y-14508929D01*
X15298214Y-14508929D01*
X15326786Y-14494643D01*
X15341071Y-14480357D01*
X15355357Y-14451786D01*
X15626786Y-14323214D02*
X15483928Y-14323214D01*
X15469643Y-14466071D01*
X15483928Y-14451786D01*
X15512500Y-14437500D01*
X15583928Y-14437500D01*
X15612500Y-14451786D01*
X15626786Y-14466071D01*
X15641071Y-14494643D01*
X15641071Y-14566071D01*
X15626786Y-14594643D01*
X15612500Y-14608929D01*
X15583928Y-14623214D01*
X15512500Y-14623214D01*
X15483928Y-14608929D01*
X15469643Y-14594643D01*
X15998214Y-14623214D02*
X15998214Y-14323214D01*
X16126786Y-14623214D02*
X16126786Y-14466071D01*
X16112500Y-14437500D01*
X16083928Y-14423214D01*
X16041071Y-14423214D01*
X16012500Y-14437500D01*
X15998214Y-14451786D01*
X16312500Y-14623214D02*
X16283928Y-14608929D01*
X16269643Y-14594643D01*
X16255357Y-14566071D01*
X16255357Y-14480357D01*
X16269643Y-14451786D01*
X16283928Y-14437500D01*
X16312500Y-14423214D01*
X16355357Y-14423214D01*
X16383928Y-14437500D01*
X16398214Y-14451786D01*
X16412500Y-14480357D01*
X16412500Y-14566071D01*
X16398214Y-14594643D01*
X16383928Y-14608929D01*
X16355357Y-14623214D01*
X16312500Y-14623214D01*
X16583928Y-14623214D02*
X16555357Y-14608929D01*
X16541071Y-14580357D01*
X16541071Y-14323214D01*
X16812500Y-14608929D02*
X16783928Y-14623214D01*
X16726786Y-14623214D01*
X16698214Y-14608929D01*
X16683928Y-14580357D01*
X16683928Y-14466071D01*
X16698214Y-14437500D01*
X16726786Y-14423214D01*
X16783928Y-14423214D01*
X16812500Y-14437500D01*
X16826786Y-14466071D01*
X16826786Y-14494643D01*
X16683928Y-14523214D01*
X16941071Y-14608929D02*
X16969643Y-14623214D01*
X17026786Y-14623214D01*
X17055357Y-14608929D01*
X17069643Y-14580357D01*
X17069643Y-14566071D01*
X17055357Y-14537500D01*
X17026786Y-14523214D01*
X16983928Y-14523214D01*
X16955357Y-14508929D01*
X16941071Y-14480357D01*
X16941071Y-14466071D01*
X16955357Y-14437500D01*
X16983928Y-14423214D01*
X17026786Y-14423214D01*
X17055357Y-14437500D01*
X17169643Y-14737500D02*
X17183928Y-14723214D01*
X17212500Y-14680357D01*
X17226786Y-14651786D01*
X17241071Y-14608929D01*
X17255357Y-14537500D01*
X17255357Y-14480357D01*
X17241071Y-14408929D01*
X17226786Y-14366071D01*
X17212500Y-14337500D01*
X17183928Y-14294643D01*
X17169643Y-14280357D01*
X10397500Y-14883500D02*
G75*
G03*
X10397500Y-14883500I-40000J0D01*
G01*
X10741071Y-14719214D02*
X10769643Y-14719214D01*
X10798214Y-14733500D01*
X10812500Y-14747786D01*
X10826786Y-14776357D01*
X10841071Y-14833500D01*
X10841071Y-14904929D01*
X10826786Y-14962071D01*
X10812500Y-14990643D01*
X10798214Y-15004929D01*
X10769643Y-15019214D01*
X10741071Y-15019214D01*
X10712500Y-15004929D01*
X10698214Y-14990643D01*
X10683928Y-14962071D01*
X10669643Y-14904929D01*
X10669643Y-14833500D01*
X10683928Y-14776357D01*
X10698214Y-14747786D01*
X10712500Y-14733500D01*
X10741071Y-14719214D01*
X10969643Y-14990643D02*
X10983928Y-15004929D01*
X10969643Y-15019214D01*
X10955357Y-15004929D01*
X10969643Y-14990643D01*
X10969643Y-15019214D01*
X11155357Y-14847786D02*
X11126786Y-14833500D01*
X11112500Y-14819214D01*
X11098214Y-14790643D01*
X11098214Y-14776357D01*
X11112500Y-14747786D01*
X11126786Y-14733500D01*
X11155357Y-14719214D01*
X11212500Y-14719214D01*
X11241071Y-14733500D01*
X11255357Y-14747786D01*
X11269643Y-14776357D01*
X11269643Y-14790643D01*
X11255357Y-14819214D01*
X11241071Y-14833500D01*
X11212500Y-14847786D01*
X11155357Y-14847786D01*
X11126786Y-14862071D01*
X11112500Y-14876357D01*
X11098214Y-14904929D01*
X11098214Y-14962071D01*
X11112500Y-14990643D01*
X11126786Y-15004929D01*
X11155357Y-15019214D01*
X11212500Y-15019214D01*
X11241071Y-15004929D01*
X11255357Y-14990643D01*
X11269643Y-14962071D01*
X11269643Y-14904929D01*
X11255357Y-14876357D01*
X11241071Y-14862071D01*
X11212500Y-14847786D01*
X11455357Y-14719214D02*
X11483928Y-14719214D01*
X11512500Y-14733500D01*
X11526786Y-14747786D01*
X11541071Y-14776357D01*
X11555357Y-14833500D01*
X11555357Y-14904929D01*
X11541071Y-14962071D01*
X11526786Y-14990643D01*
X11512500Y-15004929D01*
X11483928Y-15019214D01*
X11455357Y-15019214D01*
X11426786Y-15004929D01*
X11412500Y-14990643D01*
X11398214Y-14962071D01*
X11383928Y-14904929D01*
X11383928Y-14833500D01*
X11398214Y-14776357D01*
X11412500Y-14747786D01*
X11426786Y-14733500D01*
X11455357Y-14719214D01*
X11683928Y-15019214D02*
X11683928Y-14819214D01*
X11683928Y-14847786D02*
X11698214Y-14833500D01*
X11726786Y-14819214D01*
X11769643Y-14819214D01*
X11798214Y-14833500D01*
X11812500Y-14862071D01*
X11812500Y-15019214D01*
X11812500Y-14862071D02*
X11826786Y-14833500D01*
X11855357Y-14819214D01*
X11898214Y-14819214D01*
X11926786Y-14833500D01*
X11941071Y-14862071D01*
X11941071Y-15019214D01*
X12083928Y-15019214D02*
X12083928Y-14819214D01*
X12083928Y-14847786D02*
X12098214Y-14833500D01*
X12126786Y-14819214D01*
X12169643Y-14819214D01*
X12198214Y-14833500D01*
X12212500Y-14862071D01*
X12212500Y-15019214D01*
X12212500Y-14862071D02*
X12226786Y-14833500D01*
X12255357Y-14819214D01*
X12298214Y-14819214D01*
X12326786Y-14833500D01*
X12341071Y-14862071D01*
X12341071Y-15019214D01*
X12926786Y-14704929D02*
X12669643Y-15090643D01*
X13312500Y-14719214D02*
X13341071Y-14719214D01*
X13369643Y-14733500D01*
X13383928Y-14747786D01*
X13398214Y-14776357D01*
X13412500Y-14833500D01*
X13412500Y-14904929D01*
X13398214Y-14962071D01*
X13383928Y-14990643D01*
X13369643Y-15004929D01*
X13341071Y-15019214D01*
X13312500Y-15019214D01*
X13283928Y-15004929D01*
X13269643Y-14990643D01*
X13255357Y-14962071D01*
X13241071Y-14904929D01*
X13241071Y-14833500D01*
X13255357Y-14776357D01*
X13269643Y-14747786D01*
X13283928Y-14733500D01*
X13312500Y-14719214D01*
X13541071Y-14990643D02*
X13555357Y-15004929D01*
X13541071Y-15019214D01*
X13526786Y-15004929D01*
X13541071Y-14990643D01*
X13541071Y-15019214D01*
X13741071Y-14719214D02*
X13769643Y-14719214D01*
X13798214Y-14733500D01*
X13812500Y-14747786D01*
X13826786Y-14776357D01*
X13841071Y-14833500D01*
X13841071Y-14904929D01*
X13826786Y-14962071D01*
X13812500Y-14990643D01*
X13798214Y-15004929D01*
X13769643Y-15019214D01*
X13741071Y-15019214D01*
X13712500Y-15004929D01*
X13698214Y-14990643D01*
X13683928Y-14962071D01*
X13669643Y-14904929D01*
X13669643Y-14833500D01*
X13683928Y-14776357D01*
X13698214Y-14747786D01*
X13712500Y-14733500D01*
X13741071Y-14719214D01*
X13941071Y-14719214D02*
X14126786Y-14719214D01*
X14026786Y-14833500D01*
X14069643Y-14833500D01*
X14098214Y-14847786D01*
X14112500Y-14862071D01*
X14126786Y-14890643D01*
X14126786Y-14962071D01*
X14112500Y-14990643D01*
X14098214Y-15004929D01*
X14069643Y-15019214D01*
X13983928Y-15019214D01*
X13955357Y-15004929D01*
X13941071Y-14990643D01*
X14412500Y-15019214D02*
X14241071Y-15019214D01*
X14326786Y-15019214D02*
X14326786Y-14719214D01*
X14298214Y-14762071D01*
X14269643Y-14790643D01*
X14241071Y-14804929D01*
X14526786Y-14719214D02*
X14526786Y-14776357D01*
X14641071Y-14719214D02*
X14641071Y-14776357D01*
X15083928Y-15133500D02*
X15069643Y-15119214D01*
X15041071Y-15076357D01*
X15026786Y-15047786D01*
X15012500Y-15004929D01*
X14998214Y-14933500D01*
X14998214Y-14876357D01*
X15012500Y-14804929D01*
X15026786Y-14762071D01*
X15041071Y-14733500D01*
X15069643Y-14690643D01*
X15083928Y-14676357D01*
X15355357Y-15019214D02*
X15183928Y-15019214D01*
X15269643Y-15019214D02*
X15269643Y-14719214D01*
X15241071Y-14762071D01*
X15212500Y-14790643D01*
X15183928Y-14804929D01*
X15541071Y-14719214D02*
X15569643Y-14719214D01*
X15598214Y-14733500D01*
X15612500Y-14747786D01*
X15626786Y-14776357D01*
X15641071Y-14833500D01*
X15641071Y-14904929D01*
X15626786Y-14962071D01*
X15612500Y-14990643D01*
X15598214Y-15004929D01*
X15569643Y-15019214D01*
X15541071Y-15019214D01*
X15512500Y-15004929D01*
X15498214Y-14990643D01*
X15483928Y-14962071D01*
X15469643Y-14904929D01*
X15469643Y-14833500D01*
X15483928Y-14776357D01*
X15498214Y-14747786D01*
X15512500Y-14733500D01*
X15541071Y-14719214D01*
X15898214Y-14819214D02*
X15898214Y-15019214D01*
X15826786Y-14704929D02*
X15755357Y-14919214D01*
X15941071Y-14919214D01*
X16283928Y-15019214D02*
X16283928Y-14719214D01*
X16412500Y-15019214D02*
X16412500Y-14862071D01*
X16398214Y-14833500D01*
X16369643Y-14819214D01*
X16326786Y-14819214D01*
X16298214Y-14833500D01*
X16283928Y-14847786D01*
X16598214Y-15019214D02*
X16569643Y-15004929D01*
X16555357Y-14990643D01*
X16541071Y-14962071D01*
X16541071Y-14876357D01*
X16555357Y-14847786D01*
X16569643Y-14833500D01*
X16598214Y-14819214D01*
X16641071Y-14819214D01*
X16669643Y-14833500D01*
X16683928Y-14847786D01*
X16698214Y-14876357D01*
X16698214Y-14962071D01*
X16683928Y-14990643D01*
X16669643Y-15004929D01*
X16641071Y-15019214D01*
X16598214Y-15019214D01*
X16869643Y-15019214D02*
X16841071Y-15004929D01*
X16826786Y-14976357D01*
X16826786Y-14719214D01*
X17098214Y-15004929D02*
X17069643Y-15019214D01*
X17012500Y-15019214D01*
X16983928Y-15004929D01*
X16969643Y-14976357D01*
X16969643Y-14862071D01*
X16983928Y-14833500D01*
X17012500Y-14819214D01*
X17069643Y-14819214D01*
X17098214Y-14833500D01*
X17112500Y-14862071D01*
X17112500Y-14890643D01*
X16969643Y-14919214D01*
X17226786Y-15004929D02*
X17255357Y-15019214D01*
X17312500Y-15019214D01*
X17341071Y-15004929D01*
X17355357Y-14976357D01*
X17355357Y-14962071D01*
X17341071Y-14933500D01*
X17312500Y-14919214D01*
X17269643Y-14919214D01*
X17241071Y-14904929D01*
X17226786Y-14876357D01*
X17226786Y-14862071D01*
X17241071Y-14833500D01*
X17269643Y-14819214D01*
X17312500Y-14819214D01*
X17341071Y-14833500D01*
X17455357Y-15133500D02*
X17469643Y-15119214D01*
X17498214Y-15076357D01*
X17512500Y-15047786D01*
X17526786Y-15004929D01*
X17541071Y-14933500D01*
X17541071Y-14876357D01*
X17526786Y-14804929D01*
X17512500Y-14762071D01*
X17498214Y-14733500D01*
X17469643Y-14690643D01*
X17455357Y-14676357D01*
X10350000Y-15232000D02*
X10350000Y-15327000D01*
X10302500Y-15279500D02*
X10397500Y-15279500D01*
X10741071Y-15115214D02*
X10769643Y-15115214D01*
X10798214Y-15129500D01*
X10812500Y-15143786D01*
X10826786Y-15172357D01*
X10841071Y-15229500D01*
X10841071Y-15300929D01*
X10826786Y-15358071D01*
X10812500Y-15386643D01*
X10798214Y-15400929D01*
X10769643Y-15415214D01*
X10741071Y-15415214D01*
X10712500Y-15400929D01*
X10698214Y-15386643D01*
X10683928Y-15358071D01*
X10669643Y-15300929D01*
X10669643Y-15229500D01*
X10683928Y-15172357D01*
X10698214Y-15143786D01*
X10712500Y-15129500D01*
X10741071Y-15115214D01*
X10969643Y-15386643D02*
X10983928Y-15400929D01*
X10969643Y-15415214D01*
X10955357Y-15400929D01*
X10969643Y-15386643D01*
X10969643Y-15415214D01*
X11126786Y-15415214D02*
X11183928Y-15415214D01*
X11212500Y-15400929D01*
X11226786Y-15386643D01*
X11255357Y-15343786D01*
X11269643Y-15286643D01*
X11269643Y-15172357D01*
X11255357Y-15143786D01*
X11241071Y-15129500D01*
X11212500Y-15115214D01*
X11155357Y-15115214D01*
X11126786Y-15129500D01*
X11112500Y-15143786D01*
X11098214Y-15172357D01*
X11098214Y-15243786D01*
X11112500Y-15272357D01*
X11126786Y-15286643D01*
X11155357Y-15300929D01*
X11212500Y-15300929D01*
X11241071Y-15286643D01*
X11255357Y-15272357D01*
X11269643Y-15243786D01*
X11541071Y-15115214D02*
X11398214Y-15115214D01*
X11383928Y-15258071D01*
X11398214Y-15243786D01*
X11426786Y-15229500D01*
X11498214Y-15229500D01*
X11526786Y-15243786D01*
X11541071Y-15258071D01*
X11555357Y-15286643D01*
X11555357Y-15358071D01*
X11541071Y-15386643D01*
X11526786Y-15400929D01*
X11498214Y-15415214D01*
X11426786Y-15415214D01*
X11398214Y-15400929D01*
X11383928Y-15386643D01*
X11683928Y-15415214D02*
X11683928Y-15215214D01*
X11683928Y-15243786D02*
X11698214Y-15229500D01*
X11726786Y-15215214D01*
X11769643Y-15215214D01*
X11798214Y-15229500D01*
X11812500Y-15258071D01*
X11812500Y-15415214D01*
X11812500Y-15258071D02*
X11826786Y-15229500D01*
X11855357Y-15215214D01*
X11898214Y-15215214D01*
X11926786Y-15229500D01*
X11941071Y-15258071D01*
X11941071Y-15415214D01*
X12083928Y-15415214D02*
X12083928Y-15215214D01*
X12083928Y-15243786D02*
X12098214Y-15229500D01*
X12126786Y-15215214D01*
X12169643Y-15215214D01*
X12198214Y-15229500D01*
X12212500Y-15258071D01*
X12212500Y-15415214D01*
X12212500Y-15258071D02*
X12226786Y-15229500D01*
X12255357Y-15215214D01*
X12298214Y-15215214D01*
X12326786Y-15229500D01*
X12341071Y-15258071D01*
X12341071Y-15415214D01*
X12926786Y-15100929D02*
X12669643Y-15486643D01*
X13312500Y-15115214D02*
X13341071Y-15115214D01*
X13369643Y-15129500D01*
X13383928Y-15143786D01*
X13398214Y-15172357D01*
X13412500Y-15229500D01*
X13412500Y-15300929D01*
X13398214Y-15358071D01*
X13383928Y-15386643D01*
X13369643Y-15400929D01*
X13341071Y-15415214D01*
X13312500Y-15415214D01*
X13283928Y-15400929D01*
X13269643Y-15386643D01*
X13255357Y-15358071D01*
X13241071Y-15300929D01*
X13241071Y-15229500D01*
X13255357Y-15172357D01*
X13269643Y-15143786D01*
X13283928Y-15129500D01*
X13312500Y-15115214D01*
X13541071Y-15386643D02*
X13555357Y-15400929D01*
X13541071Y-15415214D01*
X13526786Y-15400929D01*
X13541071Y-15386643D01*
X13541071Y-15415214D01*
X13741071Y-15115214D02*
X13769643Y-15115214D01*
X13798214Y-15129500D01*
X13812500Y-15143786D01*
X13826786Y-15172357D01*
X13841071Y-15229500D01*
X13841071Y-15300929D01*
X13826786Y-15358071D01*
X13812500Y-15386643D01*
X13798214Y-15400929D01*
X13769643Y-15415214D01*
X13741071Y-15415214D01*
X13712500Y-15400929D01*
X13698214Y-15386643D01*
X13683928Y-15358071D01*
X13669643Y-15300929D01*
X13669643Y-15229500D01*
X13683928Y-15172357D01*
X13698214Y-15143786D01*
X13712500Y-15129500D01*
X13741071Y-15115214D01*
X13941071Y-15115214D02*
X14126786Y-15115214D01*
X14026786Y-15229500D01*
X14069643Y-15229500D01*
X14098214Y-15243786D01*
X14112500Y-15258071D01*
X14126786Y-15286643D01*
X14126786Y-15358071D01*
X14112500Y-15386643D01*
X14098214Y-15400929D01*
X14069643Y-15415214D01*
X13983928Y-15415214D01*
X13955357Y-15400929D01*
X13941071Y-15386643D01*
X14226786Y-15115214D02*
X14426786Y-15115214D01*
X14298214Y-15415214D01*
X14526786Y-15115214D02*
X14526786Y-15172357D01*
X14641071Y-15115214D02*
X14641071Y-15172357D01*
X15083928Y-15529500D02*
X15069643Y-15515214D01*
X15041071Y-15472357D01*
X15026786Y-15443786D01*
X15012500Y-15400929D01*
X14998214Y-15329500D01*
X14998214Y-15272357D01*
X15012500Y-15200929D01*
X15026786Y-15158071D01*
X15041071Y-15129500D01*
X15069643Y-15086643D01*
X15083928Y-15072357D01*
X15169643Y-15115214D02*
X15355357Y-15115214D01*
X15255357Y-15229500D01*
X15298214Y-15229500D01*
X15326786Y-15243786D01*
X15341071Y-15258071D01*
X15355357Y-15286643D01*
X15355357Y-15358071D01*
X15341071Y-15386643D01*
X15326786Y-15400929D01*
X15298214Y-15415214D01*
X15212500Y-15415214D01*
X15183928Y-15400929D01*
X15169643Y-15386643D01*
X15712500Y-15415214D02*
X15712500Y-15115214D01*
X15841071Y-15415214D02*
X15841071Y-15258071D01*
X15826786Y-15229500D01*
X15798214Y-15215214D01*
X15755357Y-15215214D01*
X15726786Y-15229500D01*
X15712500Y-15243786D01*
X16026786Y-15415214D02*
X15998214Y-15400929D01*
X15983928Y-15386643D01*
X15969643Y-15358071D01*
X15969643Y-15272357D01*
X15983928Y-15243786D01*
X15998214Y-15229500D01*
X16026786Y-15215214D01*
X16069643Y-15215214D01*
X16098214Y-15229500D01*
X16112500Y-15243786D01*
X16126786Y-15272357D01*
X16126786Y-15358071D01*
X16112500Y-15386643D01*
X16098214Y-15400929D01*
X16069643Y-15415214D01*
X16026786Y-15415214D01*
X16298214Y-15415214D02*
X16269643Y-15400929D01*
X16255357Y-15372357D01*
X16255357Y-15115214D01*
X16526786Y-15400929D02*
X16498214Y-15415214D01*
X16441071Y-15415214D01*
X16412500Y-15400929D01*
X16398214Y-15372357D01*
X16398214Y-15258071D01*
X16412500Y-15229500D01*
X16441071Y-15215214D01*
X16498214Y-15215214D01*
X16526786Y-15229500D01*
X16541071Y-15258071D01*
X16541071Y-15286643D01*
X16398214Y-15315214D01*
X16655357Y-15400929D02*
X16683928Y-15415214D01*
X16741071Y-15415214D01*
X16769643Y-15400929D01*
X16783928Y-15372357D01*
X16783928Y-15358071D01*
X16769643Y-15329500D01*
X16741071Y-15315214D01*
X16698214Y-15315214D01*
X16669643Y-15300929D01*
X16655357Y-15272357D01*
X16655357Y-15258071D01*
X16669643Y-15229500D01*
X16698214Y-15215214D01*
X16741071Y-15215214D01*
X16769643Y-15229500D01*
X16883928Y-15529500D02*
X16898214Y-15515214D01*
X16926786Y-15472357D01*
X16941071Y-15443786D01*
X16955357Y-15400929D01*
X16969643Y-15329500D01*
X16969643Y-15272357D01*
X16955357Y-15200929D01*
X16941071Y-15158071D01*
X16926786Y-15129500D01*
X16898214Y-15086643D01*
X16883928Y-15072357D01*
X10382856Y-15710856D02*
X10382856Y-15640144D01*
X10312144Y-15640144D01*
X10312144Y-15710856D01*
X10382856Y-15710856D01*
X10841071Y-15811214D02*
X10669643Y-15811214D01*
X10755357Y-15811214D02*
X10755357Y-15511214D01*
X10726786Y-15554071D01*
X10698214Y-15582643D01*
X10669643Y-15596929D01*
X10969643Y-15782643D02*
X10983928Y-15796929D01*
X10969643Y-15811214D01*
X10955357Y-15796929D01*
X10969643Y-15782643D01*
X10969643Y-15811214D01*
X11169643Y-15511214D02*
X11198214Y-15511214D01*
X11226786Y-15525500D01*
X11241071Y-15539786D01*
X11255357Y-15568357D01*
X11269643Y-15625500D01*
X11269643Y-15696929D01*
X11255357Y-15754071D01*
X11241071Y-15782643D01*
X11226786Y-15796929D01*
X11198214Y-15811214D01*
X11169643Y-15811214D01*
X11141071Y-15796929D01*
X11126786Y-15782643D01*
X11112500Y-15754071D01*
X11098214Y-15696929D01*
X11098214Y-15625500D01*
X11112500Y-15568357D01*
X11126786Y-15539786D01*
X11141071Y-15525500D01*
X11169643Y-15511214D01*
X11455357Y-15511214D02*
X11483928Y-15511214D01*
X11512500Y-15525500D01*
X11526786Y-15539786D01*
X11541071Y-15568357D01*
X11555357Y-15625500D01*
X11555357Y-15696929D01*
X11541071Y-15754071D01*
X11526786Y-15782643D01*
X11512500Y-15796929D01*
X11483928Y-15811214D01*
X11455357Y-15811214D01*
X11426786Y-15796929D01*
X11412500Y-15782643D01*
X11398214Y-15754071D01*
X11383928Y-15696929D01*
X11383928Y-15625500D01*
X11398214Y-15568357D01*
X11412500Y-15539786D01*
X11426786Y-15525500D01*
X11455357Y-15511214D01*
X11683928Y-15811214D02*
X11683928Y-15611214D01*
X11683928Y-15639786D02*
X11698214Y-15625500D01*
X11726786Y-15611214D01*
X11769643Y-15611214D01*
X11798214Y-15625500D01*
X11812500Y-15654071D01*
X11812500Y-15811214D01*
X11812500Y-15654071D02*
X11826786Y-15625500D01*
X11855357Y-15611214D01*
X11898214Y-15611214D01*
X11926786Y-15625500D01*
X11941071Y-15654071D01*
X11941071Y-15811214D01*
X12083928Y-15811214D02*
X12083928Y-15611214D01*
X12083928Y-15639786D02*
X12098214Y-15625500D01*
X12126786Y-15611214D01*
X12169643Y-15611214D01*
X12198214Y-15625500D01*
X12212500Y-15654071D01*
X12212500Y-15811214D01*
X12212500Y-15654071D02*
X12226786Y-15625500D01*
X12255357Y-15611214D01*
X12298214Y-15611214D01*
X12326786Y-15625500D01*
X12341071Y-15654071D01*
X12341071Y-15811214D01*
X12926786Y-15496929D02*
X12669643Y-15882643D01*
X13312500Y-15511214D02*
X13341071Y-15511214D01*
X13369643Y-15525500D01*
X13383928Y-15539786D01*
X13398214Y-15568357D01*
X13412500Y-15625500D01*
X13412500Y-15696929D01*
X13398214Y-15754071D01*
X13383928Y-15782643D01*
X13369643Y-15796929D01*
X13341071Y-15811214D01*
X13312500Y-15811214D01*
X13283928Y-15796929D01*
X13269643Y-15782643D01*
X13255357Y-15754071D01*
X13241071Y-15696929D01*
X13241071Y-15625500D01*
X13255357Y-15568357D01*
X13269643Y-15539786D01*
X13283928Y-15525500D01*
X13312500Y-15511214D01*
X13541071Y-15782643D02*
X13555357Y-15796929D01*
X13541071Y-15811214D01*
X13526786Y-15796929D01*
X13541071Y-15782643D01*
X13541071Y-15811214D01*
X13741071Y-15511214D02*
X13769643Y-15511214D01*
X13798214Y-15525500D01*
X13812500Y-15539786D01*
X13826786Y-15568357D01*
X13841071Y-15625500D01*
X13841071Y-15696929D01*
X13826786Y-15754071D01*
X13812500Y-15782643D01*
X13798214Y-15796929D01*
X13769643Y-15811214D01*
X13741071Y-15811214D01*
X13712500Y-15796929D01*
X13698214Y-15782643D01*
X13683928Y-15754071D01*
X13669643Y-15696929D01*
X13669643Y-15625500D01*
X13683928Y-15568357D01*
X13698214Y-15539786D01*
X13712500Y-15525500D01*
X13741071Y-15511214D01*
X13941071Y-15511214D02*
X14126786Y-15511214D01*
X14026786Y-15625500D01*
X14069643Y-15625500D01*
X14098214Y-15639786D01*
X14112500Y-15654071D01*
X14126786Y-15682643D01*
X14126786Y-15754071D01*
X14112500Y-15782643D01*
X14098214Y-15796929D01*
X14069643Y-15811214D01*
X13983928Y-15811214D01*
X13955357Y-15796929D01*
X13941071Y-15782643D01*
X14269643Y-15811214D02*
X14326786Y-15811214D01*
X14355357Y-15796929D01*
X14369643Y-15782643D01*
X14398214Y-15739786D01*
X14412500Y-15682643D01*
X14412500Y-15568357D01*
X14398214Y-15539786D01*
X14383928Y-15525500D01*
X14355357Y-15511214D01*
X14298214Y-15511214D01*
X14269643Y-15525500D01*
X14255357Y-15539786D01*
X14241071Y-15568357D01*
X14241071Y-15639786D01*
X14255357Y-15668357D01*
X14269643Y-15682643D01*
X14298214Y-15696929D01*
X14355357Y-15696929D01*
X14383928Y-15682643D01*
X14398214Y-15668357D01*
X14412500Y-15639786D01*
X14526786Y-15511214D02*
X14526786Y-15568357D01*
X14641071Y-15511214D02*
X14641071Y-15568357D01*
X15083928Y-15925500D02*
X15069643Y-15911214D01*
X15041071Y-15868357D01*
X15026786Y-15839786D01*
X15012500Y-15796929D01*
X14998214Y-15725500D01*
X14998214Y-15668357D01*
X15012500Y-15596929D01*
X15026786Y-15554071D01*
X15041071Y-15525500D01*
X15069643Y-15482643D01*
X15083928Y-15468357D01*
X15183928Y-15539786D02*
X15198214Y-15525500D01*
X15226786Y-15511214D01*
X15298214Y-15511214D01*
X15326786Y-15525500D01*
X15341071Y-15539786D01*
X15355357Y-15568357D01*
X15355357Y-15596929D01*
X15341071Y-15639786D01*
X15169643Y-15811214D01*
X15355357Y-15811214D01*
X15455357Y-15511214D02*
X15641071Y-15511214D01*
X15541071Y-15625500D01*
X15583928Y-15625500D01*
X15612500Y-15639786D01*
X15626786Y-15654071D01*
X15641071Y-15682643D01*
X15641071Y-15754071D01*
X15626786Y-15782643D01*
X15612500Y-15796929D01*
X15583928Y-15811214D01*
X15498214Y-15811214D01*
X15469643Y-15796929D01*
X15455357Y-15782643D01*
X15998214Y-15811214D02*
X15998214Y-15511214D01*
X16126786Y-15811214D02*
X16126786Y-15654071D01*
X16112500Y-15625500D01*
X16083928Y-15611214D01*
X16041071Y-15611214D01*
X16012500Y-15625500D01*
X15998214Y-15639786D01*
X16312500Y-15811214D02*
X16283928Y-15796929D01*
X16269643Y-15782643D01*
X16255357Y-15754071D01*
X16255357Y-15668357D01*
X16269643Y-15639786D01*
X16283928Y-15625500D01*
X16312500Y-15611214D01*
X16355357Y-15611214D01*
X16383928Y-15625500D01*
X16398214Y-15639786D01*
X16412500Y-15668357D01*
X16412500Y-15754071D01*
X16398214Y-15782643D01*
X16383928Y-15796929D01*
X16355357Y-15811214D01*
X16312500Y-15811214D01*
X16583928Y-15811214D02*
X16555357Y-15796929D01*
X16541071Y-15768357D01*
X16541071Y-15511214D01*
X16812500Y-15796929D02*
X16783928Y-15811214D01*
X16726786Y-15811214D01*
X16698214Y-15796929D01*
X16683928Y-15768357D01*
X16683928Y-15654071D01*
X16698214Y-15625500D01*
X16726786Y-15611214D01*
X16783928Y-15611214D01*
X16812500Y-15625500D01*
X16826786Y-15654071D01*
X16826786Y-15682643D01*
X16683928Y-15711214D01*
X16941071Y-15796929D02*
X16969643Y-15811214D01*
X17026786Y-15811214D01*
X17055357Y-15796929D01*
X17069643Y-15768357D01*
X17069643Y-15754071D01*
X17055357Y-15725500D01*
X17026786Y-15711214D01*
X16983928Y-15711214D01*
X16955357Y-15696929D01*
X16941071Y-15668357D01*
X16941071Y-15654071D01*
X16955357Y-15625500D01*
X16983928Y-15611214D01*
X17026786Y-15611214D01*
X17055357Y-15625500D01*
X17169643Y-15925500D02*
X17183928Y-15911214D01*
X17212500Y-15868357D01*
X17226786Y-15839786D01*
X17241071Y-15796929D01*
X17255357Y-15725500D01*
X17255357Y-15668357D01*
X17241071Y-15596929D01*
X17226786Y-15554071D01*
X17212500Y-15525500D01*
X17183928Y-15482643D01*
X17169643Y-15468357D01*
M02*
