%TF.GenerationSoftware,KiCad,Pcbnew,5.1.9+dfsg1-1~bpo10+1*%
%TF.CreationDate,2022-02-08T03:17:38+08:00*%
%TF.ProjectId,MiniVCF v1.0 - Main,4d696e69-5643-4462-9076-312e30202d20,rev?*%
%TF.SameCoordinates,Original*%
%TF.FileFunction,Copper,L1,Top*%
%TF.FilePolarity,Positive*%
%FSLAX46Y46*%
G04 Gerber Fmt 4.6, Leading zero omitted, Abs format (unit mm)*
G04 Created by KiCad (PCBNEW 5.1.9+dfsg1-1~bpo10+1) date 2022-02-08 03:17:38*
%MOMM*%
%LPD*%
G01*
G04 APERTURE LIST*
%TA.AperFunction,ComponentPad*%
%ADD10C,2.000000*%
%TD*%
%TA.AperFunction,ComponentPad*%
%ADD11R,1.600000X1.600000*%
%TD*%
%TA.AperFunction,ComponentPad*%
%ADD12O,1.600000X1.600000*%
%TD*%
%TA.AperFunction,ComponentPad*%
%ADD13C,1.600000*%
%TD*%
%TA.AperFunction,ComponentPad*%
%ADD14O,1.950000X1.700000*%
%TD*%
%TA.AperFunction,ComponentPad*%
%ADD15C,1.700000*%
%TD*%
%TA.AperFunction,ComponentPad*%
%ADD16O,1.700000X1.700000*%
%TD*%
%TA.AperFunction,ComponentPad*%
%ADD17R,1.700000X1.700000*%
%TD*%
%TA.AperFunction,ViaPad*%
%ADD18C,0.800000*%
%TD*%
%TA.AperFunction,Conductor*%
%ADD19C,0.250000*%
%TD*%
%TA.AperFunction,Conductor*%
%ADD20C,0.650000*%
%TD*%
%TA.AperFunction,Conductor*%
%ADD21C,0.450000*%
%TD*%
%TA.AperFunction,Conductor*%
%ADD22C,0.254000*%
%TD*%
%TA.AperFunction,Conductor*%
%ADD23C,0.100000*%
%TD*%
G04 APERTURE END LIST*
D10*
%TO.P,REF\u002A\u002A,1*%
%TO.N,N/C*%
X116713000Y-112980000D03*
%TD*%
D11*
%TO.P,U2,1*%
%TO.N,B_5*%
X122800000Y-116400000D03*
D12*
%TO.P,U2,8*%
%TO.N,Net-(R19-Pad2)*%
X115180000Y-131640000D03*
%TO.P,U2,2*%
%TO.N,B_5*%
X122800000Y-118940000D03*
%TO.P,U2,9*%
%TO.N,Net-(R17-Pad2)*%
X115180000Y-129100000D03*
%TO.P,U2,3*%
%TO.N,Net-(C4-Pad1)*%
X122800000Y-121480000D03*
%TO.P,U2,10*%
%TO.N,GND2*%
X115180000Y-126560000D03*
%TO.P,U2,4*%
%TO.N,+12V*%
X122800000Y-124020000D03*
%TO.P,U2,11*%
%TO.N,-12V*%
X115180000Y-124020000D03*
%TO.P,U2,5*%
%TO.N,B_6*%
X122800000Y-126560000D03*
%TO.P,U2,12*%
%TO.N,B_CLIPPING_LEDS*%
X115180000Y-121480000D03*
%TO.P,U2,6*%
%TO.N,Net-(D10-Pad2)*%
X122800000Y-129100000D03*
%TO.P,U2,13*%
%TO.N,Net-(C7-Pad1)*%
X115180000Y-118940000D03*
%TO.P,U2,7*%
%TO.N,RESO_FEEDBACK*%
X122800000Y-131640000D03*
%TO.P,U2,14*%
%TO.N,Net-(C7-Pad1)*%
X115180000Y-116400000D03*
%TD*%
D11*
%TO.P,D11,1*%
%TO.N,Net-(D10-Pad2)*%
X126800000Y-123300000D03*
D12*
%TO.P,D11,2*%
%TO.N,RESO_FEEDBACK*%
X126800000Y-130920000D03*
%TD*%
D11*
%TO.P,C1,1*%
%TO.N,B_AUDIO_IN*%
X126500000Y-103400000D03*
D13*
%TO.P,C1,2*%
%TO.N,Net-(C1-Pad2)*%
X126500000Y-100900000D03*
%TD*%
%TO.P,C7,2*%
%TO.N,B_AUDIO_OUT*%
X126500000Y-95100000D03*
D11*
%TO.P,C7,1*%
%TO.N,Net-(C7-Pad1)*%
X126500000Y-97600000D03*
%TD*%
D13*
%TO.P,C10,1*%
%TO.N,+12V*%
X126200000Y-82000000D03*
%TO.P,C10,2*%
%TO.N,GND2*%
X126200000Y-87000000D03*
%TD*%
%TO.P,C11,2*%
%TO.N,-12V*%
X111900000Y-83500000D03*
%TO.P,C11,1*%
%TO.N,GND2*%
X106900000Y-83500000D03*
%TD*%
%TO.P,R1,1*%
%TO.N,Net-(C1-Pad2)*%
X132300000Y-78000000D03*
D12*
%TO.P,R1,2*%
%TO.N,GND2*%
X132300000Y-70380000D03*
%TD*%
%TO.P,R2,2*%
%TO.N,Net-(C1-Pad2)*%
X129200000Y-78020000D03*
D13*
%TO.P,R2,1*%
%TO.N,Net-(R2-Pad1)*%
X129200000Y-70400000D03*
%TD*%
D12*
%TO.P,R3,2*%
%TO.N,Net-(R2-Pad1)*%
X126100000Y-70380000D03*
D13*
%TO.P,R3,1*%
%TO.N,GND2*%
X126100000Y-78000000D03*
%TD*%
D12*
%TO.P,R6,2*%
%TO.N,Net-(R10-Pad1)*%
X105750000Y-73230000D03*
D13*
%TO.P,R6,1*%
%TO.N,B_7*%
X105750000Y-80850000D03*
%TD*%
D12*
%TO.P,R10,2*%
%TO.N,Net-(D6-Pad1)*%
X108800000Y-80870000D03*
D13*
%TO.P,R10,1*%
%TO.N,Net-(R10-Pad1)*%
X108800000Y-73250000D03*
%TD*%
%TO.P,R12,1*%
%TO.N,Net-(R12-Pad1)*%
X111850000Y-73250000D03*
D12*
%TO.P,R12,2*%
%TO.N,Net-(D6-Pad1)*%
X111850000Y-80870000D03*
%TD*%
%TO.P,U1,14*%
%TO.N,Net-(R12-Pad1)*%
X114980000Y-73000000D03*
%TO.P,U1,7*%
%TO.N,Net-(R11-Pad1)*%
X122600000Y-88240000D03*
%TO.P,U1,13*%
%TO.N,Net-(R10-Pad1)*%
X114980000Y-75540000D03*
%TO.P,U1,6*%
%TO.N,Net-(R4-Pad1)*%
X122600000Y-85700000D03*
%TO.P,U1,12*%
%TO.N,GND2*%
X114980000Y-78080000D03*
%TO.P,U1,5*%
%TO.N,Net-(R5-Pad1)*%
X122600000Y-83160000D03*
%TO.P,U1,11*%
%TO.N,-12V*%
X114980000Y-80620000D03*
%TO.P,U1,4*%
%TO.N,+12V*%
X122600000Y-80620000D03*
%TO.P,U1,10*%
%TO.N,B_CV_IN*%
X114980000Y-83160000D03*
%TO.P,U1,3*%
%TO.N,Net-(R2-Pad1)*%
X122600000Y-78080000D03*
%TO.P,U1,9*%
%TO.N,Net-(R5-Pad2)*%
X114980000Y-85700000D03*
%TO.P,U1,2*%
%TO.N,B_8*%
X122600000Y-75540000D03*
%TO.P,U1,8*%
%TO.N,Net-(R5-Pad2)*%
X114980000Y-88240000D03*
D11*
%TO.P,U1,1*%
%TO.N,B_8*%
X122600000Y-73000000D03*
%TD*%
D13*
%TO.P,C8,2*%
%TO.N,GND2*%
X124000000Y-67000000D03*
D11*
%TO.P,C8,1*%
%TO.N,+12V*%
X121500000Y-67000000D03*
%TD*%
%TO.P,C9,1*%
%TO.N,GND2*%
X118000000Y-67000000D03*
D13*
%TO.P,C9,2*%
%TO.N,-12V*%
X115500000Y-67000000D03*
%TD*%
%TO.P,J1,1*%
%TO.N,+12V*%
%TA.AperFunction,ComponentPad*%
G36*
G01*
X131325000Y-63050000D02*
X129875000Y-63050000D01*
G75*
G02*
X129625000Y-62800000I0J250000D01*
G01*
X129625000Y-61600000D01*
G75*
G02*
X129875000Y-61350000I250000J0D01*
G01*
X131325000Y-61350000D01*
G75*
G02*
X131575000Y-61600000I0J-250000D01*
G01*
X131575000Y-62800000D01*
G75*
G02*
X131325000Y-63050000I-250000J0D01*
G01*
G37*
%TD.AperFunction*%
D14*
%TO.P,J1,2*%
%TO.N,GND2*%
X130600000Y-59700000D03*
%TO.P,J1,3*%
%TO.N,-12V*%
X130600000Y-57200000D03*
%TD*%
%TO.P,J2,1*%
%TO.N,-12V*%
%TA.AperFunction,ComponentPad*%
G36*
G01*
X109400000Y-57050000D02*
X110600000Y-57050000D01*
G75*
G02*
X110850000Y-57300000I0J-250000D01*
G01*
X110850000Y-58500000D01*
G75*
G02*
X110600000Y-58750000I-250000J0D01*
G01*
X109400000Y-58750000D01*
G75*
G02*
X109150000Y-58500000I0J250000D01*
G01*
X109150000Y-57300000D01*
G75*
G02*
X109400000Y-57050000I250000J0D01*
G01*
G37*
%TD.AperFunction*%
D15*
%TO.P,J2,3*%
%TO.N,GND2*%
X112540000Y-57900000D03*
%TO.P,J2,5*%
X115080000Y-57900000D03*
%TO.P,J2,7*%
X117620000Y-57900000D03*
%TO.P,J2,9*%
%TO.N,+12V*%
X120160000Y-57900000D03*
%TO.P,J2,2*%
%TO.N,-12V*%
X110000000Y-60440000D03*
%TO.P,J2,4*%
%TO.N,GND2*%
X112540000Y-60440000D03*
%TO.P,J2,6*%
X115080000Y-60440000D03*
%TO.P,J2,8*%
X117620000Y-60440000D03*
%TO.P,J2,10*%
%TO.N,+12V*%
X120160000Y-60440000D03*
%TD*%
D16*
%TO.P,J7,3*%
%TO.N,-12V*%
X111580000Y-69000000D03*
%TO.P,J7,2*%
%TO.N,GND2*%
X109040000Y-69000000D03*
D17*
%TO.P,J7,1*%
%TO.N,+12V*%
X106500000Y-69000000D03*
%TD*%
%TO.P,J8,1*%
%TO.N,B_AUDIO_OUT*%
X131500000Y-89000000D03*
D16*
%TO.P,J8,2*%
%TO.N,B_CLIPPING_LEDS*%
X131500000Y-91540000D03*
%TO.P,J8,3*%
%TO.N,B_CV_IN*%
X131500000Y-94080000D03*
%TO.P,J8,4*%
%TO.N,B_6*%
X131500000Y-96620000D03*
%TO.P,J8,5*%
%TO.N,B_5*%
X131500000Y-99160000D03*
%TO.P,J8,6*%
%TO.N,B_AUDIO_IN*%
X131500000Y-101700000D03*
%TO.P,J8,7*%
%TO.N,GND2*%
X131500000Y-104240000D03*
%TD*%
D17*
%TO.P,J12,1*%
%TO.N,B_8*%
X111400000Y-87500000D03*
D16*
%TO.P,J12,2*%
%TO.N,B_7*%
X108860000Y-87500000D03*
%TO.P,J12,3*%
%TO.N,B_9*%
X106320000Y-87500000D03*
%TD*%
D13*
%TO.P,C2,1*%
%TO.N,Net-(C2-Pad1)*%
X111500000Y-97700000D03*
%TO.P,C2,2*%
%TO.N,RESO_FEEDBACK*%
X106500000Y-97700000D03*
%TD*%
%TO.P,C3,2*%
%TO.N,B_9*%
X106500000Y-100800000D03*
%TO.P,C3,1*%
%TO.N,Net-(C3-Pad1)*%
X111500000Y-100800000D03*
%TD*%
%TO.P,C4,2*%
%TO.N,B_9*%
X106500000Y-103900000D03*
%TO.P,C4,1*%
%TO.N,Net-(C4-Pad1)*%
X111500000Y-103900000D03*
%TD*%
%TO.P,C5,1*%
%TO.N,Net-(C5-Pad1)*%
X111500000Y-107000000D03*
%TO.P,C5,2*%
%TO.N,B_9*%
X106500000Y-107000000D03*
%TD*%
%TO.P,C6,2*%
%TO.N,RESO_FEEDBACK*%
X106500000Y-110100000D03*
%TO.P,C6,1*%
%TO.N,Net-(C6-Pad1)*%
X111500000Y-110100000D03*
%TD*%
%TO.P,C12,1*%
%TO.N,+12V*%
X126200000Y-118000000D03*
%TO.P,C12,2*%
%TO.N,GND2*%
X131200000Y-118000000D03*
%TD*%
%TO.P,C13,2*%
%TO.N,-12V*%
X112200000Y-120400000D03*
%TO.P,C13,1*%
%TO.N,GND2*%
X107200000Y-120400000D03*
%TD*%
D12*
%TO.P,D1,2*%
%TO.N,Net-(D1-Pad2)*%
X113980000Y-97500000D03*
D11*
%TO.P,D1,1*%
%TO.N,Net-(C2-Pad1)*%
X121600000Y-97500000D03*
%TD*%
%TO.P,D2,1*%
%TO.N,Net-(C3-Pad1)*%
X121600000Y-100000000D03*
D12*
%TO.P,D2,2*%
%TO.N,Net-(C2-Pad1)*%
X113980000Y-100000000D03*
%TD*%
%TO.P,D3,2*%
%TO.N,Net-(C3-Pad1)*%
X113980000Y-102500000D03*
D11*
%TO.P,D3,1*%
%TO.N,Net-(C4-Pad1)*%
X121600000Y-102500000D03*
%TD*%
D12*
%TO.P,D4,2*%
%TO.N,Net-(C4-Pad1)*%
X114000000Y-105100000D03*
D11*
%TO.P,D4,1*%
%TO.N,Net-(C5-Pad1)*%
X121620000Y-105100000D03*
%TD*%
%TO.P,D5,1*%
%TO.N,Net-(C6-Pad1)*%
X121600000Y-107700000D03*
D12*
%TO.P,D5,2*%
%TO.N,Net-(C5-Pad1)*%
X113980000Y-107700000D03*
%TD*%
%TO.P,D6,2*%
%TO.N,Net-(C6-Pad1)*%
X113980000Y-110300000D03*
D11*
%TO.P,D6,1*%
%TO.N,Net-(D6-Pad1)*%
X121600000Y-110300000D03*
%TD*%
%TO.P,D10,1*%
%TO.N,RESO_FEEDBACK*%
X129300000Y-130900000D03*
D12*
%TO.P,D10,2*%
%TO.N,Net-(D10-Pad2)*%
X129300000Y-123280000D03*
%TD*%
%TO.P,R4,2*%
%TO.N,B_7*%
X106180000Y-91600000D03*
D13*
%TO.P,R4,1*%
%TO.N,Net-(R4-Pad1)*%
X113800000Y-91600000D03*
%TD*%
%TO.P,R5,1*%
%TO.N,Net-(R5-Pad1)*%
X129000000Y-107400000D03*
D12*
%TO.P,R5,2*%
%TO.N,Net-(R5-Pad2)*%
X129000000Y-115020000D03*
%TD*%
%TO.P,R7,2*%
%TO.N,Net-(R10-Pad1)*%
X126000000Y-107380000D03*
D13*
%TO.P,R7,1*%
%TO.N,Net-(R5-Pad2)*%
X126000000Y-115000000D03*
%TD*%
%TO.P,R8,1*%
%TO.N,Net-(R5-Pad1)*%
X132000000Y-107400000D03*
D12*
%TO.P,R8,2*%
%TO.N,GND2*%
X132000000Y-115020000D03*
%TD*%
%TO.P,R9,2*%
%TO.N,Net-(R4-Pad1)*%
X113820000Y-94700000D03*
D13*
%TO.P,R9,1*%
%TO.N,Net-(D1-Pad2)*%
X106200000Y-94700000D03*
%TD*%
%TO.P,R11,1*%
%TO.N,Net-(R11-Pad1)*%
X123600000Y-91600000D03*
D12*
%TO.P,R11,2*%
%TO.N,Net-(D1-Pad2)*%
X115980000Y-91600000D03*
%TD*%
%TO.P,R16,2*%
%TO.N,Net-(D10-Pad2)*%
X132100000Y-123280000D03*
D13*
%TO.P,R16,1*%
%TO.N,GND2*%
X132100000Y-130900000D03*
%TD*%
D12*
%TO.P,R17,2*%
%TO.N,Net-(R17-Pad2)*%
X112000000Y-132020000D03*
D13*
%TO.P,R17,1*%
%TO.N,B_5*%
X112000000Y-124400000D03*
%TD*%
%TO.P,R18,1*%
%TO.N,Net-(D10-Pad2)*%
X113800000Y-113200000D03*
D12*
%TO.P,R18,2*%
%TO.N,RESO_FEEDBACK*%
X106180000Y-113200000D03*
%TD*%
D13*
%TO.P,R19,1*%
%TO.N,Net-(R17-Pad2)*%
X106000000Y-124400000D03*
D12*
%TO.P,R19,2*%
%TO.N,Net-(R19-Pad2)*%
X106000000Y-132020000D03*
%TD*%
%TO.P,R21,2*%
%TO.N,Net-(R19-Pad2)*%
X109000000Y-132020000D03*
D13*
%TO.P,R21,1*%
%TO.N,B_CLIPPING_LEDS*%
X109000000Y-124400000D03*
%TD*%
D18*
%TO.N,*%
X117000000Y-99000000D03*
X117000000Y-101000000D03*
X117000000Y-104000000D03*
X117000000Y-106000000D03*
%TO.N,GND2*%
X132000000Y-73000000D03*
X130000000Y-75000000D03*
X128000000Y-74000000D03*
X127000000Y-76000000D03*
X129000000Y-80000000D03*
X131000000Y-81000000D03*
X128000000Y-89000000D03*
X126000000Y-91000000D03*
X120000000Y-81000000D03*
X119000000Y-86000000D03*
X118000000Y-76000000D03*
X119000000Y-77000000D03*
X119000000Y-74000000D03*
X117000000Y-73000000D03*
X129000000Y-81000000D03*
X132000000Y-80000000D03*
X133000000Y-81000000D03*
X129000000Y-95000000D03*
X129000000Y-98000000D03*
X131000000Y-83000000D03*
X129000000Y-83000000D03*
X132000000Y-86000000D03*
X130000000Y-86000000D03*
X128000000Y-86000000D03*
X132000000Y-75000000D03*
X133000000Y-67000000D03*
X131000000Y-66000000D03*
X130000000Y-68000000D03*
X128000000Y-67000000D03*
X126000000Y-68000000D03*
X108000000Y-56000000D03*
X107000000Y-57000000D03*
X105000000Y-60000000D03*
X108000000Y-59000000D03*
X107000000Y-63000000D03*
X113000000Y-62000000D03*
X115000000Y-63000000D03*
X117000000Y-63000000D03*
X118000000Y-62000000D03*
X120000000Y-63000000D03*
X107000000Y-65000000D03*
X123000000Y-60000000D03*
X124000000Y-60000000D03*
X127000000Y-63000000D03*
X124000000Y-63000000D03*
X117000000Y-94000000D03*
X117000000Y-96000000D03*
X117000000Y-109000000D03*
X111000000Y-115000000D03*
X111500000Y-116000000D03*
X108000000Y-115000000D03*
X109000000Y-116500000D03*
X107500000Y-117500000D03*
X106500000Y-116000000D03*
X108500000Y-111500000D03*
X109000000Y-113000000D03*
X109000000Y-107000000D03*
X109000000Y-100500000D03*
X109000000Y-103000000D03*
X109000000Y-97500000D03*
X108000000Y-96000000D03*
X108000000Y-93500000D03*
X109000000Y-91000000D03*
X111500000Y-93000000D03*
X112000000Y-90000000D03*
X111500000Y-91500000D03*
X120500000Y-94500000D03*
X128000000Y-121000000D03*
X130000000Y-120500000D03*
X127500000Y-126500000D03*
X126500000Y-127500000D03*
X117500000Y-120500000D03*
X117500000Y-123000000D03*
X117500000Y-125500000D03*
X132000000Y-121000000D03*
X126500000Y-121000000D03*
X128500000Y-118000000D03*
X126000000Y-109500000D03*
X126000000Y-111000000D03*
X128500000Y-111500000D03*
X128500000Y-113000000D03*
X131000000Y-111500000D03*
X132000000Y-110500000D03*
X117400000Y-129500000D03*
X118700000Y-130500000D03*
X118300000Y-132300000D03*
X120100000Y-132700000D03*
%TD*%
D19*
%TO.N,Net-(C1-Pad2)*%
X124900000Y-99300000D02*
X126500000Y-100900000D01*
X124900000Y-81188630D02*
X124900000Y-99300000D01*
X129200000Y-78020000D02*
X128068630Y-78020000D01*
X128068630Y-78020000D02*
X124900000Y-81188630D01*
%TO.N,RESO_FEEDBACK*%
X105380001Y-120780001D02*
X105380001Y-113999999D01*
X105380001Y-113999999D02*
X106180000Y-113200000D01*
X122800000Y-131400000D02*
X119300000Y-127900000D01*
X119300000Y-127900000D02*
X109600000Y-127900000D01*
X109600000Y-127900000D02*
X107874999Y-126174999D01*
X107874999Y-126174999D02*
X107874999Y-123274999D01*
X122800000Y-131640000D02*
X122800000Y-131400000D01*
X107874999Y-123274999D02*
X105380001Y-120780001D01*
X106500000Y-112880000D02*
X106180000Y-113200000D01*
X106500000Y-110100000D02*
X106500000Y-112880000D01*
%TO.N,Net-(C4-Pad1)*%
X115189000Y-106289000D02*
X114000000Y-105100000D01*
X122800000Y-121480000D02*
X115189000Y-113869000D01*
X115189000Y-113869000D02*
X115189000Y-106289000D01*
D20*
%TO.N,+12V*%
X110500000Y-65000000D02*
X106500000Y-69000000D01*
X121500000Y-67000000D02*
X119500000Y-65000000D01*
X119500000Y-65000000D02*
X110500000Y-65000000D01*
D21*
X120700000Y-78720000D02*
X122600000Y-80620000D01*
X121500000Y-67000000D02*
X120700000Y-67800000D01*
X120700000Y-67800000D02*
X120700000Y-78720000D01*
X127425001Y-116574999D02*
X126200000Y-117800000D01*
X132425001Y-116574999D02*
X127425001Y-116574999D01*
X133549990Y-115450010D02*
X132425001Y-116574999D01*
X133549990Y-83549990D02*
X133549990Y-115450010D01*
X126200000Y-82000000D02*
X132000000Y-82000000D01*
X132000000Y-82000000D02*
X133549990Y-83549990D01*
X126200000Y-118000000D02*
X124500000Y-119700000D01*
X124500000Y-122320000D02*
X122800000Y-124020000D01*
X124500000Y-119700000D02*
X124500000Y-122320000D01*
%TO.N,-12V*%
X113400000Y-79040000D02*
X114980000Y-80620000D01*
X111580000Y-69000000D02*
X113400000Y-70820000D01*
X113400000Y-70820000D02*
X113400000Y-79040000D01*
D19*
X112200000Y-121040000D02*
X112200000Y-120400000D01*
X115180000Y-124020000D02*
X112200000Y-121040000D01*
X110100000Y-118300000D02*
X112200000Y-120400000D01*
X111900000Y-83500000D02*
X110100000Y-85300000D01*
X110100000Y-85300000D02*
X110100000Y-118300000D01*
%TO.N,Net-(D6-Pad1)*%
X118650010Y-110300000D02*
X118650010Y-91750010D01*
X118650010Y-91750010D02*
X116900000Y-90000000D01*
X113400000Y-82420000D02*
X111850000Y-80870000D01*
X116900000Y-90000000D02*
X114300000Y-90000000D01*
X114300000Y-90000000D02*
X113400000Y-89100000D01*
X121600000Y-110300000D02*
X118650010Y-110300000D01*
X113400000Y-89100000D02*
X113400000Y-82420000D01*
%TO.N,Net-(D10-Pad2)*%
X119400000Y-127300000D02*
X119400000Y-118800000D01*
X122800000Y-129100000D02*
X121200000Y-129100000D01*
X119400000Y-118800000D02*
X113800000Y-113200000D01*
X121200000Y-129100000D02*
X119400000Y-127300000D01*
%TO.N,Net-(R5-Pad1)*%
X132000000Y-107400000D02*
X129000000Y-107400000D01*
X118340000Y-83160000D02*
X122600000Y-83160000D01*
X117450010Y-84049990D02*
X118340000Y-83160000D01*
X127200000Y-105600000D02*
X124856410Y-105600000D01*
X124856410Y-105600000D02*
X123900019Y-104643609D01*
X129000000Y-107400000D02*
X127200000Y-105600000D01*
X123900019Y-104643609D02*
X123900018Y-95090790D01*
X123900018Y-95090790D02*
X117450010Y-88640782D01*
X117450010Y-88640782D02*
X117450010Y-84049990D01*
%TO.N,Net-(R5-Pad2)*%
X126020000Y-115020000D02*
X126000000Y-115000000D01*
X129000000Y-115020000D02*
X126020000Y-115020000D01*
X123000000Y-112000000D02*
X126000000Y-115000000D01*
X114980000Y-88240000D02*
X115776410Y-88240000D01*
X123000000Y-95463590D02*
X123000000Y-112000000D01*
X115776410Y-88240000D02*
X123000000Y-95463590D01*
%TO.N,Net-(R10-Pad1)*%
X117000000Y-77560000D02*
X114980000Y-75540000D01*
X117000000Y-88827180D02*
X117000000Y-77560000D01*
X123450009Y-95277189D02*
X117000000Y-88827180D01*
X126000000Y-107380000D02*
X123450010Y-104830010D01*
X123450010Y-104830010D02*
X123450009Y-95277189D01*
%TD*%
D22*
%TO.N,GND2*%
X133340000Y-122552861D02*
X133214637Y-122365241D01*
X133014759Y-122165363D01*
X132779727Y-122008320D01*
X132518574Y-121900147D01*
X132241335Y-121845000D01*
X131958665Y-121845000D01*
X131681426Y-121900147D01*
X131420273Y-122008320D01*
X131185241Y-122165363D01*
X130985363Y-122365241D01*
X130828320Y-122600273D01*
X130720147Y-122861426D01*
X130700000Y-122962710D01*
X130679853Y-122861426D01*
X130571680Y-122600273D01*
X130414637Y-122365241D01*
X130214759Y-122165363D01*
X129979727Y-122008320D01*
X129718574Y-121900147D01*
X129441335Y-121845000D01*
X129158665Y-121845000D01*
X128881426Y-121900147D01*
X128620273Y-122008320D01*
X128385241Y-122165363D01*
X128214006Y-122336598D01*
X128189502Y-122255820D01*
X128130537Y-122145506D01*
X128051185Y-122048815D01*
X127954494Y-121969463D01*
X127844180Y-121910498D01*
X127724482Y-121874188D01*
X127600000Y-121861928D01*
X126000000Y-121861928D01*
X125875518Y-121874188D01*
X125755820Y-121910498D01*
X125645506Y-121969463D01*
X125548815Y-122048815D01*
X125469463Y-122145506D01*
X125410498Y-122255820D01*
X125374188Y-122375518D01*
X125361928Y-122500000D01*
X125361928Y-124100000D01*
X125374188Y-124224482D01*
X125410498Y-124344180D01*
X125469463Y-124454494D01*
X125548815Y-124551185D01*
X125645506Y-124630537D01*
X125755820Y-124689502D01*
X125875518Y-124725812D01*
X126000000Y-124738072D01*
X127600000Y-124738072D01*
X127724482Y-124725812D01*
X127844180Y-124689502D01*
X127954494Y-124630537D01*
X128051185Y-124551185D01*
X128130537Y-124454494D01*
X128189502Y-124344180D01*
X128223316Y-124232712D01*
X128385241Y-124394637D01*
X128620273Y-124551680D01*
X128881426Y-124659853D01*
X129158665Y-124715000D01*
X129441335Y-124715000D01*
X129718574Y-124659853D01*
X129979727Y-124551680D01*
X130214759Y-124394637D01*
X130414637Y-124194759D01*
X130571680Y-123959727D01*
X130679853Y-123698574D01*
X130700000Y-123597290D01*
X130720147Y-123698574D01*
X130828320Y-123959727D01*
X130985363Y-124194759D01*
X131185241Y-124394637D01*
X131420273Y-124551680D01*
X131681426Y-124659853D01*
X131958665Y-124715000D01*
X132241335Y-124715000D01*
X132518574Y-124659853D01*
X132779727Y-124551680D01*
X133014759Y-124394637D01*
X133214637Y-124194759D01*
X133340000Y-124007139D01*
X133340000Y-130164714D01*
X133336671Y-130158486D01*
X133092702Y-130086903D01*
X132279605Y-130900000D01*
X133092702Y-131713097D01*
X133336671Y-131641514D01*
X133340000Y-131634478D01*
X133340000Y-134590000D01*
X104660000Y-134590000D01*
X104660000Y-132534788D01*
X104728320Y-132699727D01*
X104885363Y-132934759D01*
X105085241Y-133134637D01*
X105320273Y-133291680D01*
X105581426Y-133399853D01*
X105858665Y-133455000D01*
X106141335Y-133455000D01*
X106418574Y-133399853D01*
X106679727Y-133291680D01*
X106914759Y-133134637D01*
X107114637Y-132934759D01*
X107271680Y-132699727D01*
X107379853Y-132438574D01*
X107435000Y-132161335D01*
X107435000Y-131878665D01*
X107565000Y-131878665D01*
X107565000Y-132161335D01*
X107620147Y-132438574D01*
X107728320Y-132699727D01*
X107885363Y-132934759D01*
X108085241Y-133134637D01*
X108320273Y-133291680D01*
X108581426Y-133399853D01*
X108858665Y-133455000D01*
X109141335Y-133455000D01*
X109418574Y-133399853D01*
X109679727Y-133291680D01*
X109914759Y-133134637D01*
X110114637Y-132934759D01*
X110271680Y-132699727D01*
X110379853Y-132438574D01*
X110435000Y-132161335D01*
X110435000Y-131878665D01*
X110565000Y-131878665D01*
X110565000Y-132161335D01*
X110620147Y-132438574D01*
X110728320Y-132699727D01*
X110885363Y-132934759D01*
X111085241Y-133134637D01*
X111320273Y-133291680D01*
X111581426Y-133399853D01*
X111858665Y-133455000D01*
X112141335Y-133455000D01*
X112418574Y-133399853D01*
X112679727Y-133291680D01*
X112914759Y-133134637D01*
X113114637Y-132934759D01*
X113271680Y-132699727D01*
X113379853Y-132438574D01*
X113435000Y-132161335D01*
X113435000Y-131878665D01*
X113379853Y-131601426D01*
X113271680Y-131340273D01*
X113114637Y-131105241D01*
X112914759Y-130905363D01*
X112679727Y-130748320D01*
X112418574Y-130640147D01*
X112141335Y-130585000D01*
X111858665Y-130585000D01*
X111581426Y-130640147D01*
X111320273Y-130748320D01*
X111085241Y-130905363D01*
X110885363Y-131105241D01*
X110728320Y-131340273D01*
X110620147Y-131601426D01*
X110565000Y-131878665D01*
X110435000Y-131878665D01*
X110379853Y-131601426D01*
X110271680Y-131340273D01*
X110114637Y-131105241D01*
X109914759Y-130905363D01*
X109679727Y-130748320D01*
X109418574Y-130640147D01*
X109141335Y-130585000D01*
X108858665Y-130585000D01*
X108581426Y-130640147D01*
X108320273Y-130748320D01*
X108085241Y-130905363D01*
X107885363Y-131105241D01*
X107728320Y-131340273D01*
X107620147Y-131601426D01*
X107565000Y-131878665D01*
X107435000Y-131878665D01*
X107379853Y-131601426D01*
X107271680Y-131340273D01*
X107114637Y-131105241D01*
X106914759Y-130905363D01*
X106679727Y-130748320D01*
X106418574Y-130640147D01*
X106141335Y-130585000D01*
X105858665Y-130585000D01*
X105581426Y-130640147D01*
X105320273Y-130748320D01*
X105085241Y-130905363D01*
X104885363Y-131105241D01*
X104728320Y-131340273D01*
X104660000Y-131505212D01*
X104660000Y-124914788D01*
X104728320Y-125079727D01*
X104885363Y-125314759D01*
X105085241Y-125514637D01*
X105320273Y-125671680D01*
X105581426Y-125779853D01*
X105858665Y-125835000D01*
X106141335Y-125835000D01*
X106418574Y-125779853D01*
X106679727Y-125671680D01*
X106914759Y-125514637D01*
X107114637Y-125314759D01*
X107114999Y-125314217D01*
X107114999Y-126137676D01*
X107111323Y-126174999D01*
X107114999Y-126212321D01*
X107114999Y-126212331D01*
X107125996Y-126323984D01*
X107154717Y-126418665D01*
X107169453Y-126467245D01*
X107240025Y-126599275D01*
X107279870Y-126647825D01*
X107334998Y-126715000D01*
X107364002Y-126738803D01*
X109036200Y-128411002D01*
X109059999Y-128440001D01*
X109175724Y-128534974D01*
X109307753Y-128605546D01*
X109451014Y-128649003D01*
X109562667Y-128660000D01*
X109562677Y-128660000D01*
X109600000Y-128663676D01*
X109637323Y-128660000D01*
X113809022Y-128660000D01*
X113800147Y-128681426D01*
X113745000Y-128958665D01*
X113745000Y-129241335D01*
X113800147Y-129518574D01*
X113908320Y-129779727D01*
X114065363Y-130014759D01*
X114265241Y-130214637D01*
X114497759Y-130370000D01*
X114265241Y-130525363D01*
X114065363Y-130725241D01*
X113908320Y-130960273D01*
X113800147Y-131221426D01*
X113745000Y-131498665D01*
X113745000Y-131781335D01*
X113800147Y-132058574D01*
X113908320Y-132319727D01*
X114065363Y-132554759D01*
X114265241Y-132754637D01*
X114500273Y-132911680D01*
X114761426Y-133019853D01*
X115038665Y-133075000D01*
X115321335Y-133075000D01*
X115598574Y-133019853D01*
X115859727Y-132911680D01*
X116094759Y-132754637D01*
X116294637Y-132554759D01*
X116451680Y-132319727D01*
X116559853Y-132058574D01*
X116615000Y-131781335D01*
X116615000Y-131498665D01*
X116559853Y-131221426D01*
X116451680Y-130960273D01*
X116294637Y-130725241D01*
X116094759Y-130525363D01*
X115862241Y-130370000D01*
X116094759Y-130214637D01*
X116294637Y-130014759D01*
X116451680Y-129779727D01*
X116559853Y-129518574D01*
X116615000Y-129241335D01*
X116615000Y-128958665D01*
X116559853Y-128681426D01*
X116550978Y-128660000D01*
X118985199Y-128660000D01*
X121457191Y-131131994D01*
X121420147Y-131221426D01*
X121365000Y-131498665D01*
X121365000Y-131781335D01*
X121420147Y-132058574D01*
X121528320Y-132319727D01*
X121685363Y-132554759D01*
X121885241Y-132754637D01*
X122120273Y-132911680D01*
X122381426Y-133019853D01*
X122658665Y-133075000D01*
X122941335Y-133075000D01*
X123218574Y-133019853D01*
X123479727Y-132911680D01*
X123714759Y-132754637D01*
X123914637Y-132554759D01*
X124071680Y-132319727D01*
X124179853Y-132058574D01*
X124235000Y-131781335D01*
X124235000Y-131498665D01*
X124179853Y-131221426D01*
X124071680Y-130960273D01*
X123950334Y-130778665D01*
X125365000Y-130778665D01*
X125365000Y-131061335D01*
X125420147Y-131338574D01*
X125528320Y-131599727D01*
X125685363Y-131834759D01*
X125885241Y-132034637D01*
X126120273Y-132191680D01*
X126381426Y-132299853D01*
X126658665Y-132355000D01*
X126941335Y-132355000D01*
X127218574Y-132299853D01*
X127479727Y-132191680D01*
X127714759Y-132034637D01*
X127885994Y-131863402D01*
X127910498Y-131944180D01*
X127969463Y-132054494D01*
X128048815Y-132151185D01*
X128145506Y-132230537D01*
X128255820Y-132289502D01*
X128375518Y-132325812D01*
X128500000Y-132338072D01*
X130100000Y-132338072D01*
X130224482Y-132325812D01*
X130344180Y-132289502D01*
X130454494Y-132230537D01*
X130551185Y-132151185D01*
X130630537Y-132054494D01*
X130689502Y-131944180D01*
X130705117Y-131892702D01*
X131286903Y-131892702D01*
X131358486Y-132136671D01*
X131613996Y-132257571D01*
X131888184Y-132326300D01*
X132170512Y-132340217D01*
X132450130Y-132298787D01*
X132716292Y-132203603D01*
X132841514Y-132136671D01*
X132913097Y-131892702D01*
X132100000Y-131079605D01*
X131286903Y-131892702D01*
X130705117Y-131892702D01*
X130725812Y-131824482D01*
X130738072Y-131700000D01*
X130738072Y-131353198D01*
X130796397Y-131516292D01*
X130863329Y-131641514D01*
X131107298Y-131713097D01*
X131920395Y-130900000D01*
X131107298Y-130086903D01*
X130863329Y-130158486D01*
X130742429Y-130413996D01*
X130738072Y-130431378D01*
X130738072Y-130100000D01*
X130725812Y-129975518D01*
X130705118Y-129907298D01*
X131286903Y-129907298D01*
X132100000Y-130720395D01*
X132913097Y-129907298D01*
X132841514Y-129663329D01*
X132586004Y-129542429D01*
X132311816Y-129473700D01*
X132029488Y-129459783D01*
X131749870Y-129501213D01*
X131483708Y-129596397D01*
X131358486Y-129663329D01*
X131286903Y-129907298D01*
X130705118Y-129907298D01*
X130689502Y-129855820D01*
X130630537Y-129745506D01*
X130551185Y-129648815D01*
X130454494Y-129569463D01*
X130344180Y-129510498D01*
X130224482Y-129474188D01*
X130100000Y-129461928D01*
X128500000Y-129461928D01*
X128375518Y-129474188D01*
X128255820Y-129510498D01*
X128145506Y-129569463D01*
X128048815Y-129648815D01*
X127969463Y-129745506D01*
X127910498Y-129855820D01*
X127876684Y-129967288D01*
X127714759Y-129805363D01*
X127479727Y-129648320D01*
X127218574Y-129540147D01*
X126941335Y-129485000D01*
X126658665Y-129485000D01*
X126381426Y-129540147D01*
X126120273Y-129648320D01*
X125885241Y-129805363D01*
X125685363Y-130005241D01*
X125528320Y-130240273D01*
X125420147Y-130501426D01*
X125365000Y-130778665D01*
X123950334Y-130778665D01*
X123914637Y-130725241D01*
X123714759Y-130525363D01*
X123482241Y-130370000D01*
X123714759Y-130214637D01*
X123914637Y-130014759D01*
X124071680Y-129779727D01*
X124179853Y-129518574D01*
X124235000Y-129241335D01*
X124235000Y-128958665D01*
X124179853Y-128681426D01*
X124071680Y-128420273D01*
X123914637Y-128185241D01*
X123714759Y-127985363D01*
X123482241Y-127830000D01*
X123714759Y-127674637D01*
X123914637Y-127474759D01*
X124071680Y-127239727D01*
X124179853Y-126978574D01*
X124235000Y-126701335D01*
X124235000Y-126418665D01*
X124179853Y-126141426D01*
X124071680Y-125880273D01*
X123914637Y-125645241D01*
X123714759Y-125445363D01*
X123482241Y-125290000D01*
X123714759Y-125134637D01*
X123914637Y-124934759D01*
X124071680Y-124699727D01*
X124179853Y-124438574D01*
X124235000Y-124161335D01*
X124235000Y-123878665D01*
X124222151Y-123814072D01*
X125078241Y-122957983D01*
X125111054Y-122931054D01*
X125218524Y-122800102D01*
X125298381Y-122650700D01*
X125347556Y-122488589D01*
X125360000Y-122362246D01*
X125360000Y-122362240D01*
X125364160Y-122320001D01*
X125360000Y-122277762D01*
X125360000Y-120056223D01*
X125994072Y-119422151D01*
X126058665Y-119435000D01*
X126341335Y-119435000D01*
X126618574Y-119379853D01*
X126879727Y-119271680D01*
X127114759Y-119114637D01*
X127236694Y-118992702D01*
X130386903Y-118992702D01*
X130458486Y-119236671D01*
X130713996Y-119357571D01*
X130988184Y-119426300D01*
X131270512Y-119440217D01*
X131550130Y-119398787D01*
X131816292Y-119303603D01*
X131941514Y-119236671D01*
X132013097Y-118992702D01*
X131200000Y-118179605D01*
X130386903Y-118992702D01*
X127236694Y-118992702D01*
X127314637Y-118914759D01*
X127471680Y-118679727D01*
X127579853Y-118418574D01*
X127635000Y-118141335D01*
X127635000Y-117858665D01*
X127588969Y-117627255D01*
X127781225Y-117434999D01*
X129879808Y-117434999D01*
X129842429Y-117513996D01*
X129773700Y-117788184D01*
X129759783Y-118070512D01*
X129801213Y-118350130D01*
X129896397Y-118616292D01*
X129963329Y-118741514D01*
X130207298Y-118813097D01*
X131020395Y-118000000D01*
X131006253Y-117985858D01*
X131185858Y-117806253D01*
X131200000Y-117820395D01*
X131214143Y-117806253D01*
X131393748Y-117985858D01*
X131379605Y-118000000D01*
X132192702Y-118813097D01*
X132436671Y-118741514D01*
X132557571Y-118486004D01*
X132626300Y-118211816D01*
X132640217Y-117929488D01*
X132598787Y-117649870D01*
X132520084Y-117429795D01*
X132593590Y-117422555D01*
X132755701Y-117373380D01*
X132905103Y-117293523D01*
X133036055Y-117186053D01*
X133062989Y-117153234D01*
X133340000Y-116876223D01*
X133340000Y-122552861D01*
%TA.AperFunction,Conductor*%
D23*
G36*
X133340000Y-122552861D02*
G01*
X133214637Y-122365241D01*
X133014759Y-122165363D01*
X132779727Y-122008320D01*
X132518574Y-121900147D01*
X132241335Y-121845000D01*
X131958665Y-121845000D01*
X131681426Y-121900147D01*
X131420273Y-122008320D01*
X131185241Y-122165363D01*
X130985363Y-122365241D01*
X130828320Y-122600273D01*
X130720147Y-122861426D01*
X130700000Y-122962710D01*
X130679853Y-122861426D01*
X130571680Y-122600273D01*
X130414637Y-122365241D01*
X130214759Y-122165363D01*
X129979727Y-122008320D01*
X129718574Y-121900147D01*
X129441335Y-121845000D01*
X129158665Y-121845000D01*
X128881426Y-121900147D01*
X128620273Y-122008320D01*
X128385241Y-122165363D01*
X128214006Y-122336598D01*
X128189502Y-122255820D01*
X128130537Y-122145506D01*
X128051185Y-122048815D01*
X127954494Y-121969463D01*
X127844180Y-121910498D01*
X127724482Y-121874188D01*
X127600000Y-121861928D01*
X126000000Y-121861928D01*
X125875518Y-121874188D01*
X125755820Y-121910498D01*
X125645506Y-121969463D01*
X125548815Y-122048815D01*
X125469463Y-122145506D01*
X125410498Y-122255820D01*
X125374188Y-122375518D01*
X125361928Y-122500000D01*
X125361928Y-124100000D01*
X125374188Y-124224482D01*
X125410498Y-124344180D01*
X125469463Y-124454494D01*
X125548815Y-124551185D01*
X125645506Y-124630537D01*
X125755820Y-124689502D01*
X125875518Y-124725812D01*
X126000000Y-124738072D01*
X127600000Y-124738072D01*
X127724482Y-124725812D01*
X127844180Y-124689502D01*
X127954494Y-124630537D01*
X128051185Y-124551185D01*
X128130537Y-124454494D01*
X128189502Y-124344180D01*
X128223316Y-124232712D01*
X128385241Y-124394637D01*
X128620273Y-124551680D01*
X128881426Y-124659853D01*
X129158665Y-124715000D01*
X129441335Y-124715000D01*
X129718574Y-124659853D01*
X129979727Y-124551680D01*
X130214759Y-124394637D01*
X130414637Y-124194759D01*
X130571680Y-123959727D01*
X130679853Y-123698574D01*
X130700000Y-123597290D01*
X130720147Y-123698574D01*
X130828320Y-123959727D01*
X130985363Y-124194759D01*
X131185241Y-124394637D01*
X131420273Y-124551680D01*
X131681426Y-124659853D01*
X131958665Y-124715000D01*
X132241335Y-124715000D01*
X132518574Y-124659853D01*
X132779727Y-124551680D01*
X133014759Y-124394637D01*
X133214637Y-124194759D01*
X133340000Y-124007139D01*
X133340000Y-130164714D01*
X133336671Y-130158486D01*
X133092702Y-130086903D01*
X132279605Y-130900000D01*
X133092702Y-131713097D01*
X133336671Y-131641514D01*
X133340000Y-131634478D01*
X133340000Y-134590000D01*
X104660000Y-134590000D01*
X104660000Y-132534788D01*
X104728320Y-132699727D01*
X104885363Y-132934759D01*
X105085241Y-133134637D01*
X105320273Y-133291680D01*
X105581426Y-133399853D01*
X105858665Y-133455000D01*
X106141335Y-133455000D01*
X106418574Y-133399853D01*
X106679727Y-133291680D01*
X106914759Y-133134637D01*
X107114637Y-132934759D01*
X107271680Y-132699727D01*
X107379853Y-132438574D01*
X107435000Y-132161335D01*
X107435000Y-131878665D01*
X107565000Y-131878665D01*
X107565000Y-132161335D01*
X107620147Y-132438574D01*
X107728320Y-132699727D01*
X107885363Y-132934759D01*
X108085241Y-133134637D01*
X108320273Y-133291680D01*
X108581426Y-133399853D01*
X108858665Y-133455000D01*
X109141335Y-133455000D01*
X109418574Y-133399853D01*
X109679727Y-133291680D01*
X109914759Y-133134637D01*
X110114637Y-132934759D01*
X110271680Y-132699727D01*
X110379853Y-132438574D01*
X110435000Y-132161335D01*
X110435000Y-131878665D01*
X110565000Y-131878665D01*
X110565000Y-132161335D01*
X110620147Y-132438574D01*
X110728320Y-132699727D01*
X110885363Y-132934759D01*
X111085241Y-133134637D01*
X111320273Y-133291680D01*
X111581426Y-133399853D01*
X111858665Y-133455000D01*
X112141335Y-133455000D01*
X112418574Y-133399853D01*
X112679727Y-133291680D01*
X112914759Y-133134637D01*
X113114637Y-132934759D01*
X113271680Y-132699727D01*
X113379853Y-132438574D01*
X113435000Y-132161335D01*
X113435000Y-131878665D01*
X113379853Y-131601426D01*
X113271680Y-131340273D01*
X113114637Y-131105241D01*
X112914759Y-130905363D01*
X112679727Y-130748320D01*
X112418574Y-130640147D01*
X112141335Y-130585000D01*
X111858665Y-130585000D01*
X111581426Y-130640147D01*
X111320273Y-130748320D01*
X111085241Y-130905363D01*
X110885363Y-131105241D01*
X110728320Y-131340273D01*
X110620147Y-131601426D01*
X110565000Y-131878665D01*
X110435000Y-131878665D01*
X110379853Y-131601426D01*
X110271680Y-131340273D01*
X110114637Y-131105241D01*
X109914759Y-130905363D01*
X109679727Y-130748320D01*
X109418574Y-130640147D01*
X109141335Y-130585000D01*
X108858665Y-130585000D01*
X108581426Y-130640147D01*
X108320273Y-130748320D01*
X108085241Y-130905363D01*
X107885363Y-131105241D01*
X107728320Y-131340273D01*
X107620147Y-131601426D01*
X107565000Y-131878665D01*
X107435000Y-131878665D01*
X107379853Y-131601426D01*
X107271680Y-131340273D01*
X107114637Y-131105241D01*
X106914759Y-130905363D01*
X106679727Y-130748320D01*
X106418574Y-130640147D01*
X106141335Y-130585000D01*
X105858665Y-130585000D01*
X105581426Y-130640147D01*
X105320273Y-130748320D01*
X105085241Y-130905363D01*
X104885363Y-131105241D01*
X104728320Y-131340273D01*
X104660000Y-131505212D01*
X104660000Y-124914788D01*
X104728320Y-125079727D01*
X104885363Y-125314759D01*
X105085241Y-125514637D01*
X105320273Y-125671680D01*
X105581426Y-125779853D01*
X105858665Y-125835000D01*
X106141335Y-125835000D01*
X106418574Y-125779853D01*
X106679727Y-125671680D01*
X106914759Y-125514637D01*
X107114637Y-125314759D01*
X107114999Y-125314217D01*
X107114999Y-126137676D01*
X107111323Y-126174999D01*
X107114999Y-126212321D01*
X107114999Y-126212331D01*
X107125996Y-126323984D01*
X107154717Y-126418665D01*
X107169453Y-126467245D01*
X107240025Y-126599275D01*
X107279870Y-126647825D01*
X107334998Y-126715000D01*
X107364002Y-126738803D01*
X109036200Y-128411002D01*
X109059999Y-128440001D01*
X109175724Y-128534974D01*
X109307753Y-128605546D01*
X109451014Y-128649003D01*
X109562667Y-128660000D01*
X109562677Y-128660000D01*
X109600000Y-128663676D01*
X109637323Y-128660000D01*
X113809022Y-128660000D01*
X113800147Y-128681426D01*
X113745000Y-128958665D01*
X113745000Y-129241335D01*
X113800147Y-129518574D01*
X113908320Y-129779727D01*
X114065363Y-130014759D01*
X114265241Y-130214637D01*
X114497759Y-130370000D01*
X114265241Y-130525363D01*
X114065363Y-130725241D01*
X113908320Y-130960273D01*
X113800147Y-131221426D01*
X113745000Y-131498665D01*
X113745000Y-131781335D01*
X113800147Y-132058574D01*
X113908320Y-132319727D01*
X114065363Y-132554759D01*
X114265241Y-132754637D01*
X114500273Y-132911680D01*
X114761426Y-133019853D01*
X115038665Y-133075000D01*
X115321335Y-133075000D01*
X115598574Y-133019853D01*
X115859727Y-132911680D01*
X116094759Y-132754637D01*
X116294637Y-132554759D01*
X116451680Y-132319727D01*
X116559853Y-132058574D01*
X116615000Y-131781335D01*
X116615000Y-131498665D01*
X116559853Y-131221426D01*
X116451680Y-130960273D01*
X116294637Y-130725241D01*
X116094759Y-130525363D01*
X115862241Y-130370000D01*
X116094759Y-130214637D01*
X116294637Y-130014759D01*
X116451680Y-129779727D01*
X116559853Y-129518574D01*
X116615000Y-129241335D01*
X116615000Y-128958665D01*
X116559853Y-128681426D01*
X116550978Y-128660000D01*
X118985199Y-128660000D01*
X121457191Y-131131994D01*
X121420147Y-131221426D01*
X121365000Y-131498665D01*
X121365000Y-131781335D01*
X121420147Y-132058574D01*
X121528320Y-132319727D01*
X121685363Y-132554759D01*
X121885241Y-132754637D01*
X122120273Y-132911680D01*
X122381426Y-133019853D01*
X122658665Y-133075000D01*
X122941335Y-133075000D01*
X123218574Y-133019853D01*
X123479727Y-132911680D01*
X123714759Y-132754637D01*
X123914637Y-132554759D01*
X124071680Y-132319727D01*
X124179853Y-132058574D01*
X124235000Y-131781335D01*
X124235000Y-131498665D01*
X124179853Y-131221426D01*
X124071680Y-130960273D01*
X123950334Y-130778665D01*
X125365000Y-130778665D01*
X125365000Y-131061335D01*
X125420147Y-131338574D01*
X125528320Y-131599727D01*
X125685363Y-131834759D01*
X125885241Y-132034637D01*
X126120273Y-132191680D01*
X126381426Y-132299853D01*
X126658665Y-132355000D01*
X126941335Y-132355000D01*
X127218574Y-132299853D01*
X127479727Y-132191680D01*
X127714759Y-132034637D01*
X127885994Y-131863402D01*
X127910498Y-131944180D01*
X127969463Y-132054494D01*
X128048815Y-132151185D01*
X128145506Y-132230537D01*
X128255820Y-132289502D01*
X128375518Y-132325812D01*
X128500000Y-132338072D01*
X130100000Y-132338072D01*
X130224482Y-132325812D01*
X130344180Y-132289502D01*
X130454494Y-132230537D01*
X130551185Y-132151185D01*
X130630537Y-132054494D01*
X130689502Y-131944180D01*
X130705117Y-131892702D01*
X131286903Y-131892702D01*
X131358486Y-132136671D01*
X131613996Y-132257571D01*
X131888184Y-132326300D01*
X132170512Y-132340217D01*
X132450130Y-132298787D01*
X132716292Y-132203603D01*
X132841514Y-132136671D01*
X132913097Y-131892702D01*
X132100000Y-131079605D01*
X131286903Y-131892702D01*
X130705117Y-131892702D01*
X130725812Y-131824482D01*
X130738072Y-131700000D01*
X130738072Y-131353198D01*
X130796397Y-131516292D01*
X130863329Y-131641514D01*
X131107298Y-131713097D01*
X131920395Y-130900000D01*
X131107298Y-130086903D01*
X130863329Y-130158486D01*
X130742429Y-130413996D01*
X130738072Y-130431378D01*
X130738072Y-130100000D01*
X130725812Y-129975518D01*
X130705118Y-129907298D01*
X131286903Y-129907298D01*
X132100000Y-130720395D01*
X132913097Y-129907298D01*
X132841514Y-129663329D01*
X132586004Y-129542429D01*
X132311816Y-129473700D01*
X132029488Y-129459783D01*
X131749870Y-129501213D01*
X131483708Y-129596397D01*
X131358486Y-129663329D01*
X131286903Y-129907298D01*
X130705118Y-129907298D01*
X130689502Y-129855820D01*
X130630537Y-129745506D01*
X130551185Y-129648815D01*
X130454494Y-129569463D01*
X130344180Y-129510498D01*
X130224482Y-129474188D01*
X130100000Y-129461928D01*
X128500000Y-129461928D01*
X128375518Y-129474188D01*
X128255820Y-129510498D01*
X128145506Y-129569463D01*
X128048815Y-129648815D01*
X127969463Y-129745506D01*
X127910498Y-129855820D01*
X127876684Y-129967288D01*
X127714759Y-129805363D01*
X127479727Y-129648320D01*
X127218574Y-129540147D01*
X126941335Y-129485000D01*
X126658665Y-129485000D01*
X126381426Y-129540147D01*
X126120273Y-129648320D01*
X125885241Y-129805363D01*
X125685363Y-130005241D01*
X125528320Y-130240273D01*
X125420147Y-130501426D01*
X125365000Y-130778665D01*
X123950334Y-130778665D01*
X123914637Y-130725241D01*
X123714759Y-130525363D01*
X123482241Y-130370000D01*
X123714759Y-130214637D01*
X123914637Y-130014759D01*
X124071680Y-129779727D01*
X124179853Y-129518574D01*
X124235000Y-129241335D01*
X124235000Y-128958665D01*
X124179853Y-128681426D01*
X124071680Y-128420273D01*
X123914637Y-128185241D01*
X123714759Y-127985363D01*
X123482241Y-127830000D01*
X123714759Y-127674637D01*
X123914637Y-127474759D01*
X124071680Y-127239727D01*
X124179853Y-126978574D01*
X124235000Y-126701335D01*
X124235000Y-126418665D01*
X124179853Y-126141426D01*
X124071680Y-125880273D01*
X123914637Y-125645241D01*
X123714759Y-125445363D01*
X123482241Y-125290000D01*
X123714759Y-125134637D01*
X123914637Y-124934759D01*
X124071680Y-124699727D01*
X124179853Y-124438574D01*
X124235000Y-124161335D01*
X124235000Y-123878665D01*
X124222151Y-123814072D01*
X125078241Y-122957983D01*
X125111054Y-122931054D01*
X125218524Y-122800102D01*
X125298381Y-122650700D01*
X125347556Y-122488589D01*
X125360000Y-122362246D01*
X125360000Y-122362240D01*
X125364160Y-122320001D01*
X125360000Y-122277762D01*
X125360000Y-120056223D01*
X125994072Y-119422151D01*
X126058665Y-119435000D01*
X126341335Y-119435000D01*
X126618574Y-119379853D01*
X126879727Y-119271680D01*
X127114759Y-119114637D01*
X127236694Y-118992702D01*
X130386903Y-118992702D01*
X130458486Y-119236671D01*
X130713996Y-119357571D01*
X130988184Y-119426300D01*
X131270512Y-119440217D01*
X131550130Y-119398787D01*
X131816292Y-119303603D01*
X131941514Y-119236671D01*
X132013097Y-118992702D01*
X131200000Y-118179605D01*
X130386903Y-118992702D01*
X127236694Y-118992702D01*
X127314637Y-118914759D01*
X127471680Y-118679727D01*
X127579853Y-118418574D01*
X127635000Y-118141335D01*
X127635000Y-117858665D01*
X127588969Y-117627255D01*
X127781225Y-117434999D01*
X129879808Y-117434999D01*
X129842429Y-117513996D01*
X129773700Y-117788184D01*
X129759783Y-118070512D01*
X129801213Y-118350130D01*
X129896397Y-118616292D01*
X129963329Y-118741514D01*
X130207298Y-118813097D01*
X131020395Y-118000000D01*
X131006253Y-117985858D01*
X131185858Y-117806253D01*
X131200000Y-117820395D01*
X131214143Y-117806253D01*
X131393748Y-117985858D01*
X131379605Y-118000000D01*
X132192702Y-118813097D01*
X132436671Y-118741514D01*
X132557571Y-118486004D01*
X132626300Y-118211816D01*
X132640217Y-117929488D01*
X132598787Y-117649870D01*
X132520084Y-117429795D01*
X132593590Y-117422555D01*
X132755701Y-117373380D01*
X132905103Y-117293523D01*
X133036055Y-117186053D01*
X133062989Y-117153234D01*
X133340000Y-116876223D01*
X133340000Y-122552861D01*
G37*
%TD.AperFunction*%
D22*
X133340001Y-69400937D02*
X133263414Y-69316481D01*
X133037420Y-69148963D01*
X132783087Y-69028754D01*
X132649039Y-68988096D01*
X132427000Y-69110085D01*
X132427000Y-70253000D01*
X132447000Y-70253000D01*
X132447000Y-70507000D01*
X132427000Y-70507000D01*
X132427000Y-71649915D01*
X132649039Y-71771904D01*
X132783087Y-71731246D01*
X133037420Y-71611037D01*
X133263414Y-71443519D01*
X133340001Y-71359063D01*
X133340001Y-77010605D01*
X133214759Y-76885363D01*
X132979727Y-76728320D01*
X132718574Y-76620147D01*
X132441335Y-76565000D01*
X132158665Y-76565000D01*
X131881426Y-76620147D01*
X131620273Y-76728320D01*
X131385241Y-76885363D01*
X131185363Y-77085241D01*
X131028320Y-77320273D01*
X130920147Y-77581426D01*
X130865000Y-77858665D01*
X130865000Y-78141335D01*
X130920147Y-78418574D01*
X131028320Y-78679727D01*
X131185363Y-78914759D01*
X131385241Y-79114637D01*
X131620273Y-79271680D01*
X131881426Y-79379853D01*
X132158665Y-79435000D01*
X132441335Y-79435000D01*
X132718574Y-79379853D01*
X132979727Y-79271680D01*
X133214759Y-79114637D01*
X133340001Y-78989395D01*
X133340001Y-82123777D01*
X132637988Y-81421765D01*
X132611054Y-81388946D01*
X132480102Y-81281476D01*
X132330700Y-81201619D01*
X132168589Y-81152444D01*
X132042246Y-81140000D01*
X132042239Y-81140000D01*
X132000000Y-81135840D01*
X131957761Y-81140000D01*
X127351226Y-81140000D01*
X127314637Y-81085241D01*
X127114759Y-80885363D01*
X126879727Y-80728320D01*
X126618574Y-80620147D01*
X126555776Y-80607656D01*
X128157018Y-79006414D01*
X128285241Y-79134637D01*
X128520273Y-79291680D01*
X128781426Y-79399853D01*
X129058665Y-79455000D01*
X129341335Y-79455000D01*
X129618574Y-79399853D01*
X129879727Y-79291680D01*
X130114759Y-79134637D01*
X130314637Y-78934759D01*
X130471680Y-78699727D01*
X130579853Y-78438574D01*
X130635000Y-78161335D01*
X130635000Y-77878665D01*
X130579853Y-77601426D01*
X130471680Y-77340273D01*
X130314637Y-77105241D01*
X130114759Y-76905363D01*
X129879727Y-76748320D01*
X129618574Y-76640147D01*
X129341335Y-76585000D01*
X129058665Y-76585000D01*
X128781426Y-76640147D01*
X128520273Y-76748320D01*
X128285241Y-76905363D01*
X128085363Y-77105241D01*
X127978481Y-77265202D01*
X127919644Y-77270997D01*
X127776383Y-77314454D01*
X127644354Y-77385026D01*
X127528629Y-77479999D01*
X127504831Y-77508997D01*
X127463271Y-77550557D01*
X127403603Y-77383708D01*
X127336671Y-77258486D01*
X127092702Y-77186903D01*
X126279605Y-78000000D01*
X126293748Y-78014143D01*
X126114143Y-78193748D01*
X126100000Y-78179605D01*
X125286903Y-78992702D01*
X125358486Y-79236671D01*
X125613996Y-79357571D01*
X125647787Y-79366041D01*
X124389003Y-80624826D01*
X124359999Y-80648629D01*
X124310729Y-80708665D01*
X124265026Y-80764354D01*
X124252072Y-80788589D01*
X124194454Y-80896384D01*
X124150997Y-81039645D01*
X124140000Y-81151298D01*
X124140000Y-81151308D01*
X124136324Y-81188630D01*
X124140000Y-81225952D01*
X124140001Y-90270443D01*
X124018574Y-90220147D01*
X123741335Y-90165000D01*
X123458665Y-90165000D01*
X123181426Y-90220147D01*
X122920273Y-90328320D01*
X122685241Y-90485363D01*
X122485363Y-90685241D01*
X122328320Y-90920273D01*
X122220147Y-91181426D01*
X122165000Y-91458665D01*
X122165000Y-91741335D01*
X122220147Y-92018574D01*
X122328320Y-92279727D01*
X122485363Y-92514759D01*
X122685241Y-92714637D01*
X122920273Y-92871680D01*
X123181426Y-92979853D01*
X123458665Y-93035000D01*
X123741335Y-93035000D01*
X124018574Y-92979853D01*
X124140001Y-92929556D01*
X124140001Y-94255971D01*
X118210010Y-88325981D01*
X118210010Y-84364791D01*
X118654802Y-83920000D01*
X121381957Y-83920000D01*
X121485363Y-84074759D01*
X121685241Y-84274637D01*
X121917759Y-84430000D01*
X121685241Y-84585363D01*
X121485363Y-84785241D01*
X121328320Y-85020273D01*
X121220147Y-85281426D01*
X121165000Y-85558665D01*
X121165000Y-85841335D01*
X121220147Y-86118574D01*
X121328320Y-86379727D01*
X121485363Y-86614759D01*
X121685241Y-86814637D01*
X121917759Y-86970000D01*
X121685241Y-87125363D01*
X121485363Y-87325241D01*
X121328320Y-87560273D01*
X121220147Y-87821426D01*
X121165000Y-88098665D01*
X121165000Y-88381335D01*
X121220147Y-88658574D01*
X121328320Y-88919727D01*
X121485363Y-89154759D01*
X121685241Y-89354637D01*
X121920273Y-89511680D01*
X122181426Y-89619853D01*
X122458665Y-89675000D01*
X122741335Y-89675000D01*
X123018574Y-89619853D01*
X123279727Y-89511680D01*
X123514759Y-89354637D01*
X123714637Y-89154759D01*
X123871680Y-88919727D01*
X123979853Y-88658574D01*
X124035000Y-88381335D01*
X124035000Y-88098665D01*
X123979853Y-87821426D01*
X123871680Y-87560273D01*
X123714637Y-87325241D01*
X123514759Y-87125363D01*
X123282241Y-86970000D01*
X123514759Y-86814637D01*
X123714637Y-86614759D01*
X123871680Y-86379727D01*
X123979853Y-86118574D01*
X124035000Y-85841335D01*
X124035000Y-85558665D01*
X123979853Y-85281426D01*
X123871680Y-85020273D01*
X123714637Y-84785241D01*
X123514759Y-84585363D01*
X123282241Y-84430000D01*
X123514759Y-84274637D01*
X123714637Y-84074759D01*
X123871680Y-83839727D01*
X123979853Y-83578574D01*
X124035000Y-83301335D01*
X124035000Y-83018665D01*
X123979853Y-82741426D01*
X123871680Y-82480273D01*
X123714637Y-82245241D01*
X123514759Y-82045363D01*
X123282241Y-81890000D01*
X123514759Y-81734637D01*
X123714637Y-81534759D01*
X123871680Y-81299727D01*
X123979853Y-81038574D01*
X124035000Y-80761335D01*
X124035000Y-80478665D01*
X123979853Y-80201426D01*
X123871680Y-79940273D01*
X123714637Y-79705241D01*
X123514759Y-79505363D01*
X123282241Y-79350000D01*
X123514759Y-79194637D01*
X123714637Y-78994759D01*
X123871680Y-78759727D01*
X123979853Y-78498574D01*
X124035000Y-78221335D01*
X124035000Y-78070512D01*
X124659783Y-78070512D01*
X124701213Y-78350130D01*
X124796397Y-78616292D01*
X124863329Y-78741514D01*
X125107298Y-78813097D01*
X125920395Y-78000000D01*
X125107298Y-77186903D01*
X124863329Y-77258486D01*
X124742429Y-77513996D01*
X124673700Y-77788184D01*
X124659783Y-78070512D01*
X124035000Y-78070512D01*
X124035000Y-77938665D01*
X123979853Y-77661426D01*
X123871680Y-77400273D01*
X123714637Y-77165241D01*
X123556694Y-77007298D01*
X125286903Y-77007298D01*
X126100000Y-77820395D01*
X126913097Y-77007298D01*
X126841514Y-76763329D01*
X126586004Y-76642429D01*
X126311816Y-76573700D01*
X126029488Y-76559783D01*
X125749870Y-76601213D01*
X125483708Y-76696397D01*
X125358486Y-76763329D01*
X125286903Y-77007298D01*
X123556694Y-77007298D01*
X123514759Y-76965363D01*
X123282241Y-76810000D01*
X123514759Y-76654637D01*
X123714637Y-76454759D01*
X123871680Y-76219727D01*
X123979853Y-75958574D01*
X124035000Y-75681335D01*
X124035000Y-75398665D01*
X123979853Y-75121426D01*
X123871680Y-74860273D01*
X123714637Y-74625241D01*
X123516039Y-74426643D01*
X123524482Y-74425812D01*
X123644180Y-74389502D01*
X123754494Y-74330537D01*
X123851185Y-74251185D01*
X123930537Y-74154494D01*
X123989502Y-74044180D01*
X124025812Y-73924482D01*
X124038072Y-73800000D01*
X124038072Y-72200000D01*
X124025812Y-72075518D01*
X123989502Y-71955820D01*
X123930537Y-71845506D01*
X123851185Y-71748815D01*
X123754494Y-71669463D01*
X123644180Y-71610498D01*
X123524482Y-71574188D01*
X123400000Y-71561928D01*
X121800000Y-71561928D01*
X121675518Y-71574188D01*
X121560000Y-71609230D01*
X121560000Y-70238665D01*
X124665000Y-70238665D01*
X124665000Y-70521335D01*
X124720147Y-70798574D01*
X124828320Y-71059727D01*
X124985363Y-71294759D01*
X125185241Y-71494637D01*
X125420273Y-71651680D01*
X125681426Y-71759853D01*
X125958665Y-71815000D01*
X126241335Y-71815000D01*
X126518574Y-71759853D01*
X126779727Y-71651680D01*
X127014759Y-71494637D01*
X127214637Y-71294759D01*
X127371680Y-71059727D01*
X127479853Y-70798574D01*
X127535000Y-70521335D01*
X127535000Y-70258665D01*
X127765000Y-70258665D01*
X127765000Y-70541335D01*
X127820147Y-70818574D01*
X127928320Y-71079727D01*
X128085363Y-71314759D01*
X128285241Y-71514637D01*
X128520273Y-71671680D01*
X128781426Y-71779853D01*
X129058665Y-71835000D01*
X129341335Y-71835000D01*
X129618574Y-71779853D01*
X129879727Y-71671680D01*
X130114759Y-71514637D01*
X130314637Y-71314759D01*
X130471680Y-71079727D01*
X130579853Y-70818574D01*
X130597662Y-70729040D01*
X130908091Y-70729040D01*
X131002930Y-70993881D01*
X131147615Y-71235131D01*
X131336586Y-71443519D01*
X131562580Y-71611037D01*
X131816913Y-71731246D01*
X131950961Y-71771904D01*
X132173000Y-71649915D01*
X132173000Y-70507000D01*
X131029376Y-70507000D01*
X130908091Y-70729040D01*
X130597662Y-70729040D01*
X130635000Y-70541335D01*
X130635000Y-70258665D01*
X130589707Y-70030960D01*
X130908091Y-70030960D01*
X131029376Y-70253000D01*
X132173000Y-70253000D01*
X132173000Y-69110085D01*
X131950961Y-68988096D01*
X131816913Y-69028754D01*
X131562580Y-69148963D01*
X131336586Y-69316481D01*
X131147615Y-69524869D01*
X131002930Y-69766119D01*
X130908091Y-70030960D01*
X130589707Y-70030960D01*
X130579853Y-69981426D01*
X130471680Y-69720273D01*
X130314637Y-69485241D01*
X130114759Y-69285363D01*
X129879727Y-69128320D01*
X129618574Y-69020147D01*
X129341335Y-68965000D01*
X129058665Y-68965000D01*
X128781426Y-69020147D01*
X128520273Y-69128320D01*
X128285241Y-69285363D01*
X128085363Y-69485241D01*
X127928320Y-69720273D01*
X127820147Y-69981426D01*
X127765000Y-70258665D01*
X127535000Y-70258665D01*
X127535000Y-70238665D01*
X127479853Y-69961426D01*
X127371680Y-69700273D01*
X127214637Y-69465241D01*
X127014759Y-69265363D01*
X126779727Y-69108320D01*
X126518574Y-69000147D01*
X126241335Y-68945000D01*
X125958665Y-68945000D01*
X125681426Y-69000147D01*
X125420273Y-69108320D01*
X125185241Y-69265363D01*
X124985363Y-69465241D01*
X124828320Y-69700273D01*
X124720147Y-69961426D01*
X124665000Y-70238665D01*
X121560000Y-70238665D01*
X121560000Y-68438072D01*
X122300000Y-68438072D01*
X122424482Y-68425812D01*
X122544180Y-68389502D01*
X122654494Y-68330537D01*
X122751185Y-68251185D01*
X122830537Y-68154494D01*
X122889502Y-68044180D01*
X122905117Y-67992702D01*
X123186903Y-67992702D01*
X123258486Y-68236671D01*
X123513996Y-68357571D01*
X123788184Y-68426300D01*
X124070512Y-68440217D01*
X124350130Y-68398787D01*
X124616292Y-68303603D01*
X124741514Y-68236671D01*
X124813097Y-67992702D01*
X124000000Y-67179605D01*
X123186903Y-67992702D01*
X122905117Y-67992702D01*
X122925812Y-67924482D01*
X122938072Y-67800000D01*
X122938072Y-67792785D01*
X123007298Y-67813097D01*
X123820395Y-67000000D01*
X124179605Y-67000000D01*
X124992702Y-67813097D01*
X125236671Y-67741514D01*
X125357571Y-67486004D01*
X125426300Y-67211816D01*
X125440217Y-66929488D01*
X125398787Y-66649870D01*
X125303603Y-66383708D01*
X125236671Y-66258486D01*
X124992702Y-66186903D01*
X124179605Y-67000000D01*
X123820395Y-67000000D01*
X123007298Y-66186903D01*
X122938072Y-66207215D01*
X122938072Y-66200000D01*
X122925812Y-66075518D01*
X122905118Y-66007298D01*
X123186903Y-66007298D01*
X124000000Y-66820395D01*
X124813097Y-66007298D01*
X124741514Y-65763329D01*
X124486004Y-65642429D01*
X124211816Y-65573700D01*
X123929488Y-65559783D01*
X123649870Y-65601213D01*
X123383708Y-65696397D01*
X123258486Y-65763329D01*
X123186903Y-66007298D01*
X122905118Y-66007298D01*
X122889502Y-65955820D01*
X122830537Y-65845506D01*
X122751185Y-65748815D01*
X122654494Y-65669463D01*
X122544180Y-65610498D01*
X122424482Y-65574188D01*
X122300000Y-65561928D01*
X121419573Y-65561928D01*
X120212175Y-64354531D01*
X120182107Y-64317893D01*
X120035928Y-64197927D01*
X119869154Y-64108784D01*
X119688193Y-64053890D01*
X119547162Y-64040000D01*
X119547152Y-64040000D01*
X119500000Y-64035356D01*
X119452848Y-64040000D01*
X110547151Y-64040000D01*
X110499999Y-64035356D01*
X110452847Y-64040000D01*
X110452838Y-64040000D01*
X110311807Y-64053890D01*
X110130846Y-64108784D01*
X110022163Y-64166876D01*
X109964071Y-64197927D01*
X109866869Y-64277699D01*
X109817893Y-64317893D01*
X109787829Y-64354526D01*
X106630428Y-67511928D01*
X105650000Y-67511928D01*
X105525518Y-67524188D01*
X105405820Y-67560498D01*
X105295506Y-67619463D01*
X105198815Y-67698815D01*
X105119463Y-67795506D01*
X105060498Y-67905820D01*
X105024188Y-68025518D01*
X105011928Y-68150000D01*
X105011928Y-69850000D01*
X105024188Y-69974482D01*
X105060498Y-70094180D01*
X105119463Y-70204494D01*
X105198815Y-70301185D01*
X105295506Y-70380537D01*
X105405820Y-70439502D01*
X105525518Y-70475812D01*
X105650000Y-70488072D01*
X107350000Y-70488072D01*
X107474482Y-70475812D01*
X107594180Y-70439502D01*
X107704494Y-70380537D01*
X107801185Y-70301185D01*
X107880537Y-70204494D01*
X107939502Y-70094180D01*
X107963966Y-70013534D01*
X108039731Y-70097588D01*
X108273080Y-70271641D01*
X108535901Y-70396825D01*
X108683110Y-70441476D01*
X108913000Y-70320155D01*
X108913000Y-69127000D01*
X108893000Y-69127000D01*
X108893000Y-68873000D01*
X108913000Y-68873000D01*
X108913000Y-68853000D01*
X109167000Y-68853000D01*
X109167000Y-68873000D01*
X109187000Y-68873000D01*
X109187000Y-69127000D01*
X109167000Y-69127000D01*
X109167000Y-70320155D01*
X109396890Y-70441476D01*
X109544099Y-70396825D01*
X109806920Y-70271641D01*
X110040269Y-70097588D01*
X110235178Y-69881355D01*
X110304805Y-69764466D01*
X110426525Y-69946632D01*
X110633368Y-70153475D01*
X110876589Y-70315990D01*
X111146842Y-70427932D01*
X111433740Y-70485000D01*
X111726260Y-70485000D01*
X111828450Y-70464673D01*
X112540000Y-71176224D01*
X112540000Y-71985184D01*
X112529727Y-71978320D01*
X112268574Y-71870147D01*
X111991335Y-71815000D01*
X111708665Y-71815000D01*
X111431426Y-71870147D01*
X111170273Y-71978320D01*
X110935241Y-72135363D01*
X110735363Y-72335241D01*
X110578320Y-72570273D01*
X110470147Y-72831426D01*
X110415000Y-73108665D01*
X110415000Y-73391335D01*
X110470147Y-73668574D01*
X110578320Y-73929727D01*
X110735363Y-74164759D01*
X110935241Y-74364637D01*
X111170273Y-74521680D01*
X111431426Y-74629853D01*
X111708665Y-74685000D01*
X111991335Y-74685000D01*
X112268574Y-74629853D01*
X112529727Y-74521680D01*
X112540000Y-74514816D01*
X112540001Y-78997751D01*
X112535840Y-79040000D01*
X112552444Y-79208589D01*
X112594831Y-79348320D01*
X112601620Y-79370700D01*
X112681477Y-79520102D01*
X112788947Y-79651054D01*
X112821760Y-79677983D01*
X113557849Y-80414072D01*
X113545000Y-80478665D01*
X113545000Y-80761335D01*
X113600147Y-81038574D01*
X113708320Y-81299727D01*
X113865363Y-81534759D01*
X114065241Y-81734637D01*
X114297759Y-81890000D01*
X114065241Y-82045363D01*
X114062808Y-82047796D01*
X114034974Y-81995723D01*
X113963799Y-81908997D01*
X113940001Y-81879999D01*
X113911003Y-81856201D01*
X113248688Y-81193886D01*
X113285000Y-81011335D01*
X113285000Y-80728665D01*
X113229853Y-80451426D01*
X113121680Y-80190273D01*
X112964637Y-79955241D01*
X112764759Y-79755363D01*
X112529727Y-79598320D01*
X112268574Y-79490147D01*
X111991335Y-79435000D01*
X111708665Y-79435000D01*
X111431426Y-79490147D01*
X111170273Y-79598320D01*
X110935241Y-79755363D01*
X110735363Y-79955241D01*
X110578320Y-80190273D01*
X110470147Y-80451426D01*
X110415000Y-80728665D01*
X110415000Y-81011335D01*
X110470147Y-81288574D01*
X110578320Y-81549727D01*
X110735363Y-81784759D01*
X110935241Y-81984637D01*
X111170273Y-82141680D01*
X111299857Y-82195355D01*
X111220273Y-82228320D01*
X110985241Y-82385363D01*
X110785363Y-82585241D01*
X110628320Y-82820273D01*
X110520147Y-83081426D01*
X110465000Y-83358665D01*
X110465000Y-83641335D01*
X110501312Y-83823886D01*
X109589002Y-84736197D01*
X109559999Y-84759999D01*
X109515956Y-84813666D01*
X109465026Y-84875724D01*
X109433342Y-84935000D01*
X109394454Y-85007754D01*
X109350997Y-85151015D01*
X109340000Y-85262668D01*
X109340000Y-85262678D01*
X109336324Y-85300000D01*
X109340000Y-85337322D01*
X109340000Y-86091471D01*
X109293158Y-86072068D01*
X109006260Y-86015000D01*
X108713740Y-86015000D01*
X108426842Y-86072068D01*
X108156589Y-86184010D01*
X107913368Y-86346525D01*
X107706525Y-86553368D01*
X107590000Y-86727760D01*
X107473475Y-86553368D01*
X107266632Y-86346525D01*
X107023411Y-86184010D01*
X106753158Y-86072068D01*
X106466260Y-86015000D01*
X106173740Y-86015000D01*
X105886842Y-86072068D01*
X105616589Y-86184010D01*
X105373368Y-86346525D01*
X105166525Y-86553368D01*
X105004010Y-86796589D01*
X104892068Y-87066842D01*
X104835000Y-87353740D01*
X104835000Y-87646260D01*
X104892068Y-87933158D01*
X105004010Y-88203411D01*
X105166525Y-88446632D01*
X105373368Y-88653475D01*
X105616589Y-88815990D01*
X105886842Y-88927932D01*
X106173740Y-88985000D01*
X106466260Y-88985000D01*
X106753158Y-88927932D01*
X107023411Y-88815990D01*
X107266632Y-88653475D01*
X107473475Y-88446632D01*
X107590000Y-88272240D01*
X107706525Y-88446632D01*
X107913368Y-88653475D01*
X108156589Y-88815990D01*
X108426842Y-88927932D01*
X108713740Y-88985000D01*
X109006260Y-88985000D01*
X109293158Y-88927932D01*
X109340000Y-88908529D01*
X109340001Y-118262667D01*
X109336324Y-118300000D01*
X109350998Y-118448985D01*
X109394454Y-118592246D01*
X109465026Y-118724276D01*
X109526076Y-118798665D01*
X109560000Y-118840001D01*
X109588998Y-118863799D01*
X110801312Y-120076114D01*
X110765000Y-120258665D01*
X110765000Y-120541335D01*
X110820147Y-120818574D01*
X110928320Y-121079727D01*
X111085363Y-121314759D01*
X111285241Y-121514637D01*
X111520273Y-121671680D01*
X111781426Y-121779853D01*
X111885817Y-121800618D01*
X113781312Y-123696114D01*
X113745000Y-123878665D01*
X113745000Y-124161335D01*
X113800147Y-124438574D01*
X113908320Y-124699727D01*
X114065363Y-124934759D01*
X114265241Y-125134637D01*
X114500273Y-125291680D01*
X114510865Y-125296067D01*
X114324869Y-125407615D01*
X114116481Y-125596586D01*
X113948963Y-125822580D01*
X113828754Y-126076913D01*
X113788096Y-126210961D01*
X113910085Y-126433000D01*
X115053000Y-126433000D01*
X115053000Y-126413000D01*
X115307000Y-126413000D01*
X115307000Y-126433000D01*
X116449915Y-126433000D01*
X116571904Y-126210961D01*
X116531246Y-126076913D01*
X116411037Y-125822580D01*
X116243519Y-125596586D01*
X116035131Y-125407615D01*
X115849135Y-125296067D01*
X115859727Y-125291680D01*
X116094759Y-125134637D01*
X116294637Y-124934759D01*
X116451680Y-124699727D01*
X116559853Y-124438574D01*
X116615000Y-124161335D01*
X116615000Y-123878665D01*
X116559853Y-123601426D01*
X116451680Y-123340273D01*
X116294637Y-123105241D01*
X116094759Y-122905363D01*
X115862241Y-122750000D01*
X116094759Y-122594637D01*
X116294637Y-122394759D01*
X116451680Y-122159727D01*
X116559853Y-121898574D01*
X116615000Y-121621335D01*
X116615000Y-121338665D01*
X116559853Y-121061426D01*
X116451680Y-120800273D01*
X116294637Y-120565241D01*
X116094759Y-120365363D01*
X115862241Y-120210000D01*
X116094759Y-120054637D01*
X116294637Y-119854759D01*
X116451680Y-119619727D01*
X116559853Y-119358574D01*
X116615000Y-119081335D01*
X116615000Y-118798665D01*
X116559853Y-118521426D01*
X116451680Y-118260273D01*
X116294637Y-118025241D01*
X116094759Y-117825363D01*
X115862241Y-117670000D01*
X116094759Y-117514637D01*
X116294637Y-117314759D01*
X116451680Y-117079727D01*
X116496565Y-116971366D01*
X118640001Y-119114803D01*
X118640000Y-127140000D01*
X116485441Y-127140000D01*
X116531246Y-127043087D01*
X116571904Y-126909039D01*
X116449915Y-126687000D01*
X115307000Y-126687000D01*
X115307000Y-126707000D01*
X115053000Y-126707000D01*
X115053000Y-126687000D01*
X113910085Y-126687000D01*
X113788096Y-126909039D01*
X113828754Y-127043087D01*
X113874559Y-127140000D01*
X109914802Y-127140000D01*
X108634999Y-125860198D01*
X108634999Y-125790509D01*
X108858665Y-125835000D01*
X109141335Y-125835000D01*
X109418574Y-125779853D01*
X109679727Y-125671680D01*
X109914759Y-125514637D01*
X110114637Y-125314759D01*
X110271680Y-125079727D01*
X110379853Y-124818574D01*
X110435000Y-124541335D01*
X110435000Y-124258665D01*
X110565000Y-124258665D01*
X110565000Y-124541335D01*
X110620147Y-124818574D01*
X110728320Y-125079727D01*
X110885363Y-125314759D01*
X111085241Y-125514637D01*
X111320273Y-125671680D01*
X111581426Y-125779853D01*
X111858665Y-125835000D01*
X112141335Y-125835000D01*
X112418574Y-125779853D01*
X112679727Y-125671680D01*
X112914759Y-125514637D01*
X113114637Y-125314759D01*
X113271680Y-125079727D01*
X113379853Y-124818574D01*
X113435000Y-124541335D01*
X113435000Y-124258665D01*
X113379853Y-123981426D01*
X113271680Y-123720273D01*
X113114637Y-123485241D01*
X112914759Y-123285363D01*
X112679727Y-123128320D01*
X112418574Y-123020147D01*
X112141335Y-122965000D01*
X111858665Y-122965000D01*
X111581426Y-123020147D01*
X111320273Y-123128320D01*
X111085241Y-123285363D01*
X110885363Y-123485241D01*
X110728320Y-123720273D01*
X110620147Y-123981426D01*
X110565000Y-124258665D01*
X110435000Y-124258665D01*
X110379853Y-123981426D01*
X110271680Y-123720273D01*
X110114637Y-123485241D01*
X109914759Y-123285363D01*
X109679727Y-123128320D01*
X109418574Y-123020147D01*
X109141335Y-122965000D01*
X108858665Y-122965000D01*
X108591293Y-123018184D01*
X108580545Y-122982752D01*
X108571056Y-122965000D01*
X108509973Y-122850722D01*
X108438798Y-122763996D01*
X108415000Y-122734998D01*
X108386002Y-122711200D01*
X107483466Y-121808664D01*
X107550130Y-121798787D01*
X107816292Y-121703603D01*
X107941514Y-121636671D01*
X108013097Y-121392702D01*
X107200000Y-120579605D01*
X107185858Y-120593748D01*
X107006253Y-120414143D01*
X107020395Y-120400000D01*
X107379605Y-120400000D01*
X108192702Y-121213097D01*
X108436671Y-121141514D01*
X108557571Y-120886004D01*
X108626300Y-120611816D01*
X108640217Y-120329488D01*
X108598787Y-120049870D01*
X108503603Y-119783708D01*
X108436671Y-119658486D01*
X108192702Y-119586903D01*
X107379605Y-120400000D01*
X107020395Y-120400000D01*
X106207298Y-119586903D01*
X106140001Y-119606649D01*
X106140001Y-119407298D01*
X106386903Y-119407298D01*
X107200000Y-120220395D01*
X108013097Y-119407298D01*
X107941514Y-119163329D01*
X107686004Y-119042429D01*
X107411816Y-118973700D01*
X107129488Y-118959783D01*
X106849870Y-119001213D01*
X106583708Y-119096397D01*
X106458486Y-119163329D01*
X106386903Y-119407298D01*
X106140001Y-119407298D01*
X106140001Y-114635000D01*
X106321335Y-114635000D01*
X106598574Y-114579853D01*
X106859727Y-114471680D01*
X107094759Y-114314637D01*
X107294637Y-114114759D01*
X107451680Y-113879727D01*
X107559853Y-113618574D01*
X107615000Y-113341335D01*
X107615000Y-113058665D01*
X107559853Y-112781426D01*
X107451680Y-112520273D01*
X107294637Y-112285241D01*
X107260000Y-112250604D01*
X107260000Y-111318043D01*
X107414759Y-111214637D01*
X107614637Y-111014759D01*
X107771680Y-110779727D01*
X107879853Y-110518574D01*
X107935000Y-110241335D01*
X107935000Y-109958665D01*
X107879853Y-109681426D01*
X107771680Y-109420273D01*
X107614637Y-109185241D01*
X107414759Y-108985363D01*
X107179727Y-108828320D01*
X106918574Y-108720147D01*
X106641335Y-108665000D01*
X106358665Y-108665000D01*
X106081426Y-108720147D01*
X105820273Y-108828320D01*
X105585241Y-108985363D01*
X105385363Y-109185241D01*
X105228320Y-109420273D01*
X105120147Y-109681426D01*
X105065000Y-109958665D01*
X105065000Y-110241335D01*
X105120147Y-110518574D01*
X105228320Y-110779727D01*
X105385363Y-111014759D01*
X105585241Y-111214637D01*
X105740000Y-111318044D01*
X105740001Y-111829022D01*
X105500273Y-111928320D01*
X105265241Y-112085363D01*
X105065363Y-112285241D01*
X104908320Y-112520273D01*
X104800147Y-112781426D01*
X104745000Y-113058665D01*
X104745000Y-113341335D01*
X104782533Y-113530023D01*
X104745027Y-113575723D01*
X104674455Y-113707753D01*
X104660000Y-113755407D01*
X104660000Y-106858665D01*
X105065000Y-106858665D01*
X105065000Y-107141335D01*
X105120147Y-107418574D01*
X105228320Y-107679727D01*
X105385363Y-107914759D01*
X105585241Y-108114637D01*
X105820273Y-108271680D01*
X106081426Y-108379853D01*
X106358665Y-108435000D01*
X106641335Y-108435000D01*
X106918574Y-108379853D01*
X107179727Y-108271680D01*
X107414759Y-108114637D01*
X107614637Y-107914759D01*
X107771680Y-107679727D01*
X107879853Y-107418574D01*
X107935000Y-107141335D01*
X107935000Y-106858665D01*
X107879853Y-106581426D01*
X107771680Y-106320273D01*
X107614637Y-106085241D01*
X107414759Y-105885363D01*
X107179727Y-105728320D01*
X106918574Y-105620147D01*
X106641335Y-105565000D01*
X106358665Y-105565000D01*
X106081426Y-105620147D01*
X105820273Y-105728320D01*
X105585241Y-105885363D01*
X105385363Y-106085241D01*
X105228320Y-106320273D01*
X105120147Y-106581426D01*
X105065000Y-106858665D01*
X104660000Y-106858665D01*
X104660000Y-103758665D01*
X105065000Y-103758665D01*
X105065000Y-104041335D01*
X105120147Y-104318574D01*
X105228320Y-104579727D01*
X105385363Y-104814759D01*
X105585241Y-105014637D01*
X105820273Y-105171680D01*
X106081426Y-105279853D01*
X106358665Y-105335000D01*
X106641335Y-105335000D01*
X106918574Y-105279853D01*
X107179727Y-105171680D01*
X107414759Y-105014637D01*
X107614637Y-104814759D01*
X107771680Y-104579727D01*
X107879853Y-104318574D01*
X107935000Y-104041335D01*
X107935000Y-103758665D01*
X107879853Y-103481426D01*
X107771680Y-103220273D01*
X107614637Y-102985241D01*
X107414759Y-102785363D01*
X107179727Y-102628320D01*
X106918574Y-102520147D01*
X106641335Y-102465000D01*
X106358665Y-102465000D01*
X106081426Y-102520147D01*
X105820273Y-102628320D01*
X105585241Y-102785363D01*
X105385363Y-102985241D01*
X105228320Y-103220273D01*
X105120147Y-103481426D01*
X105065000Y-103758665D01*
X104660000Y-103758665D01*
X104660000Y-100658665D01*
X105065000Y-100658665D01*
X105065000Y-100941335D01*
X105120147Y-101218574D01*
X105228320Y-101479727D01*
X105385363Y-101714759D01*
X105585241Y-101914637D01*
X105820273Y-102071680D01*
X106081426Y-102179853D01*
X106358665Y-102235000D01*
X106641335Y-102235000D01*
X106918574Y-102179853D01*
X107179727Y-102071680D01*
X107414759Y-101914637D01*
X107614637Y-101714759D01*
X107771680Y-101479727D01*
X107879853Y-101218574D01*
X107935000Y-100941335D01*
X107935000Y-100658665D01*
X107879853Y-100381426D01*
X107771680Y-100120273D01*
X107614637Y-99885241D01*
X107414759Y-99685363D01*
X107179727Y-99528320D01*
X106918574Y-99420147D01*
X106641335Y-99365000D01*
X106358665Y-99365000D01*
X106081426Y-99420147D01*
X105820273Y-99528320D01*
X105585241Y-99685363D01*
X105385363Y-99885241D01*
X105228320Y-100120273D01*
X105120147Y-100381426D01*
X105065000Y-100658665D01*
X104660000Y-100658665D01*
X104660000Y-97558665D01*
X105065000Y-97558665D01*
X105065000Y-97841335D01*
X105120147Y-98118574D01*
X105228320Y-98379727D01*
X105385363Y-98614759D01*
X105585241Y-98814637D01*
X105820273Y-98971680D01*
X106081426Y-99079853D01*
X106358665Y-99135000D01*
X106641335Y-99135000D01*
X106918574Y-99079853D01*
X107179727Y-98971680D01*
X107414759Y-98814637D01*
X107614637Y-98614759D01*
X107771680Y-98379727D01*
X107879853Y-98118574D01*
X107935000Y-97841335D01*
X107935000Y-97558665D01*
X107879853Y-97281426D01*
X107771680Y-97020273D01*
X107614637Y-96785241D01*
X107414759Y-96585363D01*
X107179727Y-96428320D01*
X106918574Y-96320147D01*
X106641335Y-96265000D01*
X106358665Y-96265000D01*
X106081426Y-96320147D01*
X105820273Y-96428320D01*
X105585241Y-96585363D01*
X105385363Y-96785241D01*
X105228320Y-97020273D01*
X105120147Y-97281426D01*
X105065000Y-97558665D01*
X104660000Y-97558665D01*
X104660000Y-94558665D01*
X104765000Y-94558665D01*
X104765000Y-94841335D01*
X104820147Y-95118574D01*
X104928320Y-95379727D01*
X105085363Y-95614759D01*
X105285241Y-95814637D01*
X105520273Y-95971680D01*
X105781426Y-96079853D01*
X106058665Y-96135000D01*
X106341335Y-96135000D01*
X106618574Y-96079853D01*
X106879727Y-95971680D01*
X107114759Y-95814637D01*
X107314637Y-95614759D01*
X107471680Y-95379727D01*
X107579853Y-95118574D01*
X107635000Y-94841335D01*
X107635000Y-94558665D01*
X107579853Y-94281426D01*
X107471680Y-94020273D01*
X107314637Y-93785241D01*
X107114759Y-93585363D01*
X106879727Y-93428320D01*
X106618574Y-93320147D01*
X106341335Y-93265000D01*
X106058665Y-93265000D01*
X105781426Y-93320147D01*
X105520273Y-93428320D01*
X105285241Y-93585363D01*
X105085363Y-93785241D01*
X104928320Y-94020273D01*
X104820147Y-94281426D01*
X104765000Y-94558665D01*
X104660000Y-94558665D01*
X104660000Y-91458665D01*
X104745000Y-91458665D01*
X104745000Y-91741335D01*
X104800147Y-92018574D01*
X104908320Y-92279727D01*
X105065363Y-92514759D01*
X105265241Y-92714637D01*
X105500273Y-92871680D01*
X105761426Y-92979853D01*
X106038665Y-93035000D01*
X106321335Y-93035000D01*
X106598574Y-92979853D01*
X106859727Y-92871680D01*
X107094759Y-92714637D01*
X107294637Y-92514759D01*
X107451680Y-92279727D01*
X107559853Y-92018574D01*
X107615000Y-91741335D01*
X107615000Y-91458665D01*
X107559853Y-91181426D01*
X107451680Y-90920273D01*
X107294637Y-90685241D01*
X107094759Y-90485363D01*
X106859727Y-90328320D01*
X106598574Y-90220147D01*
X106321335Y-90165000D01*
X106038665Y-90165000D01*
X105761426Y-90220147D01*
X105500273Y-90328320D01*
X105265241Y-90485363D01*
X105065363Y-90685241D01*
X104908320Y-90920273D01*
X104800147Y-91181426D01*
X104745000Y-91458665D01*
X104660000Y-91458665D01*
X104660000Y-84492702D01*
X106086903Y-84492702D01*
X106158486Y-84736671D01*
X106413996Y-84857571D01*
X106688184Y-84926300D01*
X106970512Y-84940217D01*
X107250130Y-84898787D01*
X107516292Y-84803603D01*
X107641514Y-84736671D01*
X107713097Y-84492702D01*
X106900000Y-83679605D01*
X106086903Y-84492702D01*
X104660000Y-84492702D01*
X104660000Y-83570512D01*
X105459783Y-83570512D01*
X105501213Y-83850130D01*
X105596397Y-84116292D01*
X105663329Y-84241514D01*
X105907298Y-84313097D01*
X106720395Y-83500000D01*
X107079605Y-83500000D01*
X107892702Y-84313097D01*
X108136671Y-84241514D01*
X108257571Y-83986004D01*
X108326300Y-83711816D01*
X108340217Y-83429488D01*
X108298787Y-83149870D01*
X108203603Y-82883708D01*
X108136671Y-82758486D01*
X107892702Y-82686903D01*
X107079605Y-83500000D01*
X106720395Y-83500000D01*
X105907298Y-82686903D01*
X105663329Y-82758486D01*
X105542429Y-83013996D01*
X105473700Y-83288184D01*
X105459783Y-83570512D01*
X104660000Y-83570512D01*
X104660000Y-82507298D01*
X106086903Y-82507298D01*
X106900000Y-83320395D01*
X107713097Y-82507298D01*
X107641514Y-82263329D01*
X107386004Y-82142429D01*
X107111816Y-82073700D01*
X106829488Y-82059783D01*
X106549870Y-82101213D01*
X106283708Y-82196397D01*
X106158486Y-82263329D01*
X106086903Y-82507298D01*
X104660000Y-82507298D01*
X104660000Y-81789396D01*
X104835241Y-81964637D01*
X105070273Y-82121680D01*
X105331426Y-82229853D01*
X105608665Y-82285000D01*
X105891335Y-82285000D01*
X106168574Y-82229853D01*
X106429727Y-82121680D01*
X106664759Y-81964637D01*
X106864637Y-81764759D01*
X107021680Y-81529727D01*
X107129853Y-81268574D01*
X107185000Y-80991335D01*
X107185000Y-80728665D01*
X107365000Y-80728665D01*
X107365000Y-81011335D01*
X107420147Y-81288574D01*
X107528320Y-81549727D01*
X107685363Y-81784759D01*
X107885241Y-81984637D01*
X108120273Y-82141680D01*
X108381426Y-82249853D01*
X108658665Y-82305000D01*
X108941335Y-82305000D01*
X109218574Y-82249853D01*
X109479727Y-82141680D01*
X109714759Y-81984637D01*
X109914637Y-81784759D01*
X110071680Y-81549727D01*
X110179853Y-81288574D01*
X110235000Y-81011335D01*
X110235000Y-80728665D01*
X110179853Y-80451426D01*
X110071680Y-80190273D01*
X109914637Y-79955241D01*
X109714759Y-79755363D01*
X109479727Y-79598320D01*
X109218574Y-79490147D01*
X108941335Y-79435000D01*
X108658665Y-79435000D01*
X108381426Y-79490147D01*
X108120273Y-79598320D01*
X107885241Y-79755363D01*
X107685363Y-79955241D01*
X107528320Y-80190273D01*
X107420147Y-80451426D01*
X107365000Y-80728665D01*
X107185000Y-80728665D01*
X107185000Y-80708665D01*
X107129853Y-80431426D01*
X107021680Y-80170273D01*
X106864637Y-79935241D01*
X106664759Y-79735363D01*
X106429727Y-79578320D01*
X106168574Y-79470147D01*
X105891335Y-79415000D01*
X105608665Y-79415000D01*
X105331426Y-79470147D01*
X105070273Y-79578320D01*
X104835241Y-79735363D01*
X104660000Y-79910604D01*
X104660000Y-74169396D01*
X104835241Y-74344637D01*
X105070273Y-74501680D01*
X105331426Y-74609853D01*
X105608665Y-74665000D01*
X105891335Y-74665000D01*
X106168574Y-74609853D01*
X106429727Y-74501680D01*
X106664759Y-74344637D01*
X106864637Y-74144759D01*
X107021680Y-73909727D01*
X107129853Y-73648574D01*
X107185000Y-73371335D01*
X107185000Y-73108665D01*
X107365000Y-73108665D01*
X107365000Y-73391335D01*
X107420147Y-73668574D01*
X107528320Y-73929727D01*
X107685363Y-74164759D01*
X107885241Y-74364637D01*
X108120273Y-74521680D01*
X108381426Y-74629853D01*
X108658665Y-74685000D01*
X108941335Y-74685000D01*
X109218574Y-74629853D01*
X109479727Y-74521680D01*
X109714759Y-74364637D01*
X109914637Y-74164759D01*
X110071680Y-73929727D01*
X110179853Y-73668574D01*
X110235000Y-73391335D01*
X110235000Y-73108665D01*
X110179853Y-72831426D01*
X110071680Y-72570273D01*
X109914637Y-72335241D01*
X109714759Y-72135363D01*
X109479727Y-71978320D01*
X109218574Y-71870147D01*
X108941335Y-71815000D01*
X108658665Y-71815000D01*
X108381426Y-71870147D01*
X108120273Y-71978320D01*
X107885241Y-72135363D01*
X107685363Y-72335241D01*
X107528320Y-72570273D01*
X107420147Y-72831426D01*
X107365000Y-73108665D01*
X107185000Y-73108665D01*
X107185000Y-73088665D01*
X107129853Y-72811426D01*
X107021680Y-72550273D01*
X106864637Y-72315241D01*
X106664759Y-72115363D01*
X106429727Y-71958320D01*
X106168574Y-71850147D01*
X105891335Y-71795000D01*
X105608665Y-71795000D01*
X105331426Y-71850147D01*
X105070273Y-71958320D01*
X104835241Y-72115363D01*
X104660000Y-72290604D01*
X104660000Y-57300000D01*
X108511928Y-57300000D01*
X108511928Y-58500000D01*
X108528992Y-58673254D01*
X108579528Y-58839850D01*
X108661595Y-58993386D01*
X108772038Y-59127962D01*
X108906614Y-59238405D01*
X109033608Y-59306285D01*
X108846525Y-59493368D01*
X108684010Y-59736589D01*
X108572068Y-60006842D01*
X108515000Y-60293740D01*
X108515000Y-60586260D01*
X108572068Y-60873158D01*
X108684010Y-61143411D01*
X108846525Y-61386632D01*
X109053368Y-61593475D01*
X109296589Y-61755990D01*
X109566842Y-61867932D01*
X109853740Y-61925000D01*
X110146260Y-61925000D01*
X110433158Y-61867932D01*
X110703411Y-61755990D01*
X110946632Y-61593475D01*
X111071710Y-61468397D01*
X111691208Y-61468397D01*
X111768843Y-61717472D01*
X112032883Y-61843371D01*
X112316411Y-61915339D01*
X112608531Y-61930611D01*
X112898019Y-61888599D01*
X113173747Y-61790919D01*
X113311157Y-61717472D01*
X113388792Y-61468397D01*
X114231208Y-61468397D01*
X114308843Y-61717472D01*
X114572883Y-61843371D01*
X114856411Y-61915339D01*
X115148531Y-61930611D01*
X115438019Y-61888599D01*
X115713747Y-61790919D01*
X115851157Y-61717472D01*
X115928792Y-61468397D01*
X116771208Y-61468397D01*
X116848843Y-61717472D01*
X117112883Y-61843371D01*
X117396411Y-61915339D01*
X117688531Y-61930611D01*
X117978019Y-61888599D01*
X118253747Y-61790919D01*
X118391157Y-61717472D01*
X118468792Y-61468397D01*
X117620000Y-60619605D01*
X116771208Y-61468397D01*
X115928792Y-61468397D01*
X115080000Y-60619605D01*
X114231208Y-61468397D01*
X113388792Y-61468397D01*
X112540000Y-60619605D01*
X111691208Y-61468397D01*
X111071710Y-61468397D01*
X111153475Y-61386632D01*
X111269311Y-61213271D01*
X111511603Y-61288792D01*
X112360395Y-60440000D01*
X112719605Y-60440000D01*
X113568397Y-61288792D01*
X113810000Y-61213486D01*
X114051603Y-61288792D01*
X114900395Y-60440000D01*
X115259605Y-60440000D01*
X116108397Y-61288792D01*
X116350000Y-61213486D01*
X116591603Y-61288792D01*
X117440395Y-60440000D01*
X116591603Y-59591208D01*
X116350000Y-59666514D01*
X116108397Y-59591208D01*
X115259605Y-60440000D01*
X114900395Y-60440000D01*
X114051603Y-59591208D01*
X113810000Y-59666514D01*
X113568397Y-59591208D01*
X112719605Y-60440000D01*
X112360395Y-60440000D01*
X111511603Y-59591208D01*
X111269311Y-59666729D01*
X111153475Y-59493368D01*
X110966392Y-59306285D01*
X111093386Y-59238405D01*
X111227962Y-59127962D01*
X111338405Y-58993386D01*
X111373142Y-58928397D01*
X111691208Y-58928397D01*
X111766514Y-59170000D01*
X111691208Y-59411603D01*
X112540000Y-60260395D01*
X113388792Y-59411603D01*
X113313486Y-59170000D01*
X113388792Y-58928397D01*
X114231208Y-58928397D01*
X114306514Y-59170000D01*
X114231208Y-59411603D01*
X115080000Y-60260395D01*
X115928792Y-59411603D01*
X115853486Y-59170000D01*
X115928792Y-58928397D01*
X116771208Y-58928397D01*
X116846514Y-59170000D01*
X116771208Y-59411603D01*
X117620000Y-60260395D01*
X118468792Y-59411603D01*
X118393486Y-59170000D01*
X118468792Y-58928397D01*
X117620000Y-58079605D01*
X116771208Y-58928397D01*
X115928792Y-58928397D01*
X115080000Y-58079605D01*
X114231208Y-58928397D01*
X113388792Y-58928397D01*
X112540000Y-58079605D01*
X111691208Y-58928397D01*
X111373142Y-58928397D01*
X111420472Y-58839850D01*
X111453580Y-58730707D01*
X111511603Y-58748792D01*
X112360395Y-57900000D01*
X112719605Y-57900000D01*
X113568397Y-58748792D01*
X113810000Y-58673486D01*
X114051603Y-58748792D01*
X114900395Y-57900000D01*
X115259605Y-57900000D01*
X116108397Y-58748792D01*
X116350000Y-58673486D01*
X116591603Y-58748792D01*
X117440395Y-57900000D01*
X117799605Y-57900000D01*
X118648397Y-58748792D01*
X118890689Y-58673271D01*
X119006525Y-58846632D01*
X119213368Y-59053475D01*
X119387760Y-59170000D01*
X119213368Y-59286525D01*
X119006525Y-59493368D01*
X118890689Y-59666729D01*
X118648397Y-59591208D01*
X117799605Y-60440000D01*
X118648397Y-61288792D01*
X118890689Y-61213271D01*
X119006525Y-61386632D01*
X119213368Y-61593475D01*
X119456589Y-61755990D01*
X119726842Y-61867932D01*
X120013740Y-61925000D01*
X120306260Y-61925000D01*
X120593158Y-61867932D01*
X120863411Y-61755990D01*
X121096866Y-61600000D01*
X128986928Y-61600000D01*
X128986928Y-62800000D01*
X129003992Y-62973254D01*
X129054528Y-63139850D01*
X129136595Y-63293386D01*
X129247038Y-63427962D01*
X129381614Y-63538405D01*
X129535150Y-63620472D01*
X129701746Y-63671008D01*
X129875000Y-63688072D01*
X131325000Y-63688072D01*
X131498254Y-63671008D01*
X131664850Y-63620472D01*
X131818386Y-63538405D01*
X131952962Y-63427962D01*
X132063405Y-63293386D01*
X132145472Y-63139850D01*
X132196008Y-62973254D01*
X132213072Y-62800000D01*
X132213072Y-61600000D01*
X132196008Y-61426746D01*
X132145472Y-61260150D01*
X132063405Y-61106614D01*
X131952962Y-60972038D01*
X131818386Y-60861595D01*
X131713039Y-60805286D01*
X131734429Y-60789049D01*
X131927496Y-60571193D01*
X132074352Y-60319858D01*
X132166476Y-60056890D01*
X132045155Y-59827000D01*
X130727000Y-59827000D01*
X130727000Y-59847000D01*
X130473000Y-59847000D01*
X130473000Y-59827000D01*
X129154845Y-59827000D01*
X129033524Y-60056890D01*
X129125648Y-60319858D01*
X129272504Y-60571193D01*
X129465571Y-60789049D01*
X129486961Y-60805286D01*
X129381614Y-60861595D01*
X129247038Y-60972038D01*
X129136595Y-61106614D01*
X129054528Y-61260150D01*
X129003992Y-61426746D01*
X128986928Y-61600000D01*
X121096866Y-61600000D01*
X121106632Y-61593475D01*
X121313475Y-61386632D01*
X121475990Y-61143411D01*
X121587932Y-60873158D01*
X121645000Y-60586260D01*
X121645000Y-60293740D01*
X121587932Y-60006842D01*
X121475990Y-59736589D01*
X121313475Y-59493368D01*
X121106632Y-59286525D01*
X120932240Y-59170000D01*
X121106632Y-59053475D01*
X121313475Y-58846632D01*
X121475990Y-58603411D01*
X121587932Y-58333158D01*
X121645000Y-58046260D01*
X121645000Y-57753740D01*
X121587932Y-57466842D01*
X121477403Y-57200000D01*
X128982815Y-57200000D01*
X129011487Y-57491111D01*
X129096401Y-57771034D01*
X129234294Y-58029014D01*
X129419866Y-58255134D01*
X129645986Y-58440706D01*
X129671722Y-58454462D01*
X129465571Y-58610951D01*
X129272504Y-58828807D01*
X129125648Y-59080142D01*
X129033524Y-59343110D01*
X129154845Y-59573000D01*
X130473000Y-59573000D01*
X130473000Y-59553000D01*
X130727000Y-59553000D01*
X130727000Y-59573000D01*
X132045155Y-59573000D01*
X132166476Y-59343110D01*
X132074352Y-59080142D01*
X131927496Y-58828807D01*
X131734429Y-58610951D01*
X131528278Y-58454462D01*
X131554014Y-58440706D01*
X131780134Y-58255134D01*
X131965706Y-58029014D01*
X132103599Y-57771034D01*
X132188513Y-57491111D01*
X132217185Y-57200000D01*
X132188513Y-56908889D01*
X132103599Y-56628966D01*
X131965706Y-56370986D01*
X131780134Y-56144866D01*
X131554014Y-55959294D01*
X131296034Y-55821401D01*
X131016111Y-55736487D01*
X130797950Y-55715000D01*
X130402050Y-55715000D01*
X130183889Y-55736487D01*
X129903966Y-55821401D01*
X129645986Y-55959294D01*
X129419866Y-56144866D01*
X129234294Y-56370986D01*
X129096401Y-56628966D01*
X129011487Y-56908889D01*
X128982815Y-57200000D01*
X121477403Y-57200000D01*
X121475990Y-57196589D01*
X121313475Y-56953368D01*
X121106632Y-56746525D01*
X120863411Y-56584010D01*
X120593158Y-56472068D01*
X120306260Y-56415000D01*
X120013740Y-56415000D01*
X119726842Y-56472068D01*
X119456589Y-56584010D01*
X119213368Y-56746525D01*
X119006525Y-56953368D01*
X118890689Y-57126729D01*
X118648397Y-57051208D01*
X117799605Y-57900000D01*
X117440395Y-57900000D01*
X116591603Y-57051208D01*
X116350000Y-57126514D01*
X116108397Y-57051208D01*
X115259605Y-57900000D01*
X114900395Y-57900000D01*
X114051603Y-57051208D01*
X113810000Y-57126514D01*
X113568397Y-57051208D01*
X112719605Y-57900000D01*
X112360395Y-57900000D01*
X111511603Y-57051208D01*
X111453580Y-57069293D01*
X111420472Y-56960150D01*
X111373143Y-56871603D01*
X111691208Y-56871603D01*
X112540000Y-57720395D01*
X113388792Y-56871603D01*
X114231208Y-56871603D01*
X115080000Y-57720395D01*
X115928792Y-56871603D01*
X116771208Y-56871603D01*
X117620000Y-57720395D01*
X118468792Y-56871603D01*
X118391157Y-56622528D01*
X118127117Y-56496629D01*
X117843589Y-56424661D01*
X117551469Y-56409389D01*
X117261981Y-56451401D01*
X116986253Y-56549081D01*
X116848843Y-56622528D01*
X116771208Y-56871603D01*
X115928792Y-56871603D01*
X115851157Y-56622528D01*
X115587117Y-56496629D01*
X115303589Y-56424661D01*
X115011469Y-56409389D01*
X114721981Y-56451401D01*
X114446253Y-56549081D01*
X114308843Y-56622528D01*
X114231208Y-56871603D01*
X113388792Y-56871603D01*
X113311157Y-56622528D01*
X113047117Y-56496629D01*
X112763589Y-56424661D01*
X112471469Y-56409389D01*
X112181981Y-56451401D01*
X111906253Y-56549081D01*
X111768843Y-56622528D01*
X111691208Y-56871603D01*
X111373143Y-56871603D01*
X111338405Y-56806614D01*
X111227962Y-56672038D01*
X111093386Y-56561595D01*
X110939850Y-56479528D01*
X110773254Y-56428992D01*
X110600000Y-56411928D01*
X109400000Y-56411928D01*
X109226746Y-56428992D01*
X109060150Y-56479528D01*
X108906614Y-56561595D01*
X108772038Y-56672038D01*
X108661595Y-56806614D01*
X108579528Y-56960150D01*
X108528992Y-57126746D01*
X108511928Y-57300000D01*
X104660000Y-57300000D01*
X104660000Y-53660000D01*
X133340001Y-53660000D01*
X133340001Y-69400937D01*
%TA.AperFunction,Conductor*%
D23*
G36*
X133340001Y-69400937D02*
G01*
X133263414Y-69316481D01*
X133037420Y-69148963D01*
X132783087Y-69028754D01*
X132649039Y-68988096D01*
X132427000Y-69110085D01*
X132427000Y-70253000D01*
X132447000Y-70253000D01*
X132447000Y-70507000D01*
X132427000Y-70507000D01*
X132427000Y-71649915D01*
X132649039Y-71771904D01*
X132783087Y-71731246D01*
X133037420Y-71611037D01*
X133263414Y-71443519D01*
X133340001Y-71359063D01*
X133340001Y-77010605D01*
X133214759Y-76885363D01*
X132979727Y-76728320D01*
X132718574Y-76620147D01*
X132441335Y-76565000D01*
X132158665Y-76565000D01*
X131881426Y-76620147D01*
X131620273Y-76728320D01*
X131385241Y-76885363D01*
X131185363Y-77085241D01*
X131028320Y-77320273D01*
X130920147Y-77581426D01*
X130865000Y-77858665D01*
X130865000Y-78141335D01*
X130920147Y-78418574D01*
X131028320Y-78679727D01*
X131185363Y-78914759D01*
X131385241Y-79114637D01*
X131620273Y-79271680D01*
X131881426Y-79379853D01*
X132158665Y-79435000D01*
X132441335Y-79435000D01*
X132718574Y-79379853D01*
X132979727Y-79271680D01*
X133214759Y-79114637D01*
X133340001Y-78989395D01*
X133340001Y-82123777D01*
X132637988Y-81421765D01*
X132611054Y-81388946D01*
X132480102Y-81281476D01*
X132330700Y-81201619D01*
X132168589Y-81152444D01*
X132042246Y-81140000D01*
X132042239Y-81140000D01*
X132000000Y-81135840D01*
X131957761Y-81140000D01*
X127351226Y-81140000D01*
X127314637Y-81085241D01*
X127114759Y-80885363D01*
X126879727Y-80728320D01*
X126618574Y-80620147D01*
X126555776Y-80607656D01*
X128157018Y-79006414D01*
X128285241Y-79134637D01*
X128520273Y-79291680D01*
X128781426Y-79399853D01*
X129058665Y-79455000D01*
X129341335Y-79455000D01*
X129618574Y-79399853D01*
X129879727Y-79291680D01*
X130114759Y-79134637D01*
X130314637Y-78934759D01*
X130471680Y-78699727D01*
X130579853Y-78438574D01*
X130635000Y-78161335D01*
X130635000Y-77878665D01*
X130579853Y-77601426D01*
X130471680Y-77340273D01*
X130314637Y-77105241D01*
X130114759Y-76905363D01*
X129879727Y-76748320D01*
X129618574Y-76640147D01*
X129341335Y-76585000D01*
X129058665Y-76585000D01*
X128781426Y-76640147D01*
X128520273Y-76748320D01*
X128285241Y-76905363D01*
X128085363Y-77105241D01*
X127978481Y-77265202D01*
X127919644Y-77270997D01*
X127776383Y-77314454D01*
X127644354Y-77385026D01*
X127528629Y-77479999D01*
X127504831Y-77508997D01*
X127463271Y-77550557D01*
X127403603Y-77383708D01*
X127336671Y-77258486D01*
X127092702Y-77186903D01*
X126279605Y-78000000D01*
X126293748Y-78014143D01*
X126114143Y-78193748D01*
X126100000Y-78179605D01*
X125286903Y-78992702D01*
X125358486Y-79236671D01*
X125613996Y-79357571D01*
X125647787Y-79366041D01*
X124389003Y-80624826D01*
X124359999Y-80648629D01*
X124310729Y-80708665D01*
X124265026Y-80764354D01*
X124252072Y-80788589D01*
X124194454Y-80896384D01*
X124150997Y-81039645D01*
X124140000Y-81151298D01*
X124140000Y-81151308D01*
X124136324Y-81188630D01*
X124140000Y-81225952D01*
X124140001Y-90270443D01*
X124018574Y-90220147D01*
X123741335Y-90165000D01*
X123458665Y-90165000D01*
X123181426Y-90220147D01*
X122920273Y-90328320D01*
X122685241Y-90485363D01*
X122485363Y-90685241D01*
X122328320Y-90920273D01*
X122220147Y-91181426D01*
X122165000Y-91458665D01*
X122165000Y-91741335D01*
X122220147Y-92018574D01*
X122328320Y-92279727D01*
X122485363Y-92514759D01*
X122685241Y-92714637D01*
X122920273Y-92871680D01*
X123181426Y-92979853D01*
X123458665Y-93035000D01*
X123741335Y-93035000D01*
X124018574Y-92979853D01*
X124140001Y-92929556D01*
X124140001Y-94255971D01*
X118210010Y-88325981D01*
X118210010Y-84364791D01*
X118654802Y-83920000D01*
X121381957Y-83920000D01*
X121485363Y-84074759D01*
X121685241Y-84274637D01*
X121917759Y-84430000D01*
X121685241Y-84585363D01*
X121485363Y-84785241D01*
X121328320Y-85020273D01*
X121220147Y-85281426D01*
X121165000Y-85558665D01*
X121165000Y-85841335D01*
X121220147Y-86118574D01*
X121328320Y-86379727D01*
X121485363Y-86614759D01*
X121685241Y-86814637D01*
X121917759Y-86970000D01*
X121685241Y-87125363D01*
X121485363Y-87325241D01*
X121328320Y-87560273D01*
X121220147Y-87821426D01*
X121165000Y-88098665D01*
X121165000Y-88381335D01*
X121220147Y-88658574D01*
X121328320Y-88919727D01*
X121485363Y-89154759D01*
X121685241Y-89354637D01*
X121920273Y-89511680D01*
X122181426Y-89619853D01*
X122458665Y-89675000D01*
X122741335Y-89675000D01*
X123018574Y-89619853D01*
X123279727Y-89511680D01*
X123514759Y-89354637D01*
X123714637Y-89154759D01*
X123871680Y-88919727D01*
X123979853Y-88658574D01*
X124035000Y-88381335D01*
X124035000Y-88098665D01*
X123979853Y-87821426D01*
X123871680Y-87560273D01*
X123714637Y-87325241D01*
X123514759Y-87125363D01*
X123282241Y-86970000D01*
X123514759Y-86814637D01*
X123714637Y-86614759D01*
X123871680Y-86379727D01*
X123979853Y-86118574D01*
X124035000Y-85841335D01*
X124035000Y-85558665D01*
X123979853Y-85281426D01*
X123871680Y-85020273D01*
X123714637Y-84785241D01*
X123514759Y-84585363D01*
X123282241Y-84430000D01*
X123514759Y-84274637D01*
X123714637Y-84074759D01*
X123871680Y-83839727D01*
X123979853Y-83578574D01*
X124035000Y-83301335D01*
X124035000Y-83018665D01*
X123979853Y-82741426D01*
X123871680Y-82480273D01*
X123714637Y-82245241D01*
X123514759Y-82045363D01*
X123282241Y-81890000D01*
X123514759Y-81734637D01*
X123714637Y-81534759D01*
X123871680Y-81299727D01*
X123979853Y-81038574D01*
X124035000Y-80761335D01*
X124035000Y-80478665D01*
X123979853Y-80201426D01*
X123871680Y-79940273D01*
X123714637Y-79705241D01*
X123514759Y-79505363D01*
X123282241Y-79350000D01*
X123514759Y-79194637D01*
X123714637Y-78994759D01*
X123871680Y-78759727D01*
X123979853Y-78498574D01*
X124035000Y-78221335D01*
X124035000Y-78070512D01*
X124659783Y-78070512D01*
X124701213Y-78350130D01*
X124796397Y-78616292D01*
X124863329Y-78741514D01*
X125107298Y-78813097D01*
X125920395Y-78000000D01*
X125107298Y-77186903D01*
X124863329Y-77258486D01*
X124742429Y-77513996D01*
X124673700Y-77788184D01*
X124659783Y-78070512D01*
X124035000Y-78070512D01*
X124035000Y-77938665D01*
X123979853Y-77661426D01*
X123871680Y-77400273D01*
X123714637Y-77165241D01*
X123556694Y-77007298D01*
X125286903Y-77007298D01*
X126100000Y-77820395D01*
X126913097Y-77007298D01*
X126841514Y-76763329D01*
X126586004Y-76642429D01*
X126311816Y-76573700D01*
X126029488Y-76559783D01*
X125749870Y-76601213D01*
X125483708Y-76696397D01*
X125358486Y-76763329D01*
X125286903Y-77007298D01*
X123556694Y-77007298D01*
X123514759Y-76965363D01*
X123282241Y-76810000D01*
X123514759Y-76654637D01*
X123714637Y-76454759D01*
X123871680Y-76219727D01*
X123979853Y-75958574D01*
X124035000Y-75681335D01*
X124035000Y-75398665D01*
X123979853Y-75121426D01*
X123871680Y-74860273D01*
X123714637Y-74625241D01*
X123516039Y-74426643D01*
X123524482Y-74425812D01*
X123644180Y-74389502D01*
X123754494Y-74330537D01*
X123851185Y-74251185D01*
X123930537Y-74154494D01*
X123989502Y-74044180D01*
X124025812Y-73924482D01*
X124038072Y-73800000D01*
X124038072Y-72200000D01*
X124025812Y-72075518D01*
X123989502Y-71955820D01*
X123930537Y-71845506D01*
X123851185Y-71748815D01*
X123754494Y-71669463D01*
X123644180Y-71610498D01*
X123524482Y-71574188D01*
X123400000Y-71561928D01*
X121800000Y-71561928D01*
X121675518Y-71574188D01*
X121560000Y-71609230D01*
X121560000Y-70238665D01*
X124665000Y-70238665D01*
X124665000Y-70521335D01*
X124720147Y-70798574D01*
X124828320Y-71059727D01*
X124985363Y-71294759D01*
X125185241Y-71494637D01*
X125420273Y-71651680D01*
X125681426Y-71759853D01*
X125958665Y-71815000D01*
X126241335Y-71815000D01*
X126518574Y-71759853D01*
X126779727Y-71651680D01*
X127014759Y-71494637D01*
X127214637Y-71294759D01*
X127371680Y-71059727D01*
X127479853Y-70798574D01*
X127535000Y-70521335D01*
X127535000Y-70258665D01*
X127765000Y-70258665D01*
X127765000Y-70541335D01*
X127820147Y-70818574D01*
X127928320Y-71079727D01*
X128085363Y-71314759D01*
X128285241Y-71514637D01*
X128520273Y-71671680D01*
X128781426Y-71779853D01*
X129058665Y-71835000D01*
X129341335Y-71835000D01*
X129618574Y-71779853D01*
X129879727Y-71671680D01*
X130114759Y-71514637D01*
X130314637Y-71314759D01*
X130471680Y-71079727D01*
X130579853Y-70818574D01*
X130597662Y-70729040D01*
X130908091Y-70729040D01*
X131002930Y-70993881D01*
X131147615Y-71235131D01*
X131336586Y-71443519D01*
X131562580Y-71611037D01*
X131816913Y-71731246D01*
X131950961Y-71771904D01*
X132173000Y-71649915D01*
X132173000Y-70507000D01*
X131029376Y-70507000D01*
X130908091Y-70729040D01*
X130597662Y-70729040D01*
X130635000Y-70541335D01*
X130635000Y-70258665D01*
X130589707Y-70030960D01*
X130908091Y-70030960D01*
X131029376Y-70253000D01*
X132173000Y-70253000D01*
X132173000Y-69110085D01*
X131950961Y-68988096D01*
X131816913Y-69028754D01*
X131562580Y-69148963D01*
X131336586Y-69316481D01*
X131147615Y-69524869D01*
X131002930Y-69766119D01*
X130908091Y-70030960D01*
X130589707Y-70030960D01*
X130579853Y-69981426D01*
X130471680Y-69720273D01*
X130314637Y-69485241D01*
X130114759Y-69285363D01*
X129879727Y-69128320D01*
X129618574Y-69020147D01*
X129341335Y-68965000D01*
X129058665Y-68965000D01*
X128781426Y-69020147D01*
X128520273Y-69128320D01*
X128285241Y-69285363D01*
X128085363Y-69485241D01*
X127928320Y-69720273D01*
X127820147Y-69981426D01*
X127765000Y-70258665D01*
X127535000Y-70258665D01*
X127535000Y-70238665D01*
X127479853Y-69961426D01*
X127371680Y-69700273D01*
X127214637Y-69465241D01*
X127014759Y-69265363D01*
X126779727Y-69108320D01*
X126518574Y-69000147D01*
X126241335Y-68945000D01*
X125958665Y-68945000D01*
X125681426Y-69000147D01*
X125420273Y-69108320D01*
X125185241Y-69265363D01*
X124985363Y-69465241D01*
X124828320Y-69700273D01*
X124720147Y-69961426D01*
X124665000Y-70238665D01*
X121560000Y-70238665D01*
X121560000Y-68438072D01*
X122300000Y-68438072D01*
X122424482Y-68425812D01*
X122544180Y-68389502D01*
X122654494Y-68330537D01*
X122751185Y-68251185D01*
X122830537Y-68154494D01*
X122889502Y-68044180D01*
X122905117Y-67992702D01*
X123186903Y-67992702D01*
X123258486Y-68236671D01*
X123513996Y-68357571D01*
X123788184Y-68426300D01*
X124070512Y-68440217D01*
X124350130Y-68398787D01*
X124616292Y-68303603D01*
X124741514Y-68236671D01*
X124813097Y-67992702D01*
X124000000Y-67179605D01*
X123186903Y-67992702D01*
X122905117Y-67992702D01*
X122925812Y-67924482D01*
X122938072Y-67800000D01*
X122938072Y-67792785D01*
X123007298Y-67813097D01*
X123820395Y-67000000D01*
X124179605Y-67000000D01*
X124992702Y-67813097D01*
X125236671Y-67741514D01*
X125357571Y-67486004D01*
X125426300Y-67211816D01*
X125440217Y-66929488D01*
X125398787Y-66649870D01*
X125303603Y-66383708D01*
X125236671Y-66258486D01*
X124992702Y-66186903D01*
X124179605Y-67000000D01*
X123820395Y-67000000D01*
X123007298Y-66186903D01*
X122938072Y-66207215D01*
X122938072Y-66200000D01*
X122925812Y-66075518D01*
X122905118Y-66007298D01*
X123186903Y-66007298D01*
X124000000Y-66820395D01*
X124813097Y-66007298D01*
X124741514Y-65763329D01*
X124486004Y-65642429D01*
X124211816Y-65573700D01*
X123929488Y-65559783D01*
X123649870Y-65601213D01*
X123383708Y-65696397D01*
X123258486Y-65763329D01*
X123186903Y-66007298D01*
X122905118Y-66007298D01*
X122889502Y-65955820D01*
X122830537Y-65845506D01*
X122751185Y-65748815D01*
X122654494Y-65669463D01*
X122544180Y-65610498D01*
X122424482Y-65574188D01*
X122300000Y-65561928D01*
X121419573Y-65561928D01*
X120212175Y-64354531D01*
X120182107Y-64317893D01*
X120035928Y-64197927D01*
X119869154Y-64108784D01*
X119688193Y-64053890D01*
X119547162Y-64040000D01*
X119547152Y-64040000D01*
X119500000Y-64035356D01*
X119452848Y-64040000D01*
X110547151Y-64040000D01*
X110499999Y-64035356D01*
X110452847Y-64040000D01*
X110452838Y-64040000D01*
X110311807Y-64053890D01*
X110130846Y-64108784D01*
X110022163Y-64166876D01*
X109964071Y-64197927D01*
X109866869Y-64277699D01*
X109817893Y-64317893D01*
X109787829Y-64354526D01*
X106630428Y-67511928D01*
X105650000Y-67511928D01*
X105525518Y-67524188D01*
X105405820Y-67560498D01*
X105295506Y-67619463D01*
X105198815Y-67698815D01*
X105119463Y-67795506D01*
X105060498Y-67905820D01*
X105024188Y-68025518D01*
X105011928Y-68150000D01*
X105011928Y-69850000D01*
X105024188Y-69974482D01*
X105060498Y-70094180D01*
X105119463Y-70204494D01*
X105198815Y-70301185D01*
X105295506Y-70380537D01*
X105405820Y-70439502D01*
X105525518Y-70475812D01*
X105650000Y-70488072D01*
X107350000Y-70488072D01*
X107474482Y-70475812D01*
X107594180Y-70439502D01*
X107704494Y-70380537D01*
X107801185Y-70301185D01*
X107880537Y-70204494D01*
X107939502Y-70094180D01*
X107963966Y-70013534D01*
X108039731Y-70097588D01*
X108273080Y-70271641D01*
X108535901Y-70396825D01*
X108683110Y-70441476D01*
X108913000Y-70320155D01*
X108913000Y-69127000D01*
X108893000Y-69127000D01*
X108893000Y-68873000D01*
X108913000Y-68873000D01*
X108913000Y-68853000D01*
X109167000Y-68853000D01*
X109167000Y-68873000D01*
X109187000Y-68873000D01*
X109187000Y-69127000D01*
X109167000Y-69127000D01*
X109167000Y-70320155D01*
X109396890Y-70441476D01*
X109544099Y-70396825D01*
X109806920Y-70271641D01*
X110040269Y-70097588D01*
X110235178Y-69881355D01*
X110304805Y-69764466D01*
X110426525Y-69946632D01*
X110633368Y-70153475D01*
X110876589Y-70315990D01*
X111146842Y-70427932D01*
X111433740Y-70485000D01*
X111726260Y-70485000D01*
X111828450Y-70464673D01*
X112540000Y-71176224D01*
X112540000Y-71985184D01*
X112529727Y-71978320D01*
X112268574Y-71870147D01*
X111991335Y-71815000D01*
X111708665Y-71815000D01*
X111431426Y-71870147D01*
X111170273Y-71978320D01*
X110935241Y-72135363D01*
X110735363Y-72335241D01*
X110578320Y-72570273D01*
X110470147Y-72831426D01*
X110415000Y-73108665D01*
X110415000Y-73391335D01*
X110470147Y-73668574D01*
X110578320Y-73929727D01*
X110735363Y-74164759D01*
X110935241Y-74364637D01*
X111170273Y-74521680D01*
X111431426Y-74629853D01*
X111708665Y-74685000D01*
X111991335Y-74685000D01*
X112268574Y-74629853D01*
X112529727Y-74521680D01*
X112540000Y-74514816D01*
X112540001Y-78997751D01*
X112535840Y-79040000D01*
X112552444Y-79208589D01*
X112594831Y-79348320D01*
X112601620Y-79370700D01*
X112681477Y-79520102D01*
X112788947Y-79651054D01*
X112821760Y-79677983D01*
X113557849Y-80414072D01*
X113545000Y-80478665D01*
X113545000Y-80761335D01*
X113600147Y-81038574D01*
X113708320Y-81299727D01*
X113865363Y-81534759D01*
X114065241Y-81734637D01*
X114297759Y-81890000D01*
X114065241Y-82045363D01*
X114062808Y-82047796D01*
X114034974Y-81995723D01*
X113963799Y-81908997D01*
X113940001Y-81879999D01*
X113911003Y-81856201D01*
X113248688Y-81193886D01*
X113285000Y-81011335D01*
X113285000Y-80728665D01*
X113229853Y-80451426D01*
X113121680Y-80190273D01*
X112964637Y-79955241D01*
X112764759Y-79755363D01*
X112529727Y-79598320D01*
X112268574Y-79490147D01*
X111991335Y-79435000D01*
X111708665Y-79435000D01*
X111431426Y-79490147D01*
X111170273Y-79598320D01*
X110935241Y-79755363D01*
X110735363Y-79955241D01*
X110578320Y-80190273D01*
X110470147Y-80451426D01*
X110415000Y-80728665D01*
X110415000Y-81011335D01*
X110470147Y-81288574D01*
X110578320Y-81549727D01*
X110735363Y-81784759D01*
X110935241Y-81984637D01*
X111170273Y-82141680D01*
X111299857Y-82195355D01*
X111220273Y-82228320D01*
X110985241Y-82385363D01*
X110785363Y-82585241D01*
X110628320Y-82820273D01*
X110520147Y-83081426D01*
X110465000Y-83358665D01*
X110465000Y-83641335D01*
X110501312Y-83823886D01*
X109589002Y-84736197D01*
X109559999Y-84759999D01*
X109515956Y-84813666D01*
X109465026Y-84875724D01*
X109433342Y-84935000D01*
X109394454Y-85007754D01*
X109350997Y-85151015D01*
X109340000Y-85262668D01*
X109340000Y-85262678D01*
X109336324Y-85300000D01*
X109340000Y-85337322D01*
X109340000Y-86091471D01*
X109293158Y-86072068D01*
X109006260Y-86015000D01*
X108713740Y-86015000D01*
X108426842Y-86072068D01*
X108156589Y-86184010D01*
X107913368Y-86346525D01*
X107706525Y-86553368D01*
X107590000Y-86727760D01*
X107473475Y-86553368D01*
X107266632Y-86346525D01*
X107023411Y-86184010D01*
X106753158Y-86072068D01*
X106466260Y-86015000D01*
X106173740Y-86015000D01*
X105886842Y-86072068D01*
X105616589Y-86184010D01*
X105373368Y-86346525D01*
X105166525Y-86553368D01*
X105004010Y-86796589D01*
X104892068Y-87066842D01*
X104835000Y-87353740D01*
X104835000Y-87646260D01*
X104892068Y-87933158D01*
X105004010Y-88203411D01*
X105166525Y-88446632D01*
X105373368Y-88653475D01*
X105616589Y-88815990D01*
X105886842Y-88927932D01*
X106173740Y-88985000D01*
X106466260Y-88985000D01*
X106753158Y-88927932D01*
X107023411Y-88815990D01*
X107266632Y-88653475D01*
X107473475Y-88446632D01*
X107590000Y-88272240D01*
X107706525Y-88446632D01*
X107913368Y-88653475D01*
X108156589Y-88815990D01*
X108426842Y-88927932D01*
X108713740Y-88985000D01*
X109006260Y-88985000D01*
X109293158Y-88927932D01*
X109340000Y-88908529D01*
X109340001Y-118262667D01*
X109336324Y-118300000D01*
X109350998Y-118448985D01*
X109394454Y-118592246D01*
X109465026Y-118724276D01*
X109526076Y-118798665D01*
X109560000Y-118840001D01*
X109588998Y-118863799D01*
X110801312Y-120076114D01*
X110765000Y-120258665D01*
X110765000Y-120541335D01*
X110820147Y-120818574D01*
X110928320Y-121079727D01*
X111085363Y-121314759D01*
X111285241Y-121514637D01*
X111520273Y-121671680D01*
X111781426Y-121779853D01*
X111885817Y-121800618D01*
X113781312Y-123696114D01*
X113745000Y-123878665D01*
X113745000Y-124161335D01*
X113800147Y-124438574D01*
X113908320Y-124699727D01*
X114065363Y-124934759D01*
X114265241Y-125134637D01*
X114500273Y-125291680D01*
X114510865Y-125296067D01*
X114324869Y-125407615D01*
X114116481Y-125596586D01*
X113948963Y-125822580D01*
X113828754Y-126076913D01*
X113788096Y-126210961D01*
X113910085Y-126433000D01*
X115053000Y-126433000D01*
X115053000Y-126413000D01*
X115307000Y-126413000D01*
X115307000Y-126433000D01*
X116449915Y-126433000D01*
X116571904Y-126210961D01*
X116531246Y-126076913D01*
X116411037Y-125822580D01*
X116243519Y-125596586D01*
X116035131Y-125407615D01*
X115849135Y-125296067D01*
X115859727Y-125291680D01*
X116094759Y-125134637D01*
X116294637Y-124934759D01*
X116451680Y-124699727D01*
X116559853Y-124438574D01*
X116615000Y-124161335D01*
X116615000Y-123878665D01*
X116559853Y-123601426D01*
X116451680Y-123340273D01*
X116294637Y-123105241D01*
X116094759Y-122905363D01*
X115862241Y-122750000D01*
X116094759Y-122594637D01*
X116294637Y-122394759D01*
X116451680Y-122159727D01*
X116559853Y-121898574D01*
X116615000Y-121621335D01*
X116615000Y-121338665D01*
X116559853Y-121061426D01*
X116451680Y-120800273D01*
X116294637Y-120565241D01*
X116094759Y-120365363D01*
X115862241Y-120210000D01*
X116094759Y-120054637D01*
X116294637Y-119854759D01*
X116451680Y-119619727D01*
X116559853Y-119358574D01*
X116615000Y-119081335D01*
X116615000Y-118798665D01*
X116559853Y-118521426D01*
X116451680Y-118260273D01*
X116294637Y-118025241D01*
X116094759Y-117825363D01*
X115862241Y-117670000D01*
X116094759Y-117514637D01*
X116294637Y-117314759D01*
X116451680Y-117079727D01*
X116496565Y-116971366D01*
X118640001Y-119114803D01*
X118640000Y-127140000D01*
X116485441Y-127140000D01*
X116531246Y-127043087D01*
X116571904Y-126909039D01*
X116449915Y-126687000D01*
X115307000Y-126687000D01*
X115307000Y-126707000D01*
X115053000Y-126707000D01*
X115053000Y-126687000D01*
X113910085Y-126687000D01*
X113788096Y-126909039D01*
X113828754Y-127043087D01*
X113874559Y-127140000D01*
X109914802Y-127140000D01*
X108634999Y-125860198D01*
X108634999Y-125790509D01*
X108858665Y-125835000D01*
X109141335Y-125835000D01*
X109418574Y-125779853D01*
X109679727Y-125671680D01*
X109914759Y-125514637D01*
X110114637Y-125314759D01*
X110271680Y-125079727D01*
X110379853Y-124818574D01*
X110435000Y-124541335D01*
X110435000Y-124258665D01*
X110565000Y-124258665D01*
X110565000Y-124541335D01*
X110620147Y-124818574D01*
X110728320Y-125079727D01*
X110885363Y-125314759D01*
X111085241Y-125514637D01*
X111320273Y-125671680D01*
X111581426Y-125779853D01*
X111858665Y-125835000D01*
X112141335Y-125835000D01*
X112418574Y-125779853D01*
X112679727Y-125671680D01*
X112914759Y-125514637D01*
X113114637Y-125314759D01*
X113271680Y-125079727D01*
X113379853Y-124818574D01*
X113435000Y-124541335D01*
X113435000Y-124258665D01*
X113379853Y-123981426D01*
X113271680Y-123720273D01*
X113114637Y-123485241D01*
X112914759Y-123285363D01*
X112679727Y-123128320D01*
X112418574Y-123020147D01*
X112141335Y-122965000D01*
X111858665Y-122965000D01*
X111581426Y-123020147D01*
X111320273Y-123128320D01*
X111085241Y-123285363D01*
X110885363Y-123485241D01*
X110728320Y-123720273D01*
X110620147Y-123981426D01*
X110565000Y-124258665D01*
X110435000Y-124258665D01*
X110379853Y-123981426D01*
X110271680Y-123720273D01*
X110114637Y-123485241D01*
X109914759Y-123285363D01*
X109679727Y-123128320D01*
X109418574Y-123020147D01*
X109141335Y-122965000D01*
X108858665Y-122965000D01*
X108591293Y-123018184D01*
X108580545Y-122982752D01*
X108571056Y-122965000D01*
X108509973Y-122850722D01*
X108438798Y-122763996D01*
X108415000Y-122734998D01*
X108386002Y-122711200D01*
X107483466Y-121808664D01*
X107550130Y-121798787D01*
X107816292Y-121703603D01*
X107941514Y-121636671D01*
X108013097Y-121392702D01*
X107200000Y-120579605D01*
X107185858Y-120593748D01*
X107006253Y-120414143D01*
X107020395Y-120400000D01*
X107379605Y-120400000D01*
X108192702Y-121213097D01*
X108436671Y-121141514D01*
X108557571Y-120886004D01*
X108626300Y-120611816D01*
X108640217Y-120329488D01*
X108598787Y-120049870D01*
X108503603Y-119783708D01*
X108436671Y-119658486D01*
X108192702Y-119586903D01*
X107379605Y-120400000D01*
X107020395Y-120400000D01*
X106207298Y-119586903D01*
X106140001Y-119606649D01*
X106140001Y-119407298D01*
X106386903Y-119407298D01*
X107200000Y-120220395D01*
X108013097Y-119407298D01*
X107941514Y-119163329D01*
X107686004Y-119042429D01*
X107411816Y-118973700D01*
X107129488Y-118959783D01*
X106849870Y-119001213D01*
X106583708Y-119096397D01*
X106458486Y-119163329D01*
X106386903Y-119407298D01*
X106140001Y-119407298D01*
X106140001Y-114635000D01*
X106321335Y-114635000D01*
X106598574Y-114579853D01*
X106859727Y-114471680D01*
X107094759Y-114314637D01*
X107294637Y-114114759D01*
X107451680Y-113879727D01*
X107559853Y-113618574D01*
X107615000Y-113341335D01*
X107615000Y-113058665D01*
X107559853Y-112781426D01*
X107451680Y-112520273D01*
X107294637Y-112285241D01*
X107260000Y-112250604D01*
X107260000Y-111318043D01*
X107414759Y-111214637D01*
X107614637Y-111014759D01*
X107771680Y-110779727D01*
X107879853Y-110518574D01*
X107935000Y-110241335D01*
X107935000Y-109958665D01*
X107879853Y-109681426D01*
X107771680Y-109420273D01*
X107614637Y-109185241D01*
X107414759Y-108985363D01*
X107179727Y-108828320D01*
X106918574Y-108720147D01*
X106641335Y-108665000D01*
X106358665Y-108665000D01*
X106081426Y-108720147D01*
X105820273Y-108828320D01*
X105585241Y-108985363D01*
X105385363Y-109185241D01*
X105228320Y-109420273D01*
X105120147Y-109681426D01*
X105065000Y-109958665D01*
X105065000Y-110241335D01*
X105120147Y-110518574D01*
X105228320Y-110779727D01*
X105385363Y-111014759D01*
X105585241Y-111214637D01*
X105740000Y-111318044D01*
X105740001Y-111829022D01*
X105500273Y-111928320D01*
X105265241Y-112085363D01*
X105065363Y-112285241D01*
X104908320Y-112520273D01*
X104800147Y-112781426D01*
X104745000Y-113058665D01*
X104745000Y-113341335D01*
X104782533Y-113530023D01*
X104745027Y-113575723D01*
X104674455Y-113707753D01*
X104660000Y-113755407D01*
X104660000Y-106858665D01*
X105065000Y-106858665D01*
X105065000Y-107141335D01*
X105120147Y-107418574D01*
X105228320Y-107679727D01*
X105385363Y-107914759D01*
X105585241Y-108114637D01*
X105820273Y-108271680D01*
X106081426Y-108379853D01*
X106358665Y-108435000D01*
X106641335Y-108435000D01*
X106918574Y-108379853D01*
X107179727Y-108271680D01*
X107414759Y-108114637D01*
X107614637Y-107914759D01*
X107771680Y-107679727D01*
X107879853Y-107418574D01*
X107935000Y-107141335D01*
X107935000Y-106858665D01*
X107879853Y-106581426D01*
X107771680Y-106320273D01*
X107614637Y-106085241D01*
X107414759Y-105885363D01*
X107179727Y-105728320D01*
X106918574Y-105620147D01*
X106641335Y-105565000D01*
X106358665Y-105565000D01*
X106081426Y-105620147D01*
X105820273Y-105728320D01*
X105585241Y-105885363D01*
X105385363Y-106085241D01*
X105228320Y-106320273D01*
X105120147Y-106581426D01*
X105065000Y-106858665D01*
X104660000Y-106858665D01*
X104660000Y-103758665D01*
X105065000Y-103758665D01*
X105065000Y-104041335D01*
X105120147Y-104318574D01*
X105228320Y-104579727D01*
X105385363Y-104814759D01*
X105585241Y-105014637D01*
X105820273Y-105171680D01*
X106081426Y-105279853D01*
X106358665Y-105335000D01*
X106641335Y-105335000D01*
X106918574Y-105279853D01*
X107179727Y-105171680D01*
X107414759Y-105014637D01*
X107614637Y-104814759D01*
X107771680Y-104579727D01*
X107879853Y-104318574D01*
X107935000Y-104041335D01*
X107935000Y-103758665D01*
X107879853Y-103481426D01*
X107771680Y-103220273D01*
X107614637Y-102985241D01*
X107414759Y-102785363D01*
X107179727Y-102628320D01*
X106918574Y-102520147D01*
X106641335Y-102465000D01*
X106358665Y-102465000D01*
X106081426Y-102520147D01*
X105820273Y-102628320D01*
X105585241Y-102785363D01*
X105385363Y-102985241D01*
X105228320Y-103220273D01*
X105120147Y-103481426D01*
X105065000Y-103758665D01*
X104660000Y-103758665D01*
X104660000Y-100658665D01*
X105065000Y-100658665D01*
X105065000Y-100941335D01*
X105120147Y-101218574D01*
X105228320Y-101479727D01*
X105385363Y-101714759D01*
X105585241Y-101914637D01*
X105820273Y-102071680D01*
X106081426Y-102179853D01*
X106358665Y-102235000D01*
X106641335Y-102235000D01*
X106918574Y-102179853D01*
X107179727Y-102071680D01*
X107414759Y-101914637D01*
X107614637Y-101714759D01*
X107771680Y-101479727D01*
X107879853Y-101218574D01*
X107935000Y-100941335D01*
X107935000Y-100658665D01*
X107879853Y-100381426D01*
X107771680Y-100120273D01*
X107614637Y-99885241D01*
X107414759Y-99685363D01*
X107179727Y-99528320D01*
X106918574Y-99420147D01*
X106641335Y-99365000D01*
X106358665Y-99365000D01*
X106081426Y-99420147D01*
X105820273Y-99528320D01*
X105585241Y-99685363D01*
X105385363Y-99885241D01*
X105228320Y-100120273D01*
X105120147Y-100381426D01*
X105065000Y-100658665D01*
X104660000Y-100658665D01*
X104660000Y-97558665D01*
X105065000Y-97558665D01*
X105065000Y-97841335D01*
X105120147Y-98118574D01*
X105228320Y-98379727D01*
X105385363Y-98614759D01*
X105585241Y-98814637D01*
X105820273Y-98971680D01*
X106081426Y-99079853D01*
X106358665Y-99135000D01*
X106641335Y-99135000D01*
X106918574Y-99079853D01*
X107179727Y-98971680D01*
X107414759Y-98814637D01*
X107614637Y-98614759D01*
X107771680Y-98379727D01*
X107879853Y-98118574D01*
X107935000Y-97841335D01*
X107935000Y-97558665D01*
X107879853Y-97281426D01*
X107771680Y-97020273D01*
X107614637Y-96785241D01*
X107414759Y-96585363D01*
X107179727Y-96428320D01*
X106918574Y-96320147D01*
X106641335Y-96265000D01*
X106358665Y-96265000D01*
X106081426Y-96320147D01*
X105820273Y-96428320D01*
X105585241Y-96585363D01*
X105385363Y-96785241D01*
X105228320Y-97020273D01*
X105120147Y-97281426D01*
X105065000Y-97558665D01*
X104660000Y-97558665D01*
X104660000Y-94558665D01*
X104765000Y-94558665D01*
X104765000Y-94841335D01*
X104820147Y-95118574D01*
X104928320Y-95379727D01*
X105085363Y-95614759D01*
X105285241Y-95814637D01*
X105520273Y-95971680D01*
X105781426Y-96079853D01*
X106058665Y-96135000D01*
X106341335Y-96135000D01*
X106618574Y-96079853D01*
X106879727Y-95971680D01*
X107114759Y-95814637D01*
X107314637Y-95614759D01*
X107471680Y-95379727D01*
X107579853Y-95118574D01*
X107635000Y-94841335D01*
X107635000Y-94558665D01*
X107579853Y-94281426D01*
X107471680Y-94020273D01*
X107314637Y-93785241D01*
X107114759Y-93585363D01*
X106879727Y-93428320D01*
X106618574Y-93320147D01*
X106341335Y-93265000D01*
X106058665Y-93265000D01*
X105781426Y-93320147D01*
X105520273Y-93428320D01*
X105285241Y-93585363D01*
X105085363Y-93785241D01*
X104928320Y-94020273D01*
X104820147Y-94281426D01*
X104765000Y-94558665D01*
X104660000Y-94558665D01*
X104660000Y-91458665D01*
X104745000Y-91458665D01*
X104745000Y-91741335D01*
X104800147Y-92018574D01*
X104908320Y-92279727D01*
X105065363Y-92514759D01*
X105265241Y-92714637D01*
X105500273Y-92871680D01*
X105761426Y-92979853D01*
X106038665Y-93035000D01*
X106321335Y-93035000D01*
X106598574Y-92979853D01*
X106859727Y-92871680D01*
X107094759Y-92714637D01*
X107294637Y-92514759D01*
X107451680Y-92279727D01*
X107559853Y-92018574D01*
X107615000Y-91741335D01*
X107615000Y-91458665D01*
X107559853Y-91181426D01*
X107451680Y-90920273D01*
X107294637Y-90685241D01*
X107094759Y-90485363D01*
X106859727Y-90328320D01*
X106598574Y-90220147D01*
X106321335Y-90165000D01*
X106038665Y-90165000D01*
X105761426Y-90220147D01*
X105500273Y-90328320D01*
X105265241Y-90485363D01*
X105065363Y-90685241D01*
X104908320Y-90920273D01*
X104800147Y-91181426D01*
X104745000Y-91458665D01*
X104660000Y-91458665D01*
X104660000Y-84492702D01*
X106086903Y-84492702D01*
X106158486Y-84736671D01*
X106413996Y-84857571D01*
X106688184Y-84926300D01*
X106970512Y-84940217D01*
X107250130Y-84898787D01*
X107516292Y-84803603D01*
X107641514Y-84736671D01*
X107713097Y-84492702D01*
X106900000Y-83679605D01*
X106086903Y-84492702D01*
X104660000Y-84492702D01*
X104660000Y-83570512D01*
X105459783Y-83570512D01*
X105501213Y-83850130D01*
X105596397Y-84116292D01*
X105663329Y-84241514D01*
X105907298Y-84313097D01*
X106720395Y-83500000D01*
X107079605Y-83500000D01*
X107892702Y-84313097D01*
X108136671Y-84241514D01*
X108257571Y-83986004D01*
X108326300Y-83711816D01*
X108340217Y-83429488D01*
X108298787Y-83149870D01*
X108203603Y-82883708D01*
X108136671Y-82758486D01*
X107892702Y-82686903D01*
X107079605Y-83500000D01*
X106720395Y-83500000D01*
X105907298Y-82686903D01*
X105663329Y-82758486D01*
X105542429Y-83013996D01*
X105473700Y-83288184D01*
X105459783Y-83570512D01*
X104660000Y-83570512D01*
X104660000Y-82507298D01*
X106086903Y-82507298D01*
X106900000Y-83320395D01*
X107713097Y-82507298D01*
X107641514Y-82263329D01*
X107386004Y-82142429D01*
X107111816Y-82073700D01*
X106829488Y-82059783D01*
X106549870Y-82101213D01*
X106283708Y-82196397D01*
X106158486Y-82263329D01*
X106086903Y-82507298D01*
X104660000Y-82507298D01*
X104660000Y-81789396D01*
X104835241Y-81964637D01*
X105070273Y-82121680D01*
X105331426Y-82229853D01*
X105608665Y-82285000D01*
X105891335Y-82285000D01*
X106168574Y-82229853D01*
X106429727Y-82121680D01*
X106664759Y-81964637D01*
X106864637Y-81764759D01*
X107021680Y-81529727D01*
X107129853Y-81268574D01*
X107185000Y-80991335D01*
X107185000Y-80728665D01*
X107365000Y-80728665D01*
X107365000Y-81011335D01*
X107420147Y-81288574D01*
X107528320Y-81549727D01*
X107685363Y-81784759D01*
X107885241Y-81984637D01*
X108120273Y-82141680D01*
X108381426Y-82249853D01*
X108658665Y-82305000D01*
X108941335Y-82305000D01*
X109218574Y-82249853D01*
X109479727Y-82141680D01*
X109714759Y-81984637D01*
X109914637Y-81784759D01*
X110071680Y-81549727D01*
X110179853Y-81288574D01*
X110235000Y-81011335D01*
X110235000Y-80728665D01*
X110179853Y-80451426D01*
X110071680Y-80190273D01*
X109914637Y-79955241D01*
X109714759Y-79755363D01*
X109479727Y-79598320D01*
X109218574Y-79490147D01*
X108941335Y-79435000D01*
X108658665Y-79435000D01*
X108381426Y-79490147D01*
X108120273Y-79598320D01*
X107885241Y-79755363D01*
X107685363Y-79955241D01*
X107528320Y-80190273D01*
X107420147Y-80451426D01*
X107365000Y-80728665D01*
X107185000Y-80728665D01*
X107185000Y-80708665D01*
X107129853Y-80431426D01*
X107021680Y-80170273D01*
X106864637Y-79935241D01*
X106664759Y-79735363D01*
X106429727Y-79578320D01*
X106168574Y-79470147D01*
X105891335Y-79415000D01*
X105608665Y-79415000D01*
X105331426Y-79470147D01*
X105070273Y-79578320D01*
X104835241Y-79735363D01*
X104660000Y-79910604D01*
X104660000Y-74169396D01*
X104835241Y-74344637D01*
X105070273Y-74501680D01*
X105331426Y-74609853D01*
X105608665Y-74665000D01*
X105891335Y-74665000D01*
X106168574Y-74609853D01*
X106429727Y-74501680D01*
X106664759Y-74344637D01*
X106864637Y-74144759D01*
X107021680Y-73909727D01*
X107129853Y-73648574D01*
X107185000Y-73371335D01*
X107185000Y-73108665D01*
X107365000Y-73108665D01*
X107365000Y-73391335D01*
X107420147Y-73668574D01*
X107528320Y-73929727D01*
X107685363Y-74164759D01*
X107885241Y-74364637D01*
X108120273Y-74521680D01*
X108381426Y-74629853D01*
X108658665Y-74685000D01*
X108941335Y-74685000D01*
X109218574Y-74629853D01*
X109479727Y-74521680D01*
X109714759Y-74364637D01*
X109914637Y-74164759D01*
X110071680Y-73929727D01*
X110179853Y-73668574D01*
X110235000Y-73391335D01*
X110235000Y-73108665D01*
X110179853Y-72831426D01*
X110071680Y-72570273D01*
X109914637Y-72335241D01*
X109714759Y-72135363D01*
X109479727Y-71978320D01*
X109218574Y-71870147D01*
X108941335Y-71815000D01*
X108658665Y-71815000D01*
X108381426Y-71870147D01*
X108120273Y-71978320D01*
X107885241Y-72135363D01*
X107685363Y-72335241D01*
X107528320Y-72570273D01*
X107420147Y-72831426D01*
X107365000Y-73108665D01*
X107185000Y-73108665D01*
X107185000Y-73088665D01*
X107129853Y-72811426D01*
X107021680Y-72550273D01*
X106864637Y-72315241D01*
X106664759Y-72115363D01*
X106429727Y-71958320D01*
X106168574Y-71850147D01*
X105891335Y-71795000D01*
X105608665Y-71795000D01*
X105331426Y-71850147D01*
X105070273Y-71958320D01*
X104835241Y-72115363D01*
X104660000Y-72290604D01*
X104660000Y-57300000D01*
X108511928Y-57300000D01*
X108511928Y-58500000D01*
X108528992Y-58673254D01*
X108579528Y-58839850D01*
X108661595Y-58993386D01*
X108772038Y-59127962D01*
X108906614Y-59238405D01*
X109033608Y-59306285D01*
X108846525Y-59493368D01*
X108684010Y-59736589D01*
X108572068Y-60006842D01*
X108515000Y-60293740D01*
X108515000Y-60586260D01*
X108572068Y-60873158D01*
X108684010Y-61143411D01*
X108846525Y-61386632D01*
X109053368Y-61593475D01*
X109296589Y-61755990D01*
X109566842Y-61867932D01*
X109853740Y-61925000D01*
X110146260Y-61925000D01*
X110433158Y-61867932D01*
X110703411Y-61755990D01*
X110946632Y-61593475D01*
X111071710Y-61468397D01*
X111691208Y-61468397D01*
X111768843Y-61717472D01*
X112032883Y-61843371D01*
X112316411Y-61915339D01*
X112608531Y-61930611D01*
X112898019Y-61888599D01*
X113173747Y-61790919D01*
X113311157Y-61717472D01*
X113388792Y-61468397D01*
X114231208Y-61468397D01*
X114308843Y-61717472D01*
X114572883Y-61843371D01*
X114856411Y-61915339D01*
X115148531Y-61930611D01*
X115438019Y-61888599D01*
X115713747Y-61790919D01*
X115851157Y-61717472D01*
X115928792Y-61468397D01*
X116771208Y-61468397D01*
X116848843Y-61717472D01*
X117112883Y-61843371D01*
X117396411Y-61915339D01*
X117688531Y-61930611D01*
X117978019Y-61888599D01*
X118253747Y-61790919D01*
X118391157Y-61717472D01*
X118468792Y-61468397D01*
X117620000Y-60619605D01*
X116771208Y-61468397D01*
X115928792Y-61468397D01*
X115080000Y-60619605D01*
X114231208Y-61468397D01*
X113388792Y-61468397D01*
X112540000Y-60619605D01*
X111691208Y-61468397D01*
X111071710Y-61468397D01*
X111153475Y-61386632D01*
X111269311Y-61213271D01*
X111511603Y-61288792D01*
X112360395Y-60440000D01*
X112719605Y-60440000D01*
X113568397Y-61288792D01*
X113810000Y-61213486D01*
X114051603Y-61288792D01*
X114900395Y-60440000D01*
X115259605Y-60440000D01*
X116108397Y-61288792D01*
X116350000Y-61213486D01*
X116591603Y-61288792D01*
X117440395Y-60440000D01*
X116591603Y-59591208D01*
X116350000Y-59666514D01*
X116108397Y-59591208D01*
X115259605Y-60440000D01*
X114900395Y-60440000D01*
X114051603Y-59591208D01*
X113810000Y-59666514D01*
X113568397Y-59591208D01*
X112719605Y-60440000D01*
X112360395Y-60440000D01*
X111511603Y-59591208D01*
X111269311Y-59666729D01*
X111153475Y-59493368D01*
X110966392Y-59306285D01*
X111093386Y-59238405D01*
X111227962Y-59127962D01*
X111338405Y-58993386D01*
X111373142Y-58928397D01*
X111691208Y-58928397D01*
X111766514Y-59170000D01*
X111691208Y-59411603D01*
X112540000Y-60260395D01*
X113388792Y-59411603D01*
X113313486Y-59170000D01*
X113388792Y-58928397D01*
X114231208Y-58928397D01*
X114306514Y-59170000D01*
X114231208Y-59411603D01*
X115080000Y-60260395D01*
X115928792Y-59411603D01*
X115853486Y-59170000D01*
X115928792Y-58928397D01*
X116771208Y-58928397D01*
X116846514Y-59170000D01*
X116771208Y-59411603D01*
X117620000Y-60260395D01*
X118468792Y-59411603D01*
X118393486Y-59170000D01*
X118468792Y-58928397D01*
X117620000Y-58079605D01*
X116771208Y-58928397D01*
X115928792Y-58928397D01*
X115080000Y-58079605D01*
X114231208Y-58928397D01*
X113388792Y-58928397D01*
X112540000Y-58079605D01*
X111691208Y-58928397D01*
X111373142Y-58928397D01*
X111420472Y-58839850D01*
X111453580Y-58730707D01*
X111511603Y-58748792D01*
X112360395Y-57900000D01*
X112719605Y-57900000D01*
X113568397Y-58748792D01*
X113810000Y-58673486D01*
X114051603Y-58748792D01*
X114900395Y-57900000D01*
X115259605Y-57900000D01*
X116108397Y-58748792D01*
X116350000Y-58673486D01*
X116591603Y-58748792D01*
X117440395Y-57900000D01*
X117799605Y-57900000D01*
X118648397Y-58748792D01*
X118890689Y-58673271D01*
X119006525Y-58846632D01*
X119213368Y-59053475D01*
X119387760Y-59170000D01*
X119213368Y-59286525D01*
X119006525Y-59493368D01*
X118890689Y-59666729D01*
X118648397Y-59591208D01*
X117799605Y-60440000D01*
X118648397Y-61288792D01*
X118890689Y-61213271D01*
X119006525Y-61386632D01*
X119213368Y-61593475D01*
X119456589Y-61755990D01*
X119726842Y-61867932D01*
X120013740Y-61925000D01*
X120306260Y-61925000D01*
X120593158Y-61867932D01*
X120863411Y-61755990D01*
X121096866Y-61600000D01*
X128986928Y-61600000D01*
X128986928Y-62800000D01*
X129003992Y-62973254D01*
X129054528Y-63139850D01*
X129136595Y-63293386D01*
X129247038Y-63427962D01*
X129381614Y-63538405D01*
X129535150Y-63620472D01*
X129701746Y-63671008D01*
X129875000Y-63688072D01*
X131325000Y-63688072D01*
X131498254Y-63671008D01*
X131664850Y-63620472D01*
X131818386Y-63538405D01*
X131952962Y-63427962D01*
X132063405Y-63293386D01*
X132145472Y-63139850D01*
X132196008Y-62973254D01*
X132213072Y-62800000D01*
X132213072Y-61600000D01*
X132196008Y-61426746D01*
X132145472Y-61260150D01*
X132063405Y-61106614D01*
X131952962Y-60972038D01*
X131818386Y-60861595D01*
X131713039Y-60805286D01*
X131734429Y-60789049D01*
X131927496Y-60571193D01*
X132074352Y-60319858D01*
X132166476Y-60056890D01*
X132045155Y-59827000D01*
X130727000Y-59827000D01*
X130727000Y-59847000D01*
X130473000Y-59847000D01*
X130473000Y-59827000D01*
X129154845Y-59827000D01*
X129033524Y-60056890D01*
X129125648Y-60319858D01*
X129272504Y-60571193D01*
X129465571Y-60789049D01*
X129486961Y-60805286D01*
X129381614Y-60861595D01*
X129247038Y-60972038D01*
X129136595Y-61106614D01*
X129054528Y-61260150D01*
X129003992Y-61426746D01*
X128986928Y-61600000D01*
X121096866Y-61600000D01*
X121106632Y-61593475D01*
X121313475Y-61386632D01*
X121475990Y-61143411D01*
X121587932Y-60873158D01*
X121645000Y-60586260D01*
X121645000Y-60293740D01*
X121587932Y-60006842D01*
X121475990Y-59736589D01*
X121313475Y-59493368D01*
X121106632Y-59286525D01*
X120932240Y-59170000D01*
X121106632Y-59053475D01*
X121313475Y-58846632D01*
X121475990Y-58603411D01*
X121587932Y-58333158D01*
X121645000Y-58046260D01*
X121645000Y-57753740D01*
X121587932Y-57466842D01*
X121477403Y-57200000D01*
X128982815Y-57200000D01*
X129011487Y-57491111D01*
X129096401Y-57771034D01*
X129234294Y-58029014D01*
X129419866Y-58255134D01*
X129645986Y-58440706D01*
X129671722Y-58454462D01*
X129465571Y-58610951D01*
X129272504Y-58828807D01*
X129125648Y-59080142D01*
X129033524Y-59343110D01*
X129154845Y-59573000D01*
X130473000Y-59573000D01*
X130473000Y-59553000D01*
X130727000Y-59553000D01*
X130727000Y-59573000D01*
X132045155Y-59573000D01*
X132166476Y-59343110D01*
X132074352Y-59080142D01*
X131927496Y-58828807D01*
X131734429Y-58610951D01*
X131528278Y-58454462D01*
X131554014Y-58440706D01*
X131780134Y-58255134D01*
X131965706Y-58029014D01*
X132103599Y-57771034D01*
X132188513Y-57491111D01*
X132217185Y-57200000D01*
X132188513Y-56908889D01*
X132103599Y-56628966D01*
X131965706Y-56370986D01*
X131780134Y-56144866D01*
X131554014Y-55959294D01*
X131296034Y-55821401D01*
X131016111Y-55736487D01*
X130797950Y-55715000D01*
X130402050Y-55715000D01*
X130183889Y-55736487D01*
X129903966Y-55821401D01*
X129645986Y-55959294D01*
X129419866Y-56144866D01*
X129234294Y-56370986D01*
X129096401Y-56628966D01*
X129011487Y-56908889D01*
X128982815Y-57200000D01*
X121477403Y-57200000D01*
X121475990Y-57196589D01*
X121313475Y-56953368D01*
X121106632Y-56746525D01*
X120863411Y-56584010D01*
X120593158Y-56472068D01*
X120306260Y-56415000D01*
X120013740Y-56415000D01*
X119726842Y-56472068D01*
X119456589Y-56584010D01*
X119213368Y-56746525D01*
X119006525Y-56953368D01*
X118890689Y-57126729D01*
X118648397Y-57051208D01*
X117799605Y-57900000D01*
X117440395Y-57900000D01*
X116591603Y-57051208D01*
X116350000Y-57126514D01*
X116108397Y-57051208D01*
X115259605Y-57900000D01*
X114900395Y-57900000D01*
X114051603Y-57051208D01*
X113810000Y-57126514D01*
X113568397Y-57051208D01*
X112719605Y-57900000D01*
X112360395Y-57900000D01*
X111511603Y-57051208D01*
X111453580Y-57069293D01*
X111420472Y-56960150D01*
X111373143Y-56871603D01*
X111691208Y-56871603D01*
X112540000Y-57720395D01*
X113388792Y-56871603D01*
X114231208Y-56871603D01*
X115080000Y-57720395D01*
X115928792Y-56871603D01*
X116771208Y-56871603D01*
X117620000Y-57720395D01*
X118468792Y-56871603D01*
X118391157Y-56622528D01*
X118127117Y-56496629D01*
X117843589Y-56424661D01*
X117551469Y-56409389D01*
X117261981Y-56451401D01*
X116986253Y-56549081D01*
X116848843Y-56622528D01*
X116771208Y-56871603D01*
X115928792Y-56871603D01*
X115851157Y-56622528D01*
X115587117Y-56496629D01*
X115303589Y-56424661D01*
X115011469Y-56409389D01*
X114721981Y-56451401D01*
X114446253Y-56549081D01*
X114308843Y-56622528D01*
X114231208Y-56871603D01*
X113388792Y-56871603D01*
X113311157Y-56622528D01*
X113047117Y-56496629D01*
X112763589Y-56424661D01*
X112471469Y-56409389D01*
X112181981Y-56451401D01*
X111906253Y-56549081D01*
X111768843Y-56622528D01*
X111691208Y-56871603D01*
X111373143Y-56871603D01*
X111338405Y-56806614D01*
X111227962Y-56672038D01*
X111093386Y-56561595D01*
X110939850Y-56479528D01*
X110773254Y-56428992D01*
X110600000Y-56411928D01*
X109400000Y-56411928D01*
X109226746Y-56428992D01*
X109060150Y-56479528D01*
X108906614Y-56561595D01*
X108772038Y-56672038D01*
X108661595Y-56806614D01*
X108579528Y-56960150D01*
X108528992Y-57126746D01*
X108511928Y-57300000D01*
X104660000Y-57300000D01*
X104660000Y-53660000D01*
X133340001Y-53660000D01*
X133340001Y-69400937D01*
G37*
%TD.AperFunction*%
D22*
X112708320Y-110979727D02*
X112865363Y-111214759D01*
X113065241Y-111414637D01*
X113300273Y-111571680D01*
X113561426Y-111679853D01*
X113838665Y-111735000D01*
X114121335Y-111735000D01*
X114398574Y-111679853D01*
X114429000Y-111667250D01*
X114429000Y-111907308D01*
X114218574Y-111820147D01*
X113941335Y-111765000D01*
X113658665Y-111765000D01*
X113381426Y-111820147D01*
X113120273Y-111928320D01*
X112885241Y-112085363D01*
X112685363Y-112285241D01*
X112528320Y-112520273D01*
X112420147Y-112781426D01*
X112365000Y-113058665D01*
X112365000Y-113341335D01*
X112420147Y-113618574D01*
X112528320Y-113879727D01*
X112685363Y-114114759D01*
X112885241Y-114314637D01*
X113120273Y-114471680D01*
X113381426Y-114579853D01*
X113658665Y-114635000D01*
X113941335Y-114635000D01*
X114123887Y-114598688D01*
X114608634Y-115083435D01*
X114500273Y-115128320D01*
X114265241Y-115285363D01*
X114065363Y-115485241D01*
X113908320Y-115720273D01*
X113800147Y-115981426D01*
X113745000Y-116258665D01*
X113745000Y-116541335D01*
X113800147Y-116818574D01*
X113908320Y-117079727D01*
X114065363Y-117314759D01*
X114265241Y-117514637D01*
X114497759Y-117670000D01*
X114265241Y-117825363D01*
X114065363Y-118025241D01*
X113908320Y-118260273D01*
X113800147Y-118521426D01*
X113745000Y-118798665D01*
X113745000Y-119081335D01*
X113800147Y-119358574D01*
X113908320Y-119619727D01*
X114065363Y-119854759D01*
X114265241Y-120054637D01*
X114497759Y-120210000D01*
X114265241Y-120365363D01*
X114065363Y-120565241D01*
X113908320Y-120800273D01*
X113800147Y-121061426D01*
X113745000Y-121338665D01*
X113745000Y-121510198D01*
X113408734Y-121173933D01*
X113471680Y-121079727D01*
X113579853Y-120818574D01*
X113635000Y-120541335D01*
X113635000Y-120258665D01*
X113579853Y-119981426D01*
X113471680Y-119720273D01*
X113314637Y-119485241D01*
X113114759Y-119285363D01*
X112879727Y-119128320D01*
X112618574Y-119020147D01*
X112341335Y-118965000D01*
X112058665Y-118965000D01*
X111876114Y-119001312D01*
X110860000Y-117985199D01*
X110860000Y-111388135D01*
X111081426Y-111479853D01*
X111358665Y-111535000D01*
X111641335Y-111535000D01*
X111918574Y-111479853D01*
X112179727Y-111371680D01*
X112414759Y-111214637D01*
X112614637Y-111014759D01*
X112681427Y-110914801D01*
X112708320Y-110979727D01*
%TA.AperFunction,Conductor*%
D23*
G36*
X112708320Y-110979727D02*
G01*
X112865363Y-111214759D01*
X113065241Y-111414637D01*
X113300273Y-111571680D01*
X113561426Y-111679853D01*
X113838665Y-111735000D01*
X114121335Y-111735000D01*
X114398574Y-111679853D01*
X114429000Y-111667250D01*
X114429000Y-111907308D01*
X114218574Y-111820147D01*
X113941335Y-111765000D01*
X113658665Y-111765000D01*
X113381426Y-111820147D01*
X113120273Y-111928320D01*
X112885241Y-112085363D01*
X112685363Y-112285241D01*
X112528320Y-112520273D01*
X112420147Y-112781426D01*
X112365000Y-113058665D01*
X112365000Y-113341335D01*
X112420147Y-113618574D01*
X112528320Y-113879727D01*
X112685363Y-114114759D01*
X112885241Y-114314637D01*
X113120273Y-114471680D01*
X113381426Y-114579853D01*
X113658665Y-114635000D01*
X113941335Y-114635000D01*
X114123887Y-114598688D01*
X114608634Y-115083435D01*
X114500273Y-115128320D01*
X114265241Y-115285363D01*
X114065363Y-115485241D01*
X113908320Y-115720273D01*
X113800147Y-115981426D01*
X113745000Y-116258665D01*
X113745000Y-116541335D01*
X113800147Y-116818574D01*
X113908320Y-117079727D01*
X114065363Y-117314759D01*
X114265241Y-117514637D01*
X114497759Y-117670000D01*
X114265241Y-117825363D01*
X114065363Y-118025241D01*
X113908320Y-118260273D01*
X113800147Y-118521426D01*
X113745000Y-118798665D01*
X113745000Y-119081335D01*
X113800147Y-119358574D01*
X113908320Y-119619727D01*
X114065363Y-119854759D01*
X114265241Y-120054637D01*
X114497759Y-120210000D01*
X114265241Y-120365363D01*
X114065363Y-120565241D01*
X113908320Y-120800273D01*
X113800147Y-121061426D01*
X113745000Y-121338665D01*
X113745000Y-121510198D01*
X113408734Y-121173933D01*
X113471680Y-121079727D01*
X113579853Y-120818574D01*
X113635000Y-120541335D01*
X113635000Y-120258665D01*
X113579853Y-119981426D01*
X113471680Y-119720273D01*
X113314637Y-119485241D01*
X113114759Y-119285363D01*
X112879727Y-119128320D01*
X112618574Y-119020147D01*
X112341335Y-118965000D01*
X112058665Y-118965000D01*
X111876114Y-119001312D01*
X110860000Y-117985199D01*
X110860000Y-111388135D01*
X111081426Y-111479853D01*
X111358665Y-111535000D01*
X111641335Y-111535000D01*
X111918574Y-111479853D01*
X112179727Y-111371680D01*
X112414759Y-111214637D01*
X112614637Y-111014759D01*
X112681427Y-110914801D01*
X112708320Y-110979727D01*
G37*
%TD.AperFunction*%
D22*
X112640000Y-89062677D02*
X112636324Y-89100000D01*
X112640000Y-89137322D01*
X112640000Y-89137332D01*
X112650997Y-89248985D01*
X112680525Y-89346328D01*
X112694454Y-89392246D01*
X112765026Y-89524276D01*
X112771961Y-89532726D01*
X112859999Y-89640001D01*
X112889002Y-89663803D01*
X113434740Y-90209542D01*
X113381426Y-90220147D01*
X113120273Y-90328320D01*
X112885241Y-90485363D01*
X112685363Y-90685241D01*
X112528320Y-90920273D01*
X112420147Y-91181426D01*
X112365000Y-91458665D01*
X112365000Y-91741335D01*
X112420147Y-92018574D01*
X112528320Y-92279727D01*
X112685363Y-92514759D01*
X112885241Y-92714637D01*
X113120273Y-92871680D01*
X113381426Y-92979853D01*
X113658665Y-93035000D01*
X113941335Y-93035000D01*
X114218574Y-92979853D01*
X114479727Y-92871680D01*
X114714759Y-92714637D01*
X114890000Y-92539396D01*
X115065241Y-92714637D01*
X115300273Y-92871680D01*
X115561426Y-92979853D01*
X115838665Y-93035000D01*
X116121335Y-93035000D01*
X116398574Y-92979853D01*
X116659727Y-92871680D01*
X116894759Y-92714637D01*
X117094637Y-92514759D01*
X117251680Y-92279727D01*
X117359853Y-92018574D01*
X117415000Y-91741335D01*
X117415000Y-91589802D01*
X117890011Y-92064813D01*
X117890011Y-98469045D01*
X117803937Y-98340226D01*
X117659774Y-98196063D01*
X117490256Y-98082795D01*
X117301898Y-98004774D01*
X117101939Y-97965000D01*
X116898061Y-97965000D01*
X116698102Y-98004774D01*
X116509744Y-98082795D01*
X116340226Y-98196063D01*
X116196063Y-98340226D01*
X116082795Y-98509744D01*
X116004774Y-98698102D01*
X115965000Y-98898061D01*
X115965000Y-99101939D01*
X116004774Y-99301898D01*
X116082795Y-99490256D01*
X116196063Y-99659774D01*
X116340226Y-99803937D01*
X116509744Y-99917205D01*
X116698102Y-99995226D01*
X116722103Y-100000000D01*
X116698102Y-100004774D01*
X116509744Y-100082795D01*
X116340226Y-100196063D01*
X116196063Y-100340226D01*
X116082795Y-100509744D01*
X116004774Y-100698102D01*
X115965000Y-100898061D01*
X115965000Y-101101939D01*
X116004774Y-101301898D01*
X116082795Y-101490256D01*
X116196063Y-101659774D01*
X116340226Y-101803937D01*
X116509744Y-101917205D01*
X116698102Y-101995226D01*
X116898061Y-102035000D01*
X117101939Y-102035000D01*
X117301898Y-101995226D01*
X117490256Y-101917205D01*
X117659774Y-101803937D01*
X117803937Y-101659774D01*
X117890010Y-101530956D01*
X117890010Y-103469044D01*
X117803937Y-103340226D01*
X117659774Y-103196063D01*
X117490256Y-103082795D01*
X117301898Y-103004774D01*
X117101939Y-102965000D01*
X116898061Y-102965000D01*
X116698102Y-103004774D01*
X116509744Y-103082795D01*
X116340226Y-103196063D01*
X116196063Y-103340226D01*
X116082795Y-103509744D01*
X116004774Y-103698102D01*
X115965000Y-103898061D01*
X115965000Y-104101939D01*
X116004774Y-104301898D01*
X116082795Y-104490256D01*
X116196063Y-104659774D01*
X116340226Y-104803937D01*
X116509744Y-104917205D01*
X116698102Y-104995226D01*
X116722103Y-105000000D01*
X116698102Y-105004774D01*
X116509744Y-105082795D01*
X116340226Y-105196063D01*
X116196063Y-105340226D01*
X116082795Y-105509744D01*
X116004774Y-105698102D01*
X115965000Y-105898061D01*
X115965000Y-106101939D01*
X116004774Y-106301898D01*
X116082795Y-106490256D01*
X116196063Y-106659774D01*
X116340226Y-106803937D01*
X116509744Y-106917205D01*
X116698102Y-106995226D01*
X116898061Y-107035000D01*
X117101939Y-107035000D01*
X117301898Y-106995226D01*
X117490256Y-106917205D01*
X117659774Y-106803937D01*
X117803937Y-106659774D01*
X117890010Y-106530956D01*
X117890010Y-110262667D01*
X117886333Y-110300000D01*
X117901007Y-110448986D01*
X117944464Y-110592247D01*
X118015036Y-110724276D01*
X118110009Y-110840001D01*
X118225734Y-110934974D01*
X118357763Y-111005546D01*
X118501024Y-111049003D01*
X118650010Y-111063677D01*
X118687343Y-111060000D01*
X120161928Y-111060000D01*
X120161928Y-111100000D01*
X120174188Y-111224482D01*
X120210498Y-111344180D01*
X120269463Y-111454494D01*
X120348815Y-111551185D01*
X120445506Y-111630537D01*
X120555820Y-111689502D01*
X120675518Y-111725812D01*
X120800000Y-111738072D01*
X122240001Y-111738072D01*
X122240001Y-111962667D01*
X122236324Y-112000000D01*
X122250998Y-112148985D01*
X122294454Y-112292246D01*
X122365026Y-112424276D01*
X122422621Y-112494455D01*
X122460000Y-112540001D01*
X122488998Y-112563799D01*
X124601312Y-114676114D01*
X124565000Y-114858665D01*
X124565000Y-115141335D01*
X124620147Y-115418574D01*
X124728320Y-115679727D01*
X124885363Y-115914759D01*
X125085241Y-116114637D01*
X125320273Y-116271680D01*
X125581426Y-116379853D01*
X125858665Y-116435000D01*
X126141335Y-116435000D01*
X126400285Y-116383491D01*
X126218776Y-116565000D01*
X126058665Y-116565000D01*
X125781426Y-116620147D01*
X125520273Y-116728320D01*
X125285241Y-116885363D01*
X125085363Y-117085241D01*
X124928320Y-117320273D01*
X124820147Y-117581426D01*
X124765000Y-117858665D01*
X124765000Y-118141335D01*
X124777849Y-118205928D01*
X124226723Y-118757054D01*
X124179853Y-118521426D01*
X124071680Y-118260273D01*
X123914637Y-118025241D01*
X123716039Y-117826643D01*
X123724482Y-117825812D01*
X123844180Y-117789502D01*
X123954494Y-117730537D01*
X124051185Y-117651185D01*
X124130537Y-117554494D01*
X124189502Y-117444180D01*
X124225812Y-117324482D01*
X124238072Y-117200000D01*
X124238072Y-115600000D01*
X124225812Y-115475518D01*
X124189502Y-115355820D01*
X124130537Y-115245506D01*
X124051185Y-115148815D01*
X123954494Y-115069463D01*
X123844180Y-115010498D01*
X123724482Y-114974188D01*
X123600000Y-114961928D01*
X122000000Y-114961928D01*
X121875518Y-114974188D01*
X121755820Y-115010498D01*
X121645506Y-115069463D01*
X121548815Y-115148815D01*
X121469463Y-115245506D01*
X121410498Y-115355820D01*
X121374188Y-115475518D01*
X121361928Y-115600000D01*
X121361928Y-117200000D01*
X121374188Y-117324482D01*
X121410498Y-117444180D01*
X121469463Y-117554494D01*
X121548815Y-117651185D01*
X121645506Y-117730537D01*
X121755820Y-117789502D01*
X121875518Y-117825812D01*
X121883961Y-117826643D01*
X121685363Y-118025241D01*
X121528320Y-118260273D01*
X121420147Y-118521426D01*
X121365000Y-118798665D01*
X121365000Y-118970198D01*
X116987276Y-114592475D01*
X117189912Y-114552168D01*
X117487463Y-114428918D01*
X117755252Y-114249987D01*
X117982987Y-114022252D01*
X118161918Y-113754463D01*
X118285168Y-113456912D01*
X118348000Y-113141033D01*
X118348000Y-112818967D01*
X118285168Y-112503088D01*
X118161918Y-112205537D01*
X117982987Y-111937748D01*
X117755252Y-111710013D01*
X117487463Y-111531082D01*
X117189912Y-111407832D01*
X116874033Y-111345000D01*
X116551967Y-111345000D01*
X116236088Y-111407832D01*
X115949000Y-111526748D01*
X115949000Y-106326323D01*
X115952676Y-106289000D01*
X115949000Y-106251677D01*
X115949000Y-106251667D01*
X115938003Y-106140014D01*
X115894546Y-105996753D01*
X115823974Y-105864723D01*
X115752799Y-105777997D01*
X115729001Y-105748999D01*
X115700003Y-105725201D01*
X115398688Y-105423886D01*
X115435000Y-105241335D01*
X115435000Y-104958665D01*
X115379853Y-104681426D01*
X115271680Y-104420273D01*
X115114637Y-104185241D01*
X114914759Y-103985363D01*
X114679727Y-103828320D01*
X114601356Y-103795858D01*
X114659727Y-103771680D01*
X114894759Y-103614637D01*
X115094637Y-103414759D01*
X115251680Y-103179727D01*
X115359853Y-102918574D01*
X115415000Y-102641335D01*
X115415000Y-102358665D01*
X115359853Y-102081426D01*
X115251680Y-101820273D01*
X115094637Y-101585241D01*
X114894759Y-101385363D01*
X114692173Y-101250000D01*
X114894759Y-101114637D01*
X115094637Y-100914759D01*
X115251680Y-100679727D01*
X115359853Y-100418574D01*
X115415000Y-100141335D01*
X115415000Y-99858665D01*
X115359853Y-99581426D01*
X115251680Y-99320273D01*
X115094637Y-99085241D01*
X114894759Y-98885363D01*
X114692173Y-98750000D01*
X114894759Y-98614637D01*
X115094637Y-98414759D01*
X115251680Y-98179727D01*
X115359853Y-97918574D01*
X115415000Y-97641335D01*
X115415000Y-97358665D01*
X115359853Y-97081426D01*
X115251680Y-96820273D01*
X115094637Y-96585241D01*
X114894759Y-96385363D01*
X114659727Y-96228320D01*
X114398574Y-96120147D01*
X114217290Y-96084087D01*
X114238574Y-96079853D01*
X114499727Y-95971680D01*
X114734759Y-95814637D01*
X114934637Y-95614759D01*
X115091680Y-95379727D01*
X115199853Y-95118574D01*
X115255000Y-94841335D01*
X115255000Y-94558665D01*
X115199853Y-94281426D01*
X115091680Y-94020273D01*
X114934637Y-93785241D01*
X114734759Y-93585363D01*
X114499727Y-93428320D01*
X114238574Y-93320147D01*
X113961335Y-93265000D01*
X113678665Y-93265000D01*
X113401426Y-93320147D01*
X113140273Y-93428320D01*
X112905241Y-93585363D01*
X112705363Y-93785241D01*
X112548320Y-94020273D01*
X112440147Y-94281426D01*
X112385000Y-94558665D01*
X112385000Y-94841335D01*
X112440147Y-95118574D01*
X112548320Y-95379727D01*
X112705363Y-95614759D01*
X112905241Y-95814637D01*
X113140273Y-95971680D01*
X113401426Y-96079853D01*
X113582710Y-96115913D01*
X113561426Y-96120147D01*
X113300273Y-96228320D01*
X113065241Y-96385363D01*
X112865363Y-96585241D01*
X112708320Y-96820273D01*
X112681427Y-96885199D01*
X112614637Y-96785241D01*
X112414759Y-96585363D01*
X112179727Y-96428320D01*
X111918574Y-96320147D01*
X111641335Y-96265000D01*
X111358665Y-96265000D01*
X111081426Y-96320147D01*
X110860000Y-96411865D01*
X110860000Y-88988072D01*
X112250000Y-88988072D01*
X112374482Y-88975812D01*
X112494180Y-88939502D01*
X112604494Y-88880537D01*
X112640000Y-88851398D01*
X112640000Y-89062677D01*
%TA.AperFunction,Conductor*%
D23*
G36*
X112640000Y-89062677D02*
G01*
X112636324Y-89100000D01*
X112640000Y-89137322D01*
X112640000Y-89137332D01*
X112650997Y-89248985D01*
X112680525Y-89346328D01*
X112694454Y-89392246D01*
X112765026Y-89524276D01*
X112771961Y-89532726D01*
X112859999Y-89640001D01*
X112889002Y-89663803D01*
X113434740Y-90209542D01*
X113381426Y-90220147D01*
X113120273Y-90328320D01*
X112885241Y-90485363D01*
X112685363Y-90685241D01*
X112528320Y-90920273D01*
X112420147Y-91181426D01*
X112365000Y-91458665D01*
X112365000Y-91741335D01*
X112420147Y-92018574D01*
X112528320Y-92279727D01*
X112685363Y-92514759D01*
X112885241Y-92714637D01*
X113120273Y-92871680D01*
X113381426Y-92979853D01*
X113658665Y-93035000D01*
X113941335Y-93035000D01*
X114218574Y-92979853D01*
X114479727Y-92871680D01*
X114714759Y-92714637D01*
X114890000Y-92539396D01*
X115065241Y-92714637D01*
X115300273Y-92871680D01*
X115561426Y-92979853D01*
X115838665Y-93035000D01*
X116121335Y-93035000D01*
X116398574Y-92979853D01*
X116659727Y-92871680D01*
X116894759Y-92714637D01*
X117094637Y-92514759D01*
X117251680Y-92279727D01*
X117359853Y-92018574D01*
X117415000Y-91741335D01*
X117415000Y-91589802D01*
X117890011Y-92064813D01*
X117890011Y-98469045D01*
X117803937Y-98340226D01*
X117659774Y-98196063D01*
X117490256Y-98082795D01*
X117301898Y-98004774D01*
X117101939Y-97965000D01*
X116898061Y-97965000D01*
X116698102Y-98004774D01*
X116509744Y-98082795D01*
X116340226Y-98196063D01*
X116196063Y-98340226D01*
X116082795Y-98509744D01*
X116004774Y-98698102D01*
X115965000Y-98898061D01*
X115965000Y-99101939D01*
X116004774Y-99301898D01*
X116082795Y-99490256D01*
X116196063Y-99659774D01*
X116340226Y-99803937D01*
X116509744Y-99917205D01*
X116698102Y-99995226D01*
X116722103Y-100000000D01*
X116698102Y-100004774D01*
X116509744Y-100082795D01*
X116340226Y-100196063D01*
X116196063Y-100340226D01*
X116082795Y-100509744D01*
X116004774Y-100698102D01*
X115965000Y-100898061D01*
X115965000Y-101101939D01*
X116004774Y-101301898D01*
X116082795Y-101490256D01*
X116196063Y-101659774D01*
X116340226Y-101803937D01*
X116509744Y-101917205D01*
X116698102Y-101995226D01*
X116898061Y-102035000D01*
X117101939Y-102035000D01*
X117301898Y-101995226D01*
X117490256Y-101917205D01*
X117659774Y-101803937D01*
X117803937Y-101659774D01*
X117890010Y-101530956D01*
X117890010Y-103469044D01*
X117803937Y-103340226D01*
X117659774Y-103196063D01*
X117490256Y-103082795D01*
X117301898Y-103004774D01*
X117101939Y-102965000D01*
X116898061Y-102965000D01*
X116698102Y-103004774D01*
X116509744Y-103082795D01*
X116340226Y-103196063D01*
X116196063Y-103340226D01*
X116082795Y-103509744D01*
X116004774Y-103698102D01*
X115965000Y-103898061D01*
X115965000Y-104101939D01*
X116004774Y-104301898D01*
X116082795Y-104490256D01*
X116196063Y-104659774D01*
X116340226Y-104803937D01*
X116509744Y-104917205D01*
X116698102Y-104995226D01*
X116722103Y-105000000D01*
X116698102Y-105004774D01*
X116509744Y-105082795D01*
X116340226Y-105196063D01*
X116196063Y-105340226D01*
X116082795Y-105509744D01*
X116004774Y-105698102D01*
X115965000Y-105898061D01*
X115965000Y-106101939D01*
X116004774Y-106301898D01*
X116082795Y-106490256D01*
X116196063Y-106659774D01*
X116340226Y-106803937D01*
X116509744Y-106917205D01*
X116698102Y-106995226D01*
X116898061Y-107035000D01*
X117101939Y-107035000D01*
X117301898Y-106995226D01*
X117490256Y-106917205D01*
X117659774Y-106803937D01*
X117803937Y-106659774D01*
X117890010Y-106530956D01*
X117890010Y-110262667D01*
X117886333Y-110300000D01*
X117901007Y-110448986D01*
X117944464Y-110592247D01*
X118015036Y-110724276D01*
X118110009Y-110840001D01*
X118225734Y-110934974D01*
X118357763Y-111005546D01*
X118501024Y-111049003D01*
X118650010Y-111063677D01*
X118687343Y-111060000D01*
X120161928Y-111060000D01*
X120161928Y-111100000D01*
X120174188Y-111224482D01*
X120210498Y-111344180D01*
X120269463Y-111454494D01*
X120348815Y-111551185D01*
X120445506Y-111630537D01*
X120555820Y-111689502D01*
X120675518Y-111725812D01*
X120800000Y-111738072D01*
X122240001Y-111738072D01*
X122240001Y-111962667D01*
X122236324Y-112000000D01*
X122250998Y-112148985D01*
X122294454Y-112292246D01*
X122365026Y-112424276D01*
X122422621Y-112494455D01*
X122460000Y-112540001D01*
X122488998Y-112563799D01*
X124601312Y-114676114D01*
X124565000Y-114858665D01*
X124565000Y-115141335D01*
X124620147Y-115418574D01*
X124728320Y-115679727D01*
X124885363Y-115914759D01*
X125085241Y-116114637D01*
X125320273Y-116271680D01*
X125581426Y-116379853D01*
X125858665Y-116435000D01*
X126141335Y-116435000D01*
X126400285Y-116383491D01*
X126218776Y-116565000D01*
X126058665Y-116565000D01*
X125781426Y-116620147D01*
X125520273Y-116728320D01*
X125285241Y-116885363D01*
X125085363Y-117085241D01*
X124928320Y-117320273D01*
X124820147Y-117581426D01*
X124765000Y-117858665D01*
X124765000Y-118141335D01*
X124777849Y-118205928D01*
X124226723Y-118757054D01*
X124179853Y-118521426D01*
X124071680Y-118260273D01*
X123914637Y-118025241D01*
X123716039Y-117826643D01*
X123724482Y-117825812D01*
X123844180Y-117789502D01*
X123954494Y-117730537D01*
X124051185Y-117651185D01*
X124130537Y-117554494D01*
X124189502Y-117444180D01*
X124225812Y-117324482D01*
X124238072Y-117200000D01*
X124238072Y-115600000D01*
X124225812Y-115475518D01*
X124189502Y-115355820D01*
X124130537Y-115245506D01*
X124051185Y-115148815D01*
X123954494Y-115069463D01*
X123844180Y-115010498D01*
X123724482Y-114974188D01*
X123600000Y-114961928D01*
X122000000Y-114961928D01*
X121875518Y-114974188D01*
X121755820Y-115010498D01*
X121645506Y-115069463D01*
X121548815Y-115148815D01*
X121469463Y-115245506D01*
X121410498Y-115355820D01*
X121374188Y-115475518D01*
X121361928Y-115600000D01*
X121361928Y-117200000D01*
X121374188Y-117324482D01*
X121410498Y-117444180D01*
X121469463Y-117554494D01*
X121548815Y-117651185D01*
X121645506Y-117730537D01*
X121755820Y-117789502D01*
X121875518Y-117825812D01*
X121883961Y-117826643D01*
X121685363Y-118025241D01*
X121528320Y-118260273D01*
X121420147Y-118521426D01*
X121365000Y-118798665D01*
X121365000Y-118970198D01*
X116987276Y-114592475D01*
X117189912Y-114552168D01*
X117487463Y-114428918D01*
X117755252Y-114249987D01*
X117982987Y-114022252D01*
X118161918Y-113754463D01*
X118285168Y-113456912D01*
X118348000Y-113141033D01*
X118348000Y-112818967D01*
X118285168Y-112503088D01*
X118161918Y-112205537D01*
X117982987Y-111937748D01*
X117755252Y-111710013D01*
X117487463Y-111531082D01*
X117189912Y-111407832D01*
X116874033Y-111345000D01*
X116551967Y-111345000D01*
X116236088Y-111407832D01*
X115949000Y-111526748D01*
X115949000Y-106326323D01*
X115952676Y-106289000D01*
X115949000Y-106251677D01*
X115949000Y-106251667D01*
X115938003Y-106140014D01*
X115894546Y-105996753D01*
X115823974Y-105864723D01*
X115752799Y-105777997D01*
X115729001Y-105748999D01*
X115700003Y-105725201D01*
X115398688Y-105423886D01*
X115435000Y-105241335D01*
X115435000Y-104958665D01*
X115379853Y-104681426D01*
X115271680Y-104420273D01*
X115114637Y-104185241D01*
X114914759Y-103985363D01*
X114679727Y-103828320D01*
X114601356Y-103795858D01*
X114659727Y-103771680D01*
X114894759Y-103614637D01*
X115094637Y-103414759D01*
X115251680Y-103179727D01*
X115359853Y-102918574D01*
X115415000Y-102641335D01*
X115415000Y-102358665D01*
X115359853Y-102081426D01*
X115251680Y-101820273D01*
X115094637Y-101585241D01*
X114894759Y-101385363D01*
X114692173Y-101250000D01*
X114894759Y-101114637D01*
X115094637Y-100914759D01*
X115251680Y-100679727D01*
X115359853Y-100418574D01*
X115415000Y-100141335D01*
X115415000Y-99858665D01*
X115359853Y-99581426D01*
X115251680Y-99320273D01*
X115094637Y-99085241D01*
X114894759Y-98885363D01*
X114692173Y-98750000D01*
X114894759Y-98614637D01*
X115094637Y-98414759D01*
X115251680Y-98179727D01*
X115359853Y-97918574D01*
X115415000Y-97641335D01*
X115415000Y-97358665D01*
X115359853Y-97081426D01*
X115251680Y-96820273D01*
X115094637Y-96585241D01*
X114894759Y-96385363D01*
X114659727Y-96228320D01*
X114398574Y-96120147D01*
X114217290Y-96084087D01*
X114238574Y-96079853D01*
X114499727Y-95971680D01*
X114734759Y-95814637D01*
X114934637Y-95614759D01*
X115091680Y-95379727D01*
X115199853Y-95118574D01*
X115255000Y-94841335D01*
X115255000Y-94558665D01*
X115199853Y-94281426D01*
X115091680Y-94020273D01*
X114934637Y-93785241D01*
X114734759Y-93585363D01*
X114499727Y-93428320D01*
X114238574Y-93320147D01*
X113961335Y-93265000D01*
X113678665Y-93265000D01*
X113401426Y-93320147D01*
X113140273Y-93428320D01*
X112905241Y-93585363D01*
X112705363Y-93785241D01*
X112548320Y-94020273D01*
X112440147Y-94281426D01*
X112385000Y-94558665D01*
X112385000Y-94841335D01*
X112440147Y-95118574D01*
X112548320Y-95379727D01*
X112705363Y-95614759D01*
X112905241Y-95814637D01*
X113140273Y-95971680D01*
X113401426Y-96079853D01*
X113582710Y-96115913D01*
X113561426Y-96120147D01*
X113300273Y-96228320D01*
X113065241Y-96385363D01*
X112865363Y-96585241D01*
X112708320Y-96820273D01*
X112681427Y-96885199D01*
X112614637Y-96785241D01*
X112414759Y-96585363D01*
X112179727Y-96428320D01*
X111918574Y-96320147D01*
X111641335Y-96265000D01*
X111358665Y-96265000D01*
X111081426Y-96320147D01*
X110860000Y-96411865D01*
X110860000Y-88988072D01*
X112250000Y-88988072D01*
X112374482Y-88975812D01*
X112494180Y-88939502D01*
X112604494Y-88880537D01*
X112640000Y-88851398D01*
X112640000Y-89062677D01*
G37*
%TD.AperFunction*%
D22*
X124601312Y-107056114D02*
X124565000Y-107238665D01*
X124565000Y-107521335D01*
X124620147Y-107798574D01*
X124728320Y-108059727D01*
X124885363Y-108294759D01*
X125085241Y-108494637D01*
X125320273Y-108651680D01*
X125581426Y-108759853D01*
X125858665Y-108815000D01*
X126141335Y-108815000D01*
X126418574Y-108759853D01*
X126679727Y-108651680D01*
X126914759Y-108494637D01*
X127114637Y-108294759D01*
X127271680Y-108059727D01*
X127379853Y-107798574D01*
X127435000Y-107521335D01*
X127435000Y-107238665D01*
X127379853Y-106961426D01*
X127304354Y-106779156D01*
X127601312Y-107076114D01*
X127565000Y-107258665D01*
X127565000Y-107541335D01*
X127620147Y-107818574D01*
X127728320Y-108079727D01*
X127885363Y-108314759D01*
X128085241Y-108514637D01*
X128320273Y-108671680D01*
X128581426Y-108779853D01*
X128858665Y-108835000D01*
X129141335Y-108835000D01*
X129418574Y-108779853D01*
X129679727Y-108671680D01*
X129914759Y-108514637D01*
X130114637Y-108314759D01*
X130218043Y-108160000D01*
X130781957Y-108160000D01*
X130885363Y-108314759D01*
X131085241Y-108514637D01*
X131320273Y-108671680D01*
X131581426Y-108779853D01*
X131858665Y-108835000D01*
X132141335Y-108835000D01*
X132418574Y-108779853D01*
X132679727Y-108671680D01*
X132689991Y-108664822D01*
X132689991Y-113766546D01*
X132483087Y-113668754D01*
X132349039Y-113628096D01*
X132127000Y-113750085D01*
X132127000Y-114893000D01*
X132147000Y-114893000D01*
X132147000Y-115147000D01*
X132127000Y-115147000D01*
X132127000Y-115167000D01*
X131873000Y-115167000D01*
X131873000Y-115147000D01*
X130729376Y-115147000D01*
X130608091Y-115369040D01*
X130702930Y-115633881D01*
X130751579Y-115714999D01*
X130261476Y-115714999D01*
X130271680Y-115699727D01*
X130379853Y-115438574D01*
X130435000Y-115161335D01*
X130435000Y-114878665D01*
X130393685Y-114670960D01*
X130608091Y-114670960D01*
X130729376Y-114893000D01*
X131873000Y-114893000D01*
X131873000Y-113750085D01*
X131650961Y-113628096D01*
X131516913Y-113668754D01*
X131262580Y-113788963D01*
X131036586Y-113956481D01*
X130847615Y-114164869D01*
X130702930Y-114406119D01*
X130608091Y-114670960D01*
X130393685Y-114670960D01*
X130379853Y-114601426D01*
X130271680Y-114340273D01*
X130114637Y-114105241D01*
X129914759Y-113905363D01*
X129679727Y-113748320D01*
X129418574Y-113640147D01*
X129141335Y-113585000D01*
X128858665Y-113585000D01*
X128581426Y-113640147D01*
X128320273Y-113748320D01*
X128085241Y-113905363D01*
X127885363Y-114105241D01*
X127781957Y-114260000D01*
X127231407Y-114260000D01*
X127114637Y-114085241D01*
X126914759Y-113885363D01*
X126679727Y-113728320D01*
X126418574Y-113620147D01*
X126141335Y-113565000D01*
X125858665Y-113565000D01*
X125676114Y-113601312D01*
X123760000Y-111685199D01*
X123760000Y-106214802D01*
X124601312Y-107056114D01*
%TA.AperFunction,Conductor*%
D23*
G36*
X124601312Y-107056114D02*
G01*
X124565000Y-107238665D01*
X124565000Y-107521335D01*
X124620147Y-107798574D01*
X124728320Y-108059727D01*
X124885363Y-108294759D01*
X125085241Y-108494637D01*
X125320273Y-108651680D01*
X125581426Y-108759853D01*
X125858665Y-108815000D01*
X126141335Y-108815000D01*
X126418574Y-108759853D01*
X126679727Y-108651680D01*
X126914759Y-108494637D01*
X127114637Y-108294759D01*
X127271680Y-108059727D01*
X127379853Y-107798574D01*
X127435000Y-107521335D01*
X127435000Y-107238665D01*
X127379853Y-106961426D01*
X127304354Y-106779156D01*
X127601312Y-107076114D01*
X127565000Y-107258665D01*
X127565000Y-107541335D01*
X127620147Y-107818574D01*
X127728320Y-108079727D01*
X127885363Y-108314759D01*
X128085241Y-108514637D01*
X128320273Y-108671680D01*
X128581426Y-108779853D01*
X128858665Y-108835000D01*
X129141335Y-108835000D01*
X129418574Y-108779853D01*
X129679727Y-108671680D01*
X129914759Y-108514637D01*
X130114637Y-108314759D01*
X130218043Y-108160000D01*
X130781957Y-108160000D01*
X130885363Y-108314759D01*
X131085241Y-108514637D01*
X131320273Y-108671680D01*
X131581426Y-108779853D01*
X131858665Y-108835000D01*
X132141335Y-108835000D01*
X132418574Y-108779853D01*
X132679727Y-108671680D01*
X132689991Y-108664822D01*
X132689991Y-113766546D01*
X132483087Y-113668754D01*
X132349039Y-113628096D01*
X132127000Y-113750085D01*
X132127000Y-114893000D01*
X132147000Y-114893000D01*
X132147000Y-115147000D01*
X132127000Y-115147000D01*
X132127000Y-115167000D01*
X131873000Y-115167000D01*
X131873000Y-115147000D01*
X130729376Y-115147000D01*
X130608091Y-115369040D01*
X130702930Y-115633881D01*
X130751579Y-115714999D01*
X130261476Y-115714999D01*
X130271680Y-115699727D01*
X130379853Y-115438574D01*
X130435000Y-115161335D01*
X130435000Y-114878665D01*
X130393685Y-114670960D01*
X130608091Y-114670960D01*
X130729376Y-114893000D01*
X131873000Y-114893000D01*
X131873000Y-113750085D01*
X131650961Y-113628096D01*
X131516913Y-113668754D01*
X131262580Y-113788963D01*
X131036586Y-113956481D01*
X130847615Y-114164869D01*
X130702930Y-114406119D01*
X130608091Y-114670960D01*
X130393685Y-114670960D01*
X130379853Y-114601426D01*
X130271680Y-114340273D01*
X130114637Y-114105241D01*
X129914759Y-113905363D01*
X129679727Y-113748320D01*
X129418574Y-113640147D01*
X129141335Y-113585000D01*
X128858665Y-113585000D01*
X128581426Y-113640147D01*
X128320273Y-113748320D01*
X128085241Y-113905363D01*
X127885363Y-114105241D01*
X127781957Y-114260000D01*
X127231407Y-114260000D01*
X127114637Y-114085241D01*
X126914759Y-113885363D01*
X126679727Y-113728320D01*
X126418574Y-113620147D01*
X126141335Y-113565000D01*
X125858665Y-113565000D01*
X125676114Y-113601312D01*
X123760000Y-111685199D01*
X123760000Y-106214802D01*
X124601312Y-107056114D01*
G37*
%TD.AperFunction*%
D22*
X122240000Y-95778392D02*
X122240000Y-96061928D01*
X120800000Y-96061928D01*
X120675518Y-96074188D01*
X120555820Y-96110498D01*
X120445506Y-96169463D01*
X120348815Y-96248815D01*
X120269463Y-96345506D01*
X120210498Y-96455820D01*
X120174188Y-96575518D01*
X120161928Y-96700000D01*
X120161928Y-98300000D01*
X120174188Y-98424482D01*
X120210498Y-98544180D01*
X120269463Y-98654494D01*
X120347842Y-98750000D01*
X120269463Y-98845506D01*
X120210498Y-98955820D01*
X120174188Y-99075518D01*
X120161928Y-99200000D01*
X120161928Y-100800000D01*
X120174188Y-100924482D01*
X120210498Y-101044180D01*
X120269463Y-101154494D01*
X120347842Y-101250000D01*
X120269463Y-101345506D01*
X120210498Y-101455820D01*
X120174188Y-101575518D01*
X120161928Y-101700000D01*
X120161928Y-103300000D01*
X120174188Y-103424482D01*
X120210498Y-103544180D01*
X120269463Y-103654494D01*
X120348815Y-103751185D01*
X120418296Y-103808207D01*
X120368815Y-103848815D01*
X120289463Y-103945506D01*
X120230498Y-104055820D01*
X120194188Y-104175518D01*
X120181928Y-104300000D01*
X120181928Y-105900000D01*
X120194188Y-106024482D01*
X120230498Y-106144180D01*
X120289463Y-106254494D01*
X120368815Y-106351185D01*
X120418296Y-106391793D01*
X120348815Y-106448815D01*
X120269463Y-106545506D01*
X120210498Y-106655820D01*
X120174188Y-106775518D01*
X120161928Y-106900000D01*
X120161928Y-108500000D01*
X120174188Y-108624482D01*
X120210498Y-108744180D01*
X120269463Y-108854494D01*
X120348815Y-108951185D01*
X120408296Y-109000000D01*
X120348815Y-109048815D01*
X120269463Y-109145506D01*
X120210498Y-109255820D01*
X120174188Y-109375518D01*
X120161928Y-109500000D01*
X120161928Y-109540000D01*
X119410010Y-109540000D01*
X119410010Y-92948402D01*
X122240000Y-95778392D01*
%TA.AperFunction,Conductor*%
D23*
G36*
X122240000Y-95778392D02*
G01*
X122240000Y-96061928D01*
X120800000Y-96061928D01*
X120675518Y-96074188D01*
X120555820Y-96110498D01*
X120445506Y-96169463D01*
X120348815Y-96248815D01*
X120269463Y-96345506D01*
X120210498Y-96455820D01*
X120174188Y-96575518D01*
X120161928Y-96700000D01*
X120161928Y-98300000D01*
X120174188Y-98424482D01*
X120210498Y-98544180D01*
X120269463Y-98654494D01*
X120347842Y-98750000D01*
X120269463Y-98845506D01*
X120210498Y-98955820D01*
X120174188Y-99075518D01*
X120161928Y-99200000D01*
X120161928Y-100800000D01*
X120174188Y-100924482D01*
X120210498Y-101044180D01*
X120269463Y-101154494D01*
X120347842Y-101250000D01*
X120269463Y-101345506D01*
X120210498Y-101455820D01*
X120174188Y-101575518D01*
X120161928Y-101700000D01*
X120161928Y-103300000D01*
X120174188Y-103424482D01*
X120210498Y-103544180D01*
X120269463Y-103654494D01*
X120348815Y-103751185D01*
X120418296Y-103808207D01*
X120368815Y-103848815D01*
X120289463Y-103945506D01*
X120230498Y-104055820D01*
X120194188Y-104175518D01*
X120181928Y-104300000D01*
X120181928Y-105900000D01*
X120194188Y-106024482D01*
X120230498Y-106144180D01*
X120289463Y-106254494D01*
X120368815Y-106351185D01*
X120418296Y-106391793D01*
X120348815Y-106448815D01*
X120269463Y-106545506D01*
X120210498Y-106655820D01*
X120174188Y-106775518D01*
X120161928Y-106900000D01*
X120161928Y-108500000D01*
X120174188Y-108624482D01*
X120210498Y-108744180D01*
X120269463Y-108854494D01*
X120348815Y-108951185D01*
X120408296Y-109000000D01*
X120348815Y-109048815D01*
X120269463Y-109145506D01*
X120210498Y-109255820D01*
X120174188Y-109375518D01*
X120161928Y-109500000D01*
X120161928Y-109540000D01*
X119410010Y-109540000D01*
X119410010Y-92948402D01*
X122240000Y-95778392D01*
G37*
%TD.AperFunction*%
D22*
X132689990Y-83906214D02*
X132689990Y-87611710D01*
X132594180Y-87560498D01*
X132474482Y-87524188D01*
X132350000Y-87511928D01*
X130650000Y-87511928D01*
X130525518Y-87524188D01*
X130405820Y-87560498D01*
X130295506Y-87619463D01*
X130198815Y-87698815D01*
X130119463Y-87795506D01*
X130060498Y-87905820D01*
X130024188Y-88025518D01*
X130011928Y-88150000D01*
X130011928Y-89850000D01*
X130024188Y-89974482D01*
X130060498Y-90094180D01*
X130119463Y-90204494D01*
X130198815Y-90301185D01*
X130295506Y-90380537D01*
X130405820Y-90439502D01*
X130478380Y-90461513D01*
X130346525Y-90593368D01*
X130184010Y-90836589D01*
X130072068Y-91106842D01*
X130015000Y-91393740D01*
X130015000Y-91686260D01*
X130072068Y-91973158D01*
X130184010Y-92243411D01*
X130346525Y-92486632D01*
X130553368Y-92693475D01*
X130727760Y-92810000D01*
X130553368Y-92926525D01*
X130346525Y-93133368D01*
X130184010Y-93376589D01*
X130072068Y-93646842D01*
X130015000Y-93933740D01*
X130015000Y-94226260D01*
X130072068Y-94513158D01*
X130184010Y-94783411D01*
X130346525Y-95026632D01*
X130553368Y-95233475D01*
X130727760Y-95350000D01*
X130553368Y-95466525D01*
X130346525Y-95673368D01*
X130184010Y-95916589D01*
X130072068Y-96186842D01*
X130015000Y-96473740D01*
X130015000Y-96766260D01*
X130072068Y-97053158D01*
X130184010Y-97323411D01*
X130346525Y-97566632D01*
X130553368Y-97773475D01*
X130727760Y-97890000D01*
X130553368Y-98006525D01*
X130346525Y-98213368D01*
X130184010Y-98456589D01*
X130072068Y-98726842D01*
X130015000Y-99013740D01*
X130015000Y-99306260D01*
X130072068Y-99593158D01*
X130184010Y-99863411D01*
X130346525Y-100106632D01*
X130553368Y-100313475D01*
X130727760Y-100430000D01*
X130553368Y-100546525D01*
X130346525Y-100753368D01*
X130184010Y-100996589D01*
X130072068Y-101266842D01*
X130015000Y-101553740D01*
X130015000Y-101846260D01*
X130072068Y-102133158D01*
X130184010Y-102403411D01*
X130346525Y-102646632D01*
X130553368Y-102853475D01*
X130735534Y-102975195D01*
X130618645Y-103044822D01*
X130402412Y-103239731D01*
X130228359Y-103473080D01*
X130103175Y-103735901D01*
X130058524Y-103883110D01*
X130179845Y-104113000D01*
X131373000Y-104113000D01*
X131373000Y-104093000D01*
X131627000Y-104093000D01*
X131627000Y-104113000D01*
X131647000Y-104113000D01*
X131647000Y-104367000D01*
X131627000Y-104367000D01*
X131627000Y-105560814D01*
X131856891Y-105681481D01*
X132131252Y-105584157D01*
X132381355Y-105435178D01*
X132597588Y-105240269D01*
X132689991Y-105116387D01*
X132689991Y-106135178D01*
X132679727Y-106128320D01*
X132418574Y-106020147D01*
X132141335Y-105965000D01*
X131858665Y-105965000D01*
X131581426Y-106020147D01*
X131320273Y-106128320D01*
X131085241Y-106285363D01*
X130885363Y-106485241D01*
X130781957Y-106640000D01*
X130218043Y-106640000D01*
X130114637Y-106485241D01*
X129914759Y-106285363D01*
X129679727Y-106128320D01*
X129418574Y-106020147D01*
X129141335Y-105965000D01*
X128858665Y-105965000D01*
X128676114Y-106001312D01*
X127763803Y-105089002D01*
X127740001Y-105059999D01*
X127624276Y-104965026D01*
X127492247Y-104894454D01*
X127348986Y-104850997D01*
X127237333Y-104840000D01*
X127237322Y-104840000D01*
X127217747Y-104838072D01*
X127300000Y-104838072D01*
X127424482Y-104825812D01*
X127544180Y-104789502D01*
X127654494Y-104730537D01*
X127751185Y-104651185D01*
X127795743Y-104596890D01*
X130058524Y-104596890D01*
X130103175Y-104744099D01*
X130228359Y-105006920D01*
X130402412Y-105240269D01*
X130618645Y-105435178D01*
X130868748Y-105584157D01*
X131143109Y-105681481D01*
X131373000Y-105560814D01*
X131373000Y-104367000D01*
X130179845Y-104367000D01*
X130058524Y-104596890D01*
X127795743Y-104596890D01*
X127830537Y-104554494D01*
X127889502Y-104444180D01*
X127925812Y-104324482D01*
X127938072Y-104200000D01*
X127938072Y-102600000D01*
X127925812Y-102475518D01*
X127889502Y-102355820D01*
X127830537Y-102245506D01*
X127751185Y-102148815D01*
X127654494Y-102069463D01*
X127544180Y-102010498D01*
X127448057Y-101981339D01*
X127614637Y-101814759D01*
X127771680Y-101579727D01*
X127879853Y-101318574D01*
X127935000Y-101041335D01*
X127935000Y-100758665D01*
X127879853Y-100481426D01*
X127771680Y-100220273D01*
X127614637Y-99985241D01*
X127414759Y-99785363D01*
X127179727Y-99628320D01*
X126918574Y-99520147D01*
X126641335Y-99465000D01*
X126358665Y-99465000D01*
X126176114Y-99501312D01*
X125712873Y-99038072D01*
X127300000Y-99038072D01*
X127424482Y-99025812D01*
X127544180Y-98989502D01*
X127654494Y-98930537D01*
X127751185Y-98851185D01*
X127830537Y-98754494D01*
X127889502Y-98644180D01*
X127925812Y-98524482D01*
X127938072Y-98400000D01*
X127938072Y-96800000D01*
X127925812Y-96675518D01*
X127889502Y-96555820D01*
X127830537Y-96445506D01*
X127751185Y-96348815D01*
X127654494Y-96269463D01*
X127544180Y-96210498D01*
X127448057Y-96181339D01*
X127614637Y-96014759D01*
X127771680Y-95779727D01*
X127879853Y-95518574D01*
X127935000Y-95241335D01*
X127935000Y-94958665D01*
X127879853Y-94681426D01*
X127771680Y-94420273D01*
X127614637Y-94185241D01*
X127414759Y-93985363D01*
X127179727Y-93828320D01*
X126918574Y-93720147D01*
X126641335Y-93665000D01*
X126358665Y-93665000D01*
X126081426Y-93720147D01*
X125820273Y-93828320D01*
X125660000Y-93935411D01*
X125660000Y-88332022D01*
X125713996Y-88357571D01*
X125988184Y-88426300D01*
X126270512Y-88440217D01*
X126550130Y-88398787D01*
X126816292Y-88303603D01*
X126941514Y-88236671D01*
X127013097Y-87992702D01*
X126200000Y-87179605D01*
X126185858Y-87193748D01*
X126006253Y-87014143D01*
X126020395Y-87000000D01*
X126379605Y-87000000D01*
X127192702Y-87813097D01*
X127436671Y-87741514D01*
X127557571Y-87486004D01*
X127626300Y-87211816D01*
X127640217Y-86929488D01*
X127598787Y-86649870D01*
X127503603Y-86383708D01*
X127436671Y-86258486D01*
X127192702Y-86186903D01*
X126379605Y-87000000D01*
X126020395Y-87000000D01*
X126006253Y-86985858D01*
X126185858Y-86806253D01*
X126200000Y-86820395D01*
X127013097Y-86007298D01*
X126941514Y-85763329D01*
X126686004Y-85642429D01*
X126411816Y-85573700D01*
X126129488Y-85559783D01*
X125849870Y-85601213D01*
X125660000Y-85669114D01*
X125660000Y-83329557D01*
X125781426Y-83379853D01*
X126058665Y-83435000D01*
X126341335Y-83435000D01*
X126618574Y-83379853D01*
X126879727Y-83271680D01*
X127114759Y-83114637D01*
X127314637Y-82914759D01*
X127351226Y-82860000D01*
X131643777Y-82860000D01*
X132689990Y-83906214D01*
%TA.AperFunction,Conductor*%
D23*
G36*
X132689990Y-83906214D02*
G01*
X132689990Y-87611710D01*
X132594180Y-87560498D01*
X132474482Y-87524188D01*
X132350000Y-87511928D01*
X130650000Y-87511928D01*
X130525518Y-87524188D01*
X130405820Y-87560498D01*
X130295506Y-87619463D01*
X130198815Y-87698815D01*
X130119463Y-87795506D01*
X130060498Y-87905820D01*
X130024188Y-88025518D01*
X130011928Y-88150000D01*
X130011928Y-89850000D01*
X130024188Y-89974482D01*
X130060498Y-90094180D01*
X130119463Y-90204494D01*
X130198815Y-90301185D01*
X130295506Y-90380537D01*
X130405820Y-90439502D01*
X130478380Y-90461513D01*
X130346525Y-90593368D01*
X130184010Y-90836589D01*
X130072068Y-91106842D01*
X130015000Y-91393740D01*
X130015000Y-91686260D01*
X130072068Y-91973158D01*
X130184010Y-92243411D01*
X130346525Y-92486632D01*
X130553368Y-92693475D01*
X130727760Y-92810000D01*
X130553368Y-92926525D01*
X130346525Y-93133368D01*
X130184010Y-93376589D01*
X130072068Y-93646842D01*
X130015000Y-93933740D01*
X130015000Y-94226260D01*
X130072068Y-94513158D01*
X130184010Y-94783411D01*
X130346525Y-95026632D01*
X130553368Y-95233475D01*
X130727760Y-95350000D01*
X130553368Y-95466525D01*
X130346525Y-95673368D01*
X130184010Y-95916589D01*
X130072068Y-96186842D01*
X130015000Y-96473740D01*
X130015000Y-96766260D01*
X130072068Y-97053158D01*
X130184010Y-97323411D01*
X130346525Y-97566632D01*
X130553368Y-97773475D01*
X130727760Y-97890000D01*
X130553368Y-98006525D01*
X130346525Y-98213368D01*
X130184010Y-98456589D01*
X130072068Y-98726842D01*
X130015000Y-99013740D01*
X130015000Y-99306260D01*
X130072068Y-99593158D01*
X130184010Y-99863411D01*
X130346525Y-100106632D01*
X130553368Y-100313475D01*
X130727760Y-100430000D01*
X130553368Y-100546525D01*
X130346525Y-100753368D01*
X130184010Y-100996589D01*
X130072068Y-101266842D01*
X130015000Y-101553740D01*
X130015000Y-101846260D01*
X130072068Y-102133158D01*
X130184010Y-102403411D01*
X130346525Y-102646632D01*
X130553368Y-102853475D01*
X130735534Y-102975195D01*
X130618645Y-103044822D01*
X130402412Y-103239731D01*
X130228359Y-103473080D01*
X130103175Y-103735901D01*
X130058524Y-103883110D01*
X130179845Y-104113000D01*
X131373000Y-104113000D01*
X131373000Y-104093000D01*
X131627000Y-104093000D01*
X131627000Y-104113000D01*
X131647000Y-104113000D01*
X131647000Y-104367000D01*
X131627000Y-104367000D01*
X131627000Y-105560814D01*
X131856891Y-105681481D01*
X132131252Y-105584157D01*
X132381355Y-105435178D01*
X132597588Y-105240269D01*
X132689991Y-105116387D01*
X132689991Y-106135178D01*
X132679727Y-106128320D01*
X132418574Y-106020147D01*
X132141335Y-105965000D01*
X131858665Y-105965000D01*
X131581426Y-106020147D01*
X131320273Y-106128320D01*
X131085241Y-106285363D01*
X130885363Y-106485241D01*
X130781957Y-106640000D01*
X130218043Y-106640000D01*
X130114637Y-106485241D01*
X129914759Y-106285363D01*
X129679727Y-106128320D01*
X129418574Y-106020147D01*
X129141335Y-105965000D01*
X128858665Y-105965000D01*
X128676114Y-106001312D01*
X127763803Y-105089002D01*
X127740001Y-105059999D01*
X127624276Y-104965026D01*
X127492247Y-104894454D01*
X127348986Y-104850997D01*
X127237333Y-104840000D01*
X127237322Y-104840000D01*
X127217747Y-104838072D01*
X127300000Y-104838072D01*
X127424482Y-104825812D01*
X127544180Y-104789502D01*
X127654494Y-104730537D01*
X127751185Y-104651185D01*
X127795743Y-104596890D01*
X130058524Y-104596890D01*
X130103175Y-104744099D01*
X130228359Y-105006920D01*
X130402412Y-105240269D01*
X130618645Y-105435178D01*
X130868748Y-105584157D01*
X131143109Y-105681481D01*
X131373000Y-105560814D01*
X131373000Y-104367000D01*
X130179845Y-104367000D01*
X130058524Y-104596890D01*
X127795743Y-104596890D01*
X127830537Y-104554494D01*
X127889502Y-104444180D01*
X127925812Y-104324482D01*
X127938072Y-104200000D01*
X127938072Y-102600000D01*
X127925812Y-102475518D01*
X127889502Y-102355820D01*
X127830537Y-102245506D01*
X127751185Y-102148815D01*
X127654494Y-102069463D01*
X127544180Y-102010498D01*
X127448057Y-101981339D01*
X127614637Y-101814759D01*
X127771680Y-101579727D01*
X127879853Y-101318574D01*
X127935000Y-101041335D01*
X127935000Y-100758665D01*
X127879853Y-100481426D01*
X127771680Y-100220273D01*
X127614637Y-99985241D01*
X127414759Y-99785363D01*
X127179727Y-99628320D01*
X126918574Y-99520147D01*
X126641335Y-99465000D01*
X126358665Y-99465000D01*
X126176114Y-99501312D01*
X125712873Y-99038072D01*
X127300000Y-99038072D01*
X127424482Y-99025812D01*
X127544180Y-98989502D01*
X127654494Y-98930537D01*
X127751185Y-98851185D01*
X127830537Y-98754494D01*
X127889502Y-98644180D01*
X127925812Y-98524482D01*
X127938072Y-98400000D01*
X127938072Y-96800000D01*
X127925812Y-96675518D01*
X127889502Y-96555820D01*
X127830537Y-96445506D01*
X127751185Y-96348815D01*
X127654494Y-96269463D01*
X127544180Y-96210498D01*
X127448057Y-96181339D01*
X127614637Y-96014759D01*
X127771680Y-95779727D01*
X127879853Y-95518574D01*
X127935000Y-95241335D01*
X127935000Y-94958665D01*
X127879853Y-94681426D01*
X127771680Y-94420273D01*
X127614637Y-94185241D01*
X127414759Y-93985363D01*
X127179727Y-93828320D01*
X126918574Y-93720147D01*
X126641335Y-93665000D01*
X126358665Y-93665000D01*
X126081426Y-93720147D01*
X125820273Y-93828320D01*
X125660000Y-93935411D01*
X125660000Y-88332022D01*
X125713996Y-88357571D01*
X125988184Y-88426300D01*
X126270512Y-88440217D01*
X126550130Y-88398787D01*
X126816292Y-88303603D01*
X126941514Y-88236671D01*
X127013097Y-87992702D01*
X126200000Y-87179605D01*
X126185858Y-87193748D01*
X126006253Y-87014143D01*
X126020395Y-87000000D01*
X126379605Y-87000000D01*
X127192702Y-87813097D01*
X127436671Y-87741514D01*
X127557571Y-87486004D01*
X127626300Y-87211816D01*
X127640217Y-86929488D01*
X127598787Y-86649870D01*
X127503603Y-86383708D01*
X127436671Y-86258486D01*
X127192702Y-86186903D01*
X126379605Y-87000000D01*
X126020395Y-87000000D01*
X126006253Y-86985858D01*
X126185858Y-86806253D01*
X126200000Y-86820395D01*
X127013097Y-86007298D01*
X126941514Y-85763329D01*
X126686004Y-85642429D01*
X126411816Y-85573700D01*
X126129488Y-85559783D01*
X125849870Y-85601213D01*
X125660000Y-85669114D01*
X125660000Y-83329557D01*
X125781426Y-83379853D01*
X126058665Y-83435000D01*
X126341335Y-83435000D01*
X126618574Y-83379853D01*
X126879727Y-83271680D01*
X127114759Y-83114637D01*
X127314637Y-82914759D01*
X127351226Y-82860000D01*
X131643777Y-82860000D01*
X132689990Y-83906214D01*
G37*
%TD.AperFunction*%
D22*
X114385363Y-66085241D02*
X114228320Y-66320273D01*
X114120147Y-66581426D01*
X114065000Y-66858665D01*
X114065000Y-67141335D01*
X114120147Y-67418574D01*
X114228320Y-67679727D01*
X114385363Y-67914759D01*
X114585241Y-68114637D01*
X114820273Y-68271680D01*
X115081426Y-68379853D01*
X115358665Y-68435000D01*
X115641335Y-68435000D01*
X115918574Y-68379853D01*
X116179727Y-68271680D01*
X116414759Y-68114637D01*
X116581339Y-67948057D01*
X116610498Y-68044180D01*
X116669463Y-68154494D01*
X116748815Y-68251185D01*
X116845506Y-68330537D01*
X116955820Y-68389502D01*
X117075518Y-68425812D01*
X117200000Y-68438072D01*
X117714250Y-68435000D01*
X117873000Y-68276250D01*
X117873000Y-67127000D01*
X118127000Y-67127000D01*
X118127000Y-68276250D01*
X118285750Y-68435000D01*
X118800000Y-68438072D01*
X118924482Y-68425812D01*
X119044180Y-68389502D01*
X119154494Y-68330537D01*
X119251185Y-68251185D01*
X119330537Y-68154494D01*
X119389502Y-68044180D01*
X119425812Y-67924482D01*
X119438072Y-67800000D01*
X119435000Y-67285750D01*
X119276250Y-67127000D01*
X118127000Y-67127000D01*
X117873000Y-67127000D01*
X117853000Y-67127000D01*
X117853000Y-66873000D01*
X117873000Y-66873000D01*
X117873000Y-66853000D01*
X118127000Y-66853000D01*
X118127000Y-66873000D01*
X119276250Y-66873000D01*
X119435000Y-66714250D01*
X119437504Y-66295148D01*
X120061928Y-66919573D01*
X120061928Y-67221868D01*
X119981476Y-67319899D01*
X119901619Y-67469301D01*
X119874554Y-67558524D01*
X119856069Y-67619463D01*
X119852444Y-67631412D01*
X119840000Y-67757755D01*
X119840000Y-67757761D01*
X119835840Y-67800000D01*
X119840000Y-67842239D01*
X119840001Y-78677751D01*
X119835840Y-78720000D01*
X119852444Y-78888589D01*
X119901620Y-79050700D01*
X119981477Y-79200102D01*
X120011489Y-79236671D01*
X120088947Y-79331054D01*
X120121760Y-79357983D01*
X121177849Y-80414072D01*
X121165000Y-80478665D01*
X121165000Y-80761335D01*
X121220147Y-81038574D01*
X121328320Y-81299727D01*
X121485363Y-81534759D01*
X121685241Y-81734637D01*
X121917759Y-81890000D01*
X121685241Y-82045363D01*
X121485363Y-82245241D01*
X121381957Y-82400000D01*
X118377323Y-82400000D01*
X118340000Y-82396324D01*
X118302677Y-82400000D01*
X118302667Y-82400000D01*
X118191014Y-82410997D01*
X118047753Y-82454454D01*
X117915723Y-82525026D01*
X117850884Y-82578239D01*
X117799999Y-82619999D01*
X117776201Y-82648997D01*
X117760000Y-82665198D01*
X117760000Y-77597322D01*
X117763676Y-77559999D01*
X117760000Y-77522676D01*
X117760000Y-77522667D01*
X117749003Y-77411014D01*
X117705546Y-77267753D01*
X117634974Y-77135724D01*
X117593544Y-77085241D01*
X117563799Y-77048996D01*
X117563795Y-77048992D01*
X117540001Y-77019999D01*
X117511008Y-76996205D01*
X116378688Y-75863886D01*
X116415000Y-75681335D01*
X116415000Y-75398665D01*
X116359853Y-75121426D01*
X116251680Y-74860273D01*
X116094637Y-74625241D01*
X115894759Y-74425363D01*
X115662241Y-74270000D01*
X115894759Y-74114637D01*
X116094637Y-73914759D01*
X116251680Y-73679727D01*
X116359853Y-73418574D01*
X116415000Y-73141335D01*
X116415000Y-72858665D01*
X116359853Y-72581426D01*
X116251680Y-72320273D01*
X116094637Y-72085241D01*
X115894759Y-71885363D01*
X115659727Y-71728320D01*
X115398574Y-71620147D01*
X115121335Y-71565000D01*
X114838665Y-71565000D01*
X114561426Y-71620147D01*
X114300273Y-71728320D01*
X114260000Y-71755229D01*
X114260000Y-70862246D01*
X114264161Y-70820000D01*
X114247556Y-70651410D01*
X114198381Y-70489299D01*
X114148952Y-70396825D01*
X114118524Y-70339898D01*
X114011054Y-70208946D01*
X113978242Y-70182018D01*
X113044673Y-69248450D01*
X113065000Y-69146260D01*
X113065000Y-68853740D01*
X113007932Y-68566842D01*
X112895990Y-68296589D01*
X112733475Y-68053368D01*
X112526632Y-67846525D01*
X112283411Y-67684010D01*
X112013158Y-67572068D01*
X111726260Y-67515000D01*
X111433740Y-67515000D01*
X111146842Y-67572068D01*
X110876589Y-67684010D01*
X110633368Y-67846525D01*
X110426525Y-68053368D01*
X110304805Y-68235534D01*
X110235178Y-68118645D01*
X110040269Y-67902412D01*
X109806920Y-67728359D01*
X109544099Y-67603175D01*
X109396890Y-67558524D01*
X109189867Y-67667777D01*
X110897645Y-65960000D01*
X114510604Y-65960000D01*
X114385363Y-66085241D01*
%TA.AperFunction,Conductor*%
D23*
G36*
X114385363Y-66085241D02*
G01*
X114228320Y-66320273D01*
X114120147Y-66581426D01*
X114065000Y-66858665D01*
X114065000Y-67141335D01*
X114120147Y-67418574D01*
X114228320Y-67679727D01*
X114385363Y-67914759D01*
X114585241Y-68114637D01*
X114820273Y-68271680D01*
X115081426Y-68379853D01*
X115358665Y-68435000D01*
X115641335Y-68435000D01*
X115918574Y-68379853D01*
X116179727Y-68271680D01*
X116414759Y-68114637D01*
X116581339Y-67948057D01*
X116610498Y-68044180D01*
X116669463Y-68154494D01*
X116748815Y-68251185D01*
X116845506Y-68330537D01*
X116955820Y-68389502D01*
X117075518Y-68425812D01*
X117200000Y-68438072D01*
X117714250Y-68435000D01*
X117873000Y-68276250D01*
X117873000Y-67127000D01*
X118127000Y-67127000D01*
X118127000Y-68276250D01*
X118285750Y-68435000D01*
X118800000Y-68438072D01*
X118924482Y-68425812D01*
X119044180Y-68389502D01*
X119154494Y-68330537D01*
X119251185Y-68251185D01*
X119330537Y-68154494D01*
X119389502Y-68044180D01*
X119425812Y-67924482D01*
X119438072Y-67800000D01*
X119435000Y-67285750D01*
X119276250Y-67127000D01*
X118127000Y-67127000D01*
X117873000Y-67127000D01*
X117853000Y-67127000D01*
X117853000Y-66873000D01*
X117873000Y-66873000D01*
X117873000Y-66853000D01*
X118127000Y-66853000D01*
X118127000Y-66873000D01*
X119276250Y-66873000D01*
X119435000Y-66714250D01*
X119437504Y-66295148D01*
X120061928Y-66919573D01*
X120061928Y-67221868D01*
X119981476Y-67319899D01*
X119901619Y-67469301D01*
X119874554Y-67558524D01*
X119856069Y-67619463D01*
X119852444Y-67631412D01*
X119840000Y-67757755D01*
X119840000Y-67757761D01*
X119835840Y-67800000D01*
X119840000Y-67842239D01*
X119840001Y-78677751D01*
X119835840Y-78720000D01*
X119852444Y-78888589D01*
X119901620Y-79050700D01*
X119981477Y-79200102D01*
X120011489Y-79236671D01*
X120088947Y-79331054D01*
X120121760Y-79357983D01*
X121177849Y-80414072D01*
X121165000Y-80478665D01*
X121165000Y-80761335D01*
X121220147Y-81038574D01*
X121328320Y-81299727D01*
X121485363Y-81534759D01*
X121685241Y-81734637D01*
X121917759Y-81890000D01*
X121685241Y-82045363D01*
X121485363Y-82245241D01*
X121381957Y-82400000D01*
X118377323Y-82400000D01*
X118340000Y-82396324D01*
X118302677Y-82400000D01*
X118302667Y-82400000D01*
X118191014Y-82410997D01*
X118047753Y-82454454D01*
X117915723Y-82525026D01*
X117850884Y-82578239D01*
X117799999Y-82619999D01*
X117776201Y-82648997D01*
X117760000Y-82665198D01*
X117760000Y-77597322D01*
X117763676Y-77559999D01*
X117760000Y-77522676D01*
X117760000Y-77522667D01*
X117749003Y-77411014D01*
X117705546Y-77267753D01*
X117634974Y-77135724D01*
X117593544Y-77085241D01*
X117563799Y-77048996D01*
X117563795Y-77048992D01*
X117540001Y-77019999D01*
X117511008Y-76996205D01*
X116378688Y-75863886D01*
X116415000Y-75681335D01*
X116415000Y-75398665D01*
X116359853Y-75121426D01*
X116251680Y-74860273D01*
X116094637Y-74625241D01*
X115894759Y-74425363D01*
X115662241Y-74270000D01*
X115894759Y-74114637D01*
X116094637Y-73914759D01*
X116251680Y-73679727D01*
X116359853Y-73418574D01*
X116415000Y-73141335D01*
X116415000Y-72858665D01*
X116359853Y-72581426D01*
X116251680Y-72320273D01*
X116094637Y-72085241D01*
X115894759Y-71885363D01*
X115659727Y-71728320D01*
X115398574Y-71620147D01*
X115121335Y-71565000D01*
X114838665Y-71565000D01*
X114561426Y-71620147D01*
X114300273Y-71728320D01*
X114260000Y-71755229D01*
X114260000Y-70862246D01*
X114264161Y-70820000D01*
X114247556Y-70651410D01*
X114198381Y-70489299D01*
X114148952Y-70396825D01*
X114118524Y-70339898D01*
X114011054Y-70208946D01*
X113978242Y-70182018D01*
X113044673Y-69248450D01*
X113065000Y-69146260D01*
X113065000Y-68853740D01*
X113007932Y-68566842D01*
X112895990Y-68296589D01*
X112733475Y-68053368D01*
X112526632Y-67846525D01*
X112283411Y-67684010D01*
X112013158Y-67572068D01*
X111726260Y-67515000D01*
X111433740Y-67515000D01*
X111146842Y-67572068D01*
X110876589Y-67684010D01*
X110633368Y-67846525D01*
X110426525Y-68053368D01*
X110304805Y-68235534D01*
X110235178Y-68118645D01*
X110040269Y-67902412D01*
X109806920Y-67728359D01*
X109544099Y-67603175D01*
X109396890Y-67558524D01*
X109189867Y-67667777D01*
X110897645Y-65960000D01*
X114510604Y-65960000D01*
X114385363Y-66085241D01*
G37*
%TD.AperFunction*%
D22*
X115107000Y-77953000D02*
X115127000Y-77953000D01*
X115127000Y-78207000D01*
X115107000Y-78207000D01*
X115107000Y-78227000D01*
X114853000Y-78227000D01*
X114853000Y-78207000D01*
X114833000Y-78207000D01*
X114833000Y-77953000D01*
X114853000Y-77953000D01*
X114853000Y-77933000D01*
X115107000Y-77933000D01*
X115107000Y-77953000D01*
%TA.AperFunction,Conductor*%
D23*
G36*
X115107000Y-77953000D02*
G01*
X115127000Y-77953000D01*
X115127000Y-78207000D01*
X115107000Y-78207000D01*
X115107000Y-78227000D01*
X114853000Y-78227000D01*
X114853000Y-78207000D01*
X114833000Y-78207000D01*
X114833000Y-77953000D01*
X114853000Y-77953000D01*
X114853000Y-77933000D01*
X115107000Y-77933000D01*
X115107000Y-77953000D01*
G37*
%TD.AperFunction*%
%TD*%
M02*
