%TF.GenerationSoftware,KiCad,Pcbnew,5.1.9+dfsg1-1~bpo10+1*%
%TF.CreationDate,2022-02-08T03:17:38+08:00*%
%TF.ProjectId,MiniVCF v1.0 - Main,4d696e69-5643-4462-9076-312e30202d20,rev?*%
%TF.SameCoordinates,Original*%
%TF.FileFunction,Legend,Bot*%
%TF.FilePolarity,Positive*%
%FSLAX46Y46*%
G04 Gerber Fmt 4.6, Leading zero omitted, Abs format (unit mm)*
G04 Created by KiCad (PCBNEW 5.1.9+dfsg1-1~bpo10+1) date 2022-02-08 03:17:38*
%MOMM*%
%LPD*%
G01*
G04 APERTURE LIST*
%ADD10C,0.150000*%
%ADD11C,0.120000*%
G04 APERTURE END LIST*
D10*
X119727571Y-112539428D02*
X120013285Y-112539428D01*
X120013285Y-111939428D01*
X119413285Y-111939428D02*
X119299000Y-111939428D01*
X119241857Y-111968000D01*
X119184714Y-112025142D01*
X119156142Y-112139428D01*
X119156142Y-112339428D01*
X119184714Y-112453714D01*
X119241857Y-112510857D01*
X119299000Y-112539428D01*
X119413285Y-112539428D01*
X119470428Y-112510857D01*
X119527571Y-112453714D01*
X119556142Y-112339428D01*
X119556142Y-112139428D01*
X119527571Y-112025142D01*
X119470428Y-111968000D01*
X119413285Y-111939428D01*
X118556142Y-112482285D02*
X118584714Y-112510857D01*
X118670428Y-112539428D01*
X118727571Y-112539428D01*
X118813285Y-112510857D01*
X118870428Y-112453714D01*
X118899000Y-112396571D01*
X118927571Y-112282285D01*
X118927571Y-112196571D01*
X118899000Y-112082285D01*
X118870428Y-112025142D01*
X118813285Y-111968000D01*
X118727571Y-111939428D01*
X118670428Y-111939428D01*
X118584714Y-111968000D01*
X118556142Y-111996571D01*
X118299000Y-112539428D02*
X118299000Y-111939428D01*
X117956142Y-112539428D02*
X118213285Y-112196571D01*
X117956142Y-111939428D02*
X118299000Y-112282285D01*
X113571428Y-65252380D02*
X113571428Y-64252380D01*
X113238095Y-64966666D01*
X112904761Y-64252380D01*
X112904761Y-65252380D01*
X112428571Y-65252380D02*
X112428571Y-64585714D01*
X112428571Y-64252380D02*
X112476190Y-64300000D01*
X112428571Y-64347619D01*
X112380952Y-64300000D01*
X112428571Y-64252380D01*
X112428571Y-64347619D01*
X111952380Y-64585714D02*
X111952380Y-65252380D01*
X111952380Y-64680952D02*
X111904761Y-64633333D01*
X111809523Y-64585714D01*
X111666666Y-64585714D01*
X111571428Y-64633333D01*
X111523809Y-64728571D01*
X111523809Y-65252380D01*
X111047619Y-65252380D02*
X111047619Y-64585714D01*
X111047619Y-64252380D02*
X111095238Y-64300000D01*
X111047619Y-64347619D01*
X111000000Y-64300000D01*
X111047619Y-64252380D01*
X111047619Y-64347619D01*
X110714285Y-64252380D02*
X110380952Y-65252380D01*
X110047619Y-64252380D01*
X109142857Y-65157142D02*
X109190476Y-65204761D01*
X109333333Y-65252380D01*
X109428571Y-65252380D01*
X109571428Y-65204761D01*
X109666666Y-65109523D01*
X109714285Y-65014285D01*
X109761904Y-64823809D01*
X109761904Y-64680952D01*
X109714285Y-64490476D01*
X109666666Y-64395238D01*
X109571428Y-64300000D01*
X109428571Y-64252380D01*
X109333333Y-64252380D01*
X109190476Y-64300000D01*
X109142857Y-64347619D01*
X108380952Y-64728571D02*
X108714285Y-64728571D01*
X108714285Y-65252380D02*
X108714285Y-64252380D01*
X108238095Y-64252380D01*
X107190476Y-64585714D02*
X106952380Y-65252380D01*
X106714285Y-64585714D01*
X105809523Y-65252380D02*
X106380952Y-65252380D01*
X106095238Y-65252380D02*
X106095238Y-64252380D01*
X106190476Y-64395238D01*
X106285714Y-64490476D01*
X106380952Y-64538095D01*
X105380952Y-65157142D02*
X105333333Y-65204761D01*
X105380952Y-65252380D01*
X105428571Y-65204761D01*
X105380952Y-65157142D01*
X105380952Y-65252380D01*
X104714285Y-64252380D02*
X104619047Y-64252380D01*
X104523809Y-64300000D01*
X104476190Y-64347619D01*
X104428571Y-64442857D01*
X104380952Y-64633333D01*
X104380952Y-64871428D01*
X104428571Y-65061904D01*
X104476190Y-65157142D01*
X104523809Y-65204761D01*
X104619047Y-65252380D01*
X104714285Y-65252380D01*
X104809523Y-65204761D01*
X104857142Y-65157142D01*
X104904761Y-65061904D01*
X104952380Y-64871428D01*
X104952380Y-64633333D01*
X104904761Y-64442857D01*
X104857142Y-64347619D01*
X104809523Y-64300000D01*
X104714285Y-64252380D01*
X113419047Y-66361904D02*
X113419047Y-65561904D01*
X113419047Y-65866666D02*
X113342857Y-65828571D01*
X113190476Y-65828571D01*
X113114285Y-65866666D01*
X113076190Y-65904761D01*
X113038095Y-65980952D01*
X113038095Y-66209523D01*
X113076190Y-66285714D01*
X113114285Y-66323809D01*
X113190476Y-66361904D01*
X113342857Y-66361904D01*
X113419047Y-66323809D01*
X112390476Y-66323809D02*
X112466666Y-66361904D01*
X112619047Y-66361904D01*
X112695238Y-66323809D01*
X112733333Y-66247619D01*
X112733333Y-65942857D01*
X112695238Y-65866666D01*
X112619047Y-65828571D01*
X112466666Y-65828571D01*
X112390476Y-65866666D01*
X112352380Y-65942857D01*
X112352380Y-66019047D01*
X112733333Y-66095238D01*
X112009523Y-65828571D02*
X112009523Y-66361904D01*
X112009523Y-65904761D02*
X111971428Y-65866666D01*
X111895238Y-65828571D01*
X111780952Y-65828571D01*
X111704761Y-65866666D01*
X111666666Y-65942857D01*
X111666666Y-66361904D01*
X111285714Y-65828571D02*
X111285714Y-66514285D01*
X111323809Y-66590476D01*
X111400000Y-66628571D01*
X111438095Y-66628571D01*
X111285714Y-65561904D02*
X111323809Y-65600000D01*
X111285714Y-65638095D01*
X111247619Y-65600000D01*
X111285714Y-65561904D01*
X111285714Y-65638095D01*
X110904761Y-66361904D02*
X110904761Y-65828571D01*
X110904761Y-65561904D02*
X110942857Y-65600000D01*
X110904761Y-65638095D01*
X110866666Y-65600000D01*
X110904761Y-65561904D01*
X110904761Y-65638095D01*
X110180952Y-66361904D02*
X110180952Y-65942857D01*
X110219047Y-65866666D01*
X110295238Y-65828571D01*
X110447619Y-65828571D01*
X110523809Y-65866666D01*
X110180952Y-66323809D02*
X110257142Y-66361904D01*
X110447619Y-66361904D01*
X110523809Y-66323809D01*
X110561904Y-66247619D01*
X110561904Y-66171428D01*
X110523809Y-66095238D01*
X110447619Y-66057142D01*
X110257142Y-66057142D01*
X110180952Y-66019047D01*
X109685714Y-66361904D02*
X109761904Y-66323809D01*
X109800000Y-66285714D01*
X109838095Y-66209523D01*
X109838095Y-65980952D01*
X109800000Y-65904761D01*
X109761904Y-65866666D01*
X109685714Y-65828571D01*
X109571428Y-65828571D01*
X109495238Y-65866666D01*
X109457142Y-65904761D01*
X109419047Y-65980952D01*
X109419047Y-66209523D01*
X109457142Y-66285714D01*
X109495238Y-66323809D01*
X109571428Y-66361904D01*
X109685714Y-66361904D01*
X109076190Y-66361904D02*
X109076190Y-65828571D01*
X109076190Y-65904761D02*
X109038095Y-65866666D01*
X108961904Y-65828571D01*
X108847619Y-65828571D01*
X108771428Y-65866666D01*
X108733333Y-65942857D01*
X108733333Y-66361904D01*
X108733333Y-65942857D02*
X108695238Y-65866666D01*
X108619047Y-65828571D01*
X108504761Y-65828571D01*
X108428571Y-65866666D01*
X108390476Y-65942857D01*
X108390476Y-66361904D01*
X107895238Y-66361904D02*
X107971428Y-66323809D01*
X108009523Y-66285714D01*
X108047619Y-66209523D01*
X108047619Y-65980952D01*
X108009523Y-65904761D01*
X107971428Y-65866666D01*
X107895238Y-65828571D01*
X107780952Y-65828571D01*
X107704761Y-65866666D01*
X107666666Y-65904761D01*
X107628571Y-65980952D01*
X107628571Y-66209523D01*
X107666666Y-66285714D01*
X107704761Y-66323809D01*
X107780952Y-66361904D01*
X107895238Y-66361904D01*
X106942857Y-66361904D02*
X106942857Y-65561904D01*
X106942857Y-66323809D02*
X107019047Y-66361904D01*
X107171428Y-66361904D01*
X107247619Y-66323809D01*
X107285714Y-66285714D01*
X107323809Y-66209523D01*
X107323809Y-65980952D01*
X107285714Y-65904761D01*
X107247619Y-65866666D01*
X107171428Y-65828571D01*
X107019047Y-65828571D01*
X106942857Y-65866666D01*
X106219047Y-65828571D02*
X106219047Y-66361904D01*
X106561904Y-65828571D02*
X106561904Y-66247619D01*
X106523809Y-66323809D01*
X106447619Y-66361904D01*
X106333333Y-66361904D01*
X106257142Y-66323809D01*
X106219047Y-66285714D01*
X105723809Y-66361904D02*
X105800000Y-66323809D01*
X105838095Y-66247619D01*
X105838095Y-65561904D01*
X105076190Y-66361904D02*
X105076190Y-65942857D01*
X105114285Y-65866666D01*
X105190476Y-65828571D01*
X105342857Y-65828571D01*
X105419047Y-65866666D01*
X105076190Y-66323809D02*
X105152380Y-66361904D01*
X105342857Y-66361904D01*
X105419047Y-66323809D01*
X105457142Y-66247619D01*
X105457142Y-66171428D01*
X105419047Y-66095238D01*
X105342857Y-66057142D01*
X105152380Y-66057142D01*
X105076190Y-66019047D01*
X104695238Y-66361904D02*
X104695238Y-65828571D01*
X104695238Y-65980952D02*
X104657142Y-65904761D01*
X104619047Y-65866666D01*
X104542857Y-65828571D01*
X104466666Y-65828571D01*
X122047619Y-95666666D02*
X121571428Y-95666666D01*
X122142857Y-95952380D02*
X121809523Y-94952380D01*
X121476190Y-95952380D01*
X121000000Y-95952380D02*
X121095238Y-95904761D01*
X121142857Y-95809523D01*
X121142857Y-94952380D01*
X120476190Y-95952380D02*
X120571428Y-95904761D01*
X120619047Y-95809523D01*
X120619047Y-94952380D01*
X118809523Y-95952380D02*
X119380952Y-95952380D01*
X119095238Y-95952380D02*
X119095238Y-94952380D01*
X119190476Y-95095238D01*
X119285714Y-95190476D01*
X119380952Y-95238095D01*
X118380952Y-95952380D02*
X118380952Y-94952380D01*
X117809523Y-95952380D01*
X117809523Y-94952380D01*
X116904761Y-95285714D02*
X116904761Y-95952380D01*
X117142857Y-94904761D02*
X117380952Y-95619047D01*
X116761904Y-95619047D01*
X115857142Y-95952380D02*
X116428571Y-95952380D01*
X116142857Y-95952380D02*
X116142857Y-94952380D01*
X116238095Y-95095238D01*
X116333333Y-95190476D01*
X116428571Y-95238095D01*
X115000000Y-95285714D02*
X115000000Y-95952380D01*
X115238095Y-94904761D02*
X115476190Y-95619047D01*
X114857142Y-95619047D01*
X114333333Y-95380952D02*
X114428571Y-95333333D01*
X114476190Y-95285714D01*
X114523809Y-95190476D01*
X114523809Y-95142857D01*
X114476190Y-95047619D01*
X114428571Y-95000000D01*
X114333333Y-94952380D01*
X114142857Y-94952380D01*
X114047619Y-95000000D01*
X114000000Y-95047619D01*
X113952380Y-95142857D01*
X113952380Y-95190476D01*
X114000000Y-95285714D01*
X114047619Y-95333333D01*
X114142857Y-95380952D01*
X114333333Y-95380952D01*
X114428571Y-95428571D01*
X114476190Y-95476190D01*
X114523809Y-95571428D01*
X114523809Y-95761904D01*
X114476190Y-95857142D01*
X114428571Y-95904761D01*
X114333333Y-95952380D01*
X114142857Y-95952380D01*
X114047619Y-95904761D01*
X114000000Y-95857142D01*
X113952380Y-95761904D01*
X113952380Y-95571428D01*
X114000000Y-95476190D01*
X114047619Y-95428571D01*
X114142857Y-95380952D01*
D11*
%TO.C,U2*%
X119990000Y-115070000D02*
X121640000Y-115070000D01*
X121640000Y-115070000D02*
X121640000Y-132970000D01*
X121640000Y-132970000D02*
X116340000Y-132970000D01*
X116340000Y-132970000D02*
X116340000Y-115070000D01*
X116340000Y-115070000D02*
X117990000Y-115070000D01*
X124130000Y-115010000D02*
X124130000Y-133030000D01*
X124130000Y-133030000D02*
X113850000Y-133030000D01*
X113850000Y-133030000D02*
X113850000Y-115010000D01*
X113850000Y-115010000D02*
X124130000Y-115010000D01*
X117990000Y-115070000D02*
G75*
G03*
X119990000Y-115070000I1000000J0D01*
G01*
%TO.C,D11*%
X125680000Y-124990000D02*
X127920000Y-124990000D01*
X127920000Y-124990000D02*
X127920000Y-129230000D01*
X127920000Y-129230000D02*
X125680000Y-129230000D01*
X125680000Y-129230000D02*
X125680000Y-124990000D01*
X126800000Y-124340000D02*
X126800000Y-124990000D01*
X126800000Y-129880000D02*
X126800000Y-129230000D01*
X125680000Y-125710000D02*
X127920000Y-125710000D01*
X125680000Y-125830000D02*
X127920000Y-125830000D01*
X125680000Y-125590000D02*
X127920000Y-125590000D01*
%TO.C,C1*%
X125460000Y-99989000D02*
X125057000Y-99989000D01*
X125460000Y-99949000D02*
X125117000Y-99949000D01*
X125460000Y-99909000D02*
X125181000Y-99909000D01*
X127943000Y-99989000D02*
X127540000Y-99989000D01*
X125460000Y-101109000D02*
X124135000Y-101109000D01*
X128848000Y-101069000D02*
X127540000Y-101069000D01*
X125460000Y-101069000D02*
X124152000Y-101069000D01*
X128829000Y-101029000D02*
X127540000Y-101029000D01*
X125460000Y-101029000D02*
X124171000Y-101029000D01*
X128810000Y-100989000D02*
X127540000Y-100989000D01*
X125460000Y-100989000D02*
X124190000Y-100989000D01*
X128199000Y-100189000D02*
X127540000Y-100189000D01*
X125460000Y-100189000D02*
X124801000Y-100189000D01*
X128153000Y-100149000D02*
X127540000Y-100149000D01*
X125460000Y-100149000D02*
X124847000Y-100149000D01*
X128790000Y-100949000D02*
X127540000Y-100949000D01*
X125460000Y-100949000D02*
X124210000Y-100949000D01*
X128768000Y-100909000D02*
X127540000Y-100909000D01*
X125460000Y-100909000D02*
X124232000Y-100909000D01*
X128747000Y-100869000D02*
X127540000Y-100869000D01*
X125460000Y-100869000D02*
X124253000Y-100869000D01*
X128724000Y-100829000D02*
X127540000Y-100829000D01*
X129076000Y-101990000D02*
X123924000Y-101990000D01*
X129073000Y-101950000D02*
X123927000Y-101950000D01*
X129069000Y-101910000D02*
X127540000Y-101910000D01*
X125460000Y-101910000D02*
X123931000Y-101910000D01*
X129065000Y-101870000D02*
X127540000Y-101870000D01*
X125460000Y-101870000D02*
X123935000Y-101870000D01*
X129061000Y-101830000D02*
X127540000Y-101830000D01*
X125460000Y-101830000D02*
X123939000Y-101830000D01*
X129056000Y-101790000D02*
X127540000Y-101790000D01*
X125460000Y-101790000D02*
X123944000Y-101790000D01*
X129050000Y-101750000D02*
X127540000Y-101750000D01*
X125460000Y-101750000D02*
X123950000Y-101750000D01*
X129043000Y-101710000D02*
X127540000Y-101710000D01*
X125460000Y-101710000D02*
X123957000Y-101710000D01*
X129036000Y-101670000D02*
X127540000Y-101670000D01*
X129001000Y-101510000D02*
X127540000Y-101510000D01*
X125460000Y-101510000D02*
X123999000Y-101510000D01*
X128991000Y-101470000D02*
X127540000Y-101470000D01*
X125460000Y-101470000D02*
X124009000Y-101470000D01*
X128980000Y-101429000D02*
X127540000Y-101429000D01*
X125460000Y-101429000D02*
X124020000Y-101429000D01*
X128968000Y-101389000D02*
X127540000Y-101389000D01*
X125460000Y-100549000D02*
X124465000Y-100549000D01*
X128504000Y-100509000D02*
X127540000Y-100509000D01*
X125460000Y-100509000D02*
X124496000Y-100509000D01*
X128471000Y-100469000D02*
X127540000Y-100469000D01*
X125460000Y-100469000D02*
X124529000Y-100469000D01*
X128437000Y-100429000D02*
X127540000Y-100429000D01*
X125460000Y-100429000D02*
X124563000Y-100429000D01*
X128622000Y-100669000D02*
X127540000Y-100669000D01*
X125460000Y-100669000D02*
X124378000Y-100669000D01*
X128595000Y-100629000D02*
X127540000Y-100629000D01*
X125460000Y-100629000D02*
X124405000Y-100629000D01*
X128565000Y-100589000D02*
X127540000Y-100589000D01*
X125460000Y-100589000D02*
X124435000Y-100589000D01*
X128535000Y-100549000D02*
X127540000Y-100549000D01*
X125460000Y-101670000D02*
X123964000Y-101670000D01*
X129028000Y-101630000D02*
X127540000Y-101630000D01*
X125460000Y-101630000D02*
X123972000Y-101630000D01*
X129020000Y-101590000D02*
X127540000Y-101590000D01*
X125460000Y-101590000D02*
X123980000Y-101590000D01*
X129011000Y-101550000D02*
X127540000Y-101550000D01*
X125460000Y-101550000D02*
X123989000Y-101550000D01*
X127883000Y-99949000D02*
X127540000Y-99949000D01*
X128914000Y-101229000D02*
X127540000Y-101229000D01*
X125460000Y-101229000D02*
X124086000Y-101229000D01*
X128898000Y-101189000D02*
X127540000Y-101189000D01*
X125460000Y-101189000D02*
X124102000Y-101189000D01*
X128882000Y-101149000D02*
X127540000Y-101149000D01*
X125460000Y-101149000D02*
X124118000Y-101149000D01*
X128865000Y-101109000D02*
X127540000Y-101109000D01*
X127305000Y-99669000D02*
X125695000Y-99669000D01*
X127177000Y-99629000D02*
X125823000Y-99629000D01*
X127018000Y-99589000D02*
X125982000Y-99589000D01*
X125460000Y-101389000D02*
X124032000Y-101389000D01*
X128955000Y-101349000D02*
X127540000Y-101349000D01*
X125460000Y-101349000D02*
X124045000Y-101349000D01*
X128942000Y-101309000D02*
X127540000Y-101309000D01*
X125460000Y-101309000D02*
X124058000Y-101309000D01*
X128928000Y-101269000D02*
X127540000Y-101269000D01*
X125460000Y-101269000D02*
X124072000Y-101269000D01*
X125460000Y-99869000D02*
X125249000Y-99869000D01*
X128285000Y-100269000D02*
X127540000Y-100269000D01*
X125460000Y-100269000D02*
X124715000Y-100269000D01*
X128243000Y-100229000D02*
X127540000Y-100229000D01*
X125460000Y-100229000D02*
X124757000Y-100229000D01*
X126784000Y-99549000D02*
X126216000Y-99549000D01*
X128225000Y-104704775D02*
X127725000Y-104704775D01*
X127975000Y-104954775D02*
X127975000Y-104454775D01*
X127678000Y-99829000D02*
X125322000Y-99829000D01*
X129120000Y-102150000D02*
G75*
G03*
X129120000Y-102150000I-2620000J0D01*
G01*
X129080000Y-102150000D02*
X123920000Y-102150000D01*
X129080000Y-102110000D02*
X123920000Y-102110000D01*
X129079000Y-102070000D02*
X123921000Y-102070000D01*
X129078000Y-102030000D02*
X123922000Y-102030000D01*
X128000000Y-100029000D02*
X127540000Y-100029000D01*
X125460000Y-100029000D02*
X125000000Y-100029000D01*
X125460000Y-100829000D02*
X124276000Y-100829000D01*
X128700000Y-100789000D02*
X127540000Y-100789000D01*
X125460000Y-100789000D02*
X124300000Y-100789000D01*
X128675000Y-100749000D02*
X127540000Y-100749000D01*
X125460000Y-100749000D02*
X124325000Y-100749000D01*
X128649000Y-100709000D02*
X127540000Y-100709000D01*
X125460000Y-100709000D02*
X124351000Y-100709000D01*
X128105000Y-100109000D02*
X127540000Y-100109000D01*
X125460000Y-100109000D02*
X124895000Y-100109000D01*
X127415000Y-99709000D02*
X125585000Y-99709000D01*
X127751000Y-99869000D02*
X127540000Y-99869000D01*
X127819000Y-99909000D02*
X127540000Y-99909000D01*
X127511000Y-99749000D02*
X125489000Y-99749000D01*
X128054000Y-100069000D02*
X127540000Y-100069000D01*
X125460000Y-100069000D02*
X124946000Y-100069000D01*
X127598000Y-99789000D02*
X125402000Y-99789000D01*
X128401000Y-100389000D02*
X127540000Y-100389000D01*
X125460000Y-100389000D02*
X124599000Y-100389000D01*
X128364000Y-100349000D02*
X127540000Y-100349000D01*
X125460000Y-100349000D02*
X124636000Y-100349000D01*
X128326000Y-100309000D02*
X127540000Y-100309000D01*
X125460000Y-100309000D02*
X124674000Y-100309000D01*
%TO.C,C7*%
X125460000Y-94509000D02*
X124674000Y-94509000D01*
X128326000Y-94509000D02*
X127540000Y-94509000D01*
X125460000Y-94549000D02*
X124636000Y-94549000D01*
X128364000Y-94549000D02*
X127540000Y-94549000D01*
X125460000Y-94589000D02*
X124599000Y-94589000D01*
X128401000Y-94589000D02*
X127540000Y-94589000D01*
X127598000Y-93989000D02*
X125402000Y-93989000D01*
X125460000Y-94269000D02*
X124946000Y-94269000D01*
X128054000Y-94269000D02*
X127540000Y-94269000D01*
X127511000Y-93949000D02*
X125489000Y-93949000D01*
X127819000Y-94109000D02*
X127540000Y-94109000D01*
X127751000Y-94069000D02*
X127540000Y-94069000D01*
X127415000Y-93909000D02*
X125585000Y-93909000D01*
X125460000Y-94309000D02*
X124895000Y-94309000D01*
X128105000Y-94309000D02*
X127540000Y-94309000D01*
X125460000Y-94909000D02*
X124351000Y-94909000D01*
X128649000Y-94909000D02*
X127540000Y-94909000D01*
X125460000Y-94949000D02*
X124325000Y-94949000D01*
X128675000Y-94949000D02*
X127540000Y-94949000D01*
X125460000Y-94989000D02*
X124300000Y-94989000D01*
X128700000Y-94989000D02*
X127540000Y-94989000D01*
X125460000Y-95029000D02*
X124276000Y-95029000D01*
X125460000Y-94229000D02*
X125000000Y-94229000D01*
X128000000Y-94229000D02*
X127540000Y-94229000D01*
X129078000Y-96230000D02*
X123922000Y-96230000D01*
X129079000Y-96270000D02*
X123921000Y-96270000D01*
X129080000Y-96310000D02*
X123920000Y-96310000D01*
X129080000Y-96350000D02*
X123920000Y-96350000D01*
X129120000Y-96350000D02*
G75*
G03*
X129120000Y-96350000I-2620000J0D01*
G01*
X127678000Y-94029000D02*
X125322000Y-94029000D01*
X127975000Y-99154775D02*
X127975000Y-98654775D01*
X128225000Y-98904775D02*
X127725000Y-98904775D01*
X126784000Y-93749000D02*
X126216000Y-93749000D01*
X125460000Y-94429000D02*
X124757000Y-94429000D01*
X128243000Y-94429000D02*
X127540000Y-94429000D01*
X125460000Y-94469000D02*
X124715000Y-94469000D01*
X128285000Y-94469000D02*
X127540000Y-94469000D01*
X125460000Y-94069000D02*
X125249000Y-94069000D01*
X125460000Y-95469000D02*
X124072000Y-95469000D01*
X128928000Y-95469000D02*
X127540000Y-95469000D01*
X125460000Y-95509000D02*
X124058000Y-95509000D01*
X128942000Y-95509000D02*
X127540000Y-95509000D01*
X125460000Y-95549000D02*
X124045000Y-95549000D01*
X128955000Y-95549000D02*
X127540000Y-95549000D01*
X125460000Y-95589000D02*
X124032000Y-95589000D01*
X127018000Y-93789000D02*
X125982000Y-93789000D01*
X127177000Y-93829000D02*
X125823000Y-93829000D01*
X127305000Y-93869000D02*
X125695000Y-93869000D01*
X128865000Y-95309000D02*
X127540000Y-95309000D01*
X125460000Y-95349000D02*
X124118000Y-95349000D01*
X128882000Y-95349000D02*
X127540000Y-95349000D01*
X125460000Y-95389000D02*
X124102000Y-95389000D01*
X128898000Y-95389000D02*
X127540000Y-95389000D01*
X125460000Y-95429000D02*
X124086000Y-95429000D01*
X128914000Y-95429000D02*
X127540000Y-95429000D01*
X127883000Y-94149000D02*
X127540000Y-94149000D01*
X125460000Y-95750000D02*
X123989000Y-95750000D01*
X129011000Y-95750000D02*
X127540000Y-95750000D01*
X125460000Y-95790000D02*
X123980000Y-95790000D01*
X129020000Y-95790000D02*
X127540000Y-95790000D01*
X125460000Y-95830000D02*
X123972000Y-95830000D01*
X129028000Y-95830000D02*
X127540000Y-95830000D01*
X125460000Y-95870000D02*
X123964000Y-95870000D01*
X128535000Y-94749000D02*
X127540000Y-94749000D01*
X125460000Y-94789000D02*
X124435000Y-94789000D01*
X128565000Y-94789000D02*
X127540000Y-94789000D01*
X125460000Y-94829000D02*
X124405000Y-94829000D01*
X128595000Y-94829000D02*
X127540000Y-94829000D01*
X125460000Y-94869000D02*
X124378000Y-94869000D01*
X128622000Y-94869000D02*
X127540000Y-94869000D01*
X125460000Y-94629000D02*
X124563000Y-94629000D01*
X128437000Y-94629000D02*
X127540000Y-94629000D01*
X125460000Y-94669000D02*
X124529000Y-94669000D01*
X128471000Y-94669000D02*
X127540000Y-94669000D01*
X125460000Y-94709000D02*
X124496000Y-94709000D01*
X128504000Y-94709000D02*
X127540000Y-94709000D01*
X125460000Y-94749000D02*
X124465000Y-94749000D01*
X128968000Y-95589000D02*
X127540000Y-95589000D01*
X125460000Y-95629000D02*
X124020000Y-95629000D01*
X128980000Y-95629000D02*
X127540000Y-95629000D01*
X125460000Y-95670000D02*
X124009000Y-95670000D01*
X128991000Y-95670000D02*
X127540000Y-95670000D01*
X125460000Y-95710000D02*
X123999000Y-95710000D01*
X129001000Y-95710000D02*
X127540000Y-95710000D01*
X129036000Y-95870000D02*
X127540000Y-95870000D01*
X125460000Y-95910000D02*
X123957000Y-95910000D01*
X129043000Y-95910000D02*
X127540000Y-95910000D01*
X125460000Y-95950000D02*
X123950000Y-95950000D01*
X129050000Y-95950000D02*
X127540000Y-95950000D01*
X125460000Y-95990000D02*
X123944000Y-95990000D01*
X129056000Y-95990000D02*
X127540000Y-95990000D01*
X125460000Y-96030000D02*
X123939000Y-96030000D01*
X129061000Y-96030000D02*
X127540000Y-96030000D01*
X125460000Y-96070000D02*
X123935000Y-96070000D01*
X129065000Y-96070000D02*
X127540000Y-96070000D01*
X125460000Y-96110000D02*
X123931000Y-96110000D01*
X129069000Y-96110000D02*
X127540000Y-96110000D01*
X129073000Y-96150000D02*
X123927000Y-96150000D01*
X129076000Y-96190000D02*
X123924000Y-96190000D01*
X128724000Y-95029000D02*
X127540000Y-95029000D01*
X125460000Y-95069000D02*
X124253000Y-95069000D01*
X128747000Y-95069000D02*
X127540000Y-95069000D01*
X125460000Y-95109000D02*
X124232000Y-95109000D01*
X128768000Y-95109000D02*
X127540000Y-95109000D01*
X125460000Y-95149000D02*
X124210000Y-95149000D01*
X128790000Y-95149000D02*
X127540000Y-95149000D01*
X125460000Y-94349000D02*
X124847000Y-94349000D01*
X128153000Y-94349000D02*
X127540000Y-94349000D01*
X125460000Y-94389000D02*
X124801000Y-94389000D01*
X128199000Y-94389000D02*
X127540000Y-94389000D01*
X125460000Y-95189000D02*
X124190000Y-95189000D01*
X128810000Y-95189000D02*
X127540000Y-95189000D01*
X125460000Y-95229000D02*
X124171000Y-95229000D01*
X128829000Y-95229000D02*
X127540000Y-95229000D01*
X125460000Y-95269000D02*
X124152000Y-95269000D01*
X128848000Y-95269000D02*
X127540000Y-95269000D01*
X125460000Y-95309000D02*
X124135000Y-95309000D01*
X127943000Y-94189000D02*
X127540000Y-94189000D01*
X125460000Y-94109000D02*
X125181000Y-94109000D01*
X125460000Y-94149000D02*
X125117000Y-94149000D01*
X125460000Y-94189000D02*
X125057000Y-94189000D01*
%TO.C,C10*%
X124830000Y-80780000D02*
X124830000Y-88220000D01*
X127570000Y-80780000D02*
X127570000Y-88220000D01*
X124830000Y-80780000D02*
X127570000Y-80780000D01*
X124830000Y-88220000D02*
X127570000Y-88220000D01*
%TO.C,C11*%
X113120000Y-84870000D02*
X113120000Y-82130000D01*
X105680000Y-84870000D02*
X105680000Y-82130000D01*
X105680000Y-82130000D02*
X113120000Y-82130000D01*
X105680000Y-84870000D02*
X113120000Y-84870000D01*
%TO.C,R1*%
X133670000Y-77460000D02*
X133670000Y-70920000D01*
X133340000Y-77460000D02*
X133670000Y-77460000D01*
X130930000Y-77460000D02*
X130930000Y-70920000D01*
X130930000Y-70920000D02*
X131260000Y-70920000D01*
X131260000Y-77460000D02*
X130930000Y-77460000D01*
X133670000Y-70920000D02*
X133340000Y-70920000D01*
%TO.C,R2*%
X127830000Y-77480000D02*
X128160000Y-77480000D01*
X130240000Y-70940000D02*
X130570000Y-70940000D01*
X130570000Y-77480000D02*
X130240000Y-77480000D01*
X130570000Y-70940000D02*
X130570000Y-77480000D01*
X128160000Y-70940000D02*
X127830000Y-70940000D01*
X127830000Y-70940000D02*
X127830000Y-77480000D01*
%TO.C,R3*%
X127470000Y-70920000D02*
X127140000Y-70920000D01*
X125060000Y-77460000D02*
X124730000Y-77460000D01*
X124730000Y-70920000D02*
X125060000Y-70920000D01*
X124730000Y-77460000D02*
X124730000Y-70920000D01*
X127140000Y-77460000D02*
X127470000Y-77460000D01*
X127470000Y-77460000D02*
X127470000Y-70920000D01*
%TO.C,R6*%
X107120000Y-73770000D02*
X106790000Y-73770000D01*
X104710000Y-80310000D02*
X104380000Y-80310000D01*
X104380000Y-73770000D02*
X104710000Y-73770000D01*
X104380000Y-80310000D02*
X104380000Y-73770000D01*
X106790000Y-80310000D02*
X107120000Y-80310000D01*
X107120000Y-80310000D02*
X107120000Y-73770000D01*
%TO.C,R10*%
X107430000Y-80330000D02*
X107760000Y-80330000D01*
X109840000Y-73790000D02*
X110170000Y-73790000D01*
X110170000Y-80330000D02*
X109840000Y-80330000D01*
X110170000Y-73790000D02*
X110170000Y-80330000D01*
X107760000Y-73790000D02*
X107430000Y-73790000D01*
X107430000Y-73790000D02*
X107430000Y-80330000D01*
%TO.C,R12*%
X110480000Y-73790000D02*
X110480000Y-80330000D01*
X110810000Y-73790000D02*
X110480000Y-73790000D01*
X113220000Y-73790000D02*
X113220000Y-80330000D01*
X113220000Y-80330000D02*
X112890000Y-80330000D01*
X112890000Y-73790000D02*
X113220000Y-73790000D01*
X110480000Y-80330000D02*
X110810000Y-80330000D01*
%TO.C,U1*%
X113650000Y-71610000D02*
X123930000Y-71610000D01*
X113650000Y-89630000D02*
X113650000Y-71610000D01*
X123930000Y-89630000D02*
X113650000Y-89630000D01*
X123930000Y-71610000D02*
X123930000Y-89630000D01*
X116140000Y-71670000D02*
X117790000Y-71670000D01*
X116140000Y-89570000D02*
X116140000Y-71670000D01*
X121440000Y-89570000D02*
X116140000Y-89570000D01*
X121440000Y-71670000D02*
X121440000Y-89570000D01*
X119790000Y-71670000D02*
X121440000Y-71670000D01*
X117790000Y-71670000D02*
G75*
G03*
X119790000Y-71670000I1000000J0D01*
G01*
%TO.C,C8*%
X120195225Y-68725000D02*
X120195225Y-68225000D01*
X119945225Y-68475000D02*
X120445225Y-68475000D01*
X125351000Y-67284000D02*
X125351000Y-66716000D01*
X125311000Y-67518000D02*
X125311000Y-66482000D01*
X125271000Y-67677000D02*
X125271000Y-66323000D01*
X125231000Y-67805000D02*
X125231000Y-66195000D01*
X125191000Y-67915000D02*
X125191000Y-66085000D01*
X125151000Y-68011000D02*
X125151000Y-65989000D01*
X125111000Y-68098000D02*
X125111000Y-65902000D01*
X125071000Y-68178000D02*
X125071000Y-65822000D01*
X125031000Y-65960000D02*
X125031000Y-65749000D01*
X125031000Y-68251000D02*
X125031000Y-68040000D01*
X124991000Y-65960000D02*
X124991000Y-65681000D01*
X124991000Y-68319000D02*
X124991000Y-68040000D01*
X124951000Y-65960000D02*
X124951000Y-65617000D01*
X124951000Y-68383000D02*
X124951000Y-68040000D01*
X124911000Y-65960000D02*
X124911000Y-65557000D01*
X124911000Y-68443000D02*
X124911000Y-68040000D01*
X124871000Y-65960000D02*
X124871000Y-65500000D01*
X124871000Y-68500000D02*
X124871000Y-68040000D01*
X124831000Y-65960000D02*
X124831000Y-65446000D01*
X124831000Y-68554000D02*
X124831000Y-68040000D01*
X124791000Y-65960000D02*
X124791000Y-65395000D01*
X124791000Y-68605000D02*
X124791000Y-68040000D01*
X124751000Y-65960000D02*
X124751000Y-65347000D01*
X124751000Y-68653000D02*
X124751000Y-68040000D01*
X124711000Y-65960000D02*
X124711000Y-65301000D01*
X124711000Y-68699000D02*
X124711000Y-68040000D01*
X124671000Y-65960000D02*
X124671000Y-65257000D01*
X124671000Y-68743000D02*
X124671000Y-68040000D01*
X124631000Y-65960000D02*
X124631000Y-65215000D01*
X124631000Y-68785000D02*
X124631000Y-68040000D01*
X124591000Y-65960000D02*
X124591000Y-65174000D01*
X124591000Y-68826000D02*
X124591000Y-68040000D01*
X124551000Y-65960000D02*
X124551000Y-65136000D01*
X124551000Y-68864000D02*
X124551000Y-68040000D01*
X124511000Y-65960000D02*
X124511000Y-65099000D01*
X124511000Y-68901000D02*
X124511000Y-68040000D01*
X124471000Y-65960000D02*
X124471000Y-65063000D01*
X124471000Y-68937000D02*
X124471000Y-68040000D01*
X124431000Y-65960000D02*
X124431000Y-65029000D01*
X124431000Y-68971000D02*
X124431000Y-68040000D01*
X124391000Y-65960000D02*
X124391000Y-64996000D01*
X124391000Y-69004000D02*
X124391000Y-68040000D01*
X124351000Y-65960000D02*
X124351000Y-64965000D01*
X124351000Y-69035000D02*
X124351000Y-68040000D01*
X124311000Y-65960000D02*
X124311000Y-64935000D01*
X124311000Y-69065000D02*
X124311000Y-68040000D01*
X124271000Y-65960000D02*
X124271000Y-64905000D01*
X124271000Y-69095000D02*
X124271000Y-68040000D01*
X124231000Y-65960000D02*
X124231000Y-64878000D01*
X124231000Y-69122000D02*
X124231000Y-68040000D01*
X124191000Y-65960000D02*
X124191000Y-64851000D01*
X124191000Y-69149000D02*
X124191000Y-68040000D01*
X124151000Y-65960000D02*
X124151000Y-64825000D01*
X124151000Y-69175000D02*
X124151000Y-68040000D01*
X124111000Y-65960000D02*
X124111000Y-64800000D01*
X124111000Y-69200000D02*
X124111000Y-68040000D01*
X124071000Y-65960000D02*
X124071000Y-64776000D01*
X124071000Y-69224000D02*
X124071000Y-68040000D01*
X124031000Y-65960000D02*
X124031000Y-64753000D01*
X124031000Y-69247000D02*
X124031000Y-68040000D01*
X123991000Y-65960000D02*
X123991000Y-64732000D01*
X123991000Y-69268000D02*
X123991000Y-68040000D01*
X123951000Y-65960000D02*
X123951000Y-64710000D01*
X123951000Y-69290000D02*
X123951000Y-68040000D01*
X123911000Y-65960000D02*
X123911000Y-64690000D01*
X123911000Y-69310000D02*
X123911000Y-68040000D01*
X123871000Y-65960000D02*
X123871000Y-64671000D01*
X123871000Y-69329000D02*
X123871000Y-68040000D01*
X123831000Y-65960000D02*
X123831000Y-64652000D01*
X123831000Y-69348000D02*
X123831000Y-68040000D01*
X123791000Y-65960000D02*
X123791000Y-64635000D01*
X123791000Y-69365000D02*
X123791000Y-68040000D01*
X123751000Y-65960000D02*
X123751000Y-64618000D01*
X123751000Y-69382000D02*
X123751000Y-68040000D01*
X123711000Y-65960000D02*
X123711000Y-64602000D01*
X123711000Y-69398000D02*
X123711000Y-68040000D01*
X123671000Y-65960000D02*
X123671000Y-64586000D01*
X123671000Y-69414000D02*
X123671000Y-68040000D01*
X123631000Y-65960000D02*
X123631000Y-64572000D01*
X123631000Y-69428000D02*
X123631000Y-68040000D01*
X123591000Y-65960000D02*
X123591000Y-64558000D01*
X123591000Y-69442000D02*
X123591000Y-68040000D01*
X123551000Y-65960000D02*
X123551000Y-64545000D01*
X123551000Y-69455000D02*
X123551000Y-68040000D01*
X123511000Y-65960000D02*
X123511000Y-64532000D01*
X123511000Y-69468000D02*
X123511000Y-68040000D01*
X123471000Y-65960000D02*
X123471000Y-64520000D01*
X123471000Y-69480000D02*
X123471000Y-68040000D01*
X123430000Y-65960000D02*
X123430000Y-64509000D01*
X123430000Y-69491000D02*
X123430000Y-68040000D01*
X123390000Y-65960000D02*
X123390000Y-64499000D01*
X123390000Y-69501000D02*
X123390000Y-68040000D01*
X123350000Y-65960000D02*
X123350000Y-64489000D01*
X123350000Y-69511000D02*
X123350000Y-68040000D01*
X123310000Y-65960000D02*
X123310000Y-64480000D01*
X123310000Y-69520000D02*
X123310000Y-68040000D01*
X123270000Y-65960000D02*
X123270000Y-64472000D01*
X123270000Y-69528000D02*
X123270000Y-68040000D01*
X123230000Y-65960000D02*
X123230000Y-64464000D01*
X123230000Y-69536000D02*
X123230000Y-68040000D01*
X123190000Y-65960000D02*
X123190000Y-64457000D01*
X123190000Y-69543000D02*
X123190000Y-68040000D01*
X123150000Y-65960000D02*
X123150000Y-64450000D01*
X123150000Y-69550000D02*
X123150000Y-68040000D01*
X123110000Y-65960000D02*
X123110000Y-64444000D01*
X123110000Y-69556000D02*
X123110000Y-68040000D01*
X123070000Y-65960000D02*
X123070000Y-64439000D01*
X123070000Y-69561000D02*
X123070000Y-68040000D01*
X123030000Y-65960000D02*
X123030000Y-64435000D01*
X123030000Y-69565000D02*
X123030000Y-68040000D01*
X122990000Y-65960000D02*
X122990000Y-64431000D01*
X122990000Y-69569000D02*
X122990000Y-68040000D01*
X122950000Y-69573000D02*
X122950000Y-64427000D01*
X122910000Y-69576000D02*
X122910000Y-64424000D01*
X122870000Y-69578000D02*
X122870000Y-64422000D01*
X122830000Y-69579000D02*
X122830000Y-64421000D01*
X122790000Y-69580000D02*
X122790000Y-64420000D01*
X122750000Y-69580000D02*
X122750000Y-64420000D01*
X125370000Y-67000000D02*
G75*
G03*
X125370000Y-67000000I-2620000J0D01*
G01*
%TO.C,C9*%
X119370000Y-67000000D02*
G75*
G03*
X119370000Y-67000000I-2620000J0D01*
G01*
X116750000Y-64420000D02*
X116750000Y-69580000D01*
X116710000Y-64420000D02*
X116710000Y-69580000D01*
X116670000Y-64421000D02*
X116670000Y-69579000D01*
X116630000Y-64422000D02*
X116630000Y-69578000D01*
X116590000Y-64424000D02*
X116590000Y-69576000D01*
X116550000Y-64427000D02*
X116550000Y-69573000D01*
X116510000Y-64431000D02*
X116510000Y-65960000D01*
X116510000Y-68040000D02*
X116510000Y-69569000D01*
X116470000Y-64435000D02*
X116470000Y-65960000D01*
X116470000Y-68040000D02*
X116470000Y-69565000D01*
X116430000Y-64439000D02*
X116430000Y-65960000D01*
X116430000Y-68040000D02*
X116430000Y-69561000D01*
X116390000Y-64444000D02*
X116390000Y-65960000D01*
X116390000Y-68040000D02*
X116390000Y-69556000D01*
X116350000Y-64450000D02*
X116350000Y-65960000D01*
X116350000Y-68040000D02*
X116350000Y-69550000D01*
X116310000Y-64457000D02*
X116310000Y-65960000D01*
X116310000Y-68040000D02*
X116310000Y-69543000D01*
X116270000Y-64464000D02*
X116270000Y-65960000D01*
X116270000Y-68040000D02*
X116270000Y-69536000D01*
X116230000Y-64472000D02*
X116230000Y-65960000D01*
X116230000Y-68040000D02*
X116230000Y-69528000D01*
X116190000Y-64480000D02*
X116190000Y-65960000D01*
X116190000Y-68040000D02*
X116190000Y-69520000D01*
X116150000Y-64489000D02*
X116150000Y-65960000D01*
X116150000Y-68040000D02*
X116150000Y-69511000D01*
X116110000Y-64499000D02*
X116110000Y-65960000D01*
X116110000Y-68040000D02*
X116110000Y-69501000D01*
X116070000Y-64509000D02*
X116070000Y-65960000D01*
X116070000Y-68040000D02*
X116070000Y-69491000D01*
X116029000Y-64520000D02*
X116029000Y-65960000D01*
X116029000Y-68040000D02*
X116029000Y-69480000D01*
X115989000Y-64532000D02*
X115989000Y-65960000D01*
X115989000Y-68040000D02*
X115989000Y-69468000D01*
X115949000Y-64545000D02*
X115949000Y-65960000D01*
X115949000Y-68040000D02*
X115949000Y-69455000D01*
X115909000Y-64558000D02*
X115909000Y-65960000D01*
X115909000Y-68040000D02*
X115909000Y-69442000D01*
X115869000Y-64572000D02*
X115869000Y-65960000D01*
X115869000Y-68040000D02*
X115869000Y-69428000D01*
X115829000Y-64586000D02*
X115829000Y-65960000D01*
X115829000Y-68040000D02*
X115829000Y-69414000D01*
X115789000Y-64602000D02*
X115789000Y-65960000D01*
X115789000Y-68040000D02*
X115789000Y-69398000D01*
X115749000Y-64618000D02*
X115749000Y-65960000D01*
X115749000Y-68040000D02*
X115749000Y-69382000D01*
X115709000Y-64635000D02*
X115709000Y-65960000D01*
X115709000Y-68040000D02*
X115709000Y-69365000D01*
X115669000Y-64652000D02*
X115669000Y-65960000D01*
X115669000Y-68040000D02*
X115669000Y-69348000D01*
X115629000Y-64671000D02*
X115629000Y-65960000D01*
X115629000Y-68040000D02*
X115629000Y-69329000D01*
X115589000Y-64690000D02*
X115589000Y-65960000D01*
X115589000Y-68040000D02*
X115589000Y-69310000D01*
X115549000Y-64710000D02*
X115549000Y-65960000D01*
X115549000Y-68040000D02*
X115549000Y-69290000D01*
X115509000Y-64732000D02*
X115509000Y-65960000D01*
X115509000Y-68040000D02*
X115509000Y-69268000D01*
X115469000Y-64753000D02*
X115469000Y-65960000D01*
X115469000Y-68040000D02*
X115469000Y-69247000D01*
X115429000Y-64776000D02*
X115429000Y-65960000D01*
X115429000Y-68040000D02*
X115429000Y-69224000D01*
X115389000Y-64800000D02*
X115389000Y-65960000D01*
X115389000Y-68040000D02*
X115389000Y-69200000D01*
X115349000Y-64825000D02*
X115349000Y-65960000D01*
X115349000Y-68040000D02*
X115349000Y-69175000D01*
X115309000Y-64851000D02*
X115309000Y-65960000D01*
X115309000Y-68040000D02*
X115309000Y-69149000D01*
X115269000Y-64878000D02*
X115269000Y-65960000D01*
X115269000Y-68040000D02*
X115269000Y-69122000D01*
X115229000Y-64905000D02*
X115229000Y-65960000D01*
X115229000Y-68040000D02*
X115229000Y-69095000D01*
X115189000Y-64935000D02*
X115189000Y-65960000D01*
X115189000Y-68040000D02*
X115189000Y-69065000D01*
X115149000Y-64965000D02*
X115149000Y-65960000D01*
X115149000Y-68040000D02*
X115149000Y-69035000D01*
X115109000Y-64996000D02*
X115109000Y-65960000D01*
X115109000Y-68040000D02*
X115109000Y-69004000D01*
X115069000Y-65029000D02*
X115069000Y-65960000D01*
X115069000Y-68040000D02*
X115069000Y-68971000D01*
X115029000Y-65063000D02*
X115029000Y-65960000D01*
X115029000Y-68040000D02*
X115029000Y-68937000D01*
X114989000Y-65099000D02*
X114989000Y-65960000D01*
X114989000Y-68040000D02*
X114989000Y-68901000D01*
X114949000Y-65136000D02*
X114949000Y-65960000D01*
X114949000Y-68040000D02*
X114949000Y-68864000D01*
X114909000Y-65174000D02*
X114909000Y-65960000D01*
X114909000Y-68040000D02*
X114909000Y-68826000D01*
X114869000Y-65215000D02*
X114869000Y-65960000D01*
X114869000Y-68040000D02*
X114869000Y-68785000D01*
X114829000Y-65257000D02*
X114829000Y-65960000D01*
X114829000Y-68040000D02*
X114829000Y-68743000D01*
X114789000Y-65301000D02*
X114789000Y-65960000D01*
X114789000Y-68040000D02*
X114789000Y-68699000D01*
X114749000Y-65347000D02*
X114749000Y-65960000D01*
X114749000Y-68040000D02*
X114749000Y-68653000D01*
X114709000Y-65395000D02*
X114709000Y-65960000D01*
X114709000Y-68040000D02*
X114709000Y-68605000D01*
X114669000Y-65446000D02*
X114669000Y-65960000D01*
X114669000Y-68040000D02*
X114669000Y-68554000D01*
X114629000Y-65500000D02*
X114629000Y-65960000D01*
X114629000Y-68040000D02*
X114629000Y-68500000D01*
X114589000Y-65557000D02*
X114589000Y-65960000D01*
X114589000Y-68040000D02*
X114589000Y-68443000D01*
X114549000Y-65617000D02*
X114549000Y-65960000D01*
X114549000Y-68040000D02*
X114549000Y-68383000D01*
X114509000Y-65681000D02*
X114509000Y-65960000D01*
X114509000Y-68040000D02*
X114509000Y-68319000D01*
X114469000Y-65749000D02*
X114469000Y-65960000D01*
X114469000Y-68040000D02*
X114469000Y-68251000D01*
X114429000Y-65822000D02*
X114429000Y-68178000D01*
X114389000Y-65902000D02*
X114389000Y-68098000D01*
X114349000Y-65989000D02*
X114349000Y-68011000D01*
X114309000Y-66085000D02*
X114309000Y-67915000D01*
X114269000Y-66195000D02*
X114269000Y-67805000D01*
X114229000Y-66323000D02*
X114229000Y-67677000D01*
X114189000Y-66482000D02*
X114189000Y-67518000D01*
X114149000Y-66716000D02*
X114149000Y-67284000D01*
X119554775Y-65525000D02*
X119054775Y-65525000D01*
X119304775Y-65275000D02*
X119304775Y-65775000D01*
%TO.C,J1*%
X133060000Y-64760000D02*
X127090000Y-64760000D01*
X127090000Y-64760000D02*
X127090000Y-54640000D01*
X127090000Y-54640000D02*
X133060000Y-54640000D01*
X133060000Y-54640000D02*
X133060000Y-64760000D01*
X133050000Y-61450000D02*
X132300000Y-61450000D01*
X132300000Y-61450000D02*
X132300000Y-57950000D01*
X132300000Y-57950000D02*
X133050000Y-57950000D01*
X133050000Y-57950000D02*
X133050000Y-61450000D01*
X133050000Y-64750000D02*
X132300000Y-64750000D01*
X132300000Y-64750000D02*
X132300000Y-62950000D01*
X132300000Y-62950000D02*
X133050000Y-62950000D01*
X133050000Y-62950000D02*
X133050000Y-64750000D01*
X133050000Y-56450000D02*
X132300000Y-56450000D01*
X132300000Y-56450000D02*
X132300000Y-54650000D01*
X132300000Y-54650000D02*
X133050000Y-54650000D01*
X133050000Y-54650000D02*
X133050000Y-56450000D01*
X130800000Y-64750000D02*
X130800000Y-64000000D01*
X130800000Y-64000000D02*
X127850000Y-64000000D01*
X127850000Y-64000000D02*
X127850000Y-59700000D01*
X130800000Y-54650000D02*
X130800000Y-55400000D01*
X130800000Y-55400000D02*
X127850000Y-55400000D01*
X127850000Y-55400000D02*
X127850000Y-59700000D01*
X133350000Y-63800000D02*
X133350000Y-65050000D01*
X133350000Y-65050000D02*
X132100000Y-65050000D01*
%TO.C,J2*%
X104790000Y-54610000D02*
X104790000Y-63730000D01*
X104790000Y-63730000D02*
X125370000Y-63730000D01*
X125370000Y-63730000D02*
X125370000Y-54610000D01*
X125370000Y-54610000D02*
X104790000Y-54610000D01*
X113030000Y-54610000D02*
X113030000Y-55920000D01*
X113030000Y-55920000D02*
X106090000Y-55920000D01*
X106090000Y-55920000D02*
X106090000Y-62420000D01*
X106090000Y-62420000D02*
X124070000Y-62420000D01*
X124070000Y-62420000D02*
X124070000Y-55920000D01*
X124070000Y-55920000D02*
X117130000Y-55920000D01*
X117130000Y-55920000D02*
X117130000Y-55920000D01*
X117130000Y-55920000D02*
X117130000Y-54610000D01*
X110000000Y-54220000D02*
X109500000Y-53220000D01*
X109500000Y-53220000D02*
X110500000Y-53220000D01*
X110500000Y-53220000D02*
X110000000Y-54220000D01*
%TO.C,C2*%
X112720000Y-96330000D02*
X112720000Y-99070000D01*
X112720000Y-99070000D02*
X105280000Y-99070000D01*
X112720000Y-96330000D02*
X105280000Y-96330000D01*
X105280000Y-96330000D02*
X105280000Y-99070000D01*
%TO.C,C3*%
X105280000Y-99430000D02*
X105280000Y-102170000D01*
X112720000Y-99430000D02*
X105280000Y-99430000D01*
X112720000Y-102170000D02*
X105280000Y-102170000D01*
X112720000Y-99430000D02*
X112720000Y-102170000D01*
%TO.C,C4*%
X105280000Y-102530000D02*
X105280000Y-105270000D01*
X112720000Y-102530000D02*
X105280000Y-102530000D01*
X112720000Y-105270000D02*
X105280000Y-105270000D01*
X112720000Y-102530000D02*
X112720000Y-105270000D01*
%TO.C,C5*%
X112720000Y-105630000D02*
X112720000Y-108370000D01*
X112720000Y-108370000D02*
X105280000Y-108370000D01*
X112720000Y-105630000D02*
X105280000Y-105630000D01*
X105280000Y-105630000D02*
X105280000Y-108370000D01*
%TO.C,C6*%
X105280000Y-108730000D02*
X105280000Y-111470000D01*
X112720000Y-108730000D02*
X105280000Y-108730000D01*
X112720000Y-111470000D02*
X105280000Y-111470000D01*
X112720000Y-108730000D02*
X112720000Y-111470000D01*
%TO.C,C12*%
X124980000Y-119370000D02*
X132420000Y-119370000D01*
X124980000Y-116630000D02*
X132420000Y-116630000D01*
X124980000Y-119370000D02*
X124980000Y-116630000D01*
X132420000Y-119370000D02*
X132420000Y-116630000D01*
%TO.C,C13*%
X113420000Y-121770000D02*
X113420000Y-119030000D01*
X105980000Y-121770000D02*
X105980000Y-119030000D01*
X105980000Y-119030000D02*
X113420000Y-119030000D01*
X105980000Y-121770000D02*
X113420000Y-121770000D01*
%TO.C,D1*%
X119310000Y-96380000D02*
X119310000Y-98620000D01*
X119070000Y-96380000D02*
X119070000Y-98620000D01*
X119190000Y-96380000D02*
X119190000Y-98620000D01*
X115020000Y-97500000D02*
X115670000Y-97500000D01*
X120560000Y-97500000D02*
X119910000Y-97500000D01*
X115670000Y-96380000D02*
X119910000Y-96380000D01*
X115670000Y-98620000D02*
X115670000Y-96380000D01*
X119910000Y-98620000D02*
X115670000Y-98620000D01*
X119910000Y-96380000D02*
X119910000Y-98620000D01*
%TO.C,D2*%
X119910000Y-98880000D02*
X119910000Y-101120000D01*
X119910000Y-101120000D02*
X115670000Y-101120000D01*
X115670000Y-101120000D02*
X115670000Y-98880000D01*
X115670000Y-98880000D02*
X119910000Y-98880000D01*
X120560000Y-100000000D02*
X119910000Y-100000000D01*
X115020000Y-100000000D02*
X115670000Y-100000000D01*
X119190000Y-98880000D02*
X119190000Y-101120000D01*
X119070000Y-98880000D02*
X119070000Y-101120000D01*
X119310000Y-98880000D02*
X119310000Y-101120000D01*
%TO.C,D3*%
X119310000Y-101380000D02*
X119310000Y-103620000D01*
X119070000Y-101380000D02*
X119070000Y-103620000D01*
X119190000Y-101380000D02*
X119190000Y-103620000D01*
X115020000Y-102500000D02*
X115670000Y-102500000D01*
X120560000Y-102500000D02*
X119910000Y-102500000D01*
X115670000Y-101380000D02*
X119910000Y-101380000D01*
X115670000Y-103620000D02*
X115670000Y-101380000D01*
X119910000Y-103620000D02*
X115670000Y-103620000D01*
X119910000Y-101380000D02*
X119910000Y-103620000D01*
%TO.C,D4*%
X119330000Y-103980000D02*
X119330000Y-106220000D01*
X119090000Y-103980000D02*
X119090000Y-106220000D01*
X119210000Y-103980000D02*
X119210000Y-106220000D01*
X115040000Y-105100000D02*
X115690000Y-105100000D01*
X120580000Y-105100000D02*
X119930000Y-105100000D01*
X115690000Y-103980000D02*
X119930000Y-103980000D01*
X115690000Y-106220000D02*
X115690000Y-103980000D01*
X119930000Y-106220000D02*
X115690000Y-106220000D01*
X119930000Y-103980000D02*
X119930000Y-106220000D01*
%TO.C,D5*%
X119910000Y-106580000D02*
X119910000Y-108820000D01*
X119910000Y-108820000D02*
X115670000Y-108820000D01*
X115670000Y-108820000D02*
X115670000Y-106580000D01*
X115670000Y-106580000D02*
X119910000Y-106580000D01*
X120560000Y-107700000D02*
X119910000Y-107700000D01*
X115020000Y-107700000D02*
X115670000Y-107700000D01*
X119190000Y-106580000D02*
X119190000Y-108820000D01*
X119070000Y-106580000D02*
X119070000Y-108820000D01*
X119310000Y-106580000D02*
X119310000Y-108820000D01*
%TO.C,D6*%
X119310000Y-109180000D02*
X119310000Y-111420000D01*
X119070000Y-109180000D02*
X119070000Y-111420000D01*
X119190000Y-109180000D02*
X119190000Y-111420000D01*
X115020000Y-110300000D02*
X115670000Y-110300000D01*
X120560000Y-110300000D02*
X119910000Y-110300000D01*
X115670000Y-109180000D02*
X119910000Y-109180000D01*
X115670000Y-111420000D02*
X115670000Y-109180000D01*
X119910000Y-111420000D02*
X115670000Y-111420000D01*
X119910000Y-109180000D02*
X119910000Y-111420000D01*
%TO.C,D10*%
X130420000Y-129210000D02*
X128180000Y-129210000D01*
X128180000Y-129210000D02*
X128180000Y-124970000D01*
X128180000Y-124970000D02*
X130420000Y-124970000D01*
X130420000Y-124970000D02*
X130420000Y-129210000D01*
X129300000Y-129860000D02*
X129300000Y-129210000D01*
X129300000Y-124320000D02*
X129300000Y-124970000D01*
X130420000Y-128490000D02*
X128180000Y-128490000D01*
X130420000Y-128370000D02*
X128180000Y-128370000D01*
X130420000Y-128610000D02*
X128180000Y-128610000D01*
%TO.C,R4*%
X106720000Y-90230000D02*
X106720000Y-90560000D01*
X113260000Y-92640000D02*
X113260000Y-92970000D01*
X106720000Y-92970000D02*
X106720000Y-92640000D01*
X113260000Y-92970000D02*
X106720000Y-92970000D01*
X113260000Y-90560000D02*
X113260000Y-90230000D01*
X113260000Y-90230000D02*
X106720000Y-90230000D01*
%TO.C,R5*%
X127630000Y-107940000D02*
X127630000Y-114480000D01*
X127960000Y-107940000D02*
X127630000Y-107940000D01*
X130370000Y-107940000D02*
X130370000Y-114480000D01*
X130370000Y-114480000D02*
X130040000Y-114480000D01*
X130040000Y-107940000D02*
X130370000Y-107940000D01*
X127630000Y-114480000D02*
X127960000Y-114480000D01*
%TO.C,R7*%
X127370000Y-107920000D02*
X127040000Y-107920000D01*
X124960000Y-114460000D02*
X124630000Y-114460000D01*
X124630000Y-107920000D02*
X124960000Y-107920000D01*
X124630000Y-114460000D02*
X124630000Y-107920000D01*
X127040000Y-114460000D02*
X127370000Y-114460000D01*
X127370000Y-114460000D02*
X127370000Y-107920000D01*
%TO.C,R8*%
X130630000Y-107940000D02*
X130630000Y-114480000D01*
X130960000Y-107940000D02*
X130630000Y-107940000D01*
X133370000Y-107940000D02*
X133370000Y-114480000D01*
X133370000Y-114480000D02*
X133040000Y-114480000D01*
X133040000Y-107940000D02*
X133370000Y-107940000D01*
X130630000Y-114480000D02*
X130960000Y-114480000D01*
%TO.C,R9*%
X113280000Y-96070000D02*
X113280000Y-95740000D01*
X106740000Y-93660000D02*
X106740000Y-93330000D01*
X113280000Y-93330000D02*
X113280000Y-93660000D01*
X106740000Y-93330000D02*
X113280000Y-93330000D01*
X106740000Y-95740000D02*
X106740000Y-96070000D01*
X106740000Y-96070000D02*
X113280000Y-96070000D01*
%TO.C,R11*%
X123060000Y-90230000D02*
X116520000Y-90230000D01*
X123060000Y-90560000D02*
X123060000Y-90230000D01*
X123060000Y-92970000D02*
X116520000Y-92970000D01*
X116520000Y-92970000D02*
X116520000Y-92640000D01*
X123060000Y-92640000D02*
X123060000Y-92970000D01*
X116520000Y-90230000D02*
X116520000Y-90560000D01*
%TO.C,R16*%
X133470000Y-123820000D02*
X133140000Y-123820000D01*
X131060000Y-130360000D02*
X130730000Y-130360000D01*
X130730000Y-123820000D02*
X131060000Y-123820000D01*
X130730000Y-130360000D02*
X130730000Y-123820000D01*
X133140000Y-130360000D02*
X133470000Y-130360000D01*
X133470000Y-130360000D02*
X133470000Y-123820000D01*
%TO.C,R17*%
X110630000Y-131480000D02*
X110960000Y-131480000D01*
X113040000Y-124940000D02*
X113370000Y-124940000D01*
X113370000Y-131480000D02*
X113040000Y-131480000D01*
X113370000Y-124940000D02*
X113370000Y-131480000D01*
X110960000Y-124940000D02*
X110630000Y-124940000D01*
X110630000Y-124940000D02*
X110630000Y-131480000D01*
%TO.C,R18*%
X113260000Y-111830000D02*
X106720000Y-111830000D01*
X113260000Y-112160000D02*
X113260000Y-111830000D01*
X113260000Y-114570000D02*
X106720000Y-114570000D01*
X106720000Y-114570000D02*
X106720000Y-114240000D01*
X113260000Y-114240000D02*
X113260000Y-114570000D01*
X106720000Y-111830000D02*
X106720000Y-112160000D01*
%TO.C,R19*%
X104630000Y-124940000D02*
X104630000Y-131480000D01*
X104960000Y-124940000D02*
X104630000Y-124940000D01*
X107370000Y-124940000D02*
X107370000Y-131480000D01*
X107370000Y-131480000D02*
X107040000Y-131480000D01*
X107040000Y-124940000D02*
X107370000Y-124940000D01*
X104630000Y-131480000D02*
X104960000Y-131480000D01*
%TO.C,R21*%
X107630000Y-131480000D02*
X107960000Y-131480000D01*
X110040000Y-124940000D02*
X110370000Y-124940000D01*
X110370000Y-131480000D02*
X110040000Y-131480000D01*
X110370000Y-124940000D02*
X110370000Y-131480000D01*
X107960000Y-124940000D02*
X107630000Y-124940000D01*
X107630000Y-124940000D02*
X107630000Y-131480000D01*
%TO.C,U2*%
D10*
X119751904Y-113522380D02*
X119751904Y-114331904D01*
X119704285Y-114427142D01*
X119656666Y-114474761D01*
X119561428Y-114522380D01*
X119370952Y-114522380D01*
X119275714Y-114474761D01*
X119228095Y-114427142D01*
X119180476Y-114331904D01*
X119180476Y-113522380D01*
X118751904Y-113617619D02*
X118704285Y-113570000D01*
X118609047Y-113522380D01*
X118370952Y-113522380D01*
X118275714Y-113570000D01*
X118228095Y-113617619D01*
X118180476Y-113712857D01*
X118180476Y-113808095D01*
X118228095Y-113950952D01*
X118799523Y-114522380D01*
X118180476Y-114522380D01*
%TO.C,D11*%
X128014285Y-133052380D02*
X128014285Y-132052380D01*
X127776190Y-132052380D01*
X127633333Y-132100000D01*
X127538095Y-132195238D01*
X127490476Y-132290476D01*
X127442857Y-132480952D01*
X127442857Y-132623809D01*
X127490476Y-132814285D01*
X127538095Y-132909523D01*
X127633333Y-133004761D01*
X127776190Y-133052380D01*
X128014285Y-133052380D01*
X126490476Y-133052380D02*
X127061904Y-133052380D01*
X126776190Y-133052380D02*
X126776190Y-132052380D01*
X126871428Y-132195238D01*
X126966666Y-132290476D01*
X127061904Y-132338095D01*
X125538095Y-133052380D02*
X126109523Y-133052380D01*
X125823809Y-133052380D02*
X125823809Y-132052380D01*
X125919047Y-132195238D01*
X126014285Y-132290476D01*
X126109523Y-132338095D01*
X125452380Y-123038095D02*
X124452380Y-123038095D01*
X125452380Y-123609523D02*
X124880952Y-123180952D01*
X124452380Y-123609523D02*
X125023809Y-123038095D01*
%TO.C,C1*%
X129957142Y-100033333D02*
X130004761Y-99985714D01*
X130052380Y-99842857D01*
X130052380Y-99747619D01*
X130004761Y-99604761D01*
X129909523Y-99509523D01*
X129814285Y-99461904D01*
X129623809Y-99414285D01*
X129480952Y-99414285D01*
X129290476Y-99461904D01*
X129195238Y-99509523D01*
X129100000Y-99604761D01*
X129052380Y-99747619D01*
X129052380Y-99842857D01*
X129100000Y-99985714D01*
X129147619Y-100033333D01*
X130052380Y-100985714D02*
X130052380Y-100414285D01*
X130052380Y-100700000D02*
X129052380Y-100700000D01*
X129195238Y-100604761D01*
X129290476Y-100509523D01*
X129338095Y-100414285D01*
X123952380Y-99404761D02*
X123952380Y-98833333D01*
X123952380Y-99119047D02*
X122952380Y-99119047D01*
X123095238Y-99023809D01*
X123190476Y-98928571D01*
X123238095Y-98833333D01*
X123285714Y-100261904D02*
X123952380Y-100261904D01*
X123285714Y-99833333D02*
X123809523Y-99833333D01*
X123904761Y-99880952D01*
X123952380Y-99976190D01*
X123952380Y-100119047D01*
X123904761Y-100214285D01*
X123857142Y-100261904D01*
X123428571Y-101071428D02*
X123428571Y-100738095D01*
X123952380Y-100738095D02*
X122952380Y-100738095D01*
X122952380Y-101214285D01*
%TO.C,C7*%
X130057142Y-94133333D02*
X130104761Y-94085714D01*
X130152380Y-93942857D01*
X130152380Y-93847619D01*
X130104761Y-93704761D01*
X130009523Y-93609523D01*
X129914285Y-93561904D01*
X129723809Y-93514285D01*
X129580952Y-93514285D01*
X129390476Y-93561904D01*
X129295238Y-93609523D01*
X129200000Y-93704761D01*
X129152380Y-93847619D01*
X129152380Y-93942857D01*
X129200000Y-94085714D01*
X129247619Y-94133333D01*
X129152380Y-94466666D02*
X129152380Y-95133333D01*
X130152380Y-94704761D01*
X123852380Y-93804761D02*
X123852380Y-93233333D01*
X123852380Y-93519047D02*
X122852380Y-93519047D01*
X122995238Y-93423809D01*
X123090476Y-93328571D01*
X123138095Y-93233333D01*
X123185714Y-94661904D02*
X123852380Y-94661904D01*
X123185714Y-94233333D02*
X123709523Y-94233333D01*
X123804761Y-94280952D01*
X123852380Y-94376190D01*
X123852380Y-94519047D01*
X123804761Y-94614285D01*
X123757142Y-94661904D01*
X123328571Y-95471428D02*
X123328571Y-95138095D01*
X123852380Y-95138095D02*
X122852380Y-95138095D01*
X122852380Y-95614285D01*
%TO.C,C10*%
X126842857Y-89457142D02*
X126890476Y-89504761D01*
X127033333Y-89552380D01*
X127128571Y-89552380D01*
X127271428Y-89504761D01*
X127366666Y-89409523D01*
X127414285Y-89314285D01*
X127461904Y-89123809D01*
X127461904Y-88980952D01*
X127414285Y-88790476D01*
X127366666Y-88695238D01*
X127271428Y-88600000D01*
X127128571Y-88552380D01*
X127033333Y-88552380D01*
X126890476Y-88600000D01*
X126842857Y-88647619D01*
X125890476Y-89552380D02*
X126461904Y-89552380D01*
X126176190Y-89552380D02*
X126176190Y-88552380D01*
X126271428Y-88695238D01*
X126366666Y-88790476D01*
X126461904Y-88838095D01*
X125271428Y-88552380D02*
X125176190Y-88552380D01*
X125080952Y-88600000D01*
X125033333Y-88647619D01*
X124985714Y-88742857D01*
X124938095Y-88933333D01*
X124938095Y-89171428D01*
X124985714Y-89361904D01*
X125033333Y-89457142D01*
X125080952Y-89504761D01*
X125176190Y-89552380D01*
X125271428Y-89552380D01*
X125366666Y-89504761D01*
X125414285Y-89457142D01*
X125461904Y-89361904D01*
X125509523Y-89171428D01*
X125509523Y-88933333D01*
X125461904Y-88742857D01*
X125414285Y-88647619D01*
X125366666Y-88600000D01*
X125271428Y-88552380D01*
X126461904Y-83061904D02*
X126461904Y-82604761D01*
X126461904Y-82833333D02*
X125661904Y-82833333D01*
X125776190Y-82757142D01*
X125852380Y-82680952D01*
X125890476Y-82604761D01*
X125661904Y-83557142D02*
X125661904Y-83633333D01*
X125700000Y-83709523D01*
X125738095Y-83747619D01*
X125814285Y-83785714D01*
X125966666Y-83823809D01*
X126157142Y-83823809D01*
X126309523Y-83785714D01*
X126385714Y-83747619D01*
X126423809Y-83709523D01*
X126461904Y-83633333D01*
X126461904Y-83557142D01*
X126423809Y-83480952D01*
X126385714Y-83442857D01*
X126309523Y-83404761D01*
X126157142Y-83366666D01*
X125966666Y-83366666D01*
X125814285Y-83404761D01*
X125738095Y-83442857D01*
X125700000Y-83480952D01*
X125661904Y-83557142D01*
X125661904Y-84319047D02*
X125661904Y-84395238D01*
X125700000Y-84471428D01*
X125738095Y-84509523D01*
X125814285Y-84547619D01*
X125966666Y-84585714D01*
X126157142Y-84585714D01*
X126309523Y-84547619D01*
X126385714Y-84509523D01*
X126423809Y-84471428D01*
X126461904Y-84395238D01*
X126461904Y-84319047D01*
X126423809Y-84242857D01*
X126385714Y-84204761D01*
X126309523Y-84166666D01*
X126157142Y-84128571D01*
X125966666Y-84128571D01*
X125814285Y-84166666D01*
X125738095Y-84204761D01*
X125700000Y-84242857D01*
X125661904Y-84319047D01*
X125928571Y-84928571D02*
X126461904Y-84928571D01*
X126004761Y-84928571D02*
X125966666Y-84966666D01*
X125928571Y-85042857D01*
X125928571Y-85157142D01*
X125966666Y-85233333D01*
X126042857Y-85271428D01*
X126461904Y-85271428D01*
X126042857Y-85919047D02*
X126042857Y-85652380D01*
X126461904Y-85652380D02*
X125661904Y-85652380D01*
X125661904Y-86033333D01*
%TO.C,C11*%
X105257142Y-82857142D02*
X105304761Y-82809523D01*
X105352380Y-82666666D01*
X105352380Y-82571428D01*
X105304761Y-82428571D01*
X105209523Y-82333333D01*
X105114285Y-82285714D01*
X104923809Y-82238095D01*
X104780952Y-82238095D01*
X104590476Y-82285714D01*
X104495238Y-82333333D01*
X104400000Y-82428571D01*
X104352380Y-82571428D01*
X104352380Y-82666666D01*
X104400000Y-82809523D01*
X104447619Y-82857142D01*
X105352380Y-83809523D02*
X105352380Y-83238095D01*
X105352380Y-83523809D02*
X104352380Y-83523809D01*
X104495238Y-83428571D01*
X104590476Y-83333333D01*
X104638095Y-83238095D01*
X105352380Y-84761904D02*
X105352380Y-84190476D01*
X105352380Y-84476190D02*
X104352380Y-84476190D01*
X104495238Y-84380952D01*
X104590476Y-84285714D01*
X104638095Y-84190476D01*
X110638095Y-83861904D02*
X111095238Y-83861904D01*
X110866666Y-83861904D02*
X110866666Y-83061904D01*
X110942857Y-83176190D01*
X111019047Y-83252380D01*
X111095238Y-83290476D01*
X110142857Y-83061904D02*
X110066666Y-83061904D01*
X109990476Y-83100000D01*
X109952380Y-83138095D01*
X109914285Y-83214285D01*
X109876190Y-83366666D01*
X109876190Y-83557142D01*
X109914285Y-83709523D01*
X109952380Y-83785714D01*
X109990476Y-83823809D01*
X110066666Y-83861904D01*
X110142857Y-83861904D01*
X110219047Y-83823809D01*
X110257142Y-83785714D01*
X110295238Y-83709523D01*
X110333333Y-83557142D01*
X110333333Y-83366666D01*
X110295238Y-83214285D01*
X110257142Y-83138095D01*
X110219047Y-83100000D01*
X110142857Y-83061904D01*
X109380952Y-83061904D02*
X109304761Y-83061904D01*
X109228571Y-83100000D01*
X109190476Y-83138095D01*
X109152380Y-83214285D01*
X109114285Y-83366666D01*
X109114285Y-83557142D01*
X109152380Y-83709523D01*
X109190476Y-83785714D01*
X109228571Y-83823809D01*
X109304761Y-83861904D01*
X109380952Y-83861904D01*
X109457142Y-83823809D01*
X109495238Y-83785714D01*
X109533333Y-83709523D01*
X109571428Y-83557142D01*
X109571428Y-83366666D01*
X109533333Y-83214285D01*
X109495238Y-83138095D01*
X109457142Y-83100000D01*
X109380952Y-83061904D01*
X108771428Y-83328571D02*
X108771428Y-83861904D01*
X108771428Y-83404761D02*
X108733333Y-83366666D01*
X108657142Y-83328571D01*
X108542857Y-83328571D01*
X108466666Y-83366666D01*
X108428571Y-83442857D01*
X108428571Y-83861904D01*
X107780952Y-83442857D02*
X108047619Y-83442857D01*
X108047619Y-83861904D02*
X108047619Y-83061904D01*
X107666666Y-83061904D01*
%TO.C,R1*%
X132466666Y-80252380D02*
X132800000Y-79776190D01*
X133038095Y-80252380D02*
X133038095Y-79252380D01*
X132657142Y-79252380D01*
X132561904Y-79300000D01*
X132514285Y-79347619D01*
X132466666Y-79442857D01*
X132466666Y-79585714D01*
X132514285Y-79680952D01*
X132561904Y-79728571D01*
X132657142Y-79776190D01*
X133038095Y-79776190D01*
X131514285Y-80252380D02*
X132085714Y-80252380D01*
X131800000Y-80252380D02*
X131800000Y-79252380D01*
X131895238Y-79395238D01*
X131990476Y-79490476D01*
X132085714Y-79538095D01*
X131847619Y-72357142D02*
X131800000Y-72404761D01*
X131752380Y-72500000D01*
X131752380Y-72738095D01*
X131800000Y-72833333D01*
X131847619Y-72880952D01*
X131942857Y-72928571D01*
X132038095Y-72928571D01*
X132180952Y-72880952D01*
X132752380Y-72309523D01*
X132752380Y-72928571D01*
X131752380Y-73547619D02*
X131752380Y-73642857D01*
X131800000Y-73738095D01*
X131847619Y-73785714D01*
X131942857Y-73833333D01*
X132133333Y-73880952D01*
X132371428Y-73880952D01*
X132561904Y-73833333D01*
X132657142Y-73785714D01*
X132704761Y-73738095D01*
X132752380Y-73642857D01*
X132752380Y-73547619D01*
X132704761Y-73452380D01*
X132657142Y-73404761D01*
X132561904Y-73357142D01*
X132371428Y-73309523D01*
X132133333Y-73309523D01*
X131942857Y-73357142D01*
X131847619Y-73404761D01*
X131800000Y-73452380D01*
X131752380Y-73547619D01*
X131752380Y-74500000D02*
X131752380Y-74595238D01*
X131800000Y-74690476D01*
X131847619Y-74738095D01*
X131942857Y-74785714D01*
X132133333Y-74833333D01*
X132371428Y-74833333D01*
X132561904Y-74785714D01*
X132657142Y-74738095D01*
X132704761Y-74690476D01*
X132752380Y-74595238D01*
X132752380Y-74500000D01*
X132704761Y-74404761D01*
X132657142Y-74357142D01*
X132561904Y-74309523D01*
X132371428Y-74261904D01*
X132133333Y-74261904D01*
X131942857Y-74309523D01*
X131847619Y-74357142D01*
X131800000Y-74404761D01*
X131752380Y-74500000D01*
X132752380Y-75261904D02*
X131752380Y-75261904D01*
X132371428Y-75357142D02*
X132752380Y-75642857D01*
X132085714Y-75642857D02*
X132466666Y-75261904D01*
%TO.C,R2*%
X129366666Y-80252380D02*
X129700000Y-79776190D01*
X129938095Y-80252380D02*
X129938095Y-79252380D01*
X129557142Y-79252380D01*
X129461904Y-79300000D01*
X129414285Y-79347619D01*
X129366666Y-79442857D01*
X129366666Y-79585714D01*
X129414285Y-79680952D01*
X129461904Y-79728571D01*
X129557142Y-79776190D01*
X129938095Y-79776190D01*
X128985714Y-79347619D02*
X128938095Y-79300000D01*
X128842857Y-79252380D01*
X128604761Y-79252380D01*
X128509523Y-79300000D01*
X128461904Y-79347619D01*
X128414285Y-79442857D01*
X128414285Y-79538095D01*
X128461904Y-79680952D01*
X129033333Y-80252380D01*
X128414285Y-80252380D01*
X128652380Y-72953714D02*
X128652380Y-73572761D01*
X129033333Y-73239428D01*
X129033333Y-73382285D01*
X129080952Y-73477523D01*
X129128571Y-73525142D01*
X129223809Y-73572761D01*
X129461904Y-73572761D01*
X129557142Y-73525142D01*
X129604761Y-73477523D01*
X129652380Y-73382285D01*
X129652380Y-73096571D01*
X129604761Y-73001333D01*
X129557142Y-72953714D01*
X128652380Y-73906095D02*
X128652380Y-74525142D01*
X129033333Y-74191809D01*
X129033333Y-74334666D01*
X129080952Y-74429904D01*
X129128571Y-74477523D01*
X129223809Y-74525142D01*
X129461904Y-74525142D01*
X129557142Y-74477523D01*
X129604761Y-74429904D01*
X129652380Y-74334666D01*
X129652380Y-74048952D01*
X129604761Y-73953714D01*
X129557142Y-73906095D01*
X129652380Y-74953714D02*
X128652380Y-74953714D01*
X129271428Y-75048952D02*
X129652380Y-75334666D01*
X128985714Y-75334666D02*
X129366666Y-74953714D01*
%TO.C,R3*%
X126266666Y-80252380D02*
X126600000Y-79776190D01*
X126838095Y-80252380D02*
X126838095Y-79252380D01*
X126457142Y-79252380D01*
X126361904Y-79300000D01*
X126314285Y-79347619D01*
X126266666Y-79442857D01*
X126266666Y-79585714D01*
X126314285Y-79680952D01*
X126361904Y-79728571D01*
X126457142Y-79776190D01*
X126838095Y-79776190D01*
X125933333Y-79252380D02*
X125314285Y-79252380D01*
X125647619Y-79633333D01*
X125504761Y-79633333D01*
X125409523Y-79680952D01*
X125361904Y-79728571D01*
X125314285Y-79823809D01*
X125314285Y-80061904D01*
X125361904Y-80157142D01*
X125409523Y-80204761D01*
X125504761Y-80252380D01*
X125790476Y-80252380D01*
X125885714Y-80204761D01*
X125933333Y-80157142D01*
X125552380Y-72714285D02*
X125552380Y-73333333D01*
X125933333Y-73000000D01*
X125933333Y-73142857D01*
X125980952Y-73238095D01*
X126028571Y-73285714D01*
X126123809Y-73333333D01*
X126361904Y-73333333D01*
X126457142Y-73285714D01*
X126504761Y-73238095D01*
X126552380Y-73142857D01*
X126552380Y-72857142D01*
X126504761Y-72761904D01*
X126457142Y-72714285D01*
X125552380Y-73666666D02*
X125552380Y-74285714D01*
X125933333Y-73952380D01*
X125933333Y-74095238D01*
X125980952Y-74190476D01*
X126028571Y-74238095D01*
X126123809Y-74285714D01*
X126361904Y-74285714D01*
X126457142Y-74238095D01*
X126504761Y-74190476D01*
X126552380Y-74095238D01*
X126552380Y-73809523D01*
X126504761Y-73714285D01*
X126457142Y-73666666D01*
X125552380Y-74904761D02*
X125552380Y-75000000D01*
X125600000Y-75095238D01*
X125647619Y-75142857D01*
X125742857Y-75190476D01*
X125933333Y-75238095D01*
X126171428Y-75238095D01*
X126361904Y-75190476D01*
X126457142Y-75142857D01*
X126504761Y-75095238D01*
X126552380Y-75000000D01*
X126552380Y-74904761D01*
X126504761Y-74809523D01*
X126457142Y-74761904D01*
X126361904Y-74714285D01*
X126171428Y-74666666D01*
X125933333Y-74666666D01*
X125742857Y-74714285D01*
X125647619Y-74761904D01*
X125600000Y-74809523D01*
X125552380Y-74904761D01*
%TO.C,R6*%
X105916666Y-72002380D02*
X106250000Y-71526190D01*
X106488095Y-72002380D02*
X106488095Y-71002380D01*
X106107142Y-71002380D01*
X106011904Y-71050000D01*
X105964285Y-71097619D01*
X105916666Y-71192857D01*
X105916666Y-71335714D01*
X105964285Y-71430952D01*
X106011904Y-71478571D01*
X106107142Y-71526190D01*
X106488095Y-71526190D01*
X105059523Y-71002380D02*
X105250000Y-71002380D01*
X105345238Y-71050000D01*
X105392857Y-71097619D01*
X105488095Y-71240476D01*
X105535714Y-71430952D01*
X105535714Y-71811904D01*
X105488095Y-71907142D01*
X105440476Y-71954761D01*
X105345238Y-72002380D01*
X105154761Y-72002380D01*
X105059523Y-71954761D01*
X105011904Y-71907142D01*
X104964285Y-71811904D01*
X104964285Y-71573809D01*
X105011904Y-71478571D01*
X105059523Y-71430952D01*
X105154761Y-71383333D01*
X105345238Y-71383333D01*
X105440476Y-71430952D01*
X105488095Y-71478571D01*
X105535714Y-71573809D01*
X105202380Y-75635714D02*
X105202380Y-76254761D01*
X105583333Y-75921428D01*
X105583333Y-76064285D01*
X105630952Y-76159523D01*
X105678571Y-76207142D01*
X105773809Y-76254761D01*
X106011904Y-76254761D01*
X106107142Y-76207142D01*
X106154761Y-76159523D01*
X106202380Y-76064285D01*
X106202380Y-75778571D01*
X106154761Y-75683333D01*
X106107142Y-75635714D01*
X105202380Y-76588095D02*
X105202380Y-77207142D01*
X105583333Y-76873809D01*
X105583333Y-77016666D01*
X105630952Y-77111904D01*
X105678571Y-77159523D01*
X105773809Y-77207142D01*
X106011904Y-77207142D01*
X106107142Y-77159523D01*
X106154761Y-77111904D01*
X106202380Y-77016666D01*
X106202380Y-76730952D01*
X106154761Y-76635714D01*
X106107142Y-76588095D01*
X106202380Y-77635714D02*
X105202380Y-77635714D01*
X105821428Y-77730952D02*
X106202380Y-78016666D01*
X105535714Y-78016666D02*
X105916666Y-77635714D01*
%TO.C,R10*%
X109442857Y-72002380D02*
X109776190Y-71526190D01*
X110014285Y-72002380D02*
X110014285Y-71002380D01*
X109633333Y-71002380D01*
X109538095Y-71050000D01*
X109490476Y-71097619D01*
X109442857Y-71192857D01*
X109442857Y-71335714D01*
X109490476Y-71430952D01*
X109538095Y-71478571D01*
X109633333Y-71526190D01*
X110014285Y-71526190D01*
X108490476Y-72002380D02*
X109061904Y-72002380D01*
X108776190Y-72002380D02*
X108776190Y-71002380D01*
X108871428Y-71145238D01*
X108966666Y-71240476D01*
X109061904Y-71288095D01*
X107871428Y-71002380D02*
X107776190Y-71002380D01*
X107680952Y-71050000D01*
X107633333Y-71097619D01*
X107585714Y-71192857D01*
X107538095Y-71383333D01*
X107538095Y-71621428D01*
X107585714Y-71811904D01*
X107633333Y-71907142D01*
X107680952Y-71954761D01*
X107776190Y-72002380D01*
X107871428Y-72002380D01*
X107966666Y-71954761D01*
X108014285Y-71907142D01*
X108061904Y-71811904D01*
X108109523Y-71621428D01*
X108109523Y-71383333D01*
X108061904Y-71192857D01*
X108014285Y-71097619D01*
X107966666Y-71050000D01*
X107871428Y-71002380D01*
X108252380Y-75747714D02*
X108252380Y-76366761D01*
X108633333Y-76033428D01*
X108633333Y-76176285D01*
X108680952Y-76271523D01*
X108728571Y-76319142D01*
X108823809Y-76366761D01*
X109061904Y-76366761D01*
X109157142Y-76319142D01*
X109204761Y-76271523D01*
X109252380Y-76176285D01*
X109252380Y-75890571D01*
X109204761Y-75795333D01*
X109157142Y-75747714D01*
X108252380Y-76700095D02*
X108252380Y-77319142D01*
X108633333Y-76985809D01*
X108633333Y-77128666D01*
X108680952Y-77223904D01*
X108728571Y-77271523D01*
X108823809Y-77319142D01*
X109061904Y-77319142D01*
X109157142Y-77271523D01*
X109204761Y-77223904D01*
X109252380Y-77128666D01*
X109252380Y-76842952D01*
X109204761Y-76747714D01*
X109157142Y-76700095D01*
X109252380Y-77747714D02*
X108252380Y-77747714D01*
X108871428Y-77842952D02*
X109252380Y-78128666D01*
X108585714Y-78128666D02*
X108966666Y-77747714D01*
%TO.C,R12*%
X112442857Y-72102380D02*
X112776190Y-71626190D01*
X113014285Y-72102380D02*
X113014285Y-71102380D01*
X112633333Y-71102380D01*
X112538095Y-71150000D01*
X112490476Y-71197619D01*
X112442857Y-71292857D01*
X112442857Y-71435714D01*
X112490476Y-71530952D01*
X112538095Y-71578571D01*
X112633333Y-71626190D01*
X113014285Y-71626190D01*
X111490476Y-72102380D02*
X112061904Y-72102380D01*
X111776190Y-72102380D02*
X111776190Y-71102380D01*
X111871428Y-71245238D01*
X111966666Y-71340476D01*
X112061904Y-71388095D01*
X111109523Y-71197619D02*
X111061904Y-71150000D01*
X110966666Y-71102380D01*
X110728571Y-71102380D01*
X110633333Y-71150000D01*
X110585714Y-71197619D01*
X110538095Y-71292857D01*
X110538095Y-71388095D01*
X110585714Y-71530952D01*
X111157142Y-72102380D01*
X110538095Y-72102380D01*
X111397619Y-76271523D02*
X111350000Y-76319142D01*
X111302380Y-76414380D01*
X111302380Y-76652476D01*
X111350000Y-76747714D01*
X111397619Y-76795333D01*
X111492857Y-76842952D01*
X111588095Y-76842952D01*
X111730952Y-76795333D01*
X112302380Y-76223904D01*
X112302380Y-76842952D01*
X112302380Y-77271523D02*
X111302380Y-77271523D01*
X111921428Y-77366761D02*
X112302380Y-77652476D01*
X111635714Y-77652476D02*
X112016666Y-77271523D01*
%TO.C,U1*%
X119551904Y-70202380D02*
X119551904Y-71011904D01*
X119504285Y-71107142D01*
X119456666Y-71154761D01*
X119361428Y-71202380D01*
X119170952Y-71202380D01*
X119075714Y-71154761D01*
X119028095Y-71107142D01*
X118980476Y-71011904D01*
X118980476Y-70202380D01*
X117980476Y-71202380D02*
X118551904Y-71202380D01*
X118266190Y-71202380D02*
X118266190Y-70202380D01*
X118361428Y-70345238D01*
X118456666Y-70440476D01*
X118551904Y-70488095D01*
%TO.C,C8*%
X122566666Y-70857142D02*
X122614285Y-70904761D01*
X122757142Y-70952380D01*
X122852380Y-70952380D01*
X122995238Y-70904761D01*
X123090476Y-70809523D01*
X123138095Y-70714285D01*
X123185714Y-70523809D01*
X123185714Y-70380952D01*
X123138095Y-70190476D01*
X123090476Y-70095238D01*
X122995238Y-70000000D01*
X122852380Y-69952380D01*
X122757142Y-69952380D01*
X122614285Y-70000000D01*
X122566666Y-70047619D01*
X121995238Y-70380952D02*
X122090476Y-70333333D01*
X122138095Y-70285714D01*
X122185714Y-70190476D01*
X122185714Y-70142857D01*
X122138095Y-70047619D01*
X122090476Y-70000000D01*
X121995238Y-69952380D01*
X121804761Y-69952380D01*
X121709523Y-70000000D01*
X121661904Y-70047619D01*
X121614285Y-70142857D01*
X121614285Y-70190476D01*
X121661904Y-70285714D01*
X121709523Y-70333333D01*
X121804761Y-70380952D01*
X121995238Y-70380952D01*
X122090476Y-70428571D01*
X122138095Y-70476190D01*
X122185714Y-70571428D01*
X122185714Y-70761904D01*
X122138095Y-70857142D01*
X122090476Y-70904761D01*
X121995238Y-70952380D01*
X121804761Y-70952380D01*
X121709523Y-70904761D01*
X121661904Y-70857142D01*
X121614285Y-70761904D01*
X121614285Y-70571428D01*
X121661904Y-70476190D01*
X121709523Y-70428571D01*
X121804761Y-70380952D01*
X124647619Y-64152380D02*
X125219047Y-64152380D01*
X124933333Y-64152380D02*
X124933333Y-63152380D01*
X125028571Y-63295238D01*
X125123809Y-63390476D01*
X125219047Y-63438095D01*
X124028571Y-63152380D02*
X123933333Y-63152380D01*
X123838095Y-63200000D01*
X123790476Y-63247619D01*
X123742857Y-63342857D01*
X123695238Y-63533333D01*
X123695238Y-63771428D01*
X123742857Y-63961904D01*
X123790476Y-64057142D01*
X123838095Y-64104761D01*
X123933333Y-64152380D01*
X124028571Y-64152380D01*
X124123809Y-64104761D01*
X124171428Y-64057142D01*
X124219047Y-63961904D01*
X124266666Y-63771428D01*
X124266666Y-63533333D01*
X124219047Y-63342857D01*
X124171428Y-63247619D01*
X124123809Y-63200000D01*
X124028571Y-63152380D01*
X123076190Y-63152380D02*
X122980952Y-63152380D01*
X122885714Y-63200000D01*
X122838095Y-63247619D01*
X122790476Y-63342857D01*
X122742857Y-63533333D01*
X122742857Y-63771428D01*
X122790476Y-63961904D01*
X122838095Y-64057142D01*
X122885714Y-64104761D01*
X122980952Y-64152380D01*
X123076190Y-64152380D01*
X123171428Y-64104761D01*
X123219047Y-64057142D01*
X123266666Y-63961904D01*
X123314285Y-63771428D01*
X123314285Y-63533333D01*
X123266666Y-63342857D01*
X123219047Y-63247619D01*
X123171428Y-63200000D01*
X123076190Y-63152380D01*
X121885714Y-63485714D02*
X121885714Y-64152380D01*
X122314285Y-63485714D02*
X122314285Y-64009523D01*
X122266666Y-64104761D01*
X122171428Y-64152380D01*
X122028571Y-64152380D01*
X121933333Y-64104761D01*
X121885714Y-64057142D01*
X121076190Y-63628571D02*
X121409523Y-63628571D01*
X121409523Y-64152380D02*
X121409523Y-63152380D01*
X120933333Y-63152380D01*
%TO.C,C9*%
X117666666Y-63957142D02*
X117714285Y-64004761D01*
X117857142Y-64052380D01*
X117952380Y-64052380D01*
X118095238Y-64004761D01*
X118190476Y-63909523D01*
X118238095Y-63814285D01*
X118285714Y-63623809D01*
X118285714Y-63480952D01*
X118238095Y-63290476D01*
X118190476Y-63195238D01*
X118095238Y-63100000D01*
X117952380Y-63052380D01*
X117857142Y-63052380D01*
X117714285Y-63100000D01*
X117666666Y-63147619D01*
X117190476Y-64052380D02*
X117000000Y-64052380D01*
X116904761Y-64004761D01*
X116857142Y-63957142D01*
X116761904Y-63814285D01*
X116714285Y-63623809D01*
X116714285Y-63242857D01*
X116761904Y-63147619D01*
X116809523Y-63100000D01*
X116904761Y-63052380D01*
X117095238Y-63052380D01*
X117190476Y-63100000D01*
X117238095Y-63147619D01*
X117285714Y-63242857D01*
X117285714Y-63480952D01*
X117238095Y-63576190D01*
X117190476Y-63623809D01*
X117095238Y-63671428D01*
X116904761Y-63671428D01*
X116809523Y-63623809D01*
X116761904Y-63576190D01*
X116714285Y-63480952D01*
X117247619Y-70852380D02*
X117819047Y-70852380D01*
X117533333Y-70852380D02*
X117533333Y-69852380D01*
X117628571Y-69995238D01*
X117723809Y-70090476D01*
X117819047Y-70138095D01*
X116628571Y-69852380D02*
X116533333Y-69852380D01*
X116438095Y-69900000D01*
X116390476Y-69947619D01*
X116342857Y-70042857D01*
X116295238Y-70233333D01*
X116295238Y-70471428D01*
X116342857Y-70661904D01*
X116390476Y-70757142D01*
X116438095Y-70804761D01*
X116533333Y-70852380D01*
X116628571Y-70852380D01*
X116723809Y-70804761D01*
X116771428Y-70757142D01*
X116819047Y-70661904D01*
X116866666Y-70471428D01*
X116866666Y-70233333D01*
X116819047Y-70042857D01*
X116771428Y-69947619D01*
X116723809Y-69900000D01*
X116628571Y-69852380D01*
X115676190Y-69852380D02*
X115580952Y-69852380D01*
X115485714Y-69900000D01*
X115438095Y-69947619D01*
X115390476Y-70042857D01*
X115342857Y-70233333D01*
X115342857Y-70471428D01*
X115390476Y-70661904D01*
X115438095Y-70757142D01*
X115485714Y-70804761D01*
X115580952Y-70852380D01*
X115676190Y-70852380D01*
X115771428Y-70804761D01*
X115819047Y-70757142D01*
X115866666Y-70661904D01*
X115914285Y-70471428D01*
X115914285Y-70233333D01*
X115866666Y-70042857D01*
X115819047Y-69947619D01*
X115771428Y-69900000D01*
X115676190Y-69852380D01*
X114485714Y-70185714D02*
X114485714Y-70852380D01*
X114914285Y-70185714D02*
X114914285Y-70709523D01*
X114866666Y-70804761D01*
X114771428Y-70852380D01*
X114628571Y-70852380D01*
X114533333Y-70804761D01*
X114485714Y-70757142D01*
X113676190Y-70328571D02*
X114009523Y-70328571D01*
X114009523Y-70852380D02*
X114009523Y-69852380D01*
X113533333Y-69852380D01*
%TO.C,J1*%
X132333333Y-53252380D02*
X132333333Y-53966666D01*
X132380952Y-54109523D01*
X132476190Y-54204761D01*
X132619047Y-54252380D01*
X132714285Y-54252380D01*
X131333333Y-54252380D02*
X131904761Y-54252380D01*
X131619047Y-54252380D02*
X131619047Y-53252380D01*
X131714285Y-53395238D01*
X131809523Y-53490476D01*
X131904761Y-53538095D01*
%TO.C,J2*%
X124533333Y-53152380D02*
X124533333Y-53866666D01*
X124580952Y-54009523D01*
X124676190Y-54104761D01*
X124819047Y-54152380D01*
X124914285Y-54152380D01*
X124104761Y-53247619D02*
X124057142Y-53200000D01*
X123961904Y-53152380D01*
X123723809Y-53152380D01*
X123628571Y-53200000D01*
X123580952Y-53247619D01*
X123533333Y-53342857D01*
X123533333Y-53438095D01*
X123580952Y-53580952D01*
X124152380Y-54152380D01*
X123533333Y-54152380D01*
%TO.C,C2*%
X104957142Y-97533333D02*
X105004761Y-97485714D01*
X105052380Y-97342857D01*
X105052380Y-97247619D01*
X105004761Y-97104761D01*
X104909523Y-97009523D01*
X104814285Y-96961904D01*
X104623809Y-96914285D01*
X104480952Y-96914285D01*
X104290476Y-96961904D01*
X104195238Y-97009523D01*
X104100000Y-97104761D01*
X104052380Y-97247619D01*
X104052380Y-97342857D01*
X104100000Y-97485714D01*
X104147619Y-97533333D01*
X104147619Y-97914285D02*
X104100000Y-97961904D01*
X104052380Y-98057142D01*
X104052380Y-98295238D01*
X104100000Y-98390476D01*
X104147619Y-98438095D01*
X104242857Y-98485714D01*
X104338095Y-98485714D01*
X104480952Y-98438095D01*
X105052380Y-97866666D01*
X105052380Y-98485714D01*
X110314285Y-97261904D02*
X110466666Y-97261904D01*
X110542857Y-97300000D01*
X110580952Y-97338095D01*
X110657142Y-97452380D01*
X110695238Y-97604761D01*
X110695238Y-97909523D01*
X110657142Y-97985714D01*
X110619047Y-98023809D01*
X110542857Y-98061904D01*
X110390476Y-98061904D01*
X110314285Y-98023809D01*
X110276190Y-97985714D01*
X110238095Y-97909523D01*
X110238095Y-97719047D01*
X110276190Y-97642857D01*
X110314285Y-97604761D01*
X110390476Y-97566666D01*
X110542857Y-97566666D01*
X110619047Y-97604761D01*
X110657142Y-97642857D01*
X110695238Y-97719047D01*
X109780952Y-97604761D02*
X109857142Y-97566666D01*
X109895238Y-97528571D01*
X109933333Y-97452380D01*
X109933333Y-97414285D01*
X109895238Y-97338095D01*
X109857142Y-97300000D01*
X109780952Y-97261904D01*
X109628571Y-97261904D01*
X109552380Y-97300000D01*
X109514285Y-97338095D01*
X109476190Y-97414285D01*
X109476190Y-97452380D01*
X109514285Y-97528571D01*
X109552380Y-97566666D01*
X109628571Y-97604761D01*
X109780952Y-97604761D01*
X109857142Y-97642857D01*
X109895238Y-97680952D01*
X109933333Y-97757142D01*
X109933333Y-97909523D01*
X109895238Y-97985714D01*
X109857142Y-98023809D01*
X109780952Y-98061904D01*
X109628571Y-98061904D01*
X109552380Y-98023809D01*
X109514285Y-97985714D01*
X109476190Y-97909523D01*
X109476190Y-97757142D01*
X109514285Y-97680952D01*
X109552380Y-97642857D01*
X109628571Y-97604761D01*
X108980952Y-97261904D02*
X108904761Y-97261904D01*
X108828571Y-97300000D01*
X108790476Y-97338095D01*
X108752380Y-97414285D01*
X108714285Y-97566666D01*
X108714285Y-97757142D01*
X108752380Y-97909523D01*
X108790476Y-97985714D01*
X108828571Y-98023809D01*
X108904761Y-98061904D01*
X108980952Y-98061904D01*
X109057142Y-98023809D01*
X109095238Y-97985714D01*
X109133333Y-97909523D01*
X109171428Y-97757142D01*
X109171428Y-97566666D01*
X109133333Y-97414285D01*
X109095238Y-97338095D01*
X109057142Y-97300000D01*
X108980952Y-97261904D01*
X108371428Y-97528571D02*
X108371428Y-98328571D01*
X108371428Y-97566666D02*
X108295238Y-97528571D01*
X108142857Y-97528571D01*
X108066666Y-97566666D01*
X108028571Y-97604761D01*
X107990476Y-97680952D01*
X107990476Y-97909523D01*
X108028571Y-97985714D01*
X108066666Y-98023809D01*
X108142857Y-98061904D01*
X108295238Y-98061904D01*
X108371428Y-98023809D01*
X107380952Y-97642857D02*
X107647619Y-97642857D01*
X107647619Y-98061904D02*
X107647619Y-97261904D01*
X107266666Y-97261904D01*
%TO.C,C3*%
X104957142Y-100633333D02*
X105004761Y-100585714D01*
X105052380Y-100442857D01*
X105052380Y-100347619D01*
X105004761Y-100204761D01*
X104909523Y-100109523D01*
X104814285Y-100061904D01*
X104623809Y-100014285D01*
X104480952Y-100014285D01*
X104290476Y-100061904D01*
X104195238Y-100109523D01*
X104100000Y-100204761D01*
X104052380Y-100347619D01*
X104052380Y-100442857D01*
X104100000Y-100585714D01*
X104147619Y-100633333D01*
X104052380Y-100966666D02*
X104052380Y-101585714D01*
X104433333Y-101252380D01*
X104433333Y-101395238D01*
X104480952Y-101490476D01*
X104528571Y-101538095D01*
X104623809Y-101585714D01*
X104861904Y-101585714D01*
X104957142Y-101538095D01*
X105004761Y-101490476D01*
X105052380Y-101395238D01*
X105052380Y-101109523D01*
X105004761Y-101014285D01*
X104957142Y-100966666D01*
X109476190Y-101161904D02*
X109933333Y-101161904D01*
X109704761Y-101161904D02*
X109704761Y-100361904D01*
X109780952Y-100476190D01*
X109857142Y-100552380D01*
X109933333Y-100590476D01*
X109133333Y-100628571D02*
X109133333Y-101161904D01*
X109133333Y-100704761D02*
X109095238Y-100666666D01*
X109019047Y-100628571D01*
X108904761Y-100628571D01*
X108828571Y-100666666D01*
X108790476Y-100742857D01*
X108790476Y-101161904D01*
X108142857Y-100742857D02*
X108409523Y-100742857D01*
X108409523Y-101161904D02*
X108409523Y-100361904D01*
X108028571Y-100361904D01*
%TO.C,C4*%
X104957142Y-103733333D02*
X105004761Y-103685714D01*
X105052380Y-103542857D01*
X105052380Y-103447619D01*
X105004761Y-103304761D01*
X104909523Y-103209523D01*
X104814285Y-103161904D01*
X104623809Y-103114285D01*
X104480952Y-103114285D01*
X104290476Y-103161904D01*
X104195238Y-103209523D01*
X104100000Y-103304761D01*
X104052380Y-103447619D01*
X104052380Y-103542857D01*
X104100000Y-103685714D01*
X104147619Y-103733333D01*
X104385714Y-104590476D02*
X105052380Y-104590476D01*
X104004761Y-104352380D02*
X104719047Y-104114285D01*
X104719047Y-104733333D01*
X109476190Y-104261904D02*
X109933333Y-104261904D01*
X109704761Y-104261904D02*
X109704761Y-103461904D01*
X109780952Y-103576190D01*
X109857142Y-103652380D01*
X109933333Y-103690476D01*
X109133333Y-103728571D02*
X109133333Y-104261904D01*
X109133333Y-103804761D02*
X109095238Y-103766666D01*
X109019047Y-103728571D01*
X108904761Y-103728571D01*
X108828571Y-103766666D01*
X108790476Y-103842857D01*
X108790476Y-104261904D01*
X108142857Y-103842857D02*
X108409523Y-103842857D01*
X108409523Y-104261904D02*
X108409523Y-103461904D01*
X108028571Y-103461904D01*
%TO.C,C5*%
X105057142Y-106833333D02*
X105104761Y-106785714D01*
X105152380Y-106642857D01*
X105152380Y-106547619D01*
X105104761Y-106404761D01*
X105009523Y-106309523D01*
X104914285Y-106261904D01*
X104723809Y-106214285D01*
X104580952Y-106214285D01*
X104390476Y-106261904D01*
X104295238Y-106309523D01*
X104200000Y-106404761D01*
X104152380Y-106547619D01*
X104152380Y-106642857D01*
X104200000Y-106785714D01*
X104247619Y-106833333D01*
X104152380Y-107738095D02*
X104152380Y-107261904D01*
X104628571Y-107214285D01*
X104580952Y-107261904D01*
X104533333Y-107357142D01*
X104533333Y-107595238D01*
X104580952Y-107690476D01*
X104628571Y-107738095D01*
X104723809Y-107785714D01*
X104961904Y-107785714D01*
X105057142Y-107738095D01*
X105104761Y-107690476D01*
X105152380Y-107595238D01*
X105152380Y-107357142D01*
X105104761Y-107261904D01*
X105057142Y-107214285D01*
X109476190Y-107361904D02*
X109933333Y-107361904D01*
X109704761Y-107361904D02*
X109704761Y-106561904D01*
X109780952Y-106676190D01*
X109857142Y-106752380D01*
X109933333Y-106790476D01*
X109133333Y-106828571D02*
X109133333Y-107361904D01*
X109133333Y-106904761D02*
X109095238Y-106866666D01*
X109019047Y-106828571D01*
X108904761Y-106828571D01*
X108828571Y-106866666D01*
X108790476Y-106942857D01*
X108790476Y-107361904D01*
X108142857Y-106942857D02*
X108409523Y-106942857D01*
X108409523Y-107361904D02*
X108409523Y-106561904D01*
X108028571Y-106561904D01*
%TO.C,C6*%
X104957142Y-109933333D02*
X105004761Y-109885714D01*
X105052380Y-109742857D01*
X105052380Y-109647619D01*
X105004761Y-109504761D01*
X104909523Y-109409523D01*
X104814285Y-109361904D01*
X104623809Y-109314285D01*
X104480952Y-109314285D01*
X104290476Y-109361904D01*
X104195238Y-109409523D01*
X104100000Y-109504761D01*
X104052380Y-109647619D01*
X104052380Y-109742857D01*
X104100000Y-109885714D01*
X104147619Y-109933333D01*
X104052380Y-110790476D02*
X104052380Y-110600000D01*
X104100000Y-110504761D01*
X104147619Y-110457142D01*
X104290476Y-110361904D01*
X104480952Y-110314285D01*
X104861904Y-110314285D01*
X104957142Y-110361904D01*
X105004761Y-110409523D01*
X105052380Y-110504761D01*
X105052380Y-110695238D01*
X105004761Y-110790476D01*
X104957142Y-110838095D01*
X104861904Y-110885714D01*
X104623809Y-110885714D01*
X104528571Y-110838095D01*
X104480952Y-110790476D01*
X104433333Y-110695238D01*
X104433333Y-110504761D01*
X104480952Y-110409523D01*
X104528571Y-110361904D01*
X104623809Y-110314285D01*
X109476190Y-110461904D02*
X109933333Y-110461904D01*
X109704761Y-110461904D02*
X109704761Y-109661904D01*
X109780952Y-109776190D01*
X109857142Y-109852380D01*
X109933333Y-109890476D01*
X109133333Y-109928571D02*
X109133333Y-110461904D01*
X109133333Y-110004761D02*
X109095238Y-109966666D01*
X109019047Y-109928571D01*
X108904761Y-109928571D01*
X108828571Y-109966666D01*
X108790476Y-110042857D01*
X108790476Y-110461904D01*
X108142857Y-110042857D02*
X108409523Y-110042857D01*
X108409523Y-110461904D02*
X108409523Y-109661904D01*
X108028571Y-109661904D01*
%TO.C,C12*%
X133557142Y-117257142D02*
X133604761Y-117209523D01*
X133652380Y-117066666D01*
X133652380Y-116971428D01*
X133604761Y-116828571D01*
X133509523Y-116733333D01*
X133414285Y-116685714D01*
X133223809Y-116638095D01*
X133080952Y-116638095D01*
X132890476Y-116685714D01*
X132795238Y-116733333D01*
X132700000Y-116828571D01*
X132652380Y-116971428D01*
X132652380Y-117066666D01*
X132700000Y-117209523D01*
X132747619Y-117257142D01*
X133652380Y-118209523D02*
X133652380Y-117638095D01*
X133652380Y-117923809D02*
X132652380Y-117923809D01*
X132795238Y-117828571D01*
X132890476Y-117733333D01*
X132938095Y-117638095D01*
X132747619Y-118590476D02*
X132700000Y-118638095D01*
X132652380Y-118733333D01*
X132652380Y-118971428D01*
X132700000Y-119066666D01*
X132747619Y-119114285D01*
X132842857Y-119161904D01*
X132938095Y-119161904D01*
X133080952Y-119114285D01*
X133652380Y-118542857D01*
X133652380Y-119161904D01*
X130047619Y-118452380D02*
X130619047Y-118452380D01*
X130333333Y-118452380D02*
X130333333Y-117452380D01*
X130428571Y-117595238D01*
X130523809Y-117690476D01*
X130619047Y-117738095D01*
X129428571Y-117452380D02*
X129333333Y-117452380D01*
X129238095Y-117500000D01*
X129190476Y-117547619D01*
X129142857Y-117642857D01*
X129095238Y-117833333D01*
X129095238Y-118071428D01*
X129142857Y-118261904D01*
X129190476Y-118357142D01*
X129238095Y-118404761D01*
X129333333Y-118452380D01*
X129428571Y-118452380D01*
X129523809Y-118404761D01*
X129571428Y-118357142D01*
X129619047Y-118261904D01*
X129666666Y-118071428D01*
X129666666Y-117833333D01*
X129619047Y-117642857D01*
X129571428Y-117547619D01*
X129523809Y-117500000D01*
X129428571Y-117452380D01*
X128476190Y-117452380D02*
X128380952Y-117452380D01*
X128285714Y-117500000D01*
X128238095Y-117547619D01*
X128190476Y-117642857D01*
X128142857Y-117833333D01*
X128142857Y-118071428D01*
X128190476Y-118261904D01*
X128238095Y-118357142D01*
X128285714Y-118404761D01*
X128380952Y-118452380D01*
X128476190Y-118452380D01*
X128571428Y-118404761D01*
X128619047Y-118357142D01*
X128666666Y-118261904D01*
X128714285Y-118071428D01*
X128714285Y-117833333D01*
X128666666Y-117642857D01*
X128619047Y-117547619D01*
X128571428Y-117500000D01*
X128476190Y-117452380D01*
X127714285Y-117785714D02*
X127714285Y-118452380D01*
X127714285Y-117880952D02*
X127666666Y-117833333D01*
X127571428Y-117785714D01*
X127428571Y-117785714D01*
X127333333Y-117833333D01*
X127285714Y-117928571D01*
X127285714Y-118452380D01*
X126476190Y-117928571D02*
X126809523Y-117928571D01*
X126809523Y-118452380D02*
X126809523Y-117452380D01*
X126333333Y-117452380D01*
%TO.C,C13*%
X105557142Y-119757142D02*
X105604761Y-119709523D01*
X105652380Y-119566666D01*
X105652380Y-119471428D01*
X105604761Y-119328571D01*
X105509523Y-119233333D01*
X105414285Y-119185714D01*
X105223809Y-119138095D01*
X105080952Y-119138095D01*
X104890476Y-119185714D01*
X104795238Y-119233333D01*
X104700000Y-119328571D01*
X104652380Y-119471428D01*
X104652380Y-119566666D01*
X104700000Y-119709523D01*
X104747619Y-119757142D01*
X105652380Y-120709523D02*
X105652380Y-120138095D01*
X105652380Y-120423809D02*
X104652380Y-120423809D01*
X104795238Y-120328571D01*
X104890476Y-120233333D01*
X104938095Y-120138095D01*
X104652380Y-121042857D02*
X104652380Y-121661904D01*
X105033333Y-121328571D01*
X105033333Y-121471428D01*
X105080952Y-121566666D01*
X105128571Y-121614285D01*
X105223809Y-121661904D01*
X105461904Y-121661904D01*
X105557142Y-121614285D01*
X105604761Y-121566666D01*
X105652380Y-121471428D01*
X105652380Y-121185714D01*
X105604761Y-121090476D01*
X105557142Y-121042857D01*
X111047619Y-120852380D02*
X111619047Y-120852380D01*
X111333333Y-120852380D02*
X111333333Y-119852380D01*
X111428571Y-119995238D01*
X111523809Y-120090476D01*
X111619047Y-120138095D01*
X110428571Y-119852380D02*
X110333333Y-119852380D01*
X110238095Y-119900000D01*
X110190476Y-119947619D01*
X110142857Y-120042857D01*
X110095238Y-120233333D01*
X110095238Y-120471428D01*
X110142857Y-120661904D01*
X110190476Y-120757142D01*
X110238095Y-120804761D01*
X110333333Y-120852380D01*
X110428571Y-120852380D01*
X110523809Y-120804761D01*
X110571428Y-120757142D01*
X110619047Y-120661904D01*
X110666666Y-120471428D01*
X110666666Y-120233333D01*
X110619047Y-120042857D01*
X110571428Y-119947619D01*
X110523809Y-119900000D01*
X110428571Y-119852380D01*
X109476190Y-119852380D02*
X109380952Y-119852380D01*
X109285714Y-119900000D01*
X109238095Y-119947619D01*
X109190476Y-120042857D01*
X109142857Y-120233333D01*
X109142857Y-120471428D01*
X109190476Y-120661904D01*
X109238095Y-120757142D01*
X109285714Y-120804761D01*
X109380952Y-120852380D01*
X109476190Y-120852380D01*
X109571428Y-120804761D01*
X109619047Y-120757142D01*
X109666666Y-120661904D01*
X109714285Y-120471428D01*
X109714285Y-120233333D01*
X109666666Y-120042857D01*
X109619047Y-119947619D01*
X109571428Y-119900000D01*
X109476190Y-119852380D01*
X108714285Y-120185714D02*
X108714285Y-120852380D01*
X108714285Y-120280952D02*
X108666666Y-120233333D01*
X108571428Y-120185714D01*
X108428571Y-120185714D01*
X108333333Y-120233333D01*
X108285714Y-120328571D01*
X108285714Y-120852380D01*
X107476190Y-120328571D02*
X107809523Y-120328571D01*
X107809523Y-120852380D02*
X107809523Y-119852380D01*
X107333333Y-119852380D01*
%TO.C,D1*%
X118138095Y-97952380D02*
X118138095Y-96952380D01*
X117900000Y-96952380D01*
X117757142Y-97000000D01*
X117661904Y-97095238D01*
X117614285Y-97190476D01*
X117566666Y-97380952D01*
X117566666Y-97523809D01*
X117614285Y-97714285D01*
X117661904Y-97809523D01*
X117757142Y-97904761D01*
X117900000Y-97952380D01*
X118138095Y-97952380D01*
X116614285Y-97952380D02*
X117185714Y-97952380D01*
X116900000Y-97952380D02*
X116900000Y-96952380D01*
X116995238Y-97095238D01*
X117090476Y-97190476D01*
X117185714Y-97238095D01*
%TO.C,D2*%
X118338095Y-100452380D02*
X118338095Y-99452380D01*
X118100000Y-99452380D01*
X117957142Y-99500000D01*
X117861904Y-99595238D01*
X117814285Y-99690476D01*
X117766666Y-99880952D01*
X117766666Y-100023809D01*
X117814285Y-100214285D01*
X117861904Y-100309523D01*
X117957142Y-100404761D01*
X118100000Y-100452380D01*
X118338095Y-100452380D01*
X117385714Y-99547619D02*
X117338095Y-99500000D01*
X117242857Y-99452380D01*
X117004761Y-99452380D01*
X116909523Y-99500000D01*
X116861904Y-99547619D01*
X116814285Y-99642857D01*
X116814285Y-99738095D01*
X116861904Y-99880952D01*
X117433333Y-100452380D01*
X116814285Y-100452380D01*
X121861904Y-98652380D02*
X121861904Y-97652380D01*
X121290476Y-98652380D02*
X121719047Y-98080952D01*
X121290476Y-97652380D02*
X121861904Y-98223809D01*
%TO.C,D3*%
X118238095Y-102952380D02*
X118238095Y-101952380D01*
X118000000Y-101952380D01*
X117857142Y-102000000D01*
X117761904Y-102095238D01*
X117714285Y-102190476D01*
X117666666Y-102380952D01*
X117666666Y-102523809D01*
X117714285Y-102714285D01*
X117761904Y-102809523D01*
X117857142Y-102904761D01*
X118000000Y-102952380D01*
X118238095Y-102952380D01*
X117333333Y-101952380D02*
X116714285Y-101952380D01*
X117047619Y-102333333D01*
X116904761Y-102333333D01*
X116809523Y-102380952D01*
X116761904Y-102428571D01*
X116714285Y-102523809D01*
X116714285Y-102761904D01*
X116761904Y-102857142D01*
X116809523Y-102904761D01*
X116904761Y-102952380D01*
X117190476Y-102952380D01*
X117285714Y-102904761D01*
X117333333Y-102857142D01*
X121861904Y-101152380D02*
X121861904Y-100152380D01*
X121290476Y-101152380D02*
X121719047Y-100580952D01*
X121290476Y-100152380D02*
X121861904Y-100723809D01*
%TO.C,D4*%
X118238095Y-105552380D02*
X118238095Y-104552380D01*
X118000000Y-104552380D01*
X117857142Y-104600000D01*
X117761904Y-104695238D01*
X117714285Y-104790476D01*
X117666666Y-104980952D01*
X117666666Y-105123809D01*
X117714285Y-105314285D01*
X117761904Y-105409523D01*
X117857142Y-105504761D01*
X118000000Y-105552380D01*
X118238095Y-105552380D01*
X116809523Y-104885714D02*
X116809523Y-105552380D01*
X117047619Y-104504761D02*
X117285714Y-105219047D01*
X116666666Y-105219047D01*
X121881904Y-103752380D02*
X121881904Y-102752380D01*
X121310476Y-103752380D02*
X121739047Y-103180952D01*
X121310476Y-102752380D02*
X121881904Y-103323809D01*
%TO.C,D5*%
X118238095Y-108152380D02*
X118238095Y-107152380D01*
X118000000Y-107152380D01*
X117857142Y-107200000D01*
X117761904Y-107295238D01*
X117714285Y-107390476D01*
X117666666Y-107580952D01*
X117666666Y-107723809D01*
X117714285Y-107914285D01*
X117761904Y-108009523D01*
X117857142Y-108104761D01*
X118000000Y-108152380D01*
X118238095Y-108152380D01*
X116761904Y-107152380D02*
X117238095Y-107152380D01*
X117285714Y-107628571D01*
X117238095Y-107580952D01*
X117142857Y-107533333D01*
X116904761Y-107533333D01*
X116809523Y-107580952D01*
X116761904Y-107628571D01*
X116714285Y-107723809D01*
X116714285Y-107961904D01*
X116761904Y-108057142D01*
X116809523Y-108104761D01*
X116904761Y-108152380D01*
X117142857Y-108152380D01*
X117238095Y-108104761D01*
X117285714Y-108057142D01*
X121861904Y-106352380D02*
X121861904Y-105352380D01*
X121290476Y-106352380D02*
X121719047Y-105780952D01*
X121290476Y-105352380D02*
X121861904Y-105923809D01*
%TO.C,D6*%
X118238095Y-110752380D02*
X118238095Y-109752380D01*
X118000000Y-109752380D01*
X117857142Y-109800000D01*
X117761904Y-109895238D01*
X117714285Y-109990476D01*
X117666666Y-110180952D01*
X117666666Y-110323809D01*
X117714285Y-110514285D01*
X117761904Y-110609523D01*
X117857142Y-110704761D01*
X118000000Y-110752380D01*
X118238095Y-110752380D01*
X116809523Y-109752380D02*
X117000000Y-109752380D01*
X117095238Y-109800000D01*
X117142857Y-109847619D01*
X117238095Y-109990476D01*
X117285714Y-110180952D01*
X117285714Y-110561904D01*
X117238095Y-110657142D01*
X117190476Y-110704761D01*
X117095238Y-110752380D01*
X116904761Y-110752380D01*
X116809523Y-110704761D01*
X116761904Y-110657142D01*
X116714285Y-110561904D01*
X116714285Y-110323809D01*
X116761904Y-110228571D01*
X116809523Y-110180952D01*
X116904761Y-110133333D01*
X117095238Y-110133333D01*
X117190476Y-110180952D01*
X117238095Y-110228571D01*
X117285714Y-110323809D01*
X121861904Y-108952380D02*
X121861904Y-107952380D01*
X121290476Y-108952380D02*
X121719047Y-108380952D01*
X121290476Y-107952380D02*
X121861904Y-108523809D01*
%TO.C,D10*%
X130514285Y-133052380D02*
X130514285Y-132052380D01*
X130276190Y-132052380D01*
X130133333Y-132100000D01*
X130038095Y-132195238D01*
X129990476Y-132290476D01*
X129942857Y-132480952D01*
X129942857Y-132623809D01*
X129990476Y-132814285D01*
X130038095Y-132909523D01*
X130133333Y-133004761D01*
X130276190Y-133052380D01*
X130514285Y-133052380D01*
X128990476Y-133052380D02*
X129561904Y-133052380D01*
X129276190Y-133052380D02*
X129276190Y-132052380D01*
X129371428Y-132195238D01*
X129466666Y-132290476D01*
X129561904Y-132338095D01*
X128371428Y-132052380D02*
X128276190Y-132052380D01*
X128180952Y-132100000D01*
X128133333Y-132147619D01*
X128085714Y-132242857D01*
X128038095Y-132433333D01*
X128038095Y-132671428D01*
X128085714Y-132861904D01*
X128133333Y-132957142D01*
X128180952Y-133004761D01*
X128276190Y-133052380D01*
X128371428Y-133052380D01*
X128466666Y-133004761D01*
X128514285Y-132957142D01*
X128561904Y-132861904D01*
X128609523Y-132671428D01*
X128609523Y-132433333D01*
X128561904Y-132242857D01*
X128514285Y-132147619D01*
X128466666Y-132100000D01*
X128371428Y-132052380D01*
X131552380Y-130638095D02*
X130552380Y-130638095D01*
X131552380Y-131209523D02*
X130980952Y-130780952D01*
X130552380Y-131209523D02*
X131123809Y-130638095D01*
%TO.C,R4*%
X105052380Y-91533333D02*
X104576190Y-91200000D01*
X105052380Y-90961904D02*
X104052380Y-90961904D01*
X104052380Y-91342857D01*
X104100000Y-91438095D01*
X104147619Y-91485714D01*
X104242857Y-91533333D01*
X104385714Y-91533333D01*
X104480952Y-91485714D01*
X104528571Y-91438095D01*
X104576190Y-91342857D01*
X104576190Y-90961904D01*
X104385714Y-92390476D02*
X105052380Y-92390476D01*
X104004761Y-92152380D02*
X104719047Y-91914285D01*
X104719047Y-92533333D01*
X111014285Y-91052380D02*
X110395238Y-91052380D01*
X110728571Y-91433333D01*
X110585714Y-91433333D01*
X110490476Y-91480952D01*
X110442857Y-91528571D01*
X110395238Y-91623809D01*
X110395238Y-91861904D01*
X110442857Y-91957142D01*
X110490476Y-92004761D01*
X110585714Y-92052380D01*
X110871428Y-92052380D01*
X110966666Y-92004761D01*
X111014285Y-91957142D01*
X110061904Y-91052380D02*
X109442857Y-91052380D01*
X109776190Y-91433333D01*
X109633333Y-91433333D01*
X109538095Y-91480952D01*
X109490476Y-91528571D01*
X109442857Y-91623809D01*
X109442857Y-91861904D01*
X109490476Y-91957142D01*
X109538095Y-92004761D01*
X109633333Y-92052380D01*
X109919047Y-92052380D01*
X110014285Y-92004761D01*
X110061904Y-91957142D01*
X109014285Y-92052380D02*
X109014285Y-91052380D01*
X108919047Y-91671428D02*
X108633333Y-92052380D01*
X108633333Y-91385714D02*
X109014285Y-91766666D01*
%TO.C,R5*%
X129198666Y-106370380D02*
X129532000Y-105894190D01*
X129770095Y-106370380D02*
X129770095Y-105370380D01*
X129389142Y-105370380D01*
X129293904Y-105418000D01*
X129246285Y-105465619D01*
X129198666Y-105560857D01*
X129198666Y-105703714D01*
X129246285Y-105798952D01*
X129293904Y-105846571D01*
X129389142Y-105894190D01*
X129770095Y-105894190D01*
X128293904Y-105370380D02*
X128770095Y-105370380D01*
X128817714Y-105846571D01*
X128770095Y-105798952D01*
X128674857Y-105751333D01*
X128436761Y-105751333D01*
X128341523Y-105798952D01*
X128293904Y-105846571D01*
X128246285Y-105941809D01*
X128246285Y-106179904D01*
X128293904Y-106275142D01*
X128341523Y-106322761D01*
X128436761Y-106370380D01*
X128674857Y-106370380D01*
X128770095Y-106322761D01*
X128817714Y-106275142D01*
X128484380Y-110037714D02*
X128484380Y-110656761D01*
X128865333Y-110323428D01*
X128865333Y-110466285D01*
X128912952Y-110561523D01*
X128960571Y-110609142D01*
X129055809Y-110656761D01*
X129293904Y-110656761D01*
X129389142Y-110609142D01*
X129436761Y-110561523D01*
X129484380Y-110466285D01*
X129484380Y-110180571D01*
X129436761Y-110085333D01*
X129389142Y-110037714D01*
X128484380Y-110990095D02*
X128484380Y-111609142D01*
X128865333Y-111275809D01*
X128865333Y-111418666D01*
X128912952Y-111513904D01*
X128960571Y-111561523D01*
X129055809Y-111609142D01*
X129293904Y-111609142D01*
X129389142Y-111561523D01*
X129436761Y-111513904D01*
X129484380Y-111418666D01*
X129484380Y-111132952D01*
X129436761Y-111037714D01*
X129389142Y-110990095D01*
X129484380Y-112037714D02*
X128484380Y-112037714D01*
X129103428Y-112132952D02*
X129484380Y-112418666D01*
X128817714Y-112418666D02*
X129198666Y-112037714D01*
%TO.C,R7*%
X126150666Y-106370380D02*
X126484000Y-105894190D01*
X126722095Y-106370380D02*
X126722095Y-105370380D01*
X126341142Y-105370380D01*
X126245904Y-105418000D01*
X126198285Y-105465619D01*
X126150666Y-105560857D01*
X126150666Y-105703714D01*
X126198285Y-105798952D01*
X126245904Y-105846571D01*
X126341142Y-105894190D01*
X126722095Y-105894190D01*
X125817333Y-105370380D02*
X125150666Y-105370380D01*
X125579238Y-106370380D01*
X125452380Y-110037714D02*
X125452380Y-110656761D01*
X125833333Y-110323428D01*
X125833333Y-110466285D01*
X125880952Y-110561523D01*
X125928571Y-110609142D01*
X126023809Y-110656761D01*
X126261904Y-110656761D01*
X126357142Y-110609142D01*
X126404761Y-110561523D01*
X126452380Y-110466285D01*
X126452380Y-110180571D01*
X126404761Y-110085333D01*
X126357142Y-110037714D01*
X125452380Y-110990095D02*
X125452380Y-111609142D01*
X125833333Y-111275809D01*
X125833333Y-111418666D01*
X125880952Y-111513904D01*
X125928571Y-111561523D01*
X126023809Y-111609142D01*
X126261904Y-111609142D01*
X126357142Y-111561523D01*
X126404761Y-111513904D01*
X126452380Y-111418666D01*
X126452380Y-111132952D01*
X126404761Y-111037714D01*
X126357142Y-110990095D01*
X126452380Y-112037714D02*
X125452380Y-112037714D01*
X126071428Y-112132952D02*
X126452380Y-112418666D01*
X125785714Y-112418666D02*
X126166666Y-112037714D01*
%TO.C,R8*%
X132246666Y-106370380D02*
X132580000Y-105894190D01*
X132818095Y-106370380D02*
X132818095Y-105370380D01*
X132437142Y-105370380D01*
X132341904Y-105418000D01*
X132294285Y-105465619D01*
X132246666Y-105560857D01*
X132246666Y-105703714D01*
X132294285Y-105798952D01*
X132341904Y-105846571D01*
X132437142Y-105894190D01*
X132818095Y-105894190D01*
X131675238Y-105798952D02*
X131770476Y-105751333D01*
X131818095Y-105703714D01*
X131865714Y-105608476D01*
X131865714Y-105560857D01*
X131818095Y-105465619D01*
X131770476Y-105418000D01*
X131675238Y-105370380D01*
X131484761Y-105370380D01*
X131389523Y-105418000D01*
X131341904Y-105465619D01*
X131294285Y-105560857D01*
X131294285Y-105608476D01*
X131341904Y-105703714D01*
X131389523Y-105751333D01*
X131484761Y-105798952D01*
X131675238Y-105798952D01*
X131770476Y-105846571D01*
X131818095Y-105894190D01*
X131865714Y-105989428D01*
X131865714Y-106179904D01*
X131818095Y-106275142D01*
X131770476Y-106322761D01*
X131675238Y-106370380D01*
X131484761Y-106370380D01*
X131389523Y-106322761D01*
X131341904Y-106275142D01*
X131294285Y-106179904D01*
X131294285Y-105989428D01*
X131341904Y-105894190D01*
X131389523Y-105846571D01*
X131484761Y-105798952D01*
X131452380Y-110037714D02*
X131452380Y-110656761D01*
X131833333Y-110323428D01*
X131833333Y-110466285D01*
X131880952Y-110561523D01*
X131928571Y-110609142D01*
X132023809Y-110656761D01*
X132261904Y-110656761D01*
X132357142Y-110609142D01*
X132404761Y-110561523D01*
X132452380Y-110466285D01*
X132452380Y-110180571D01*
X132404761Y-110085333D01*
X132357142Y-110037714D01*
X131452380Y-110990095D02*
X131452380Y-111609142D01*
X131833333Y-111275809D01*
X131833333Y-111418666D01*
X131880952Y-111513904D01*
X131928571Y-111561523D01*
X132023809Y-111609142D01*
X132261904Y-111609142D01*
X132357142Y-111561523D01*
X132404761Y-111513904D01*
X132452380Y-111418666D01*
X132452380Y-111132952D01*
X132404761Y-111037714D01*
X132357142Y-110990095D01*
X132452380Y-112037714D02*
X131452380Y-112037714D01*
X132071428Y-112132952D02*
X132452380Y-112418666D01*
X131785714Y-112418666D02*
X132166666Y-112037714D01*
%TO.C,R9*%
X105052380Y-94533333D02*
X104576190Y-94200000D01*
X105052380Y-93961904D02*
X104052380Y-93961904D01*
X104052380Y-94342857D01*
X104100000Y-94438095D01*
X104147619Y-94485714D01*
X104242857Y-94533333D01*
X104385714Y-94533333D01*
X104480952Y-94485714D01*
X104528571Y-94438095D01*
X104576190Y-94342857D01*
X104576190Y-93961904D01*
X105052380Y-95009523D02*
X105052380Y-95200000D01*
X105004761Y-95295238D01*
X104957142Y-95342857D01*
X104814285Y-95438095D01*
X104623809Y-95485714D01*
X104242857Y-95485714D01*
X104147619Y-95438095D01*
X104100000Y-95390476D01*
X104052380Y-95295238D01*
X104052380Y-95104761D01*
X104100000Y-95009523D01*
X104147619Y-94961904D01*
X104242857Y-94914285D01*
X104480952Y-94914285D01*
X104576190Y-94961904D01*
X104623809Y-95009523D01*
X104671428Y-95104761D01*
X104671428Y-95295238D01*
X104623809Y-95390476D01*
X104576190Y-95438095D01*
X104480952Y-95485714D01*
X111414285Y-94152380D02*
X110795238Y-94152380D01*
X111128571Y-94533333D01*
X110985714Y-94533333D01*
X110890476Y-94580952D01*
X110842857Y-94628571D01*
X110795238Y-94723809D01*
X110795238Y-94961904D01*
X110842857Y-95057142D01*
X110890476Y-95104761D01*
X110985714Y-95152380D01*
X111271428Y-95152380D01*
X111366666Y-95104761D01*
X111414285Y-95057142D01*
X110461904Y-94152380D02*
X109842857Y-94152380D01*
X110176190Y-94533333D01*
X110033333Y-94533333D01*
X109938095Y-94580952D01*
X109890476Y-94628571D01*
X109842857Y-94723809D01*
X109842857Y-94961904D01*
X109890476Y-95057142D01*
X109938095Y-95104761D01*
X110033333Y-95152380D01*
X110319047Y-95152380D01*
X110414285Y-95104761D01*
X110461904Y-95057142D01*
X109414285Y-95152380D02*
X109414285Y-94152380D01*
X109319047Y-94771428D02*
X109033333Y-95152380D01*
X109033333Y-94485714D02*
X109414285Y-94866666D01*
%TO.C,R11*%
X125852380Y-90957142D02*
X125376190Y-90623809D01*
X125852380Y-90385714D02*
X124852380Y-90385714D01*
X124852380Y-90766666D01*
X124900000Y-90861904D01*
X124947619Y-90909523D01*
X125042857Y-90957142D01*
X125185714Y-90957142D01*
X125280952Y-90909523D01*
X125328571Y-90861904D01*
X125376190Y-90766666D01*
X125376190Y-90385714D01*
X125852380Y-91909523D02*
X125852380Y-91338095D01*
X125852380Y-91623809D02*
X124852380Y-91623809D01*
X124995238Y-91528571D01*
X125090476Y-91433333D01*
X125138095Y-91338095D01*
X125852380Y-92861904D02*
X125852380Y-92290476D01*
X125852380Y-92576190D02*
X124852380Y-92576190D01*
X124995238Y-92480952D01*
X125090476Y-92385714D01*
X125138095Y-92290476D01*
X120290476Y-91147619D02*
X120242857Y-91100000D01*
X120147619Y-91052380D01*
X119909523Y-91052380D01*
X119814285Y-91100000D01*
X119766666Y-91147619D01*
X119719047Y-91242857D01*
X119719047Y-91338095D01*
X119766666Y-91480952D01*
X120338095Y-92052380D01*
X119719047Y-92052380D01*
X119290476Y-92052380D02*
X119290476Y-91052380D01*
X119195238Y-91671428D02*
X118909523Y-92052380D01*
X118909523Y-91385714D02*
X119290476Y-91766666D01*
%TO.C,R16*%
X132742857Y-133052380D02*
X133076190Y-132576190D01*
X133314285Y-133052380D02*
X133314285Y-132052380D01*
X132933333Y-132052380D01*
X132838095Y-132100000D01*
X132790476Y-132147619D01*
X132742857Y-132242857D01*
X132742857Y-132385714D01*
X132790476Y-132480952D01*
X132838095Y-132528571D01*
X132933333Y-132576190D01*
X133314285Y-132576190D01*
X131790476Y-133052380D02*
X132361904Y-133052380D01*
X132076190Y-133052380D02*
X132076190Y-132052380D01*
X132171428Y-132195238D01*
X132266666Y-132290476D01*
X132361904Y-132338095D01*
X130933333Y-132052380D02*
X131123809Y-132052380D01*
X131219047Y-132100000D01*
X131266666Y-132147619D01*
X131361904Y-132290476D01*
X131409523Y-132480952D01*
X131409523Y-132861904D01*
X131361904Y-132957142D01*
X131314285Y-133004761D01*
X131219047Y-133052380D01*
X131028571Y-133052380D01*
X130933333Y-133004761D01*
X130885714Y-132957142D01*
X130838095Y-132861904D01*
X130838095Y-132623809D01*
X130885714Y-132528571D01*
X130933333Y-132480952D01*
X131028571Y-132433333D01*
X131219047Y-132433333D01*
X131314285Y-132480952D01*
X131361904Y-132528571D01*
X131409523Y-132623809D01*
X131647619Y-125495238D02*
X131600000Y-125542857D01*
X131552380Y-125638095D01*
X131552380Y-125876190D01*
X131600000Y-125971428D01*
X131647619Y-126019047D01*
X131742857Y-126066666D01*
X131838095Y-126066666D01*
X131980952Y-126019047D01*
X132552380Y-125447619D01*
X132552380Y-126066666D01*
X132457142Y-126495238D02*
X132504761Y-126542857D01*
X132552380Y-126495238D01*
X132504761Y-126447619D01*
X132457142Y-126495238D01*
X132552380Y-126495238D01*
X131552380Y-126876190D02*
X131552380Y-127542857D01*
X132552380Y-127114285D01*
X132552380Y-127923809D02*
X131552380Y-127923809D01*
X132171428Y-128019047D02*
X132552380Y-128304761D01*
X131885714Y-128304761D02*
X132266666Y-127923809D01*
%TO.C,R17*%
X112542857Y-123252380D02*
X112876190Y-122776190D01*
X113114285Y-123252380D02*
X113114285Y-122252380D01*
X112733333Y-122252380D01*
X112638095Y-122300000D01*
X112590476Y-122347619D01*
X112542857Y-122442857D01*
X112542857Y-122585714D01*
X112590476Y-122680952D01*
X112638095Y-122728571D01*
X112733333Y-122776190D01*
X113114285Y-122776190D01*
X111590476Y-123252380D02*
X112161904Y-123252380D01*
X111876190Y-123252380D02*
X111876190Y-122252380D01*
X111971428Y-122395238D01*
X112066666Y-122490476D01*
X112161904Y-122538095D01*
X111257142Y-122252380D02*
X110590476Y-122252380D01*
X111019047Y-123252380D01*
X112452380Y-128280952D02*
X112452380Y-127709523D01*
X112452380Y-127995238D02*
X111452380Y-127995238D01*
X111595238Y-127900000D01*
X111690476Y-127804761D01*
X111738095Y-127709523D01*
X112452380Y-128709523D02*
X111452380Y-128709523D01*
X112071428Y-128804761D02*
X112452380Y-129090476D01*
X111785714Y-129090476D02*
X112166666Y-128709523D01*
%TO.C,R18*%
X104852380Y-112557142D02*
X104376190Y-112223809D01*
X104852380Y-111985714D02*
X103852380Y-111985714D01*
X103852380Y-112366666D01*
X103900000Y-112461904D01*
X103947619Y-112509523D01*
X104042857Y-112557142D01*
X104185714Y-112557142D01*
X104280952Y-112509523D01*
X104328571Y-112461904D01*
X104376190Y-112366666D01*
X104376190Y-111985714D01*
X104852380Y-113509523D02*
X104852380Y-112938095D01*
X104852380Y-113223809D02*
X103852380Y-113223809D01*
X103995238Y-113128571D01*
X104090476Y-113033333D01*
X104138095Y-112938095D01*
X104280952Y-114080952D02*
X104233333Y-113985714D01*
X104185714Y-113938095D01*
X104090476Y-113890476D01*
X104042857Y-113890476D01*
X103947619Y-113938095D01*
X103900000Y-113985714D01*
X103852380Y-114080952D01*
X103852380Y-114271428D01*
X103900000Y-114366666D01*
X103947619Y-114414285D01*
X104042857Y-114461904D01*
X104090476Y-114461904D01*
X104185714Y-114414285D01*
X104233333Y-114366666D01*
X104280952Y-114271428D01*
X104280952Y-114080952D01*
X104328571Y-113985714D01*
X104376190Y-113938095D01*
X104471428Y-113890476D01*
X104661904Y-113890476D01*
X104757142Y-113938095D01*
X104804761Y-113985714D01*
X104852380Y-114080952D01*
X104852380Y-114271428D01*
X104804761Y-114366666D01*
X104757142Y-114414285D01*
X104661904Y-114461904D01*
X104471428Y-114461904D01*
X104376190Y-114414285D01*
X104328571Y-114366666D01*
X104280952Y-114271428D01*
X112371428Y-113652380D02*
X112942857Y-113652380D01*
X112657142Y-113652380D02*
X112657142Y-112652380D01*
X112752380Y-112795238D01*
X112847619Y-112890476D01*
X112942857Y-112938095D01*
X111752380Y-112652380D02*
X111657142Y-112652380D01*
X111561904Y-112700000D01*
X111514285Y-112747619D01*
X111466666Y-112842857D01*
X111419047Y-113033333D01*
X111419047Y-113271428D01*
X111466666Y-113461904D01*
X111514285Y-113557142D01*
X111561904Y-113604761D01*
X111657142Y-113652380D01*
X111752380Y-113652380D01*
X111847619Y-113604761D01*
X111895238Y-113557142D01*
X111942857Y-113461904D01*
X111990476Y-113271428D01*
X111990476Y-113033333D01*
X111942857Y-112842857D01*
X111895238Y-112747619D01*
X111847619Y-112700000D01*
X111752380Y-112652380D01*
X110990476Y-113652380D02*
X110990476Y-112652380D01*
X110895238Y-113271428D02*
X110609523Y-113652380D01*
X110609523Y-112985714D02*
X110990476Y-113366666D01*
X110180952Y-113271428D02*
X109419047Y-113271428D01*
X108990476Y-112747619D02*
X108942857Y-112700000D01*
X108847619Y-112652380D01*
X108609523Y-112652380D01*
X108514285Y-112700000D01*
X108466666Y-112747619D01*
X108419047Y-112842857D01*
X108419047Y-112938095D01*
X108466666Y-113080952D01*
X109038095Y-113652380D01*
X108419047Y-113652380D01*
X107800000Y-112652380D02*
X107704761Y-112652380D01*
X107609523Y-112700000D01*
X107561904Y-112747619D01*
X107514285Y-112842857D01*
X107466666Y-113033333D01*
X107466666Y-113271428D01*
X107514285Y-113461904D01*
X107561904Y-113557142D01*
X107609523Y-113604761D01*
X107704761Y-113652380D01*
X107800000Y-113652380D01*
X107895238Y-113604761D01*
X107942857Y-113557142D01*
X107990476Y-113461904D01*
X108038095Y-113271428D01*
X108038095Y-113033333D01*
X107990476Y-112842857D01*
X107942857Y-112747619D01*
X107895238Y-112700000D01*
X107800000Y-112652380D01*
X107038095Y-113652380D02*
X107038095Y-112652380D01*
X106942857Y-113271428D02*
X106657142Y-113652380D01*
X106657142Y-112985714D02*
X107038095Y-113366666D01*
%TO.C,R19*%
X106642857Y-123252380D02*
X106976190Y-122776190D01*
X107214285Y-123252380D02*
X107214285Y-122252380D01*
X106833333Y-122252380D01*
X106738095Y-122300000D01*
X106690476Y-122347619D01*
X106642857Y-122442857D01*
X106642857Y-122585714D01*
X106690476Y-122680952D01*
X106738095Y-122728571D01*
X106833333Y-122776190D01*
X107214285Y-122776190D01*
X105690476Y-123252380D02*
X106261904Y-123252380D01*
X105976190Y-123252380D02*
X105976190Y-122252380D01*
X106071428Y-122395238D01*
X106166666Y-122490476D01*
X106261904Y-122538095D01*
X105214285Y-123252380D02*
X105023809Y-123252380D01*
X104928571Y-123204761D01*
X104880952Y-123157142D01*
X104785714Y-123014285D01*
X104738095Y-122823809D01*
X104738095Y-122442857D01*
X104785714Y-122347619D01*
X104833333Y-122300000D01*
X104928571Y-122252380D01*
X105119047Y-122252380D01*
X105214285Y-122300000D01*
X105261904Y-122347619D01*
X105309523Y-122442857D01*
X105309523Y-122680952D01*
X105261904Y-122776190D01*
X105214285Y-122823809D01*
X105119047Y-122871428D01*
X104928571Y-122871428D01*
X104833333Y-122823809D01*
X104785714Y-122776190D01*
X104738095Y-122680952D01*
X105785714Y-127709523D02*
X106452380Y-127709523D01*
X105404761Y-127471428D02*
X106119047Y-127233333D01*
X106119047Y-127852380D01*
X105452380Y-128138095D02*
X105452380Y-128804761D01*
X106452380Y-128376190D01*
X106452380Y-129185714D02*
X105452380Y-129185714D01*
X106071428Y-129280952D02*
X106452380Y-129566666D01*
X105785714Y-129566666D02*
X106166666Y-129185714D01*
%TO.C,R21*%
X109642857Y-123252380D02*
X109976190Y-122776190D01*
X110214285Y-123252380D02*
X110214285Y-122252380D01*
X109833333Y-122252380D01*
X109738095Y-122300000D01*
X109690476Y-122347619D01*
X109642857Y-122442857D01*
X109642857Y-122585714D01*
X109690476Y-122680952D01*
X109738095Y-122728571D01*
X109833333Y-122776190D01*
X110214285Y-122776190D01*
X109261904Y-122347619D02*
X109214285Y-122300000D01*
X109119047Y-122252380D01*
X108880952Y-122252380D01*
X108785714Y-122300000D01*
X108738095Y-122347619D01*
X108690476Y-122442857D01*
X108690476Y-122538095D01*
X108738095Y-122680952D01*
X109309523Y-123252380D01*
X108690476Y-123252380D01*
X107738095Y-123252380D02*
X108309523Y-123252380D01*
X108023809Y-123252380D02*
X108023809Y-122252380D01*
X108119047Y-122395238D01*
X108214285Y-122490476D01*
X108309523Y-122538095D01*
X108547619Y-126852380D02*
X108500000Y-126900000D01*
X108452380Y-126995238D01*
X108452380Y-127233333D01*
X108500000Y-127328571D01*
X108547619Y-127376190D01*
X108642857Y-127423809D01*
X108738095Y-127423809D01*
X108880952Y-127376190D01*
X109452380Y-126804761D01*
X109452380Y-127423809D01*
X108452380Y-128042857D02*
X108452380Y-128138095D01*
X108500000Y-128233333D01*
X108547619Y-128280952D01*
X108642857Y-128328571D01*
X108833333Y-128376190D01*
X109071428Y-128376190D01*
X109261904Y-128328571D01*
X109357142Y-128280952D01*
X109404761Y-128233333D01*
X109452380Y-128138095D01*
X109452380Y-128042857D01*
X109404761Y-127947619D01*
X109357142Y-127900000D01*
X109261904Y-127852380D01*
X109071428Y-127804761D01*
X108833333Y-127804761D01*
X108642857Y-127852380D01*
X108547619Y-127900000D01*
X108500000Y-127947619D01*
X108452380Y-128042857D01*
X108452380Y-128995238D02*
X108452380Y-129090476D01*
X108500000Y-129185714D01*
X108547619Y-129233333D01*
X108642857Y-129280952D01*
X108833333Y-129328571D01*
X109071428Y-129328571D01*
X109261904Y-129280952D01*
X109357142Y-129233333D01*
X109404761Y-129185714D01*
X109452380Y-129090476D01*
X109452380Y-128995238D01*
X109404761Y-128900000D01*
X109357142Y-128852380D01*
X109261904Y-128804761D01*
X109071428Y-128757142D01*
X108833333Y-128757142D01*
X108642857Y-128804761D01*
X108547619Y-128852380D01*
X108500000Y-128900000D01*
X108452380Y-128995238D01*
X109452380Y-129757142D02*
X108785714Y-129757142D01*
X108976190Y-129757142D02*
X108880952Y-129804761D01*
X108833333Y-129852380D01*
X108785714Y-129947619D01*
X108785714Y-130042857D01*
%TD*%
M02*
