M48
; DRILL file {KiCad 5.1.9+dfsg1-1~bpo10+1} date Fri Mar 11 22:19:33 2022
; FORMAT={2:4/ absolute / inch / suppress leading zeros}
; #@! TF.CreationDate,2022-03-11T22:19:33+08:00
; #@! TF.GenerationSoftware,Kicad,Pcbnew,5.1.9+dfsg1-1~bpo10+1
FMAT,2
INCH,TZ
T1C0.0157
T2C0.0315
T3C0.0354
T4C0.0394
T5C0.0433
T6C0.0480
T7C0.0559
T8C0.0563
%
G90
G05
T1
X28642Y-29705
X28898Y-36024
X28937Y-31024
X28937Y-47835
X28937Y-57677
X29134Y-41732
X29134Y-43504
X29134Y-44291
X29134Y-58858
X29134Y-59843
X29331Y-46850
X29331Y-51969
X29331Y-53543
X29331Y-56496
X29449Y-37047
X29528Y-42717
X29528Y-45276
X29528Y-47244
X29528Y-59252
X29646Y-36339
X29724Y-40000
X29921Y-53150
X30118Y-24606
X30197Y-36811
X30512Y-21654
X30984Y-37953
X31102Y-25000
X31102Y-46260
X31299Y-28583
X31496Y-39252
X31496Y-59646
X31654Y-40236
X31693Y-22047
X31772Y-37559
X31890Y-51378
X31890Y-57480
X32087Y-24213
X32087Y-44291
X32283Y-21850
X32283Y-23031
X32283Y-42913
X32283Y-59055
X32677Y-24409
X33071Y-32677
X33071Y-43701
X33071Y-58268
X33189Y-29409
X33268Y-58465
X33465Y-34252
X33858Y-58661
X34055Y-33661
X34331Y-30197
X34449Y-34252
X34449Y-58268
X34567Y-30748
X35236Y-25787
X35433Y-51772
X35591Y-29803
X35630Y-45276
X35827Y-42717
X36220Y-26969
X36220Y-43504
X36220Y-55906
X36417Y-55118
X36614Y-28150
X36614Y-58268
X36811Y-54724
X36811Y-59252
X37008Y-26969
X37008Y-29134
X37008Y-49409
X37008Y-56299
X37008Y-58661
X37402Y-50394
X37598Y-44488
X37598Y-45669
X37598Y-49606
X37598Y-51378
X37992Y-26575
X38189Y-45669
X38189Y-51969
X38386Y-25787
X38976Y-52362
X38976Y-54528
T2
X30551Y-35748
X33071Y-56890
X33071Y-59890
X33551Y-35748
X34252Y-56890
X34252Y-59890
X35039Y-35787
X35039Y-36772
X35039Y-37756
X35039Y-38858
X35039Y-40039
X35039Y-41260
X35433Y-57008
X35433Y-58976
X38039Y-35787
X38039Y-36772
X38039Y-37756
X38039Y-38858
X38039Y-40039
X38039Y-41260
T3
X33760Y-55512
X34760Y-55512
X34843Y-32972
X35220Y-22244
X35843Y-32972
X36220Y-22244
X37402Y-32972
X37780Y-22244
X38402Y-32972
X38780Y-22244
T4
X29299Y-34449
X29331Y-27165
X30299Y-34449
X30331Y-27165
X30512Y-25984
X30512Y-41339
X31299Y-34449
X31331Y-27165
X31496Y-25984
X31496Y-41339
X32480Y-25984
X32480Y-41339
X33350Y-44480
X35827Y-31102
X36024Y-46850
X36024Y-53543
X36811Y-31102
X37008Y-46850
X37008Y-53543
X37795Y-31102
X37992Y-46850
X37992Y-53543
X39173Y-35039
X39173Y-36039
X39173Y-37039
X39173Y-38039
X39173Y-39039
X39173Y-40039
X39173Y-41039
T6
X30512Y-43701
X30512Y-49606
X30512Y-55512
X37992Y-55512
T7
X30512Y-44921
X30512Y-50827
X30512Y-56732
X37992Y-56732
T8
X30512Y-48189
X30512Y-54094
X30512Y-60000
X37992Y-60000
T3
G00X30413Y-29252
M15
G01X29902Y-29252
M16
G05
G00X30413Y-31102
M15
G01X29902Y-31102
M16
G05
G00X30413Y-32953
M15
G01X29902Y-32953
M16
G05
G00X32303Y-29252
M15
G01X31791Y-29252
M16
G05
G00X32303Y-31102
M15
G01X31791Y-31102
M16
G05
G00X32303Y-32953
M15
G01X31791Y-32953
M16
G05
T5
G00X29606Y-23268
M15
G01X29606Y-22795
M16
G05
G00X29606Y-38622
M15
G01X29606Y-38150
M16
G05
G00X33386Y-23268
M15
G01X33386Y-22795
M16
G05
G00X33386Y-38622
M15
G01X33386Y-38150
M16
G05
G00X34921Y-28386
M15
G01X34921Y-27913
M16
G05
G00X35118Y-44134
M15
G01X35118Y-43661
M16
G05
G00X35118Y-50827
M15
G01X35118Y-50354
M16
G05
G00X38701Y-28386
M15
G01X38701Y-27913
M16
G05
G00X38898Y-44134
M15
G01X38898Y-43661
M16
G05
G00X38898Y-50827
M15
G01X38898Y-50354
M16
G05
T0
M30
