%TF.GenerationSoftware,KiCad,Pcbnew,5.1.9+dfsg1-1~bpo10+1*%
%TF.CreationDate,2022-03-11T22:19:31+08:00*%
%TF.ProjectId,MiniVCF  v1.1 -  Control,4d696e69-5643-4462-9020-76312e31202d,rev?*%
%TF.SameCoordinates,Original*%
%TF.FileFunction,Soldermask,Top*%
%TF.FilePolarity,Negative*%
%FSLAX46Y46*%
G04 Gerber Fmt 4.6, Leading zero omitted, Abs format (unit mm)*
G04 Created by KiCad (PCBNEW 5.1.9+dfsg1-1~bpo10+1) date 2022-03-11 22:19:31*
%MOMM*%
%LPD*%
G01*
G04 APERTURE LIST*
%ADD10R,1.800000X1.800000*%
%ADD11C,1.800000*%
%ADD12C,2.000000*%
%ADD13O,2.720000X3.240000*%
%ADD14C,1.600000*%
%ADD15O,1.600000X1.600000*%
%ADD16R,1.600000X1.600000*%
%ADD17C,2.130000*%
%ADD18R,1.930000X1.830000*%
%ADD19R,1.700000X1.700000*%
%ADD20O,1.700000X1.700000*%
%ADD21O,3.200000X1.800000*%
G04 APERTURE END LIST*
D10*
%TO.C,D13*%
X95000000Y-83750000D03*
D11*
X97540000Y-83750000D03*
%TD*%
%TO.C,D12*%
X91040000Y-83750000D03*
D10*
X88500000Y-83750000D03*
%TD*%
D12*
%TO.C,REF\u002A\u002A*%
X84709000Y-112980000D03*
%TD*%
D10*
%TO.C,POST_LPF1*%
X77500000Y-105000000D03*
D11*
X82500000Y-105000000D03*
X80000000Y-105000000D03*
D13*
X84800000Y-97500000D03*
X75200000Y-97500000D03*
%TD*%
D14*
%TO.C,C14*%
X90000000Y-144800000D03*
X90000000Y-149800000D03*
%TD*%
D15*
%TO.C,D7*%
X96620000Y-95900000D03*
D16*
X89000000Y-95900000D03*
%TD*%
%TO.C,D8*%
X89000000Y-93400000D03*
D15*
X96620000Y-93400000D03*
%TD*%
%TO.C,D9*%
X96620000Y-90900000D03*
D16*
X89000000Y-90900000D03*
%TD*%
D15*
%TO.C,R13*%
X85220000Y-90800000D03*
D14*
X77600000Y-90800000D03*
%TD*%
%TO.C,R14*%
X89000000Y-98700000D03*
D15*
X96620000Y-98700000D03*
%TD*%
%TO.C,R15*%
X96620000Y-104800000D03*
D14*
X89000000Y-104800000D03*
%TD*%
D15*
%TO.C,R20*%
X87000000Y-152120000D03*
D14*
X87000000Y-144500000D03*
%TD*%
D15*
%TO.C,R22*%
X96620000Y-101700000D03*
D14*
X89000000Y-101700000D03*
%TD*%
D15*
%TO.C,R23*%
X84000000Y-152120000D03*
D14*
X84000000Y-144500000D03*
%TD*%
D10*
%TO.C,CUTOFF1*%
X77500000Y-66000000D03*
D11*
X82500000Y-66000000D03*
X80000000Y-66000000D03*
D13*
X84800000Y-58500000D03*
X75200000Y-58500000D03*
%TD*%
%TO.C,CV_AMT1*%
X89200000Y-111500000D03*
X98800000Y-111500000D03*
D11*
X94000000Y-119000000D03*
X96500000Y-119000000D03*
D10*
X91500000Y-119000000D03*
%TD*%
%TO.C,CV_AMT2*%
X91500000Y-136000000D03*
D11*
X96500000Y-136000000D03*
X94000000Y-136000000D03*
D13*
X98800000Y-128500000D03*
X89200000Y-128500000D03*
%TD*%
D11*
%TO.C,D14*%
X89460000Y-56500000D03*
D10*
X92000000Y-56500000D03*
%TD*%
%TO.C,D15*%
X98500000Y-56500000D03*
D11*
X95960000Y-56500000D03*
%TD*%
D10*
%TO.C,D16*%
X85750000Y-141000000D03*
D11*
X88290000Y-141000000D03*
%TD*%
D17*
%TO.C,J3*%
X77500000Y-152400000D03*
X77500000Y-144100000D03*
D18*
X77500000Y-141000000D03*
%TD*%
D17*
%TO.C,J4*%
X77500000Y-122400000D03*
X77500000Y-114100000D03*
D18*
X77500000Y-111000000D03*
%TD*%
%TO.C,J5*%
X96500000Y-141000000D03*
D17*
X96500000Y-144100000D03*
X96500000Y-152400000D03*
%TD*%
D19*
%TO.C,J6*%
X74500000Y-69000000D03*
D20*
X77040000Y-69000000D03*
X79580000Y-69000000D03*
%TD*%
D19*
%TO.C,J9*%
X99500000Y-89000000D03*
D20*
X99500000Y-91540000D03*
X99500000Y-94080000D03*
X99500000Y-96620000D03*
X99500000Y-99160000D03*
X99500000Y-101700000D03*
X99500000Y-104240000D03*
%TD*%
D18*
%TO.C,J10*%
X77500000Y-126000000D03*
D17*
X77500000Y-129100000D03*
X77500000Y-137400000D03*
%TD*%
D20*
%TO.C,J11*%
X74420000Y-87500000D03*
X76960000Y-87500000D03*
D19*
X79500000Y-87500000D03*
%TD*%
D13*
%TO.C,RESO2*%
X88700000Y-71500000D03*
X98300000Y-71500000D03*
D11*
X93500000Y-79000000D03*
X96000000Y-79000000D03*
D10*
X91000000Y-79000000D03*
%TD*%
D21*
%TO.C,LP_BP_SWITCH1*%
X81400000Y-79000000D03*
X81400000Y-83700000D03*
X81400000Y-74300000D03*
X76600000Y-79000000D03*
X76600000Y-83700000D03*
X76600000Y-74300000D03*
%TD*%
M02*
