%TF.GenerationSoftware,KiCad,Pcbnew,5.1.9+dfsg1-1~bpo10+1*%
%TF.CreationDate,2022-03-11T22:19:31+08:00*%
%TF.ProjectId,MiniVCF  v1.1 -  Control,4d696e69-5643-4462-9020-76312e31202d,rev?*%
%TF.SameCoordinates,Original*%
%TF.FileFunction,Legend,Bot*%
%TF.FilePolarity,Positive*%
%FSLAX46Y46*%
G04 Gerber Fmt 4.6, Leading zero omitted, Abs format (unit mm)*
G04 Created by KiCad (PCBNEW 5.1.9+dfsg1-1~bpo10+1) date 2022-03-11 22:19:31*
%MOMM*%
%LPD*%
G01*
G04 APERTURE LIST*
%ADD10C,0.150000*%
%ADD11C,0.120000*%
G04 APERTURE END LIST*
D10*
X85310571Y-111650428D02*
X85596285Y-111650428D01*
X85596285Y-111050428D01*
X84996285Y-111050428D02*
X84882000Y-111050428D01*
X84824857Y-111079000D01*
X84767714Y-111136142D01*
X84739142Y-111250428D01*
X84739142Y-111450428D01*
X84767714Y-111564714D01*
X84824857Y-111621857D01*
X84882000Y-111650428D01*
X84996285Y-111650428D01*
X85053428Y-111621857D01*
X85110571Y-111564714D01*
X85139142Y-111450428D01*
X85139142Y-111250428D01*
X85110571Y-111136142D01*
X85053428Y-111079000D01*
X84996285Y-111050428D01*
X84139142Y-111593285D02*
X84167714Y-111621857D01*
X84253428Y-111650428D01*
X84310571Y-111650428D01*
X84396285Y-111621857D01*
X84453428Y-111564714D01*
X84482000Y-111507571D01*
X84510571Y-111393285D01*
X84510571Y-111307571D01*
X84482000Y-111193285D01*
X84453428Y-111136142D01*
X84396285Y-111079000D01*
X84310571Y-111050428D01*
X84253428Y-111050428D01*
X84167714Y-111079000D01*
X84139142Y-111107571D01*
X83882000Y-111650428D02*
X83882000Y-111050428D01*
X83539142Y-111650428D02*
X83796285Y-111307571D01*
X83539142Y-111050428D02*
X83882000Y-111393285D01*
D11*
%TO.C,J6*%
X73170000Y-69000000D02*
X73170000Y-70330000D01*
X73170000Y-70330000D02*
X74500000Y-70330000D01*
X75770000Y-70330000D02*
X80910000Y-70330000D01*
X80910000Y-67670000D02*
X80910000Y-70330000D01*
X75770000Y-67670000D02*
X80910000Y-67670000D01*
X75770000Y-67670000D02*
X75770000Y-70330000D01*
%TO.C,J9*%
X99500000Y-87670000D02*
X98170000Y-87670000D01*
X98170000Y-87670000D02*
X98170000Y-89000000D01*
X98170000Y-90270000D02*
X98170000Y-105570000D01*
X100830000Y-105570000D02*
X98170000Y-105570000D01*
X100830000Y-90270000D02*
X100830000Y-105570000D01*
X100830000Y-90270000D02*
X98170000Y-90270000D01*
%TO.C,J11*%
X78230000Y-88830000D02*
X78230000Y-86170000D01*
X78230000Y-88830000D02*
X73090000Y-88830000D01*
X73090000Y-88830000D02*
X73090000Y-86170000D01*
X78230000Y-86170000D02*
X73090000Y-86170000D01*
X80830000Y-86170000D02*
X79500000Y-86170000D01*
X80830000Y-87500000D02*
X80830000Y-86170000D01*
%TO.C,J6*%
D10*
X74833333Y-66652380D02*
X74833333Y-67366666D01*
X74880952Y-67509523D01*
X74976190Y-67604761D01*
X75119047Y-67652380D01*
X75214285Y-67652380D01*
X73928571Y-66652380D02*
X74119047Y-66652380D01*
X74214285Y-66700000D01*
X74261904Y-66747619D01*
X74357142Y-66890476D01*
X74404761Y-67080952D01*
X74404761Y-67461904D01*
X74357142Y-67557142D01*
X74309523Y-67604761D01*
X74214285Y-67652380D01*
X74023809Y-67652380D01*
X73928571Y-67604761D01*
X73880952Y-67557142D01*
X73833333Y-67461904D01*
X73833333Y-67223809D01*
X73880952Y-67128571D01*
X73928571Y-67080952D01*
X74023809Y-67033333D01*
X74214285Y-67033333D01*
X74309523Y-67080952D01*
X74357142Y-67128571D01*
X74404761Y-67223809D01*
%TO.C,J9*%
X100833333Y-85952380D02*
X100833333Y-86666666D01*
X100880952Y-86809523D01*
X100976190Y-86904761D01*
X101119047Y-86952380D01*
X101214285Y-86952380D01*
X100309523Y-86952380D02*
X100119047Y-86952380D01*
X100023809Y-86904761D01*
X99976190Y-86857142D01*
X99880952Y-86714285D01*
X99833333Y-86523809D01*
X99833333Y-86142857D01*
X99880952Y-86047619D01*
X99928571Y-86000000D01*
X100023809Y-85952380D01*
X100214285Y-85952380D01*
X100309523Y-86000000D01*
X100357142Y-86047619D01*
X100404761Y-86142857D01*
X100404761Y-86380952D01*
X100357142Y-86476190D01*
X100309523Y-86523809D01*
X100214285Y-86571428D01*
X100023809Y-86571428D01*
X99928571Y-86523809D01*
X99880952Y-86476190D01*
X99833333Y-86380952D01*
%TO.C,J11*%
X80309523Y-84452380D02*
X80309523Y-85166666D01*
X80357142Y-85309523D01*
X80452380Y-85404761D01*
X80595238Y-85452380D01*
X80690476Y-85452380D01*
X79309523Y-85452380D02*
X79880952Y-85452380D01*
X79595238Y-85452380D02*
X79595238Y-84452380D01*
X79690476Y-84595238D01*
X79785714Y-84690476D01*
X79880952Y-84738095D01*
X78357142Y-85452380D02*
X78928571Y-85452380D01*
X78642857Y-85452380D02*
X78642857Y-84452380D01*
X78738095Y-84595238D01*
X78833333Y-84690476D01*
X78928571Y-84738095D01*
%TD*%
M02*
