%TF.GenerationSoftware,KiCad,Pcbnew,5.1.9+dfsg1-1~bpo10+1*%
%TF.CreationDate,2022-02-08T03:18:02+08:00*%
%TF.ProjectId,MiniVCF v1.0 - Control,4d696e69-5643-4462-9076-312e30202d20,rev?*%
%TF.SameCoordinates,Original*%
%TF.FileFunction,Legend,Top*%
%TF.FilePolarity,Positive*%
%FSLAX46Y46*%
G04 Gerber Fmt 4.6, Leading zero omitted, Abs format (unit mm)*
G04 Created by KiCad (PCBNEW 5.1.9+dfsg1-1~bpo10+1) date 2022-02-08 03:18:02*
%MOMM*%
%LPD*%
G01*
G04 APERTURE LIST*
%ADD10C,0.150000*%
%ADD11C,0.120000*%
G04 APERTURE END LIST*
D10*
X83853428Y-111650428D02*
X83567714Y-111650428D01*
X83567714Y-111050428D01*
X84167714Y-111050428D02*
X84282000Y-111050428D01*
X84339142Y-111079000D01*
X84396285Y-111136142D01*
X84424857Y-111250428D01*
X84424857Y-111450428D01*
X84396285Y-111564714D01*
X84339142Y-111621857D01*
X84282000Y-111650428D01*
X84167714Y-111650428D01*
X84110571Y-111621857D01*
X84053428Y-111564714D01*
X84024857Y-111450428D01*
X84024857Y-111250428D01*
X84053428Y-111136142D01*
X84110571Y-111079000D01*
X84167714Y-111050428D01*
X85024857Y-111593285D02*
X84996285Y-111621857D01*
X84910571Y-111650428D01*
X84853428Y-111650428D01*
X84767714Y-111621857D01*
X84710571Y-111564714D01*
X84682000Y-111507571D01*
X84653428Y-111393285D01*
X84653428Y-111307571D01*
X84682000Y-111193285D01*
X84710571Y-111136142D01*
X84767714Y-111079000D01*
X84853428Y-111050428D01*
X84910571Y-111050428D01*
X84996285Y-111079000D01*
X85024857Y-111107571D01*
X85282000Y-111650428D02*
X85282000Y-111050428D01*
X85624857Y-111650428D02*
X85367714Y-111307571D01*
X85624857Y-111050428D02*
X85282000Y-111393285D01*
X88276190Y-64852380D02*
X88276190Y-63852380D01*
X88276190Y-64233333D02*
X88371428Y-64185714D01*
X88561904Y-64185714D01*
X88657142Y-64233333D01*
X88704761Y-64280952D01*
X88752380Y-64376190D01*
X88752380Y-64661904D01*
X88704761Y-64757142D01*
X88657142Y-64804761D01*
X88561904Y-64852380D01*
X88371428Y-64852380D01*
X88276190Y-64804761D01*
X89561904Y-64804761D02*
X89466666Y-64852380D01*
X89276190Y-64852380D01*
X89180952Y-64804761D01*
X89133333Y-64709523D01*
X89133333Y-64328571D01*
X89180952Y-64233333D01*
X89276190Y-64185714D01*
X89466666Y-64185714D01*
X89561904Y-64233333D01*
X89609523Y-64328571D01*
X89609523Y-64423809D01*
X89133333Y-64519047D01*
X90038095Y-64185714D02*
X90038095Y-64852380D01*
X90038095Y-64280952D02*
X90085714Y-64233333D01*
X90180952Y-64185714D01*
X90323809Y-64185714D01*
X90419047Y-64233333D01*
X90466666Y-64328571D01*
X90466666Y-64852380D01*
X90942857Y-64185714D02*
X90942857Y-65042857D01*
X90895238Y-65138095D01*
X90800000Y-65185714D01*
X90752380Y-65185714D01*
X90942857Y-63852380D02*
X90895238Y-63900000D01*
X90942857Y-63947619D01*
X90990476Y-63900000D01*
X90942857Y-63852380D01*
X90942857Y-63947619D01*
X91419047Y-64852380D02*
X91419047Y-64185714D01*
X91419047Y-63852380D02*
X91371428Y-63900000D01*
X91419047Y-63947619D01*
X91466666Y-63900000D01*
X91419047Y-63852380D01*
X91419047Y-63947619D01*
X92323809Y-64852380D02*
X92323809Y-64328571D01*
X92276190Y-64233333D01*
X92180952Y-64185714D01*
X91990476Y-64185714D01*
X91895238Y-64233333D01*
X92323809Y-64804761D02*
X92228571Y-64852380D01*
X91990476Y-64852380D01*
X91895238Y-64804761D01*
X91847619Y-64709523D01*
X91847619Y-64614285D01*
X91895238Y-64519047D01*
X91990476Y-64471428D01*
X92228571Y-64471428D01*
X92323809Y-64423809D01*
X92942857Y-64852380D02*
X92847619Y-64804761D01*
X92800000Y-64757142D01*
X92752380Y-64661904D01*
X92752380Y-64376190D01*
X92800000Y-64280952D01*
X92847619Y-64233333D01*
X92942857Y-64185714D01*
X93085714Y-64185714D01*
X93180952Y-64233333D01*
X93228571Y-64280952D01*
X93276190Y-64376190D01*
X93276190Y-64661904D01*
X93228571Y-64757142D01*
X93180952Y-64804761D01*
X93085714Y-64852380D01*
X92942857Y-64852380D01*
X93704761Y-64852380D02*
X93704761Y-64185714D01*
X93704761Y-64280952D02*
X93752380Y-64233333D01*
X93847619Y-64185714D01*
X93990476Y-64185714D01*
X94085714Y-64233333D01*
X94133333Y-64328571D01*
X94133333Y-64852380D01*
X94133333Y-64328571D02*
X94180952Y-64233333D01*
X94276190Y-64185714D01*
X94419047Y-64185714D01*
X94514285Y-64233333D01*
X94561904Y-64328571D01*
X94561904Y-64852380D01*
X95180952Y-64852380D02*
X95085714Y-64804761D01*
X95038095Y-64757142D01*
X94990476Y-64661904D01*
X94990476Y-64376190D01*
X95038095Y-64280952D01*
X95085714Y-64233333D01*
X95180952Y-64185714D01*
X95323809Y-64185714D01*
X95419047Y-64233333D01*
X95466666Y-64280952D01*
X95514285Y-64376190D01*
X95514285Y-64661904D01*
X95466666Y-64757142D01*
X95419047Y-64804761D01*
X95323809Y-64852380D01*
X95180952Y-64852380D01*
X96371428Y-64852380D02*
X96371428Y-63852380D01*
X96371428Y-64804761D02*
X96276190Y-64852380D01*
X96085714Y-64852380D01*
X95990476Y-64804761D01*
X95942857Y-64757142D01*
X95895238Y-64661904D01*
X95895238Y-64376190D01*
X95942857Y-64280952D01*
X95990476Y-64233333D01*
X96085714Y-64185714D01*
X96276190Y-64185714D01*
X96371428Y-64233333D01*
X97276190Y-64185714D02*
X97276190Y-64852380D01*
X96847619Y-64185714D02*
X96847619Y-64709523D01*
X96895238Y-64804761D01*
X96990476Y-64852380D01*
X97133333Y-64852380D01*
X97228571Y-64804761D01*
X97276190Y-64757142D01*
X97895238Y-64852380D02*
X97800000Y-64804761D01*
X97752380Y-64709523D01*
X97752380Y-63852380D01*
X98704761Y-64852380D02*
X98704761Y-64328571D01*
X98657142Y-64233333D01*
X98561904Y-64185714D01*
X98371428Y-64185714D01*
X98276190Y-64233333D01*
X98704761Y-64804761D02*
X98609523Y-64852380D01*
X98371428Y-64852380D01*
X98276190Y-64804761D01*
X98228571Y-64709523D01*
X98228571Y-64614285D01*
X98276190Y-64519047D01*
X98371428Y-64471428D01*
X98609523Y-64471428D01*
X98704761Y-64423809D01*
X99180952Y-64852380D02*
X99180952Y-64185714D01*
X99180952Y-64376190D02*
X99228571Y-64280952D01*
X99276190Y-64233333D01*
X99371428Y-64185714D01*
X99466666Y-64185714D01*
X89028571Y-63552380D02*
X89028571Y-62552380D01*
X89361904Y-63266666D01*
X89695238Y-62552380D01*
X89695238Y-63552380D01*
X90171428Y-63552380D02*
X90171428Y-62885714D01*
X90171428Y-62552380D02*
X90123809Y-62600000D01*
X90171428Y-62647619D01*
X90219047Y-62600000D01*
X90171428Y-62552380D01*
X90171428Y-62647619D01*
X90647619Y-62885714D02*
X90647619Y-63552380D01*
X90647619Y-62980952D02*
X90695238Y-62933333D01*
X90790476Y-62885714D01*
X90933333Y-62885714D01*
X91028571Y-62933333D01*
X91076190Y-63028571D01*
X91076190Y-63552380D01*
X91552380Y-63552380D02*
X91552380Y-62885714D01*
X91552380Y-62552380D02*
X91504761Y-62600000D01*
X91552380Y-62647619D01*
X91600000Y-62600000D01*
X91552380Y-62552380D01*
X91552380Y-62647619D01*
X91885714Y-62552380D02*
X92219047Y-63552380D01*
X92552380Y-62552380D01*
X93457142Y-63457142D02*
X93409523Y-63504761D01*
X93266666Y-63552380D01*
X93171428Y-63552380D01*
X93028571Y-63504761D01*
X92933333Y-63409523D01*
X92885714Y-63314285D01*
X92838095Y-63123809D01*
X92838095Y-62980952D01*
X92885714Y-62790476D01*
X92933333Y-62695238D01*
X93028571Y-62600000D01*
X93171428Y-62552380D01*
X93266666Y-62552380D01*
X93409523Y-62600000D01*
X93457142Y-62647619D01*
X94219047Y-63028571D02*
X93885714Y-63028571D01*
X93885714Y-63552380D02*
X93885714Y-62552380D01*
X94361904Y-62552380D01*
X95409523Y-62885714D02*
X95647619Y-63552380D01*
X95885714Y-62885714D01*
X96790476Y-63552380D02*
X96219047Y-63552380D01*
X96504761Y-63552380D02*
X96504761Y-62552380D01*
X96409523Y-62695238D01*
X96314285Y-62790476D01*
X96219047Y-62838095D01*
X97219047Y-63457142D02*
X97266666Y-63504761D01*
X97219047Y-63552380D01*
X97171428Y-63504761D01*
X97219047Y-63457142D01*
X97219047Y-63552380D01*
X97885714Y-62552380D02*
X97980952Y-62552380D01*
X98076190Y-62600000D01*
X98123809Y-62647619D01*
X98171428Y-62742857D01*
X98219047Y-62933333D01*
X98219047Y-63171428D01*
X98171428Y-63361904D01*
X98123809Y-63457142D01*
X98076190Y-63504761D01*
X97980952Y-63552380D01*
X97885714Y-63552380D01*
X97790476Y-63504761D01*
X97742857Y-63457142D01*
X97695238Y-63361904D01*
X97647619Y-63171428D01*
X97647619Y-62933333D01*
X97695238Y-62742857D01*
X97742857Y-62647619D01*
X97790476Y-62600000D01*
X97885714Y-62552380D01*
%TO.C,LP_BP_SWITCH1*%
X72600000Y-72500000D02*
X85300000Y-72500000D01*
X85300000Y-72500000D02*
X85300000Y-85700000D01*
X72600000Y-85700000D02*
X72600000Y-72500000D01*
X85300000Y-85700000D02*
X72600000Y-85700000D01*
X82000833Y-79000000D02*
G75*
G03*
X82000833Y-79000000I-3000417J0D01*
G01*
D11*
%TO.C,POST_LPF1*%
X79210000Y-104120000D02*
X78680000Y-104120000D01*
X75130000Y-95590000D02*
X75130000Y-92530000D01*
X75120000Y-104120000D02*
X75120000Y-99400000D01*
X84870000Y-95590000D02*
X84870000Y-92530000D01*
X84870000Y-92530000D02*
X75130000Y-92530000D01*
X76310000Y-104120000D02*
X75130000Y-104120000D01*
X81660000Y-104120000D02*
X80830000Y-104120000D01*
X84870000Y-104120000D02*
X83380000Y-104120000D01*
X84870000Y-104120000D02*
X84870000Y-99400000D01*
%TO.C,C14*%
X88630000Y-143580000D02*
X91370000Y-143580000D01*
X88630000Y-151020000D02*
X88630000Y-143580000D01*
X91370000Y-151020000D02*
X91370000Y-143580000D01*
X88630000Y-151020000D02*
X91370000Y-151020000D01*
%TO.C,D7*%
X91290000Y-94780000D02*
X91290000Y-97020000D01*
X91530000Y-94780000D02*
X91530000Y-97020000D01*
X91410000Y-94780000D02*
X91410000Y-97020000D01*
X95580000Y-95900000D02*
X94930000Y-95900000D01*
X90040000Y-95900000D02*
X90690000Y-95900000D01*
X94930000Y-94780000D02*
X90690000Y-94780000D01*
X94930000Y-97020000D02*
X94930000Y-94780000D01*
X90690000Y-97020000D02*
X94930000Y-97020000D01*
X90690000Y-94780000D02*
X90690000Y-97020000D01*
%TO.C,D8*%
X90690000Y-92280000D02*
X90690000Y-94520000D01*
X90690000Y-94520000D02*
X94930000Y-94520000D01*
X94930000Y-94520000D02*
X94930000Y-92280000D01*
X94930000Y-92280000D02*
X90690000Y-92280000D01*
X90040000Y-93400000D02*
X90690000Y-93400000D01*
X95580000Y-93400000D02*
X94930000Y-93400000D01*
X91410000Y-92280000D02*
X91410000Y-94520000D01*
X91530000Y-92280000D02*
X91530000Y-94520000D01*
X91290000Y-92280000D02*
X91290000Y-94520000D01*
%TO.C,D9*%
X91290000Y-89780000D02*
X91290000Y-92020000D01*
X91530000Y-89780000D02*
X91530000Y-92020000D01*
X91410000Y-89780000D02*
X91410000Y-92020000D01*
X95580000Y-90900000D02*
X94930000Y-90900000D01*
X90040000Y-90900000D02*
X90690000Y-90900000D01*
X94930000Y-89780000D02*
X90690000Y-89780000D01*
X94930000Y-92020000D02*
X94930000Y-89780000D01*
X90690000Y-92020000D02*
X94930000Y-92020000D01*
X90690000Y-89780000D02*
X90690000Y-92020000D01*
%TO.C,R13*%
X84680000Y-89430000D02*
X84680000Y-89760000D01*
X78140000Y-91840000D02*
X78140000Y-92170000D01*
X84680000Y-92170000D02*
X84680000Y-91840000D01*
X78140000Y-92170000D02*
X84680000Y-92170000D01*
X78140000Y-89760000D02*
X78140000Y-89430000D01*
X78140000Y-89430000D02*
X84680000Y-89430000D01*
%TO.C,R14*%
X89540000Y-97330000D02*
X96080000Y-97330000D01*
X89540000Y-97660000D02*
X89540000Y-97330000D01*
X89540000Y-100070000D02*
X96080000Y-100070000D01*
X96080000Y-100070000D02*
X96080000Y-99740000D01*
X89540000Y-99740000D02*
X89540000Y-100070000D01*
X96080000Y-97330000D02*
X96080000Y-97660000D01*
%TO.C,R15*%
X96080000Y-103430000D02*
X96080000Y-103760000D01*
X89540000Y-105840000D02*
X89540000Y-106170000D01*
X96080000Y-106170000D02*
X96080000Y-105840000D01*
X89540000Y-106170000D02*
X96080000Y-106170000D01*
X89540000Y-103760000D02*
X89540000Y-103430000D01*
X89540000Y-103430000D02*
X96080000Y-103430000D01*
%TO.C,R20*%
X88370000Y-151580000D02*
X88040000Y-151580000D01*
X85960000Y-145040000D02*
X85630000Y-145040000D01*
X85630000Y-151580000D02*
X85960000Y-151580000D01*
X85630000Y-145040000D02*
X85630000Y-151580000D01*
X88040000Y-145040000D02*
X88370000Y-145040000D01*
X88370000Y-145040000D02*
X88370000Y-151580000D01*
%TO.C,R22*%
X96080000Y-100330000D02*
X96080000Y-100660000D01*
X89540000Y-102740000D02*
X89540000Y-103070000D01*
X96080000Y-103070000D02*
X96080000Y-102740000D01*
X89540000Y-103070000D02*
X96080000Y-103070000D01*
X89540000Y-100660000D02*
X89540000Y-100330000D01*
X89540000Y-100330000D02*
X96080000Y-100330000D01*
%TO.C,R23*%
X85370000Y-151580000D02*
X85040000Y-151580000D01*
X82960000Y-145040000D02*
X82630000Y-145040000D01*
X82630000Y-151580000D02*
X82960000Y-151580000D01*
X82630000Y-145040000D02*
X82630000Y-151580000D01*
X85040000Y-145040000D02*
X85370000Y-145040000D01*
X85370000Y-145040000D02*
X85370000Y-151580000D01*
%TO.C,CUTOFF1*%
X79210000Y-65120000D02*
X78680000Y-65120000D01*
X75130000Y-56590000D02*
X75130000Y-53530000D01*
X75120000Y-65120000D02*
X75120000Y-60400000D01*
X84870000Y-56590000D02*
X84870000Y-53530000D01*
X84870000Y-53530000D02*
X75130000Y-53530000D01*
X76310000Y-65120000D02*
X75130000Y-65120000D01*
X81660000Y-65120000D02*
X80830000Y-65120000D01*
X84870000Y-65120000D02*
X83380000Y-65120000D01*
X84870000Y-65120000D02*
X84870000Y-60400000D01*
%TO.C,CV_AMT1*%
X98870000Y-118120000D02*
X98870000Y-113400000D01*
X98870000Y-118120000D02*
X97380000Y-118120000D01*
X95660000Y-118120000D02*
X94830000Y-118120000D01*
X90310000Y-118120000D02*
X89130000Y-118120000D01*
X98870000Y-106530000D02*
X89130000Y-106530000D01*
X98870000Y-109590000D02*
X98870000Y-106530000D01*
X89120000Y-118120000D02*
X89120000Y-113400000D01*
X89130000Y-109590000D02*
X89130000Y-106530000D01*
X93210000Y-118120000D02*
X92680000Y-118120000D01*
%TO.C,CV_AMT2*%
X93210000Y-135120000D02*
X92680000Y-135120000D01*
X89130000Y-126590000D02*
X89130000Y-123530000D01*
X89120000Y-135120000D02*
X89120000Y-130400000D01*
X98870000Y-126590000D02*
X98870000Y-123530000D01*
X98870000Y-123530000D02*
X89130000Y-123530000D01*
X90310000Y-135120000D02*
X89130000Y-135120000D01*
X95660000Y-135120000D02*
X94830000Y-135120000D01*
X98870000Y-135120000D02*
X97380000Y-135120000D01*
X98870000Y-135120000D02*
X98870000Y-130400000D01*
%TO.C,D12*%
X87710000Y-55205000D02*
X87710000Y-58295000D01*
X92770000Y-56750000D02*
G75*
G03*
X92770000Y-56750000I-2500000J0D01*
G01*
X93260000Y-56749538D02*
G75*
G02*
X87710000Y-58294830I-2990000J-462D01*
G01*
X93260000Y-56750462D02*
G75*
G03*
X87710000Y-55205170I-2990000J462D01*
G01*
%TO.C,D13*%
X99270000Y-56750000D02*
G75*
G03*
X99270000Y-56750000I-2500000J0D01*
G01*
X94210000Y-55205000D02*
X94210000Y-58295000D01*
X99760000Y-56750462D02*
G75*
G03*
X94210000Y-55205170I-2990000J462D01*
G01*
X99760000Y-56749538D02*
G75*
G02*
X94210000Y-58294830I-2990000J-462D01*
G01*
%TO.C,D14*%
X92790000Y-85045000D02*
X92790000Y-81955000D01*
X92730000Y-83500000D02*
G75*
G03*
X92730000Y-83500000I-2500000J0D01*
G01*
X87240000Y-83500462D02*
G75*
G02*
X92790000Y-81955170I2990000J462D01*
G01*
X87240000Y-83499538D02*
G75*
G03*
X92790000Y-85044830I2990000J-462D01*
G01*
%TO.C,D15*%
X99230000Y-83500000D02*
G75*
G03*
X99230000Y-83500000I-2500000J0D01*
G01*
X99290000Y-85045000D02*
X99290000Y-81955000D01*
X93740000Y-83499538D02*
G75*
G03*
X99290000Y-85044830I2990000J-462D01*
G01*
X93740000Y-83500462D02*
G75*
G02*
X99290000Y-81955170I2990000J462D01*
G01*
%TO.C,D16*%
X85460000Y-139764000D02*
X85460000Y-139920000D01*
X85460000Y-142080000D02*
X85460000Y-142236000D01*
X88692335Y-139921392D02*
G75*
G03*
X85460000Y-139764484I-1672335J-1078608D01*
G01*
X88692335Y-142078608D02*
G75*
G02*
X85460000Y-142235516I-1672335J1078608D01*
G01*
X88061130Y-139920163D02*
G75*
G03*
X85979039Y-139920000I-1041130J-1079837D01*
G01*
X88061130Y-142079837D02*
G75*
G02*
X85979039Y-142080000I-1041130J1079837D01*
G01*
%TO.C,J3*%
X76440000Y-140000000D02*
X76440000Y-140800000D01*
X82000000Y-142980000D02*
X82000000Y-153480000D01*
X82000000Y-142980000D02*
X77850000Y-142980000D01*
X77150000Y-142980000D02*
X73000000Y-142980000D01*
X79300000Y-147480000D02*
G75*
G03*
X79300000Y-147480000I-1800000J0D01*
G01*
X73000000Y-142980000D02*
X73000000Y-153480000D01*
X82000000Y-153480000D02*
X78000000Y-153480000D01*
X77000000Y-153480000D02*
X73000000Y-153480000D01*
X76440000Y-140000000D02*
X77300000Y-140000000D01*
%TO.C,J4*%
X76440000Y-110000000D02*
X76440000Y-110800000D01*
X82000000Y-112980000D02*
X82000000Y-123480000D01*
X82000000Y-112980000D02*
X77850000Y-112980000D01*
X77150000Y-112980000D02*
X73000000Y-112980000D01*
X79300000Y-117480000D02*
G75*
G03*
X79300000Y-117480000I-1800000J0D01*
G01*
X73000000Y-112980000D02*
X73000000Y-123480000D01*
X82000000Y-123480000D02*
X78000000Y-123480000D01*
X77000000Y-123480000D02*
X73000000Y-123480000D01*
X76440000Y-110000000D02*
X77300000Y-110000000D01*
%TO.C,J5*%
X95440000Y-140000000D02*
X96300000Y-140000000D01*
X96000000Y-153480000D02*
X92000000Y-153480000D01*
X101000000Y-153480000D02*
X97000000Y-153480000D01*
X92000000Y-142980000D02*
X92000000Y-153480000D01*
X98300000Y-147480000D02*
G75*
G03*
X98300000Y-147480000I-1800000J0D01*
G01*
X96150000Y-142980000D02*
X92000000Y-142980000D01*
X101000000Y-142980000D02*
X96850000Y-142980000D01*
X101000000Y-142980000D02*
X101000000Y-153480000D01*
X95440000Y-140000000D02*
X95440000Y-140800000D01*
%TO.C,J10*%
X76440000Y-125000000D02*
X77300000Y-125000000D01*
X77000000Y-138480000D02*
X73000000Y-138480000D01*
X82000000Y-138480000D02*
X78000000Y-138480000D01*
X73000000Y-127980000D02*
X73000000Y-138480000D01*
X79300000Y-132480000D02*
G75*
G03*
X79300000Y-132480000I-1800000J0D01*
G01*
X77150000Y-127980000D02*
X73000000Y-127980000D01*
X82000000Y-127980000D02*
X77850000Y-127980000D01*
X82000000Y-127980000D02*
X82000000Y-138480000D01*
X76440000Y-125000000D02*
X76440000Y-125800000D01*
%TO.C,RESO2*%
X98370000Y-78120000D02*
X98370000Y-73400000D01*
X98370000Y-78120000D02*
X96880000Y-78120000D01*
X95160000Y-78120000D02*
X94330000Y-78120000D01*
X89810000Y-78120000D02*
X88630000Y-78120000D01*
X98370000Y-66530000D02*
X88630000Y-66530000D01*
X98370000Y-69590000D02*
X98370000Y-66530000D01*
X88620000Y-78120000D02*
X88620000Y-73400000D01*
X88630000Y-69590000D02*
X88630000Y-66530000D01*
X92710000Y-78120000D02*
X92180000Y-78120000D01*
%TO.C,LP_BP_SWITCH1*%
D10*
X73880952Y-86952380D02*
X73404761Y-86952380D01*
X73404761Y-85952380D01*
X74214285Y-86952380D02*
X74214285Y-85952380D01*
X74595238Y-85952380D01*
X74690476Y-86000000D01*
X74738095Y-86047619D01*
X74785714Y-86142857D01*
X74785714Y-86285714D01*
X74738095Y-86380952D01*
X74690476Y-86428571D01*
X74595238Y-86476190D01*
X74214285Y-86476190D01*
X74976190Y-87047619D02*
X75738095Y-87047619D01*
X76309523Y-86428571D02*
X76452380Y-86476190D01*
X76500000Y-86523809D01*
X76547619Y-86619047D01*
X76547619Y-86761904D01*
X76500000Y-86857142D01*
X76452380Y-86904761D01*
X76357142Y-86952380D01*
X75976190Y-86952380D01*
X75976190Y-85952380D01*
X76309523Y-85952380D01*
X76404761Y-86000000D01*
X76452380Y-86047619D01*
X76500000Y-86142857D01*
X76500000Y-86238095D01*
X76452380Y-86333333D01*
X76404761Y-86380952D01*
X76309523Y-86428571D01*
X75976190Y-86428571D01*
X76976190Y-86952380D02*
X76976190Y-85952380D01*
X77357142Y-85952380D01*
X77452380Y-86000000D01*
X77500000Y-86047619D01*
X77547619Y-86142857D01*
X77547619Y-86285714D01*
X77500000Y-86380952D01*
X77452380Y-86428571D01*
X77357142Y-86476190D01*
X76976190Y-86476190D01*
X77738095Y-87047619D02*
X78500000Y-87047619D01*
X78690476Y-86904761D02*
X78833333Y-86952380D01*
X79071428Y-86952380D01*
X79166666Y-86904761D01*
X79214285Y-86857142D01*
X79261904Y-86761904D01*
X79261904Y-86666666D01*
X79214285Y-86571428D01*
X79166666Y-86523809D01*
X79071428Y-86476190D01*
X78880952Y-86428571D01*
X78785714Y-86380952D01*
X78738095Y-86333333D01*
X78690476Y-86238095D01*
X78690476Y-86142857D01*
X78738095Y-86047619D01*
X78785714Y-86000000D01*
X78880952Y-85952380D01*
X79119047Y-85952380D01*
X79261904Y-86000000D01*
X79595238Y-85952380D02*
X79833333Y-86952380D01*
X80023809Y-86238095D01*
X80214285Y-86952380D01*
X80452380Y-85952380D01*
X80833333Y-86952380D02*
X80833333Y-85952380D01*
X81166666Y-85952380D02*
X81738095Y-85952380D01*
X81452380Y-86952380D02*
X81452380Y-85952380D01*
X82642857Y-86857142D02*
X82595238Y-86904761D01*
X82452380Y-86952380D01*
X82357142Y-86952380D01*
X82214285Y-86904761D01*
X82119047Y-86809523D01*
X82071428Y-86714285D01*
X82023809Y-86523809D01*
X82023809Y-86380952D01*
X82071428Y-86190476D01*
X82119047Y-86095238D01*
X82214285Y-86000000D01*
X82357142Y-85952380D01*
X82452380Y-85952380D01*
X82595238Y-86000000D01*
X82642857Y-86047619D01*
X83071428Y-86952380D02*
X83071428Y-85952380D01*
X83071428Y-86428571D02*
X83642857Y-86428571D01*
X83642857Y-86952380D02*
X83642857Y-85952380D01*
X84642857Y-86952380D02*
X84071428Y-86952380D01*
X84357142Y-86952380D02*
X84357142Y-85952380D01*
X84261904Y-86095238D01*
X84166666Y-86190476D01*
X84071428Y-86238095D01*
X74619047Y-71904761D02*
X74761904Y-71952380D01*
X75000000Y-71952380D01*
X75095238Y-71904761D01*
X75142857Y-71857142D01*
X75190476Y-71761904D01*
X75190476Y-71666666D01*
X75142857Y-71571428D01*
X75095238Y-71523809D01*
X75000000Y-71476190D01*
X74809523Y-71428571D01*
X74714285Y-71380952D01*
X74666666Y-71333333D01*
X74619047Y-71238095D01*
X74619047Y-71142857D01*
X74666666Y-71047619D01*
X74714285Y-71000000D01*
X74809523Y-70952380D01*
X75047619Y-70952380D01*
X75190476Y-71000000D01*
X75523809Y-70952380D02*
X75761904Y-71952380D01*
X75952380Y-71238095D01*
X76142857Y-71952380D01*
X76380952Y-70952380D01*
X76523809Y-72047619D02*
X77285714Y-72047619D01*
X77523809Y-71952380D02*
X77523809Y-70952380D01*
X77761904Y-70952380D01*
X77904761Y-71000000D01*
X78000000Y-71095238D01*
X78047619Y-71190476D01*
X78095238Y-71380952D01*
X78095238Y-71523809D01*
X78047619Y-71714285D01*
X78000000Y-71809523D01*
X77904761Y-71904761D01*
X77761904Y-71952380D01*
X77523809Y-71952380D01*
X78523809Y-71952380D02*
X78523809Y-70952380D01*
X78904761Y-70952380D01*
X79000000Y-71000000D01*
X79047619Y-71047619D01*
X79095238Y-71142857D01*
X79095238Y-71285714D01*
X79047619Y-71380952D01*
X79000000Y-71428571D01*
X78904761Y-71476190D01*
X78523809Y-71476190D01*
X79523809Y-71952380D02*
X79523809Y-70952380D01*
X79761904Y-70952380D01*
X79904761Y-71000000D01*
X80000000Y-71095238D01*
X80047619Y-71190476D01*
X80095238Y-71380952D01*
X80095238Y-71523809D01*
X80047619Y-71714285D01*
X80000000Y-71809523D01*
X79904761Y-71904761D01*
X79761904Y-71952380D01*
X79523809Y-71952380D01*
X80380952Y-70952380D02*
X80952380Y-70952380D01*
X80666666Y-71952380D02*
X80666666Y-70952380D01*
X81047619Y-72047619D02*
X81809523Y-72047619D01*
X81952380Y-71952380D02*
X82476190Y-71285714D01*
X81952380Y-71285714D02*
X82476190Y-71952380D01*
X82809523Y-71047619D02*
X82857142Y-71000000D01*
X82952380Y-70952380D01*
X83190476Y-70952380D01*
X83285714Y-71000000D01*
X83333333Y-71047619D01*
X83380952Y-71142857D01*
X83380952Y-71238095D01*
X83333333Y-71380952D01*
X82761904Y-71952380D01*
X83380952Y-71952380D01*
%TO.C,POST_LPF1*%
X73452380Y-101333333D02*
X72452380Y-101333333D01*
X72452380Y-100952380D01*
X72500000Y-100857142D01*
X72547619Y-100809523D01*
X72642857Y-100761904D01*
X72785714Y-100761904D01*
X72880952Y-100809523D01*
X72928571Y-100857142D01*
X72976190Y-100952380D01*
X72976190Y-101333333D01*
X72452380Y-100142857D02*
X72452380Y-99952380D01*
X72500000Y-99857142D01*
X72595238Y-99761904D01*
X72785714Y-99714285D01*
X73119047Y-99714285D01*
X73309523Y-99761904D01*
X73404761Y-99857142D01*
X73452380Y-99952380D01*
X73452380Y-100142857D01*
X73404761Y-100238095D01*
X73309523Y-100333333D01*
X73119047Y-100380952D01*
X72785714Y-100380952D01*
X72595238Y-100333333D01*
X72500000Y-100238095D01*
X72452380Y-100142857D01*
X73404761Y-99333333D02*
X73452380Y-99190476D01*
X73452380Y-98952380D01*
X73404761Y-98857142D01*
X73357142Y-98809523D01*
X73261904Y-98761904D01*
X73166666Y-98761904D01*
X73071428Y-98809523D01*
X73023809Y-98857142D01*
X72976190Y-98952380D01*
X72928571Y-99142857D01*
X72880952Y-99238095D01*
X72833333Y-99285714D01*
X72738095Y-99333333D01*
X72642857Y-99333333D01*
X72547619Y-99285714D01*
X72500000Y-99238095D01*
X72452380Y-99142857D01*
X72452380Y-98904761D01*
X72500000Y-98761904D01*
X72452380Y-98476190D02*
X72452380Y-97904761D01*
X73452380Y-98190476D02*
X72452380Y-98190476D01*
X73547619Y-97809523D02*
X73547619Y-97047619D01*
X73452380Y-96333333D02*
X73452380Y-96809523D01*
X72452380Y-96809523D01*
X73452380Y-96000000D02*
X72452380Y-96000000D01*
X72452380Y-95619047D01*
X72500000Y-95523809D01*
X72547619Y-95476190D01*
X72642857Y-95428571D01*
X72785714Y-95428571D01*
X72880952Y-95476190D01*
X72928571Y-95523809D01*
X72976190Y-95619047D01*
X72976190Y-96000000D01*
X72928571Y-94666666D02*
X72928571Y-95000000D01*
X73452380Y-95000000D02*
X72452380Y-95000000D01*
X72452380Y-94523809D01*
X73452380Y-93619047D02*
X73452380Y-94190476D01*
X73452380Y-93904761D02*
X72452380Y-93904761D01*
X72595238Y-94000000D01*
X72690476Y-94095238D01*
X72738095Y-94190476D01*
X79404761Y-97952380D02*
X78833333Y-97952380D01*
X79119047Y-97952380D02*
X79119047Y-96952380D01*
X79023809Y-97095238D01*
X78928571Y-97190476D01*
X78833333Y-97238095D01*
X80023809Y-96952380D02*
X80119047Y-96952380D01*
X80214285Y-97000000D01*
X80261904Y-97047619D01*
X80309523Y-97142857D01*
X80357142Y-97333333D01*
X80357142Y-97571428D01*
X80309523Y-97761904D01*
X80261904Y-97857142D01*
X80214285Y-97904761D01*
X80119047Y-97952380D01*
X80023809Y-97952380D01*
X79928571Y-97904761D01*
X79880952Y-97857142D01*
X79833333Y-97761904D01*
X79785714Y-97571428D01*
X79785714Y-97333333D01*
X79833333Y-97142857D01*
X79880952Y-97047619D01*
X79928571Y-97000000D01*
X80023809Y-96952380D01*
X80785714Y-97952380D02*
X80785714Y-96952380D01*
X80880952Y-97571428D02*
X81166666Y-97952380D01*
X81166666Y-97285714D02*
X80785714Y-97666666D01*
%TO.C,C14*%
X89357142Y-152257142D02*
X89309523Y-152304761D01*
X89166666Y-152352380D01*
X89071428Y-152352380D01*
X88928571Y-152304761D01*
X88833333Y-152209523D01*
X88785714Y-152114285D01*
X88738095Y-151923809D01*
X88738095Y-151780952D01*
X88785714Y-151590476D01*
X88833333Y-151495238D01*
X88928571Y-151400000D01*
X89071428Y-151352380D01*
X89166666Y-151352380D01*
X89309523Y-151400000D01*
X89357142Y-151447619D01*
X90309523Y-152352380D02*
X89738095Y-152352380D01*
X90023809Y-152352380D02*
X90023809Y-151352380D01*
X89928571Y-151495238D01*
X89833333Y-151590476D01*
X89738095Y-151638095D01*
X91166666Y-151685714D02*
X91166666Y-152352380D01*
X90928571Y-151304761D02*
X90690476Y-152019047D01*
X91309523Y-152019047D01*
X90361904Y-148538095D02*
X90361904Y-148995238D01*
X90361904Y-148766666D02*
X89561904Y-148766666D01*
X89676190Y-148842857D01*
X89752380Y-148919047D01*
X89790476Y-148995238D01*
X89561904Y-148042857D02*
X89561904Y-147966666D01*
X89600000Y-147890476D01*
X89638095Y-147852380D01*
X89714285Y-147814285D01*
X89866666Y-147776190D01*
X90057142Y-147776190D01*
X90209523Y-147814285D01*
X90285714Y-147852380D01*
X90323809Y-147890476D01*
X90361904Y-147966666D01*
X90361904Y-148042857D01*
X90323809Y-148119047D01*
X90285714Y-148157142D01*
X90209523Y-148195238D01*
X90057142Y-148233333D01*
X89866666Y-148233333D01*
X89714285Y-148195238D01*
X89638095Y-148157142D01*
X89600000Y-148119047D01*
X89561904Y-148042857D01*
X89561904Y-147280952D02*
X89561904Y-147204761D01*
X89600000Y-147128571D01*
X89638095Y-147090476D01*
X89714285Y-147052380D01*
X89866666Y-147014285D01*
X90057142Y-147014285D01*
X90209523Y-147052380D01*
X90285714Y-147090476D01*
X90323809Y-147128571D01*
X90361904Y-147204761D01*
X90361904Y-147280952D01*
X90323809Y-147357142D01*
X90285714Y-147395238D01*
X90209523Y-147433333D01*
X90057142Y-147471428D01*
X89866666Y-147471428D01*
X89714285Y-147433333D01*
X89638095Y-147395238D01*
X89600000Y-147357142D01*
X89561904Y-147280952D01*
X89828571Y-146671428D02*
X90361904Y-146671428D01*
X89904761Y-146671428D02*
X89866666Y-146633333D01*
X89828571Y-146557142D01*
X89828571Y-146442857D01*
X89866666Y-146366666D01*
X89942857Y-146328571D01*
X90361904Y-146328571D01*
X89942857Y-145680952D02*
X89942857Y-145947619D01*
X90361904Y-145947619D02*
X89561904Y-145947619D01*
X89561904Y-145566666D01*
%TO.C,D7*%
X87852380Y-96638095D02*
X86852380Y-96638095D01*
X86852380Y-96400000D01*
X86900000Y-96257142D01*
X86995238Y-96161904D01*
X87090476Y-96114285D01*
X87280952Y-96066666D01*
X87423809Y-96066666D01*
X87614285Y-96114285D01*
X87709523Y-96161904D01*
X87804761Y-96257142D01*
X87852380Y-96400000D01*
X87852380Y-96638095D01*
X86852380Y-95733333D02*
X86852380Y-95066666D01*
X87852380Y-95495238D01*
X88738095Y-94552380D02*
X88738095Y-93552380D01*
X89309523Y-94552380D02*
X88880952Y-93980952D01*
X89309523Y-93552380D02*
X88738095Y-94123809D01*
%TO.C,D8*%
X87852380Y-94138095D02*
X86852380Y-94138095D01*
X86852380Y-93900000D01*
X86900000Y-93757142D01*
X86995238Y-93661904D01*
X87090476Y-93614285D01*
X87280952Y-93566666D01*
X87423809Y-93566666D01*
X87614285Y-93614285D01*
X87709523Y-93661904D01*
X87804761Y-93757142D01*
X87852380Y-93900000D01*
X87852380Y-94138095D01*
X87280952Y-92995238D02*
X87233333Y-93090476D01*
X87185714Y-93138095D01*
X87090476Y-93185714D01*
X87042857Y-93185714D01*
X86947619Y-93138095D01*
X86900000Y-93090476D01*
X86852380Y-92995238D01*
X86852380Y-92804761D01*
X86900000Y-92709523D01*
X86947619Y-92661904D01*
X87042857Y-92614285D01*
X87090476Y-92614285D01*
X87185714Y-92661904D01*
X87233333Y-92709523D01*
X87280952Y-92804761D01*
X87280952Y-92995238D01*
X87328571Y-93090476D01*
X87376190Y-93138095D01*
X87471428Y-93185714D01*
X87661904Y-93185714D01*
X87757142Y-93138095D01*
X87804761Y-93090476D01*
X87852380Y-92995238D01*
X87852380Y-92804761D01*
X87804761Y-92709523D01*
X87757142Y-92661904D01*
X87661904Y-92614285D01*
X87471428Y-92614285D01*
X87376190Y-92661904D01*
X87328571Y-92709523D01*
X87280952Y-92804761D01*
X88738095Y-92052380D02*
X88738095Y-91052380D01*
X89309523Y-92052380D02*
X88880952Y-91480952D01*
X89309523Y-91052380D02*
X88738095Y-91623809D01*
%TO.C,D9*%
X87852380Y-91638095D02*
X86852380Y-91638095D01*
X86852380Y-91400000D01*
X86900000Y-91257142D01*
X86995238Y-91161904D01*
X87090476Y-91114285D01*
X87280952Y-91066666D01*
X87423809Y-91066666D01*
X87614285Y-91114285D01*
X87709523Y-91161904D01*
X87804761Y-91257142D01*
X87852380Y-91400000D01*
X87852380Y-91638095D01*
X87852380Y-90590476D02*
X87852380Y-90400000D01*
X87804761Y-90304761D01*
X87757142Y-90257142D01*
X87614285Y-90161904D01*
X87423809Y-90114285D01*
X87042857Y-90114285D01*
X86947619Y-90161904D01*
X86900000Y-90209523D01*
X86852380Y-90304761D01*
X86852380Y-90495238D01*
X86900000Y-90590476D01*
X86947619Y-90638095D01*
X87042857Y-90685714D01*
X87280952Y-90685714D01*
X87376190Y-90638095D01*
X87423809Y-90590476D01*
X87471428Y-90495238D01*
X87471428Y-90304761D01*
X87423809Y-90209523D01*
X87376190Y-90161904D01*
X87280952Y-90114285D01*
X93552380Y-95642857D02*
X93552380Y-96214285D01*
X93552380Y-95928571D02*
X92552380Y-95928571D01*
X92695238Y-96023809D01*
X92790476Y-96119047D01*
X92838095Y-96214285D01*
X93552380Y-95214285D02*
X92552380Y-95214285D01*
X93552380Y-94642857D01*
X92552380Y-94642857D01*
X92885714Y-93738095D02*
X93552380Y-93738095D01*
X92504761Y-93976190D02*
X93219047Y-94214285D01*
X93219047Y-93595238D01*
X93552380Y-92690476D02*
X93552380Y-93261904D01*
X93552380Y-92976190D02*
X92552380Y-92976190D01*
X92695238Y-93071428D01*
X92790476Y-93166666D01*
X92838095Y-93261904D01*
X92885714Y-91833333D02*
X93552380Y-91833333D01*
X92504761Y-92071428D02*
X93219047Y-92309523D01*
X93219047Y-91690476D01*
X92980952Y-91166666D02*
X92933333Y-91261904D01*
X92885714Y-91309523D01*
X92790476Y-91357142D01*
X92742857Y-91357142D01*
X92647619Y-91309523D01*
X92600000Y-91261904D01*
X92552380Y-91166666D01*
X92552380Y-90976190D01*
X92600000Y-90880952D01*
X92647619Y-90833333D01*
X92742857Y-90785714D01*
X92790476Y-90785714D01*
X92885714Y-90833333D01*
X92933333Y-90880952D01*
X92980952Y-90976190D01*
X92980952Y-91166666D01*
X93028571Y-91261904D01*
X93076190Y-91309523D01*
X93171428Y-91357142D01*
X93361904Y-91357142D01*
X93457142Y-91309523D01*
X93504761Y-91261904D01*
X93552380Y-91166666D01*
X93552380Y-90976190D01*
X93504761Y-90880952D01*
X93457142Y-90833333D01*
X93361904Y-90785714D01*
X93171428Y-90785714D01*
X93076190Y-90833333D01*
X93028571Y-90880952D01*
X92980952Y-90976190D01*
X88738095Y-89552380D02*
X88738095Y-88552380D01*
X89309523Y-89552380D02*
X88880952Y-88980952D01*
X89309523Y-88552380D02*
X88738095Y-89123809D01*
%TO.C,R13*%
X80957142Y-88752380D02*
X80623809Y-88276190D01*
X80385714Y-88752380D02*
X80385714Y-87752380D01*
X80766666Y-87752380D01*
X80861904Y-87800000D01*
X80909523Y-87847619D01*
X80957142Y-87942857D01*
X80957142Y-88085714D01*
X80909523Y-88180952D01*
X80861904Y-88228571D01*
X80766666Y-88276190D01*
X80385714Y-88276190D01*
X81909523Y-88752380D02*
X81338095Y-88752380D01*
X81623809Y-88752380D02*
X81623809Y-87752380D01*
X81528571Y-87895238D01*
X81433333Y-87990476D01*
X81338095Y-88038095D01*
X82242857Y-87752380D02*
X82861904Y-87752380D01*
X82528571Y-88133333D01*
X82671428Y-88133333D01*
X82766666Y-88180952D01*
X82814285Y-88228571D01*
X82861904Y-88323809D01*
X82861904Y-88561904D01*
X82814285Y-88657142D01*
X82766666Y-88704761D01*
X82671428Y-88752380D01*
X82385714Y-88752380D01*
X82290476Y-88704761D01*
X82242857Y-88657142D01*
X80528571Y-91252380D02*
X79957142Y-91252380D01*
X80242857Y-91252380D02*
X80242857Y-90252380D01*
X80147619Y-90395238D01*
X80052380Y-90490476D01*
X79957142Y-90538095D01*
X81147619Y-90252380D02*
X81242857Y-90252380D01*
X81338095Y-90300000D01*
X81385714Y-90347619D01*
X81433333Y-90442857D01*
X81480952Y-90633333D01*
X81480952Y-90871428D01*
X81433333Y-91061904D01*
X81385714Y-91157142D01*
X81338095Y-91204761D01*
X81242857Y-91252380D01*
X81147619Y-91252380D01*
X81052380Y-91204761D01*
X81004761Y-91157142D01*
X80957142Y-91061904D01*
X80909523Y-90871428D01*
X80909523Y-90633333D01*
X80957142Y-90442857D01*
X81004761Y-90347619D01*
X81052380Y-90300000D01*
X81147619Y-90252380D01*
X82100000Y-90252380D02*
X82195238Y-90252380D01*
X82290476Y-90300000D01*
X82338095Y-90347619D01*
X82385714Y-90442857D01*
X82433333Y-90633333D01*
X82433333Y-90871428D01*
X82385714Y-91061904D01*
X82338095Y-91157142D01*
X82290476Y-91204761D01*
X82195238Y-91252380D01*
X82100000Y-91252380D01*
X82004761Y-91204761D01*
X81957142Y-91157142D01*
X81909523Y-91061904D01*
X81861904Y-90871428D01*
X81861904Y-90633333D01*
X81909523Y-90442857D01*
X81957142Y-90347619D01*
X82004761Y-90300000D01*
X82100000Y-90252380D01*
X82861904Y-91252380D02*
X82861904Y-90252380D01*
X82957142Y-90871428D02*
X83242857Y-91252380D01*
X83242857Y-90585714D02*
X82861904Y-90966666D01*
%TO.C,R14*%
X87852380Y-99342857D02*
X87376190Y-99676190D01*
X87852380Y-99914285D02*
X86852380Y-99914285D01*
X86852380Y-99533333D01*
X86900000Y-99438095D01*
X86947619Y-99390476D01*
X87042857Y-99342857D01*
X87185714Y-99342857D01*
X87280952Y-99390476D01*
X87328571Y-99438095D01*
X87376190Y-99533333D01*
X87376190Y-99914285D01*
X87852380Y-98390476D02*
X87852380Y-98961904D01*
X87852380Y-98676190D02*
X86852380Y-98676190D01*
X86995238Y-98771428D01*
X87090476Y-98866666D01*
X87138095Y-98961904D01*
X87185714Y-97533333D02*
X87852380Y-97533333D01*
X86804761Y-97771428D02*
X87519047Y-98009523D01*
X87519047Y-97390476D01*
X91928571Y-99152380D02*
X91357142Y-99152380D01*
X91642857Y-99152380D02*
X91642857Y-98152380D01*
X91547619Y-98295238D01*
X91452380Y-98390476D01*
X91357142Y-98438095D01*
X92547619Y-98152380D02*
X92642857Y-98152380D01*
X92738095Y-98200000D01*
X92785714Y-98247619D01*
X92833333Y-98342857D01*
X92880952Y-98533333D01*
X92880952Y-98771428D01*
X92833333Y-98961904D01*
X92785714Y-99057142D01*
X92738095Y-99104761D01*
X92642857Y-99152380D01*
X92547619Y-99152380D01*
X92452380Y-99104761D01*
X92404761Y-99057142D01*
X92357142Y-98961904D01*
X92309523Y-98771428D01*
X92309523Y-98533333D01*
X92357142Y-98342857D01*
X92404761Y-98247619D01*
X92452380Y-98200000D01*
X92547619Y-98152380D01*
X93500000Y-98152380D02*
X93595238Y-98152380D01*
X93690476Y-98200000D01*
X93738095Y-98247619D01*
X93785714Y-98342857D01*
X93833333Y-98533333D01*
X93833333Y-98771428D01*
X93785714Y-98961904D01*
X93738095Y-99057142D01*
X93690476Y-99104761D01*
X93595238Y-99152380D01*
X93500000Y-99152380D01*
X93404761Y-99104761D01*
X93357142Y-99057142D01*
X93309523Y-98961904D01*
X93261904Y-98771428D01*
X93261904Y-98533333D01*
X93309523Y-98342857D01*
X93357142Y-98247619D01*
X93404761Y-98200000D01*
X93500000Y-98152380D01*
X94261904Y-99152380D02*
X94261904Y-98152380D01*
X94357142Y-98771428D02*
X94642857Y-99152380D01*
X94642857Y-98485714D02*
X94261904Y-98866666D01*
%TO.C,R15*%
X87852380Y-105442857D02*
X87376190Y-105776190D01*
X87852380Y-106014285D02*
X86852380Y-106014285D01*
X86852380Y-105633333D01*
X86900000Y-105538095D01*
X86947619Y-105490476D01*
X87042857Y-105442857D01*
X87185714Y-105442857D01*
X87280952Y-105490476D01*
X87328571Y-105538095D01*
X87376190Y-105633333D01*
X87376190Y-106014285D01*
X87852380Y-104490476D02*
X87852380Y-105061904D01*
X87852380Y-104776190D02*
X86852380Y-104776190D01*
X86995238Y-104871428D01*
X87090476Y-104966666D01*
X87138095Y-105061904D01*
X86852380Y-103585714D02*
X86852380Y-104061904D01*
X87328571Y-104109523D01*
X87280952Y-104061904D01*
X87233333Y-103966666D01*
X87233333Y-103728571D01*
X87280952Y-103633333D01*
X87328571Y-103585714D01*
X87423809Y-103538095D01*
X87661904Y-103538095D01*
X87757142Y-103585714D01*
X87804761Y-103633333D01*
X87852380Y-103728571D01*
X87852380Y-103966666D01*
X87804761Y-104061904D01*
X87757142Y-104109523D01*
X92404761Y-105252380D02*
X91833333Y-105252380D01*
X92119047Y-105252380D02*
X92119047Y-104252380D01*
X92023809Y-104395238D01*
X91928571Y-104490476D01*
X91833333Y-104538095D01*
X93023809Y-104252380D02*
X93119047Y-104252380D01*
X93214285Y-104300000D01*
X93261904Y-104347619D01*
X93309523Y-104442857D01*
X93357142Y-104633333D01*
X93357142Y-104871428D01*
X93309523Y-105061904D01*
X93261904Y-105157142D01*
X93214285Y-105204761D01*
X93119047Y-105252380D01*
X93023809Y-105252380D01*
X92928571Y-105204761D01*
X92880952Y-105157142D01*
X92833333Y-105061904D01*
X92785714Y-104871428D01*
X92785714Y-104633333D01*
X92833333Y-104442857D01*
X92880952Y-104347619D01*
X92928571Y-104300000D01*
X93023809Y-104252380D01*
X93785714Y-105252380D02*
X93785714Y-104252380D01*
X93880952Y-104871428D02*
X94166666Y-105252380D01*
X94166666Y-104585714D02*
X93785714Y-104966666D01*
%TO.C,R20*%
X86357142Y-154452380D02*
X86023809Y-153976190D01*
X85785714Y-154452380D02*
X85785714Y-153452380D01*
X86166666Y-153452380D01*
X86261904Y-153500000D01*
X86309523Y-153547619D01*
X86357142Y-153642857D01*
X86357142Y-153785714D01*
X86309523Y-153880952D01*
X86261904Y-153928571D01*
X86166666Y-153976190D01*
X85785714Y-153976190D01*
X86738095Y-153547619D02*
X86785714Y-153500000D01*
X86880952Y-153452380D01*
X87119047Y-153452380D01*
X87214285Y-153500000D01*
X87261904Y-153547619D01*
X87309523Y-153642857D01*
X87309523Y-153738095D01*
X87261904Y-153880952D01*
X86690476Y-154452380D01*
X87309523Y-154452380D01*
X87928571Y-153452380D02*
X88023809Y-153452380D01*
X88119047Y-153500000D01*
X88166666Y-153547619D01*
X88214285Y-153642857D01*
X88261904Y-153833333D01*
X88261904Y-154071428D01*
X88214285Y-154261904D01*
X88166666Y-154357142D01*
X88119047Y-154404761D01*
X88023809Y-154452380D01*
X87928571Y-154452380D01*
X87833333Y-154404761D01*
X87785714Y-154357142D01*
X87738095Y-154261904D01*
X87690476Y-154071428D01*
X87690476Y-153833333D01*
X87738095Y-153642857D01*
X87785714Y-153547619D01*
X87833333Y-153500000D01*
X87928571Y-153452380D01*
X86547619Y-150142857D02*
X86500000Y-150095238D01*
X86452380Y-150000000D01*
X86452380Y-149761904D01*
X86500000Y-149666666D01*
X86547619Y-149619047D01*
X86642857Y-149571428D01*
X86738095Y-149571428D01*
X86880952Y-149619047D01*
X87452380Y-150190476D01*
X87452380Y-149571428D01*
X86452380Y-148952380D02*
X86452380Y-148857142D01*
X86500000Y-148761904D01*
X86547619Y-148714285D01*
X86642857Y-148666666D01*
X86833333Y-148619047D01*
X87071428Y-148619047D01*
X87261904Y-148666666D01*
X87357142Y-148714285D01*
X87404761Y-148761904D01*
X87452380Y-148857142D01*
X87452380Y-148952380D01*
X87404761Y-149047619D01*
X87357142Y-149095238D01*
X87261904Y-149142857D01*
X87071428Y-149190476D01*
X86833333Y-149190476D01*
X86642857Y-149142857D01*
X86547619Y-149095238D01*
X86500000Y-149047619D01*
X86452380Y-148952380D01*
X86452380Y-148000000D02*
X86452380Y-147904761D01*
X86500000Y-147809523D01*
X86547619Y-147761904D01*
X86642857Y-147714285D01*
X86833333Y-147666666D01*
X87071428Y-147666666D01*
X87261904Y-147714285D01*
X87357142Y-147761904D01*
X87404761Y-147809523D01*
X87452380Y-147904761D01*
X87452380Y-148000000D01*
X87404761Y-148095238D01*
X87357142Y-148142857D01*
X87261904Y-148190476D01*
X87071428Y-148238095D01*
X86833333Y-148238095D01*
X86642857Y-148190476D01*
X86547619Y-148142857D01*
X86500000Y-148095238D01*
X86452380Y-148000000D01*
X87452380Y-147238095D02*
X86452380Y-147238095D01*
X87071428Y-147142857D02*
X87452380Y-146857142D01*
X86785714Y-146857142D02*
X87166666Y-147238095D01*
%TO.C,R22*%
X87852380Y-102342857D02*
X87376190Y-102676190D01*
X87852380Y-102914285D02*
X86852380Y-102914285D01*
X86852380Y-102533333D01*
X86900000Y-102438095D01*
X86947619Y-102390476D01*
X87042857Y-102342857D01*
X87185714Y-102342857D01*
X87280952Y-102390476D01*
X87328571Y-102438095D01*
X87376190Y-102533333D01*
X87376190Y-102914285D01*
X86947619Y-101961904D02*
X86900000Y-101914285D01*
X86852380Y-101819047D01*
X86852380Y-101580952D01*
X86900000Y-101485714D01*
X86947619Y-101438095D01*
X87042857Y-101390476D01*
X87138095Y-101390476D01*
X87280952Y-101438095D01*
X87852380Y-102009523D01*
X87852380Y-101390476D01*
X86947619Y-101009523D02*
X86900000Y-100961904D01*
X86852380Y-100866666D01*
X86852380Y-100628571D01*
X86900000Y-100533333D01*
X86947619Y-100485714D01*
X87042857Y-100438095D01*
X87138095Y-100438095D01*
X87280952Y-100485714D01*
X87852380Y-101057142D01*
X87852380Y-100438095D01*
X91928571Y-102152380D02*
X91357142Y-102152380D01*
X91642857Y-102152380D02*
X91642857Y-101152380D01*
X91547619Y-101295238D01*
X91452380Y-101390476D01*
X91357142Y-101438095D01*
X92547619Y-101152380D02*
X92642857Y-101152380D01*
X92738095Y-101200000D01*
X92785714Y-101247619D01*
X92833333Y-101342857D01*
X92880952Y-101533333D01*
X92880952Y-101771428D01*
X92833333Y-101961904D01*
X92785714Y-102057142D01*
X92738095Y-102104761D01*
X92642857Y-102152380D01*
X92547619Y-102152380D01*
X92452380Y-102104761D01*
X92404761Y-102057142D01*
X92357142Y-101961904D01*
X92309523Y-101771428D01*
X92309523Y-101533333D01*
X92357142Y-101342857D01*
X92404761Y-101247619D01*
X92452380Y-101200000D01*
X92547619Y-101152380D01*
X93500000Y-101152380D02*
X93595238Y-101152380D01*
X93690476Y-101200000D01*
X93738095Y-101247619D01*
X93785714Y-101342857D01*
X93833333Y-101533333D01*
X93833333Y-101771428D01*
X93785714Y-101961904D01*
X93738095Y-102057142D01*
X93690476Y-102104761D01*
X93595238Y-102152380D01*
X93500000Y-102152380D01*
X93404761Y-102104761D01*
X93357142Y-102057142D01*
X93309523Y-101961904D01*
X93261904Y-101771428D01*
X93261904Y-101533333D01*
X93309523Y-101342857D01*
X93357142Y-101247619D01*
X93404761Y-101200000D01*
X93500000Y-101152380D01*
X94261904Y-102152380D02*
X94261904Y-101152380D01*
X94357142Y-101771428D02*
X94642857Y-102152380D01*
X94642857Y-101485714D02*
X94261904Y-101866666D01*
%TO.C,R23*%
X83357142Y-154452380D02*
X83023809Y-153976190D01*
X82785714Y-154452380D02*
X82785714Y-153452380D01*
X83166666Y-153452380D01*
X83261904Y-153500000D01*
X83309523Y-153547619D01*
X83357142Y-153642857D01*
X83357142Y-153785714D01*
X83309523Y-153880952D01*
X83261904Y-153928571D01*
X83166666Y-153976190D01*
X82785714Y-153976190D01*
X83738095Y-153547619D02*
X83785714Y-153500000D01*
X83880952Y-153452380D01*
X84119047Y-153452380D01*
X84214285Y-153500000D01*
X84261904Y-153547619D01*
X84309523Y-153642857D01*
X84309523Y-153738095D01*
X84261904Y-153880952D01*
X83690476Y-154452380D01*
X84309523Y-154452380D01*
X84642857Y-153452380D02*
X85261904Y-153452380D01*
X84928571Y-153833333D01*
X85071428Y-153833333D01*
X85166666Y-153880952D01*
X85214285Y-153928571D01*
X85261904Y-154023809D01*
X85261904Y-154261904D01*
X85214285Y-154357142D01*
X85166666Y-154404761D01*
X85071428Y-154452380D01*
X84785714Y-154452380D01*
X84690476Y-154404761D01*
X84642857Y-154357142D01*
X84452380Y-149095238D02*
X84452380Y-149666666D01*
X84452380Y-149380952D02*
X83452380Y-149380952D01*
X83595238Y-149476190D01*
X83690476Y-149571428D01*
X83738095Y-149666666D01*
X83452380Y-148476190D02*
X83452380Y-148380952D01*
X83500000Y-148285714D01*
X83547619Y-148238095D01*
X83642857Y-148190476D01*
X83833333Y-148142857D01*
X84071428Y-148142857D01*
X84261904Y-148190476D01*
X84357142Y-148238095D01*
X84404761Y-148285714D01*
X84452380Y-148380952D01*
X84452380Y-148476190D01*
X84404761Y-148571428D01*
X84357142Y-148619047D01*
X84261904Y-148666666D01*
X84071428Y-148714285D01*
X83833333Y-148714285D01*
X83642857Y-148666666D01*
X83547619Y-148619047D01*
X83500000Y-148571428D01*
X83452380Y-148476190D01*
X84452380Y-147714285D02*
X83452380Y-147714285D01*
X84071428Y-147619047D02*
X84452380Y-147333333D01*
X83785714Y-147333333D02*
X84166666Y-147714285D01*
%TO.C,CUTOFF1*%
X73357142Y-60952380D02*
X73404761Y-61000000D01*
X73452380Y-61142857D01*
X73452380Y-61238095D01*
X73404761Y-61380952D01*
X73309523Y-61476190D01*
X73214285Y-61523809D01*
X73023809Y-61571428D01*
X72880952Y-61571428D01*
X72690476Y-61523809D01*
X72595238Y-61476190D01*
X72500000Y-61380952D01*
X72452380Y-61238095D01*
X72452380Y-61142857D01*
X72500000Y-61000000D01*
X72547619Y-60952380D01*
X72452380Y-60523809D02*
X73261904Y-60523809D01*
X73357142Y-60476190D01*
X73404761Y-60428571D01*
X73452380Y-60333333D01*
X73452380Y-60142857D01*
X73404761Y-60047619D01*
X73357142Y-60000000D01*
X73261904Y-59952380D01*
X72452380Y-59952380D01*
X72452380Y-59619047D02*
X72452380Y-59047619D01*
X73452380Y-59333333D02*
X72452380Y-59333333D01*
X72452380Y-58523809D02*
X72452380Y-58333333D01*
X72500000Y-58238095D01*
X72595238Y-58142857D01*
X72785714Y-58095238D01*
X73119047Y-58095238D01*
X73309523Y-58142857D01*
X73404761Y-58238095D01*
X73452380Y-58333333D01*
X73452380Y-58523809D01*
X73404761Y-58619047D01*
X73309523Y-58714285D01*
X73119047Y-58761904D01*
X72785714Y-58761904D01*
X72595238Y-58714285D01*
X72500000Y-58619047D01*
X72452380Y-58523809D01*
X72928571Y-57333333D02*
X72928571Y-57666666D01*
X73452380Y-57666666D02*
X72452380Y-57666666D01*
X72452380Y-57190476D01*
X72928571Y-56476190D02*
X72928571Y-56809523D01*
X73452380Y-56809523D02*
X72452380Y-56809523D01*
X72452380Y-56333333D01*
X73452380Y-55428571D02*
X73452380Y-56000000D01*
X73452380Y-55714285D02*
X72452380Y-55714285D01*
X72595238Y-55809523D01*
X72690476Y-55904761D01*
X72738095Y-56000000D01*
X78928571Y-58952380D02*
X78357142Y-58952380D01*
X78642857Y-58952380D02*
X78642857Y-57952380D01*
X78547619Y-58095238D01*
X78452380Y-58190476D01*
X78357142Y-58238095D01*
X79547619Y-57952380D02*
X79642857Y-57952380D01*
X79738095Y-58000000D01*
X79785714Y-58047619D01*
X79833333Y-58142857D01*
X79880952Y-58333333D01*
X79880952Y-58571428D01*
X79833333Y-58761904D01*
X79785714Y-58857142D01*
X79738095Y-58904761D01*
X79642857Y-58952380D01*
X79547619Y-58952380D01*
X79452380Y-58904761D01*
X79404761Y-58857142D01*
X79357142Y-58761904D01*
X79309523Y-58571428D01*
X79309523Y-58333333D01*
X79357142Y-58142857D01*
X79404761Y-58047619D01*
X79452380Y-58000000D01*
X79547619Y-57952380D01*
X80500000Y-57952380D02*
X80595238Y-57952380D01*
X80690476Y-58000000D01*
X80738095Y-58047619D01*
X80785714Y-58142857D01*
X80833333Y-58333333D01*
X80833333Y-58571428D01*
X80785714Y-58761904D01*
X80738095Y-58857142D01*
X80690476Y-58904761D01*
X80595238Y-58952380D01*
X80500000Y-58952380D01*
X80404761Y-58904761D01*
X80357142Y-58857142D01*
X80309523Y-58761904D01*
X80261904Y-58571428D01*
X80261904Y-58333333D01*
X80309523Y-58142857D01*
X80357142Y-58047619D01*
X80404761Y-58000000D01*
X80500000Y-57952380D01*
X81261904Y-58952380D02*
X81261904Y-57952380D01*
X81357142Y-58571428D02*
X81642857Y-58952380D01*
X81642857Y-58285714D02*
X81261904Y-58666666D01*
%TO.C,CV_AMT1*%
X87357142Y-115857142D02*
X87404761Y-115904761D01*
X87452380Y-116047619D01*
X87452380Y-116142857D01*
X87404761Y-116285714D01*
X87309523Y-116380952D01*
X87214285Y-116428571D01*
X87023809Y-116476190D01*
X86880952Y-116476190D01*
X86690476Y-116428571D01*
X86595238Y-116380952D01*
X86500000Y-116285714D01*
X86452380Y-116142857D01*
X86452380Y-116047619D01*
X86500000Y-115904761D01*
X86547619Y-115857142D01*
X86452380Y-115571428D02*
X87452380Y-115238095D01*
X86452380Y-114904761D01*
X87547619Y-114809523D02*
X87547619Y-114047619D01*
X87166666Y-113857142D02*
X87166666Y-113380952D01*
X87452380Y-113952380D02*
X86452380Y-113619047D01*
X87452380Y-113285714D01*
X87452380Y-112952380D02*
X86452380Y-112952380D01*
X87166666Y-112619047D01*
X86452380Y-112285714D01*
X87452380Y-112285714D01*
X86452380Y-111952380D02*
X86452380Y-111380952D01*
X87452380Y-111666666D02*
X86452380Y-111666666D01*
X87452380Y-110523809D02*
X87452380Y-111095238D01*
X87452380Y-110809523D02*
X86452380Y-110809523D01*
X86595238Y-110904761D01*
X86690476Y-111000000D01*
X86738095Y-111095238D01*
X93404761Y-111952380D02*
X92833333Y-111952380D01*
X93119047Y-111952380D02*
X93119047Y-110952380D01*
X93023809Y-111095238D01*
X92928571Y-111190476D01*
X92833333Y-111238095D01*
X94023809Y-110952380D02*
X94119047Y-110952380D01*
X94214285Y-111000000D01*
X94261904Y-111047619D01*
X94309523Y-111142857D01*
X94357142Y-111333333D01*
X94357142Y-111571428D01*
X94309523Y-111761904D01*
X94261904Y-111857142D01*
X94214285Y-111904761D01*
X94119047Y-111952380D01*
X94023809Y-111952380D01*
X93928571Y-111904761D01*
X93880952Y-111857142D01*
X93833333Y-111761904D01*
X93785714Y-111571428D01*
X93785714Y-111333333D01*
X93833333Y-111142857D01*
X93880952Y-111047619D01*
X93928571Y-111000000D01*
X94023809Y-110952380D01*
X94785714Y-111952380D02*
X94785714Y-110952380D01*
X94880952Y-111571428D02*
X95166666Y-111952380D01*
X95166666Y-111285714D02*
X94785714Y-111666666D01*
%TO.C,CV_AMT2*%
X87357142Y-130857142D02*
X87404761Y-130904761D01*
X87452380Y-131047619D01*
X87452380Y-131142857D01*
X87404761Y-131285714D01*
X87309523Y-131380952D01*
X87214285Y-131428571D01*
X87023809Y-131476190D01*
X86880952Y-131476190D01*
X86690476Y-131428571D01*
X86595238Y-131380952D01*
X86500000Y-131285714D01*
X86452380Y-131142857D01*
X86452380Y-131047619D01*
X86500000Y-130904761D01*
X86547619Y-130857142D01*
X86452380Y-130571428D02*
X87452380Y-130238095D01*
X86452380Y-129904761D01*
X87547619Y-129809523D02*
X87547619Y-129047619D01*
X87166666Y-128857142D02*
X87166666Y-128380952D01*
X87452380Y-128952380D02*
X86452380Y-128619047D01*
X87452380Y-128285714D01*
X87452380Y-127952380D02*
X86452380Y-127952380D01*
X87166666Y-127619047D01*
X86452380Y-127285714D01*
X87452380Y-127285714D01*
X86452380Y-126952380D02*
X86452380Y-126380952D01*
X87452380Y-126666666D02*
X86452380Y-126666666D01*
X86547619Y-126095238D02*
X86500000Y-126047619D01*
X86452380Y-125952380D01*
X86452380Y-125714285D01*
X86500000Y-125619047D01*
X86547619Y-125571428D01*
X86642857Y-125523809D01*
X86738095Y-125523809D01*
X86880952Y-125571428D01*
X87452380Y-126142857D01*
X87452380Y-125523809D01*
X93404761Y-128952380D02*
X92833333Y-128952380D01*
X93119047Y-128952380D02*
X93119047Y-127952380D01*
X93023809Y-128095238D01*
X92928571Y-128190476D01*
X92833333Y-128238095D01*
X94023809Y-127952380D02*
X94119047Y-127952380D01*
X94214285Y-128000000D01*
X94261904Y-128047619D01*
X94309523Y-128142857D01*
X94357142Y-128333333D01*
X94357142Y-128571428D01*
X94309523Y-128761904D01*
X94261904Y-128857142D01*
X94214285Y-128904761D01*
X94119047Y-128952380D01*
X94023809Y-128952380D01*
X93928571Y-128904761D01*
X93880952Y-128857142D01*
X93833333Y-128761904D01*
X93785714Y-128571428D01*
X93785714Y-128333333D01*
X93833333Y-128142857D01*
X93880952Y-128047619D01*
X93928571Y-128000000D01*
X94023809Y-127952380D01*
X94785714Y-128952380D02*
X94785714Y-127952380D01*
X94880952Y-128571428D02*
X95166666Y-128952380D01*
X95166666Y-128285714D02*
X94785714Y-128666666D01*
%TO.C,D12*%
X89055714Y-61202380D02*
X89055714Y-60202380D01*
X89293809Y-60202380D01*
X89436666Y-60250000D01*
X89531904Y-60345238D01*
X89579523Y-60440476D01*
X89627142Y-60630952D01*
X89627142Y-60773809D01*
X89579523Y-60964285D01*
X89531904Y-61059523D01*
X89436666Y-61154761D01*
X89293809Y-61202380D01*
X89055714Y-61202380D01*
X90579523Y-61202380D02*
X90008095Y-61202380D01*
X90293809Y-61202380D02*
X90293809Y-60202380D01*
X90198571Y-60345238D01*
X90103333Y-60440476D01*
X90008095Y-60488095D01*
X90960476Y-60297619D02*
X91008095Y-60250000D01*
X91103333Y-60202380D01*
X91341428Y-60202380D01*
X91436666Y-60250000D01*
X91484285Y-60297619D01*
X91531904Y-60392857D01*
X91531904Y-60488095D01*
X91484285Y-60630952D01*
X90912857Y-61202380D01*
X91531904Y-61202380D01*
%TO.C,D13*%
X95555714Y-61202380D02*
X95555714Y-60202380D01*
X95793809Y-60202380D01*
X95936666Y-60250000D01*
X96031904Y-60345238D01*
X96079523Y-60440476D01*
X96127142Y-60630952D01*
X96127142Y-60773809D01*
X96079523Y-60964285D01*
X96031904Y-61059523D01*
X95936666Y-61154761D01*
X95793809Y-61202380D01*
X95555714Y-61202380D01*
X97079523Y-61202380D02*
X96508095Y-61202380D01*
X96793809Y-61202380D02*
X96793809Y-60202380D01*
X96698571Y-60345238D01*
X96603333Y-60440476D01*
X96508095Y-60488095D01*
X97412857Y-60202380D02*
X98031904Y-60202380D01*
X97698571Y-60583333D01*
X97841428Y-60583333D01*
X97936666Y-60630952D01*
X97984285Y-60678571D01*
X98031904Y-60773809D01*
X98031904Y-61011904D01*
X97984285Y-61107142D01*
X97936666Y-61154761D01*
X97841428Y-61202380D01*
X97555714Y-61202380D01*
X97460476Y-61154761D01*
X97412857Y-61107142D01*
%TO.C,D14*%
X89015714Y-87912380D02*
X89015714Y-86912380D01*
X89253809Y-86912380D01*
X89396666Y-86960000D01*
X89491904Y-87055238D01*
X89539523Y-87150476D01*
X89587142Y-87340952D01*
X89587142Y-87483809D01*
X89539523Y-87674285D01*
X89491904Y-87769523D01*
X89396666Y-87864761D01*
X89253809Y-87912380D01*
X89015714Y-87912380D01*
X90539523Y-87912380D02*
X89968095Y-87912380D01*
X90253809Y-87912380D02*
X90253809Y-86912380D01*
X90158571Y-87055238D01*
X90063333Y-87150476D01*
X89968095Y-87198095D01*
X91396666Y-87245714D02*
X91396666Y-87912380D01*
X91158571Y-86864761D02*
X90920476Y-87579047D01*
X91539523Y-87579047D01*
%TO.C,D15*%
X95515714Y-87912380D02*
X95515714Y-86912380D01*
X95753809Y-86912380D01*
X95896666Y-86960000D01*
X95991904Y-87055238D01*
X96039523Y-87150476D01*
X96087142Y-87340952D01*
X96087142Y-87483809D01*
X96039523Y-87674285D01*
X95991904Y-87769523D01*
X95896666Y-87864761D01*
X95753809Y-87912380D01*
X95515714Y-87912380D01*
X97039523Y-87912380D02*
X96468095Y-87912380D01*
X96753809Y-87912380D02*
X96753809Y-86912380D01*
X96658571Y-87055238D01*
X96563333Y-87150476D01*
X96468095Y-87198095D01*
X97944285Y-86912380D02*
X97468095Y-86912380D01*
X97420476Y-87388571D01*
X97468095Y-87340952D01*
X97563333Y-87293333D01*
X97801428Y-87293333D01*
X97896666Y-87340952D01*
X97944285Y-87388571D01*
X97991904Y-87483809D01*
X97991904Y-87721904D01*
X97944285Y-87817142D01*
X97896666Y-87864761D01*
X97801428Y-87912380D01*
X97563333Y-87912380D01*
X97468095Y-87864761D01*
X97420476Y-87817142D01*
%TO.C,D16*%
X85805714Y-138492380D02*
X85805714Y-137492380D01*
X86043809Y-137492380D01*
X86186666Y-137540000D01*
X86281904Y-137635238D01*
X86329523Y-137730476D01*
X86377142Y-137920952D01*
X86377142Y-138063809D01*
X86329523Y-138254285D01*
X86281904Y-138349523D01*
X86186666Y-138444761D01*
X86043809Y-138492380D01*
X85805714Y-138492380D01*
X87329523Y-138492380D02*
X86758095Y-138492380D01*
X87043809Y-138492380D02*
X87043809Y-137492380D01*
X86948571Y-137635238D01*
X86853333Y-137730476D01*
X86758095Y-137778095D01*
X88186666Y-137492380D02*
X87996190Y-137492380D01*
X87900952Y-137540000D01*
X87853333Y-137587619D01*
X87758095Y-137730476D01*
X87710476Y-137920952D01*
X87710476Y-138301904D01*
X87758095Y-138397142D01*
X87805714Y-138444761D01*
X87900952Y-138492380D01*
X88091428Y-138492380D01*
X88186666Y-138444761D01*
X88234285Y-138397142D01*
X88281904Y-138301904D01*
X88281904Y-138063809D01*
X88234285Y-137968571D01*
X88186666Y-137920952D01*
X88091428Y-137873333D01*
X87900952Y-137873333D01*
X87805714Y-137920952D01*
X87758095Y-137968571D01*
X87710476Y-138063809D01*
%TO.C,J3*%
X80166666Y-141452380D02*
X80166666Y-142166666D01*
X80119047Y-142309523D01*
X80023809Y-142404761D01*
X79880952Y-142452380D01*
X79785714Y-142452380D01*
X80547619Y-141452380D02*
X81166666Y-141452380D01*
X80833333Y-141833333D01*
X80976190Y-141833333D01*
X81071428Y-141880952D01*
X81119047Y-141928571D01*
X81166666Y-142023809D01*
X81166666Y-142261904D01*
X81119047Y-142357142D01*
X81071428Y-142404761D01*
X80976190Y-142452380D01*
X80690476Y-142452380D01*
X80595238Y-142404761D01*
X80547619Y-142357142D01*
X74976190Y-154666666D02*
X75452380Y-154666666D01*
X74880952Y-154952380D02*
X75214285Y-153952380D01*
X75547619Y-154952380D01*
X76309523Y-154285714D02*
X76309523Y-154952380D01*
X75880952Y-154285714D02*
X75880952Y-154809523D01*
X75928571Y-154904761D01*
X76023809Y-154952380D01*
X76166666Y-154952380D01*
X76261904Y-154904761D01*
X76309523Y-154857142D01*
X77214285Y-154952380D02*
X77214285Y-153952380D01*
X77214285Y-154904761D02*
X77119047Y-154952380D01*
X76928571Y-154952380D01*
X76833333Y-154904761D01*
X76785714Y-154857142D01*
X76738095Y-154761904D01*
X76738095Y-154476190D01*
X76785714Y-154380952D01*
X76833333Y-154333333D01*
X76928571Y-154285714D01*
X77119047Y-154285714D01*
X77214285Y-154333333D01*
X77690476Y-154952380D02*
X77690476Y-154285714D01*
X77690476Y-153952380D02*
X77642857Y-154000000D01*
X77690476Y-154047619D01*
X77738095Y-154000000D01*
X77690476Y-153952380D01*
X77690476Y-154047619D01*
X78309523Y-154952380D02*
X78214285Y-154904761D01*
X78166666Y-154857142D01*
X78119047Y-154761904D01*
X78119047Y-154476190D01*
X78166666Y-154380952D01*
X78214285Y-154333333D01*
X78309523Y-154285714D01*
X78452380Y-154285714D01*
X78547619Y-154333333D01*
X78595238Y-154380952D01*
X78642857Y-154476190D01*
X78642857Y-154761904D01*
X78595238Y-154857142D01*
X78547619Y-154904761D01*
X78452380Y-154952380D01*
X78309523Y-154952380D01*
X79071428Y-154952380D02*
X79071428Y-153952380D01*
X79547619Y-154285714D02*
X79547619Y-154952380D01*
X79547619Y-154380952D02*
X79595238Y-154333333D01*
X79690476Y-154285714D01*
X79833333Y-154285714D01*
X79928571Y-154333333D01*
X79976190Y-154428571D01*
X79976190Y-154952380D01*
%TO.C,J4*%
X80666666Y-111452380D02*
X80666666Y-112166666D01*
X80619047Y-112309523D01*
X80523809Y-112404761D01*
X80380952Y-112452380D01*
X80285714Y-112452380D01*
X81571428Y-111785714D02*
X81571428Y-112452380D01*
X81333333Y-111404761D02*
X81095238Y-112119047D01*
X81714285Y-112119047D01*
X73904761Y-112357142D02*
X73857142Y-112404761D01*
X73714285Y-112452380D01*
X73619047Y-112452380D01*
X73476190Y-112404761D01*
X73380952Y-112309523D01*
X73333333Y-112214285D01*
X73285714Y-112023809D01*
X73285714Y-111880952D01*
X73333333Y-111690476D01*
X73380952Y-111595238D01*
X73476190Y-111500000D01*
X73619047Y-111452380D01*
X73714285Y-111452380D01*
X73857142Y-111500000D01*
X73904761Y-111547619D01*
X74190476Y-111452380D02*
X74523809Y-112452380D01*
X74857142Y-111452380D01*
X75714285Y-112452380D02*
X75142857Y-112452380D01*
X75428571Y-112452380D02*
X75428571Y-111452380D01*
X75333333Y-111595238D01*
X75238095Y-111690476D01*
X75142857Y-111738095D01*
%TO.C,J5*%
X96166666Y-137952380D02*
X96166666Y-138666666D01*
X96119047Y-138809523D01*
X96023809Y-138904761D01*
X95880952Y-138952380D01*
X95785714Y-138952380D01*
X97119047Y-137952380D02*
X96642857Y-137952380D01*
X96595238Y-138428571D01*
X96642857Y-138380952D01*
X96738095Y-138333333D01*
X96976190Y-138333333D01*
X97071428Y-138380952D01*
X97119047Y-138428571D01*
X97166666Y-138523809D01*
X97166666Y-138761904D01*
X97119047Y-138857142D01*
X97071428Y-138904761D01*
X96976190Y-138952380D01*
X96738095Y-138952380D01*
X96642857Y-138904761D01*
X96595238Y-138857142D01*
X93404761Y-154666666D02*
X93880952Y-154666666D01*
X93309523Y-154952380D02*
X93642857Y-153952380D01*
X93976190Y-154952380D01*
X94738095Y-154285714D02*
X94738095Y-154952380D01*
X94309523Y-154285714D02*
X94309523Y-154809523D01*
X94357142Y-154904761D01*
X94452380Y-154952380D01*
X94595238Y-154952380D01*
X94690476Y-154904761D01*
X94738095Y-154857142D01*
X95642857Y-154952380D02*
X95642857Y-153952380D01*
X95642857Y-154904761D02*
X95547619Y-154952380D01*
X95357142Y-154952380D01*
X95261904Y-154904761D01*
X95214285Y-154857142D01*
X95166666Y-154761904D01*
X95166666Y-154476190D01*
X95214285Y-154380952D01*
X95261904Y-154333333D01*
X95357142Y-154285714D01*
X95547619Y-154285714D01*
X95642857Y-154333333D01*
X96119047Y-154952380D02*
X96119047Y-154285714D01*
X96119047Y-153952380D02*
X96071428Y-154000000D01*
X96119047Y-154047619D01*
X96166666Y-154000000D01*
X96119047Y-153952380D01*
X96119047Y-154047619D01*
X96738095Y-154952380D02*
X96642857Y-154904761D01*
X96595238Y-154857142D01*
X96547619Y-154761904D01*
X96547619Y-154476190D01*
X96595238Y-154380952D01*
X96642857Y-154333333D01*
X96738095Y-154285714D01*
X96880952Y-154285714D01*
X96976190Y-154333333D01*
X97023809Y-154380952D01*
X97071428Y-154476190D01*
X97071428Y-154761904D01*
X97023809Y-154857142D01*
X96976190Y-154904761D01*
X96880952Y-154952380D01*
X96738095Y-154952380D01*
X97690476Y-153952380D02*
X97880952Y-153952380D01*
X97976190Y-154000000D01*
X98071428Y-154095238D01*
X98119047Y-154285714D01*
X98119047Y-154619047D01*
X98071428Y-154809523D01*
X97976190Y-154904761D01*
X97880952Y-154952380D01*
X97690476Y-154952380D01*
X97595238Y-154904761D01*
X97500000Y-154809523D01*
X97452380Y-154619047D01*
X97452380Y-154285714D01*
X97500000Y-154095238D01*
X97595238Y-154000000D01*
X97690476Y-153952380D01*
X98976190Y-154285714D02*
X98976190Y-154952380D01*
X98547619Y-154285714D02*
X98547619Y-154809523D01*
X98595238Y-154904761D01*
X98690476Y-154952380D01*
X98833333Y-154952380D01*
X98928571Y-154904761D01*
X98976190Y-154857142D01*
X99309523Y-154285714D02*
X99690476Y-154285714D01*
X99452380Y-153952380D02*
X99452380Y-154809523D01*
X99500000Y-154904761D01*
X99595238Y-154952380D01*
X99690476Y-154952380D01*
%TO.C,J10*%
X80190476Y-126452380D02*
X80190476Y-127166666D01*
X80142857Y-127309523D01*
X80047619Y-127404761D01*
X79904761Y-127452380D01*
X79809523Y-127452380D01*
X81190476Y-127452380D02*
X80619047Y-127452380D01*
X80904761Y-127452380D02*
X80904761Y-126452380D01*
X80809523Y-126595238D01*
X80714285Y-126690476D01*
X80619047Y-126738095D01*
X81809523Y-126452380D02*
X81904761Y-126452380D01*
X82000000Y-126500000D01*
X82047619Y-126547619D01*
X82095238Y-126642857D01*
X82142857Y-126833333D01*
X82142857Y-127071428D01*
X82095238Y-127261904D01*
X82047619Y-127357142D01*
X82000000Y-127404761D01*
X81904761Y-127452380D01*
X81809523Y-127452380D01*
X81714285Y-127404761D01*
X81666666Y-127357142D01*
X81619047Y-127261904D01*
X81571428Y-127071428D01*
X81571428Y-126833333D01*
X81619047Y-126642857D01*
X81666666Y-126547619D01*
X81714285Y-126500000D01*
X81809523Y-126452380D01*
X73904761Y-127357142D02*
X73857142Y-127404761D01*
X73714285Y-127452380D01*
X73619047Y-127452380D01*
X73476190Y-127404761D01*
X73380952Y-127309523D01*
X73333333Y-127214285D01*
X73285714Y-127023809D01*
X73285714Y-126880952D01*
X73333333Y-126690476D01*
X73380952Y-126595238D01*
X73476190Y-126500000D01*
X73619047Y-126452380D01*
X73714285Y-126452380D01*
X73857142Y-126500000D01*
X73904761Y-126547619D01*
X74190476Y-126452380D02*
X74523809Y-127452380D01*
X74857142Y-126452380D01*
X75142857Y-126547619D02*
X75190476Y-126500000D01*
X75285714Y-126452380D01*
X75523809Y-126452380D01*
X75619047Y-126500000D01*
X75666666Y-126547619D01*
X75714285Y-126642857D01*
X75714285Y-126738095D01*
X75666666Y-126880952D01*
X75095238Y-127452380D01*
X75714285Y-127452380D01*
%TO.C,RESO2*%
X101452380Y-73119047D02*
X100976190Y-73452380D01*
X101452380Y-73690476D02*
X100452380Y-73690476D01*
X100452380Y-73309523D01*
X100500000Y-73214285D01*
X100547619Y-73166666D01*
X100642857Y-73119047D01*
X100785714Y-73119047D01*
X100880952Y-73166666D01*
X100928571Y-73214285D01*
X100976190Y-73309523D01*
X100976190Y-73690476D01*
X100928571Y-72690476D02*
X100928571Y-72357142D01*
X101452380Y-72214285D02*
X101452380Y-72690476D01*
X100452380Y-72690476D01*
X100452380Y-72214285D01*
X101404761Y-71833333D02*
X101452380Y-71690476D01*
X101452380Y-71452380D01*
X101404761Y-71357142D01*
X101357142Y-71309523D01*
X101261904Y-71261904D01*
X101166666Y-71261904D01*
X101071428Y-71309523D01*
X101023809Y-71357142D01*
X100976190Y-71452380D01*
X100928571Y-71642857D01*
X100880952Y-71738095D01*
X100833333Y-71785714D01*
X100738095Y-71833333D01*
X100642857Y-71833333D01*
X100547619Y-71785714D01*
X100500000Y-71738095D01*
X100452380Y-71642857D01*
X100452380Y-71404761D01*
X100500000Y-71261904D01*
X100452380Y-70642857D02*
X100452380Y-70452380D01*
X100500000Y-70357142D01*
X100595238Y-70261904D01*
X100785714Y-70214285D01*
X101119047Y-70214285D01*
X101309523Y-70261904D01*
X101404761Y-70357142D01*
X101452380Y-70452380D01*
X101452380Y-70642857D01*
X101404761Y-70738095D01*
X101309523Y-70833333D01*
X101119047Y-70880952D01*
X100785714Y-70880952D01*
X100595238Y-70833333D01*
X100500000Y-70738095D01*
X100452380Y-70642857D01*
X100547619Y-69833333D02*
X100500000Y-69785714D01*
X100452380Y-69690476D01*
X100452380Y-69452380D01*
X100500000Y-69357142D01*
X100547619Y-69309523D01*
X100642857Y-69261904D01*
X100738095Y-69261904D01*
X100880952Y-69309523D01*
X101452380Y-69880952D01*
X101452380Y-69261904D01*
X92428571Y-71952380D02*
X91857142Y-71952380D01*
X92142857Y-71952380D02*
X92142857Y-70952380D01*
X92047619Y-71095238D01*
X91952380Y-71190476D01*
X91857142Y-71238095D01*
X93047619Y-70952380D02*
X93142857Y-70952380D01*
X93238095Y-71000000D01*
X93285714Y-71047619D01*
X93333333Y-71142857D01*
X93380952Y-71333333D01*
X93380952Y-71571428D01*
X93333333Y-71761904D01*
X93285714Y-71857142D01*
X93238095Y-71904761D01*
X93142857Y-71952380D01*
X93047619Y-71952380D01*
X92952380Y-71904761D01*
X92904761Y-71857142D01*
X92857142Y-71761904D01*
X92809523Y-71571428D01*
X92809523Y-71333333D01*
X92857142Y-71142857D01*
X92904761Y-71047619D01*
X92952380Y-71000000D01*
X93047619Y-70952380D01*
X94000000Y-70952380D02*
X94095238Y-70952380D01*
X94190476Y-71000000D01*
X94238095Y-71047619D01*
X94285714Y-71142857D01*
X94333333Y-71333333D01*
X94333333Y-71571428D01*
X94285714Y-71761904D01*
X94238095Y-71857142D01*
X94190476Y-71904761D01*
X94095238Y-71952380D01*
X94000000Y-71952380D01*
X93904761Y-71904761D01*
X93857142Y-71857142D01*
X93809523Y-71761904D01*
X93761904Y-71571428D01*
X93761904Y-71333333D01*
X93809523Y-71142857D01*
X93857142Y-71047619D01*
X93904761Y-71000000D01*
X94000000Y-70952380D01*
X94761904Y-71952380D02*
X94761904Y-70952380D01*
X94857142Y-71571428D02*
X95142857Y-71952380D01*
X95142857Y-71285714D02*
X94761904Y-71666666D01*
%TD*%
M02*
